<?xml version="1.0" standalone="no"?>
<!DOCTYPE svg PUBLIC "-//W3C//DTD SVG 1.1//EN" "http://www.w3.org/Graphics/SVG/1.1/DTD/svg11.dtd" >
<svg>
<metadata>
Created by FontForge 20090622 at Sun Jun  9 07:39:00 2019
 By deploy user
</metadata>
<defs>
<font id="Aescudos" horiz-adv-x="325" >
  <font-face 
    font-family="Aescudos"
    font-weight="400"
    font-stretch="normal"
    units-per-em="1000"
    panose-1="0 0 0 0 0 0 0 0 0 0"
    ascent="800"
    descent="-200"
    x-height="426"
    cap-height="755"
    bbox="-166.235 -488.182 780.889 1063.79"
    underline-thickness="50"
    underline-position="-50"
    unicode-range="U+0020-U+FB00"
  />
<missing-glyph horiz-adv-x="313" 
 />
    <glyph glyph-name="e_e" unicode="ee" horiz-adv-x="706" 
d="M687 201q0 -3 0.5 -5.5t-0.5 -4.5q-7 -21 -16.5 -40.5t-26.5 -36.5q-27 -26 -56 -48.5t-64 -35.5q-26 -10 -52.5 -12t-53.5 10q-17 8 -27 20.5t-18 27.5q-7 14 -11 14.5t-15 -9.5l-42 -36.5t-44 -35.5q-28 -22 -59 -38t-68 -18q-39 -3 -74 16.5t-52 56.5
q-13 29 -13.5 58.5t4.5 58.5q20 103 89 180q17 19 36 36t42 28q20 9 41 9.5t41 -15.5q21 -17 25 -38.5t-2 -45.5q-8 -29 -24 -52.5t-35 -45.5q-23 -26 -48.5 -48t-56.5 -39q-9 -5 -17 -12t-12 -15q-6 -14 -2 -27t14 -24q12 -14 28 -19.5t36 0.5q54 15 98 50q25 18 48.5 37.5
l46.5 39.5q19 16 25 44q6 30 15 59t27 55q9 14 19 27l21 26q16 17 39 13q5 -1 10.5 0.5t10.5 2.5q11 2 20.5 5t19.5 2q11 -1 20 -7.5t14.5 -16t7 -21t-2.5 -21.5q-7 -20 -19 -36.5t-27 -30.5l-56 -52.5l-57 -52.5q-9 -8 -6 -22t16 -23q16 -11 33 -10t32 7q48 20 92.5 45
t80.5 65q0 -1 5 1zM79 141q2 -1 2.5 -1t2.5 -1q19 8 32.5 22.5l27.5 28.5q48 48 75 109q5 13 2 27q-1 19 -20 11q-4 -2 -10 -8q-28 -24 -49.5 -52t-35.5 -63q-7 -18 -13.5 -36.5t-13.5 -36.5zM435 204q2 -1 3 -2t3 -2l49.5 49.5l48.5 50.5q10 10 13 25q1 4 -1.5 9.5
t-6.5 7.5q-11 5 -27 -0.5t-22 -16.5q-22 -33 -38 -65q-7 -14 -12 -28z" />
    <glyph glyph-name="f_f" unicode="ff" horiz-adv-x="521" 
d="M114 238l21.5 6l21.5 6l55.5 19.5l55.5 18.5q8 2 11.5 6.5t6.5 12.5q11 31 23.5 61.5t26.5 60.5q11 23 23.5 46l25.5 46q13 21 32 41q15 18 39 12q13 -4 17 -12.5t5 -19.5q1 -21 -2.5 -41.5t-9.5 -40.5q-14 -42 -34.5 -79.5t-46.5 -75.5q13 -2 22.5 1.5l19.5 7.5l49 20.5
l49 21.5q1 0 2 1q8 2 15.5 2.5t11.5 -7.5q2 -5 0 -12.5t-4 -13.5q-1 -5 -9 -9q-40 -21 -80 -40t-86 -30l6 -26l6 -27q4 -23 8.5 -45t6.5 -45q8 -106 -13 -206q-5 -23 -12.5 -46t-18.5 -43q-14 -25 -36 -28.5t-42 22.5q-18 23 -23.5 50t-10.5 55q-6 36 -6 74q0 31 0.5 62
t4.5 61q3 32 9.5 64t12.5 65q-35 -11 -69 -23l-69 -24q4 -9 7.5 -18.5t8.5 -18.5q16 -31 22 -64t9 -67q3 -33 3.5 -66.5t-1.5 -67.5q-2 -26 -8.5 -51t-23.5 -46q-8 -10 -18 -17.5t-24 -9.5q-12 -2 -22.5 -5.5t-22.5 4.5q-16 11 -28 24t-16 31q-8 32 -13.5 64.5t-7.5 65.5
q-2 48 3.5 95.5t17.5 94.5q17 66 29.5 132t38.5 129q12 30 28 58t42 50q6 6 14 11q14 8 27 4.5t21 -17.5t9.5 -29.5t-2.5 -31.5q-8 -38 -25 -71t-39 -64q-11 -17 -22.5 -32.5l-23.5 -32.5q2 -2 2 -3zM71 167q-7 -29 -12 -63.5t-7 -70t-1.5 -70.5t5.5 -65q4 -29 17 -61
q2 -5 8 -10t12 -6q4 -1 9 5t7 12q5 12 9 25t6 26q7 51 4 100.5t-17 97.5q-6 20 -14.5 40.5t-25.5 39.5zM337 238q-23 -104 -27.5 -206.5t10.5 -209.5q21 27 33.5 76t15 108t-5.5 120t-26 112zM110 299q12 12 25.5 31.5t26 42t22 44t13.5 36.5q2 7 1.5 14.5t0.5 16.5
q-13 -9 -26.5 -28.5t-25.5 -44.5t-21.5 -54.5t-15.5 -57.5zM447 536q-10 -9 -24.5 -37t-27.5 -60.5t-22 -62t-8 -41.5q30 48 53 96t29 105z" />
    <glyph glyph-name="l_l" unicode="ll" horiz-adv-x="404" 
d="M234 83q-11 -16 -19 -29t-17 -25q-22 -32 -45 -56q-9 -10 -22.5 -15t-27.5 -4.5t-27.5 6t-22.5 16.5q-23 27 -38.5 58t-17.5 69q-11 48 -10.5 95.5t8.5 95.5q10 79 35 159q9 32 22.5 61.5l26.5 60.5q3 6 7.5 11.5t9.5 10.5q17 19 37.5 16.5t28.5 -26.5q7 -20 11 -42.5
t3 -44.5q-3 -67 -16.5 -131.5t-42.5 -125.5q-9 -20 -20 -39.5t-19 -39.5q-4 -9 -4 -19.5t1 -20.5q3 -27 5.5 -54.5t13.5 -53.5q16 -39 46 -13q21 18 35.5 41l29.5 46q14 22 19 44.5t5 49.5q0 69 9.5 137t26.5 135q6 23 14.5 44.5t23.5 40.5q14 18 25 18t29 -14
q22 -16 28 -36t6 -43q-2 -75 -30 -144l-23.5 -64t-27.5 -61q-11 -22 -12 -42t0 -43q2 -59 9.5 -116t17.5 -114q2 -11 5.5 -20t5.5 -20q2 -6 2.5 -12.5t1.5 -12.5q1 -10 -1.5 -17.5t-11.5 -12.5q-6 -3 -18 4t-16 16l-16 42t-12 44q-8 41 -14 82t-13 83q-1 5 -1.5 11t-2.5 14z
M71 253q3 0 5 -1q4 6 5 9l24.5 70t23.5 70q11 34 16.5 68.5t0.5 70.5q-1 8 -7 16.5t-8 8.5q-7 -20 -13 -35t-11 -35q-10 -38 -18 -80q-3 -20 -5.5 -41t-4.5 -41l-4 -40zM302 272q2 0 3 -0.5t2 -0.5q2 2 4 7q11 34 23 66.5t20 67.5q10 43 6.5 66t-11.5 27
q-15 -30 -22.5 -58.5t-11 -57t-6 -57.5t-7.5 -60z" />
    <glyph glyph-name="d_d" unicode="dd" horiz-adv-x="660" 
d="M224 97l25.5 32.5t23.5 32.5q9 14 15.5 29.5t13.5 30.5q16 36 40 64.5t60 46.5q23 11 48 -1q20 -11 5 -26q-6 -7 -13.5 -12l-15.5 -10q-32 -20 -51.5 -49t-29.5 -65v-13q10 8 18 13.5t15 11.5l84 91q9 10 12.5 21.5t5.5 25.5q3 29 9 56.5l12 55.5q4 20 9 40l10 40
q8 25 15 49.5t22 46.5q19 29 51 41q19 7 34.5 -5.5t13.5 -34.5q-3 -24 -7.5 -48t-12.5 -47q-8 -26 -18 -50.5t-21 -48.5q-19 -47 -19 -98q0 -18 -3 -36t-3 -35q-1 -19 0.5 -37.5t2.5 -37.5q1 -27 0.5 -53.5t0.5 -53.5q0 -26 0.5 -51.5t0.5 -51.5q0 -8 -1 -17t-4 -17
q-6 -17 -19.5 -19.5t-25.5 11.5l-11.5 16t-8.5 17q-13 45 -20.5 89.5t-7.5 91.5q0 21 -1 42t-3 46l-14 -17t-12 -13q-18 -16 -36.5 -30.5t-35.5 -30.5q-16 -14 -32 -15t-34 9l-7 3l-71 -97q-11 -14 -19 -16.5t-22 3.5q-5 2 -10.5 7t-7.5 10q-5 13 -8.5 26t-3.5 26
q-1 35 0 68.5t1 68.5q0 5 -0.5 9t-2.5 9q-8 -11 -15.5 -22.5t-15.5 -22.5l-24 -33.5t-26 -31.5q-15 -17 -28 -19t-33 8q-14 6 -19.5 19.5t-0.5 27.5q14 37 33.5 69.5t52.5 55.5q11 8 30 10q5 1 10.5 -1.5t7.5 -6.5t-0.5 -9.5t-5.5 -9.5l-47 -51q-17 -18 -28.5 -39t-21.5 -47
q6 3 10 4.5t6 3.5l16.5 18t15.5 20l27 40l25 40q7 11 12 22.5t12 22.5q15 24 18 50t8 52q6 33 14.5 65l16.5 64q2 8 4.5 16.5t6.5 16.5q8 15 17 29.5t20 28.5q5 5 15 8.5t18 1.5q10 -2 14.5 -10t6.5 -19q2 -24 -5 -46t-15 -43q-13 -33 -27 -65t-27 -65q-10 -22 -11 -44
l-4 -109.5l-4 -109.5v-30z" />
    <glyph glyph-name="r_r" unicode="rr" horiz-adv-x="653" 
d="M461 346l46 12q5 1 9 2.5t9 2.5q35 3 50 -13.5t14 -49.5q0 -12 -3 -24.5t-7 -23.5q-14 -42 -22.5 -83t-11.5 -85q-1 -14 3.5 -19.5t18.5 -3.5q12 2 24 4.5t24 6.5q15 6 30 13.5l31 15.5q4 2 8.5 2.5t9.5 2.5q2 -12 -3 -19.5t-12 -13.5l-39.5 -30.5l-39.5 -29.5
q-5 -4 -9.5 -6.5t-9.5 -4.5q-15 -9 -30 -11t-28.5 3t-24.5 16t-16 27q-5 18 -6 35.5t0 36.5q2 39 13 75t19 73q2 8 5 15.5l7 17.5q-15 -2 -29 -5t-27.5 -3t-25.5 5t-23 19l-7 -10.5t-5 -9.5l-74 -166q-26 -57 -59 -113q-9 -14 -23 -22.5t-31 -6.5q-19 2 -30 14t-18 29
q-15 42 -15 84t7 84l10 52l10 52q2 10 6 20t8 24q-26 -17 -52 -27t-55 -8q-2 -7 -4 -17l-4 -60.5l-4 -60.5l-4 -100t-3 -100q0 -26 3 -52.5t5 -53.5q0 -2 1 -5t0 -6q-2 -4 -4 -9t-4 -5q-5 0 -10.5 2t-7.5 5q-4 8 -7 15.5t-3 15.5q-2 30 -3.5 60t-0.5 59l2 103t3 102l4 42
l4 42q2 15 0 29.5t-9 29.5q-5 14 -4.5 31t4.5 32q5 20 13.5 38.5l16.5 37.5q3 6 8.5 11t10.5 8q11 6 20 0.5t10 -17.5q0 -7 -1.5 -13t-3.5 -13l-16 -67q-2 -5 -1.5 -9t0.5 -10q28 6 51.5 16.5t46.5 24.5q5 3 10 6.5t10 5.5q9 5 18 6t17 -5q8 -5 10.5 -17t0.5 -23
q-2 -8 -2.5 -17t-2.5 -17q-7 -32 -15 -64t-12 -65q-5 -37 -9.5 -74t0.5 -75q1 -4 1 -7.5t2 -6.5q1 -4 7 -16l17 25.5t15 24.5l123 235q6 13 11.5 27t7.5 28q15 76 58 146q5 8 13 9.5t16 -0.5q8 -3 8 -10.5t-2 -14.5q-3 -9 -6.5 -18t-7.5 -18q-10 -27 -18 -54.5t-7 -57.5
q0 -2 0.5 -5.5t1.5 -9.5z" />
    <glyph glyph-name="c_c" unicode="cc" horiz-adv-x="474" 
d="M252 143l-25 -24t-25 -23q-21 -18 -44 -32t-52 -12q-41 3 -66.5 22t-36.5 66q-14 56 -8.5 110t25.5 107q8 20 19.5 37t33.5 26q32 14 48 -17q10 -18 14 -37t4.5 -38t-1.5 -38.5t-5 -38.5q-1 -5 -5.5 -8.5t-7.5 -7.5q-2 0 -6 2l-4 27q-2 21 -2.5 42t-1.5 43l-2 10.5
t-3 11.5h-7l-8 -23.5t-7 -24.5q-9 -43 -15 -89q-7 -45 5 -93q4 -17 18.5 -23.5t29.5 1.5q31 17 56 39t48 48l10 11.5t10 12.5q5 9 9.5 18.5l9.5 19.5q11 20 20 41t19 41q8 16 30 18q3 1 6 0.5t5 -0.5q25 5 39.5 -3.5t19.5 -33.5q2 -15 1 -30.5t-3 -31.5q-1 -6 -5 -12t-9 -11
q-19 -19 -26 7q-2 8 -3 15.5t-1 15.5q-1 9 -1 18.5v18.5q-1 0 -2 0.5t-3 0.5q-2 -5 -4.5 -9.5t-4.5 -9.5q-5 -11 -8 -21.5t-8 -21.5q-20 -52 -9 -102q2 -8 5.5 -14.5l7.5 -14.5q25 8 41.5 23l33.5 30l33 31q15 13 28 3q16 -13 5 -31l-18 -23.5t-19 -22.5l-23 -24t-26 -22
q-30 -23 -59 -21t-51 38q-5 8 -9.5 16.5t-9.5 16.5z" />
    <glyph glyph-name="o_o" unicode="oo" horiz-adv-x="395" 
d="M243 336q-25 -2 -50 -3.5t-51 -3.5q4 -18 8.5 -35.5t7.5 -34.5q2 -14 3.5 -29t-0.5 -29q-4 -38 -11.5 -74t-35.5 -65q-11 -14 -25.5 -21t-31.5 -4q-17 4 -28 15t-18 27q-9 23 -10 45.5t1 45.5q5 51 16 100.5t28 97.5q5 15 10.5 29t16.5 25q6 7 13.5 12.5t18.5 1.5
q8 -3 13 -13t4 -22q0 -3 -0.5 -6t-1.5 -8l17.5 -2t16.5 -1q30 0 59.5 1l58.5 2l21 2q14 3 21.5 -4.5t3.5 -21.5l-4 -12q-21 -41 -32.5 -84t-16.5 -89q-2 -15 0.5 -29.5t13.5 -29.5l9 11t7 10q16 29 17 58.5t-6 60.5q-1 7 -3 13.5t-1 13.5q0 5 3 12t6 8q14 2 25 -8q4 -3 6 -9
t4 -11q26 -96 -29 -175q-8 -11 -19 -18t-23 -8t-24.5 4.5t-21.5 20.5q-32 49 -20 106q7 32 16 63.5zM52 84q14 13 24 39.5t15.5 56t5 58.5t-8.5 49q-15 -38 -25.5 -76.5t-18.5 -78.5q-5 -24 8 -48z" />
    <glyph glyph-name="i_i" unicode="ii" horiz-adv-x="415" 
d="M109 90l23 18q56 48 98 107q6 8 12 15t11 15q11 19 17 41q5 18 12.5 34t22.5 29q15 12 31 1q20 -13 13 -31q-17 -50 -19.5 -100.5t-4.5 -101.5q0 -29 0.5 -58t0.5 -58q0 -14 -6 -22.5t-17 -14.5q-43 7 -42 52q1 30 0 59.5t-1 59.5v42q-10 -14 -18.5 -24.5t-16.5 -21.5
q-18 -24 -38 -46t-46 -38q-11 -7 -23.5 -11.5t-24.5 -3.5q-26 0 -45.5 24t-24.5 53q-6 47 -3 93t5 92q1 13 3.5 25t6.5 24q4 14 13.5 23t23.5 14q8 3 18.5 -5t12.5 -19q2 -9 2.5 -18t0.5 -18q-1 -38 -2.5 -75.5t-2.5 -75.5q0 -19 0.5 -38t0.5 -38zM119 669q12 -4 17.5 -13
t8.5 -26q-4 -11 -7 -21t-8 -19q-8 -12 -16.5 -23l-17.5 -22q-5 -8 -13 -9t-16 1q-9 2 -11 9t-4 15q-2 26 6 48t21 42q7 13 18 17t22 1zM366 610q11 8 25 -1.5t14 -25.5q-3 -8 -6 -17t-8 -18l-14 -23.5t-15 -22.5q-16 -21 -40 -8q-10 5 -14.5 16t-2.5 23q5 27 22.5 45
t38.5 32z" />
    <glyph glyph-name="e_s" unicode="es" horiz-adv-x="418" 
d="M486 411q8 1 11.5 -4t-1.5 -13q-1 -3 -5 -7q-23 -23 -47.5 -42.5l-50.5 -38.5l-19.5 -14t-20.5 -14q-9 -7 -5 -18q13 -36 24 -72q17 -55 19 -108.5t-24 -107.5q-16 -32 -40 -56.5t-59 -37.5q-38 -14 -77 -7.5t-68 38.5q-16 16 -17 35q-2 18 -2.5 36t3.5 36q11 53 33 100
t58 88l21.5 25.5l21.5 25.5q5 5 10 9.5t10 9.5q3 3 6 7.5t2 7.5q-7 24 -9.5 48.5t-2.5 50.5q0 1 -3 7l-14 -25l-16 -36t-17 -35q-8 -17 -17 -32.5l-18 -32.5q-11 -19 -24.5 -35t-28.5 -31q-10 -10 -22 -13.5t-24 -5.5q-15 -2 -33 11t-26 30q-9 22 -11.5 45.5t-0.5 48.5l8 65
l8 26q17 71 58 127q6 8 13.5 12.5t18.5 4.5q17 2 31.5 -11t17.5 -31q3 -17 -2 -35t-11 -32q-10 -23 -30 -44.5t-42 -27.5q-5 -2 -6 -8t-2 -11q-5 -21 -4 -42t4 -42q1 -5 2.5 -9.5t3.5 -9.5q4 2 6.5 2.5t4.5 2.5q16 17 35 39.5t30 43.5l32.5 51.5l26.5 41l28.5 44.5l38.5 62
q5 9 12.5 18t14.5 19q8 13 17 24.5t23 18.5q5 2 9.5 4t9.5 -1q7 -5 11 -13.5t2 -15.5q-2 -5 -4.5 -8.5t-4.5 -8.5q-56 -89 -38 -195q1 -4 2 -7t3 -8l24 16l23 16q23 17 48.5 29t54.5 19q2 0 3.5 0.5t3.5 0.5zM320 76q1 23 -4 44l-10 42l-8 27.5t-8 29.5l-28.5 -29t-24.5 -29
q-23 -30 -40.5 -62.5t-26.5 -69.5q-4 -16 -7 -31.5t0 -32.5q2 -14 10.5 -22.5t22.5 -10.5q18 -2 35.5 1.5t32.5 16.5q31 24 42.5 56.5t13.5 69.5zM121 472l-19.5 -32t-21.5 -53q34 26 42 51q2 7 2.5 13t-0.5 11t-3 10z" />
    <glyph glyph-name="i_s" unicode="is" horiz-adv-x="460" 
d="M230 201l14.5 -45t13.5 -41q3 -9 2 -16.5t-8 -15.5q-17 -20 -31 -40.5t-31 -40.5q-46 -59 -73 -132q-9 -23 -14.5 -48t-4.5 -51t10 -45t23 -31.5t32 -18t37 -5.5q52 2 89 27.5t59 70.5t27 93t-3 98q-5 29 -10.5 57.5t-12.5 57.5q-4 14 8 27l141 135q13 12 13 26.5
t-13 22.5q-11 7 -21.5 3.5t-18.5 -9.5q-19 -14 -36 -29.5l-34 -31.5q-16 -14 -31 -29l-33 -32q-5 31 -10 58.5t-7 55.5q-2 38 7.5 75t31.5 71q7 11 13 23t9 25q4 14 -6 22t-24 6q-26 -4 -45 -28q-14 -17 -25.5 -35t-18.5 -38q-6 -19 -12.5 -37.5t-9.5 -37.5q-3 -20 -5.5 -40
t-14.5 -38q-8 -11 -13.5 -22.5t-12.5 -22.5l-63 -114q-3 -5 -7 -8.5t-7 -8.5q-2 0 -3 0.5t-3 0.5q-1 5 -2 9t-1 9l9 177l4 111q2 29 -24 43q-4 2 -9 2.5t-7 -1.5l-16 -15.5t-10 -17.5q-7 -25 -11 -50.5t-7 -51.5q-2 -19 -2 -38t-1 -38v-42.5t2 -42.5q4 -26 15 -50t33 -42
q13 -11 24 -12t25 7q26 14 40 42q11 20 21 41l21 42l13.5 25.5zM295 19q3 -25 6.5 -49.5t7.5 -49.5q5 -35 -1.5 -67t-23.5 -61q-31 -57 -97 -54q-5 1 -12 6.5t-9 10.5q-7 23 -2 44q11 47 32.5 87.5t49.5 78.5l40 56zM73 590q4 19 10.5 36.5t25.5 28.5q6 3 14 4t14 -1
q9 -3 13 -11t3 -17q-2 -20 -8 -38t-23 -31q-5 -5 -13.5 -8t-14.5 -1q-9 2 -15 9t-6 18v11z" />
    <glyph glyph-name="l_y" unicode="ly" horiz-adv-x="600" 
d="M167 -6l16 43l34.5 106t33.5 105q5 14 4.5 29.5t1.5 31.5q1 13 1 26.5t4 26.5q2 9 9.5 16.5t15.5 14.5q2 2 7.5 0.5t9.5 -3.5q18 -12 18 -35q2 -32 2 -64t2 -64q2 -26 5.5 -52.5t17.5 -53.5q11 17 22.5 31.5t19.5 30.5q20 36 37.5 72.5l34.5 73.5q7 12 10 29q3 18 17 32
q15 15 29 12.5t22 -23.5q1 -3 2.5 -6.5t1.5 -7.5q1 -47 2.5 -92.5t0.5 -91.5q-1 -39 -4 -78t-5 -78q0 -2 -0.5 -3.5t-0.5 -3.5q-7 -40 -12.5 -80.5t-15.5 -80.5l-13.5 -56t-21.5 -54q-8 -14 -15 -30t-16 -30q-14 -21 -36 -30.5t-46 -5.5q-28 4 -45 25.5t-16 52.5
q1 21 3 42.5t7 41.5l16.5 59.5t20.5 58.5q16 38 38 73.5t56 62.5q12 10 14 23l4 26q2 14 3 29t1 29q1 20 -5 45l-19 -41q-11 -29 -25.5 -56.5t-34.5 -51.5q-18 -21 -45 -18.5t-42 23.5q-7 10 -12 20l-10 21q-4 10 -6.5 20.5l-5.5 23.5q-3 -8 -6 -14.5t-5 -13.5
q-8 -26 -14.5 -52t-14.5 -52q-5 -19 -11 -37.5l-12 -37.5q-14 -40 -46 -40q-18 1 -32.5 9t-21.5 25q-14 33 -24.5 67t-15.5 70l-12.5 93.5t-9.5 93.5q-2 34 -1 67.5t3 66.5q3 78 28 148l15.5 51t16.5 50q17 48 56 78q28 21 53 8t33 -47q8 -32 4.5 -62.5t-11.5 -61.5
l-18.5 -63t-20.5 -61q-11 -28 -27 -53t-37 -47q-2 -3 -5.5 -6t-3.5 -6q1 -17 -4.5 -32.5t1.5 -32.5q4 -10 3 -20.5t1 -20.5l6 -58.5t8 -58.5q4 -25 9 -49l10 -49l7 -17q2 -1 7 -1zM449 -5q-2 0 -6 2q-15 -20 -27 -41t-20 -44q-11 -35 -19.5 -69l-16.5 -69q-3 -14 -3.5 -29.5
t9.5 -31.5q5 2 9.5 4.5t6.5 5.5l12 23t10 24l13.5 51.5t11.5 51.5q6 30 10.5 60.5zM194 684q-12 -13 -23.5 -39.5t-21 -61.5t-17 -77.5t-11.5 -87.5q8 16 14.5 31.5l13.5 31.5l22.5 59.5t21.5 60.5q5 14 5.5 28.5t2.5 29.5q0 5 -2.5 11t-4.5 14z" />
    <glyph glyph-name="o_s" unicode="os" horiz-adv-x="455" 
d="M521 399q8 0 11.5 -5t-1.5 -13q-2 -5 -6 -7q-22 -23 -46.5 -42.5l-50.5 -38.5l-20 -13.5t-20 -14.5q-9 -6 -5 -18q13 -36 24 -72q17 -55 19 -108.5t-24 -107.5q-17 -32 -40.5 -56.5t-58.5 -37.5q-38 -14 -77 -7.5t-69 38.5q-15 16 -16 35q-2 18 -2.5 36t3.5 36
q11 53 32.5 100t57.5 88l44 51q5 5 10 9.5t10 9.5q3 3 6 7.5t2 7.5q-5 15 -6.5 30t-3.5 29q-15 -6 -35.5 -9.5t-43 -3.5t-43.5 4t-36 13q17 -26 22 -53t5 -56q-1 -45 -10.5 -87.5t-34.5 -80.5q-13 -19 -32 -29.5t-43 -7.5q-14 2 -23 12t-14 22q-8 17 -10 34.5t-2 35.5v7
t-1 10q0 8 2 18t4 18q7 18 10 37t8 38q13 46 30 93l18.5 52l19.5 52q1 4 5 12q2 5 5 9.5t11 2.5q6 -2 11 -6t5 -12q-1 -6 -0.5 -12.5t-1.5 -12.5q-3 -14 -7 -27l-8 -27q18 -11 42 -15.5t49 -4t48.5 7t40.5 18.5l6 4q1 32 11 63t32 73q7 14 16 25t24 18q5 2 9.5 4.5t9.5 -1.5
q7 -5 10.5 -13.5t1.5 -15.5q2 -10 -0.5 -27.5t-9 -38.5t-17 -43.5t-24.5 -43.5q0 -14 1 -29t4 -30l5 -15l24 16l23 16q46 34 102 48zM354 63q2 23 -3 44l-10 42l-17 57l-28 -29t-24 -29q-23 -30 -41 -62.5t-26 -69.5q-4 -16 -7.5 -31.5t0.5 -32.5q2 -14 10.5 -23t21.5 -10
q19 -2 36 1.5t33 16.5q31 24 42 56.5t13 69.5zM59 89q18 13 29 47t15 71t-0.5 68.5t-17.5 41.5q-3 -11 -7 -21.5t-6 -21.5l-10.5 -64t-9.5 -64q-2 -14 -1 -28t8 -29z" />
    <glyph glyph-name="t_t" unicode="tt" horiz-adv-x="396" 
d="M534 598q0 -8 -6 -10.5t-14 -2.5l-100 -2h-21t-20 -1q-21 0 -24 -19l-2 -17.5t-3 -16.5l-12.5 -69.5t-11.5 -69.5q-5 -40 -7 -79.5l-4 -80.5q-2 -46 -2 -91.5v-91.5q0 -34 1 -67t3 -67q0 -11 1 -21.5t3 -21.5q4 -31 -15 -55q-7 4 -14 5q-39 7 -43 43l-13 135l-4 73t-2 72
q0 47 2 92.5l4 91.5q2 23 5.5 45.5t7.5 45.5v12q-1 0 -1.5 0.5t-1.5 0.5q-2 -3 -3.5 -6t-2.5 -6l-29.5 -87.5l-28.5 -87.5q-10 -33 -16.5 -66.5t-14.5 -67.5q-8 -29 -14 -58.5t-14 -58.5q-3 -8 -11.5 -15t-17.5 -11q-10 -5 -19 1t-14 15l-14 24t-9 25q-5 24 -6.5 48.5
t-3.5 49.5q-2 19 -3.5 37t-1.5 37l2 54t3 54l12.5 108t12.5 111q-11 -2 -18 -3t-15 -1.5t-19 -1.5t-30 -3q-11 -1 -19.5 5.5t-10.5 16.5q-6 21 13 30q5 2 10 2.5t10 1.5q16 2 24 3.5l15.5 3l17 3.5t28.5 5q11 2 16 7.5t8 14.5l16 49.5t17 48.5q6 14 19 26q8 8 20 8t20 -8
q9 -8 8.5 -17t-3.5 -17l-25 -77q-2 -4 -2 -7.5t-1 -8.5q5 0 9 -0.5t8 0.5q28 3 55.5 6.5t54.5 7.5q9 2 13 12q7 20 13 41.5t14 41.5l20 57l21 57q10 24 36 16q13 -5 16 -13.5t5 -18.5q1 -7 0 -13q-8 -29 -14.5 -57l-13.5 -57q-4 -14 -7 -28.5t-7 -31.5q21 0 40 0.5t37 -0.5
q24 0 48 -3q16 -4 25 -10q5 -4 9.5 -10t5.5 -11zM100 92q28 124 70.5 240t89.5 231q-2 2 -4 6q-29 -5 -58 -9.5t-58 -9.5q-5 -1 -8.5 -5t-5.5 -9q-5 -19 -9 -37.5t-6 -38.5q-5 -35 -8.5 -71t-5.5 -73q-2 -52 -2.5 -104t-1.5 -104q0 -4 1 -7.5t2 -7.5q1 0 2 -0.5t2 -0.5z" />
    <glyph glyph-name="e_r" unicode="er" horiz-adv-x="612" 
d="M653 106q2 -12 -3 -19.5t-12 -13.5l-39.5 -30.5l-39.5 -29.5q-5 -4 -9.5 -6.5t-9.5 -4.5q-15 -9 -30 -11t-28.5 3t-24.5 16t-16 27q-5 18 -6 35.5t0 36.5q2 39 13 75t19 73q2 8 5 15.5l7 17.5q-14 -2 -27 -4.5t-25.5 -3t-24.5 3t-22 13.5q-17 -46 -45 -91t-64 -82
t-79 -62t-90 -31q-26 -5 -48.5 4t-42.5 24q-8 6 -9 14q-6 17 -7.5 33t-0.5 35q2 40 14 75.5t27 62.5l28 48t33 44l10.5 10t11.5 9q15 11 26.5 8.5t22.5 -17.5l10.5 8t10.5 6q14 7 25.5 1.5t15.5 -20.5q5 -17 0 -32.5t-14 -28.5q-38 -56 -78 -108q-17 -21 -36 -41.5
l-38 -40.5q-10 -11 -7 -20t18 -12q5 -1 9 0t8 1q32 0 68 17t71.5 52t70 87t63.5 123v4q15 76 58 146q5 8 13 9.5t16 -0.5q8 -3 8 -10.5t-2 -14.5q-3 -9 -6.5 -18t-7.5 -18q-10 -27 -18 -54.5t-7 -57.5q0 -2 0.5 -5.5t1.5 -9.5l46 12q5 1 9 2.5t9 2.5q35 3 50 -13.5t14 -49.5
q0 -12 -3 -24.5t-7 -23.5q-14 -42 -22.5 -83t-11.5 -85q-1 -14 3.5 -19.5t18.5 -3.5q12 2 24 4.5t24 6.5q15 6 30 13.5l31 15.5q4 2 8.5 2.5t9.5 2.5zM167 371q-11 -4 -26 -21t-28.5 -39.5t-24 -46.5t-11.5 -41l102 134q-4 4 -6.5 7.5t-5.5 6.5z" />
    <glyph glyph-name=".notdef" horiz-adv-x="313" 
 />
    <glyph glyph-name="a" unicode="a" 
d="M336 73q4 -3 4 -9.5t-4.5 -14t-12.5 -14.5t-18 -10q-36 -8 -56.5 6.5t-36.5 39.5q-15 25 -21.5 58t-10.5 78q-1 13 -1 26.5t-1 30.5l-18 -34.5l-16 -30.5l-35.5 -63l-36.5 -63q-12 -18 -29 -32q-10 -8 -22 -9.5t-23 3.5q-12 5 -16.5 16.5t-3.5 22.5q2 19 5 38t8 37
q15 48 36 97q10 23 21.5 45.5t24.5 45.5q4 8 10.5 14.5t14.5 11.5q22 16 38 12.5t30 -26.5q8 13 17 26t16 27q8 14 20 22l26 17q19 -25 13 -50q-11 -45 -14.5 -90t-2.5 -91q1 -30 6 -55.5l11 -54.5q2 -9 7.5 -17.5t12.5 -15.5q4 -3 11 -2.5t13 1.5q9 1 17.5 6.5t16.5 0.5z
M127 313q-4 -2 -15.5 -18.5t-24 -42t-23.5 -56.5t-15 -61q11 15 24.5 37.5l27 47l26 47.5l21.5 39q1 7 -6 9.5t-15 -2.5z" />
    <glyph glyph-name="b" unicode="b" horiz-adv-x="392" 
d="M125 214q11 20 21 40.5t21 40.5q21 38 48.5 71.5t62.5 59.5q17 13 35.5 20.5t41.5 1.5q25 -9 31 -35q12 -44 0.5 -82.5t-28.5 -76.5q-10 -22 -22 -42t-26 -40q-16 -22 -33 -42.5t-36 -40.5q-27 -29 -60.5 -50l-66.5 -43q-11 -7 -24 -11.5t-26 -8.5q-13 -3 -27.5 9.5
t-16.5 29.5q-2 11 -2.5 22.5t0.5 22.5q2 51 3 102.5t5 102.5q4 44 10 86.5t11 86.5q4 29 5.5 59t4.5 59q2 23 5.5 46.5t6.5 46.5q2 16 4.5 31.5t6.5 30.5q3 14 14.5 22.5t22.5 6.5q13 -2 22.5 -12.5t9.5 -24.5q1 -28 0 -55.5l-2 -54.5q-2 -36 -3.5 -72t-3.5 -72
q-3 -38 -6.5 -76t-7.5 -76l-5 -82q2 0 4 -1zM328 397q-6 -3 -12 -5.5t-11 -5.5q-35 -24 -61 -55.5t-47 -67.5q-42 -71 -66 -152l-14 -50l5 -3l31 30t31 29q98 93 140 221q5 13 8.5 27.5t-4.5 31.5z" />
    <glyph glyph-name="c" unicode="c" horiz-adv-x="281" 
d="M326 228q-11 -12 -20.5 -23.5l-19.5 -22.5q-23 -24 -49 -44t-57 -34l-23 -10l-23 -10q-21 -10 -44 -8.5t-42.5 12.5t-33.5 30.5t-18 45.5q-2 16 -2.5 36.5t2.5 52.5t11 54.5t13 33.5q10 31 35 54q4 6 11 9q61 32 78 -35q8 -30 8.5 -60.5t-1.5 -62.5q0 -3 -1 -4
q-3 -7 -4.5 -15t-11.5 -8q-10 -1 -11 6.5t-3 14.5q-2 15 -3.5 30t-3.5 30t-5 29.5l-6 29.5q-2 0 -3 0.5t-3 0.5q-3 -5 -7 -9.5t-6 -10.5q-37 -73 -24 -149l2 -4q5 -29 23.5 -36.5t41.5 5.5q20 11 39.5 19t36.5 22l37 32.5t32 36.5q8 11 19 19q13 8 18.5 8.5t21.5 -4.5
q7 -5 9 -12t0.5 -15.5t-5.5 -17.5t-8 -16z" />
    <glyph glyph-name="d" unicode="d" horiz-adv-x="356" 
d="M206 284q-3 -6 -5.5 -12t-5.5 -12q-20 -34 -43 -64t-49 -58q-8 -9 -18 -16.5t-21 -14.5q-27 -19 -52 0q-13 9 -16.5 21.5t-1.5 26.5q4 26 15 47t25 42l26 37.5t30 33.5q5 5 10 9l10 8q15 10 30 13.5t32 -14.5q12 18 21 36t11 38t2.5 40t2.5 40q3 52 24 100q16 37 53 23
q11 -4 17.5 -17.5t4.5 -30.5q-5 -24 -9.5 -48t-12.5 -47q-13 -34 -10 -63q2 -25 4.5 -49t4.5 -48l18 -168q5 -48 9 -95t9 -95q2 -18 3.5 -36t3.5 -35q1 -14 -8 -25.5t-23 -12.5q-12 -2 -22.5 7.5t-12.5 23.5l-11.5 105l-11.5 104q-5 38 -11 74.5t-11 73.5q-2 14 -3.5 28.5
t-3.5 28.5q-1 0 -1.5 0.5t-2.5 0.5zM53 160q16 6 32.5 22.5t31 37.5t25.5 42t16 35q-12 -5 -28.5 -20.5t-32.5 -35.5t-28 -41.5t-16 -39.5z" />
    <glyph glyph-name="e" unicode="e" horiz-adv-x="353" 
d="M396 194l-16 -28t-8 -15l-33 -55.5l-33 -54.5q-14 -22 -32.5 -38.5t-39.5 -31.5t-45.5 -21t-50.5 -8q-19 -1 -37 1.5t-36 11.5q-14 7 -24.5 17.5t-16.5 22.5q-15 29 -23.5 60t-6.5 66q1 19 3.5 37.5t5.5 36.5q5 21 11.5 41.5t13.5 40.5q11 30 26 57t35 52q11 14 24 26.5
t30 18.5q27 10 46.5 -3t20.5 -42q0 -5 -1 -11.5t-2 -11.5q-10 -42 -25.5 -80t-35.5 -76q-14 -26 -29.5 -50.5l-31.5 -49.5q-5 -8 -6.5 -15t1.5 -16l5.5 -15l5.5 -15q11 -22 39 -22q27 1 50.5 10t44.5 24q64 48 108 116q8 13 17.5 23.5t20.5 21.5q2 5 8 5t11.5 -3.5t8 -10.5
t-2.5 -16zM160 376q-37 -48 -55 -99.5t-24 -107.5q17 25 32.5 55.5t26.5 60t17 54t3 37.5z" />
    <glyph glyph-name="f" unicode="f" horiz-adv-x="334" 
d="M366 349q6 3 13 -4.5t10.5 -18.5t2 -22.5t-11.5 -16.5q-57 -36 -116.5 -57.5t-121.5 -35.5l20 -44t18 -43q6 -15 9.5 -31.5t8.5 -32.5q10 -36 12 -73t1 -74q-1 -50 -14.5 -95t-42.5 -83q-13 -17 -28.5 -28.5t-38.5 -9.5q-43 3 -64 44q-10 21 -17 44t-9 48q-5 58 -3 115.5
t10 115.5q7 45 15.5 89.5t18.5 89.5q30 138 81 266l6 13.5t8 11.5q3 4 9 7t8 1q5 -3 7.5 -9l4.5 -11q1 -2 0 -5t-2 -5l-14 -42.5t-13 -42.5l-19.5 -71l-18.5 -71q-1 -3 -1 -14q13 2 24.5 2t22.5 4l70 23t69 26q25 10 42.5 19.5t43.5 20.5zM137 -158q11 47 8.5 93t-11.5 93
q-8 38 -22.5 71.5t-39.5 63.5q-5 -37 -9 -73.5l-8 -74.5q-5 -45 -5.5 -89.5t4.5 -89.5q2 -17 7 -34t11 -33q7 -18 18 -18.5t19 16.5q9 18 16 36.5t12 38.5z" />
    <glyph glyph-name="g" unicode="g" horiz-adv-x="339" 
d="M288 238q7 2 15 -3.5t10.5 -16.5t-3.5 -27t-27 -34q-3 -4 -13.5 -13.5t-13.5 -13.5q-1 -7 -1 -14v-26q2 -34 -1.5 -67t-10.5 -65q-5 -27 -12 -54t-16 -53q-11 -35 -29.5 -67t-47.5 -57q-18 -15 -38 -20.5t-39 -2t-35.5 16t-26.5 35.5q-5 11 -5.5 24.5t0.5 26.5
q3 29 14.5 55t28.5 50q10 15 19 30.5t20 29.5l38.5 53l39.5 52l18.5 24t20.5 23q10 11 10.5 23.5t-0.5 25.5q-2 44 2 87t10 86q1 4 0.5 7.5t-0.5 7.5q-2 0 -3 0.5t-2 0.5l-25.5 -31l-25.5 -31l-32 -41t-33 -41q-7 -8 -15.5 -13.5t-17.5 -10.5q-18 -9 -31.5 -3t-20.5 25
q-5 17 -3.5 33t6.5 32q12 41 31 78t46 69q8 9 17.5 16t20.5 12q7 4 15 2.5t14 -9.5q17 -23 -12 -32q-9 -2 -16 -10q-16 -17 -27 -37.5t-21 -42.5q-11 -26 -20 -54q-3 -7 2 -19l30 33q8 9 14.5 18t14.5 17l39.5 43.5l39.5 42.5q11 12 27 12q5 0 10 2.5t10 4.5q6 3 12 4.5
t13 -3.5q6 -5 6 -11t-2 -13q-14 -44 -15 -88.5l-2 -90.5q0 -2 0.5 -5t1.5 -10q3 4 6 7.5t5 6.5l7.5 9t8.5 5zM192 3q2 9 2.5 18t1.5 18h-4q-5 -8 -11 -16t-11 -16l-93 -135q-5 -6 -7.5 -12.5t-6.5 -12.5q-18 -29 -15 -64q1 -16 13 -22t27 1q13 7 23.5 15.5t16.5 22.5
l9.5 19.5l9.5 19.5q20 39 29.5 80.5t15.5 83.5z" />
    <glyph glyph-name="h" unicode="h" horiz-adv-x="366" 
d="M-6 170v15.5v22v21.5v15q2 51 4.5 102t5.5 102q1 23 2.5 47t4.5 48q2 19 6 37l8 37q2 12 4.5 23.5t6.5 22.5q3 10 7.5 18.5t9.5 16.5q8 14 25 9l15.5 -4l15.5 -4q25 -9 34 -35t6.5 -51.5t-7.5 -51.5q-8 -47 -24.5 -90t-39.5 -85q-9 -17 -13.5 -34t-2.5 -37
q2 -13 -0.5 -26.5t-1.5 -26.5q1 -6 0.5 -20t-1.5 -29t-1 -27.5t1 -15.5l21.5 30l26 34.5l26 34t21.5 29.5l29 39.5l29 39.5l15 19.5t14 20.5q14 25 38 24q22 -1 34 -26q10 -21 11 -40q3 -51 -1 -100.5t-11 -100.5q-3 -17 -2.5 -34t-1.5 -34q-1 -18 -3 -36t-1 -36
q0 -27 1.5 -54.5t2.5 -55.5q0 -10 10 -15q14 -5 20 -19t0 -28q-12 -25 -39 -35q-13 -4 -30 6t-22 22q-27 75 -30 154q-1 21 1.5 42t4.5 42q1 11 0 23t1 24q3 27 7 53.5l8 53.5q3 26 5.5 52.5l5.5 56.5q-5 -5 -9.5 -7t-6.5 -5l-53.5 -69.5t-50.5 -72.5q-19 -29 -32 -62
l-27 -66q-3 -8 -2.5 -17t-1.5 -17q-2 -11 -3.5 -21t-14.5 -16q-15 -7 -26.5 -3t-15.5 21q-4 15 -5.5 31t-3.5 33q-1 6 -1.5 18l-1 24.5l-1 24.5t-0.5 18zM100 670h-7q-3 -7 -6.5 -14t-4.5 -15q-5 -30 -9 -60t-7 -60q-2 -22 -3 -43.5t-3 -43.5q0 -1 5 -9q5 14 10 26.5
l10 24.5q11 31 20 62t11 64q1 18 -2 35t-14 33z" />
    <glyph glyph-name="i" unicode="i" horiz-adv-x="240" 
d="M273 197q4 4 6 5.5t4.5 3t4.5 5.5t6 13t2.5 19t-5.5 17t-10 10t-11 0q-2 -2 -5 -4.5t-5 -4.5l-57 -68l-57 -68q-21 -26 -43 -49q-9 10 -10.5 20.5t-2.5 21.5q-2 19 -3 37.5l-2 38.5q-2 42 -1 84t6 84q1 8 0.5 15.5t-1.5 15.5q-2 10 -10.5 15.5t-18.5 2.5q-17 -3 -21 -22
l-4 -33.5t-5 -33.5q-7 -48 -6.5 -94.5t2.5 -94.5q2 -19 5.5 -38.5t9.5 -37.5q7 -21 19 -32.5t25.5 -14.5t28 2t26.5 17q8 8 15.5 17l14.5 18l39.5 53l39.5 53q5 8 11.5 14.5zM123 556q-5 -10 -17 -17.5t-23 -8.5t-18.5 6.5t-3.5 27.5q6 29 22 55t36 49q12 12 29 17
q10 4 18 -1.5t7 -16.5q-2 -19 -9 -35q-10 -20 -21.5 -39.5t-19.5 -36.5z" />
    <glyph glyph-name="j" unicode="j" horiz-adv-x="230" 
d="M159 218l21.5 16t21.5 15q8 5 15.5 7.5t15.5 4.5q4 1 7.5 -0.5t8.5 -2.5q-1 -4 -1.5 -8.5t-2.5 -6.5l-24.5 -27.5l-24.5 -26.5q-10 -12 -22 -22q-19 -17 -25 -38t-8 -45q-4 -34 -10.5 -67t-12.5 -67q-4 -20 -7 -39.5t-8 -38.5q-8 -32 -17 -62.5t-20 -60.5
q-6 -17 -19.5 -28.5t-30.5 -19.5q-13 -5 -22.5 -2t-19.5 10q-24 20 -31 45.5t-2 52.5q5 26 11.5 52t16.5 50q13 33 28.5 64.5l30.5 63.5l2 4q20 22 23 48l6 52q4 38 7.5 75.5t5.5 75.5q2 37 3 73.5t3 73.5q1 14 5.5 25t17.5 18q25 13 42 -12q13 -18 13.5 -38.5t1.5 -40.5
q2 -44 1.5 -86.5t-0.5 -86.5zM80 652q6 17 10.5 35.5t13.5 34.5q14 23 33.5 25.5t39.5 -20.5q3 -4 3.5 -10t0.5 -11q-2 -26 -10.5 -49t-21.5 -45q-6 -11 -17 -15.5t-22 -1.5q-10 3 -16.5 11.5t-8.5 19.5q-1 6 -1 12v12zM-4 -224q6 9 12 28.5t10.5 41t6.5 41t0 28.5
q-17 -33 -25.5 -67.5t-3.5 -71.5z" />
    <glyph glyph-name="k" unicode="k" horiz-adv-x="315" 
d="M352 156q7 1 10.5 -9t2 -24t-7.5 -29t-18 -23q-34 -24 -72 -34.5t-79 -15.5q-30 -4 -53.5 9t-42.5 35l-16 20q-2 -11 -4 -20t-2 -17q-1 -41 -1 -81t-1 -81q-1 -17 -8 -39q-3 -8 -10 -13.5t-17 -4.5q-16 1 -24 19q-25 60 -11 120q12 50 14 100t5 101q1 7 2 19t2 25.5l2 26
t2 20.5q1 12 3 29l4 35l4 35.5t4 29.5q7 41 14.5 80.5t16.5 79.5q4 16 11 31l14 31q4 9 11.5 11t15.5 3t12 -4.5t8 -12.5q8 -15 8 -30.5t-2 -31.5q-5 -51 -15.5 -99t-28.5 -96q-2 -8 -6 -14q-12 -16 -15 -34t-4 -38l-2 -28l-2 -28q-1 -3 1 -11q11 1 17 6.5t11 12.5
q19 23 38.5 43.5t43.5 37.5q12 8 26 10q23 3 29.5 -10.5t0.5 -28.5q-11 -29 -31 -49t-42.5 -37.5l-44.5 -35.5q-3 -2 -6.5 -5t-6.5 -5l15.5 -19.5t15.5 -17.5q15 -18 39 -16q100 5 170 72zM118 543q-5 -9 -11 -30t-11 -45.5t-7.5 -47t-0.5 -33.5q15 42 23 85.5t7 70.5z" />
    <glyph glyph-name="l" unicode="l" horiz-adv-x="205" 
d="M241 622q-7 -32 -13.5 -67.5t-17.5 -70.5q-11 -36 -26 -70.5l-30 -69.5q-5 -12 -13 -22.5t-15 -21.5t-7 -22q2 -59 6 -116q1 -11 3.5 -22t4.5 -22l16 -72.5t18 -72.5q4 -14 10.5 -26t4.5 -27q-2 -18 -14.5 -25t-29.5 1q-15 8 -24 21t-15 27q-12 30 -23 61t-14 65
q-1 12 -4 23.5t-5 23.5q-5 32 -11.5 64.5t-8.5 65.5q-2 29 0 58l4 58q2 50 10.5 97.5t21.5 95.5q10 37 24 72.5t36 67.5q11 15 25 24.5t36 7.5q17 -2 24.5 -12t12.5 -23q5 -16 7.5 -33.5t6.5 -37.5zM185 675q-20 -36 -31 -73t-17 -74.5t-8.5 -76t-4.5 -77.5q12 23 22.5 46.5
t18.5 47.5q12 34 21 68t11 69q2 17 2 35t-14 35z" />
    <glyph glyph-name="m" unicode="m" horiz-adv-x="508" 
d="M17 409q8 13 18 35q9 18 28 25q27 8 21 -17q-4 -17 -9 -34t-7 -34q-5 -33 -8 -66t-7 -66q0 -7 0.5 -13.5t2.5 -13.5l14 29.5l14 29.5l25 54t26 54q5 11 18 16.5t22 -0.5q10 -6 14 -16t4 -21q-1 -21 -2.5 -42t-2.5 -43q-2 -31 -2.5 -62t-1.5 -62q2 -1 5 -1q9 21 17 42.5
t17 43.5l30 70.5l30 71.5l10 22.5l10 22.5q7 13 15 18q17 14 29.5 9t18.5 -26q5 -14 5.5 -28.5t-1.5 -29.5q-2 -17 -1.5 -35t-0.5 -36l-2 -77.5t-1 -77.5q0 -32 2 -63t11 -62q1 -3 2 -6.5t3 -9.5l13 20t11 18q21 37 46.5 71l52.5 67q5 6 13.5 9.5t16.5 8.5l15 -9.5t4 -16.5
l1 1l-17.5 -25.5l-16.5 -24.5l-51.5 -80t-53.5 -78q-16 -23 -38.5 -19.5t-35.5 24.5q-7 12 -11 25.5t-6 27.5q-5 26 -7.5 53t-3.5 53q-1 36 0.5 71.5t2.5 71.5v37.5t-2 38.5l-17.5 -40.5l-17.5 -40.5l-30.5 -75.5l-31.5 -74.5q-4 -8 -9.5 -14.5l-11.5 -13.5
q-11 -11 -24.5 -9t-21.5 17q-9 19 -9.5 38t-1.5 39v108q-3 -5 -5.5 -7t-3.5 -5q-20 -49 -37 -97.5t-28 -100.5q-3 -15 -3.5 -31t-1.5 -32q0 -28 -28 -39q-23 -8 -30 12q-3 8 -5.5 16t-0.5 16q5 20 3 39t-3 39q-2 39 -3.5 78.5t-1.5 79.5q1 21 4.5 42t5.5 42q1 7 1.5 13
t1.5 14q4 14 5.5 23t5.5 19z" />
    <glyph glyph-name="n" unicode="n" horiz-adv-x="380" 
d="M-4 284q1 12 4 30.5t7 37.5l8 37t7 30q2 10 7.5 18l11.5 16q4 5 9.5 7.5t13.5 -0.5q14 -5 12 -21q-1 -22 -6 -43q-9 -48 -13.5 -95.5t-2.5 -96.5q1 -14 1 -29v-29q0 -5 0.5 -9.5t1.5 -9.5q2 0 3 -0.5t2 -0.5l18 39.5l18 39.5q18 38 39.5 73.5t45.5 70.5q9 11 19 18
q17 11 30 7t20 -23q3 -9 5 -19t1 -19q-2 -36 -1.5 -72t5.5 -71q4 -29 11.5 -56t27.5 -50q8 -8 14 -10.5t16 1.5l15 9q10 5 19 10.5l18 10.5q11 5 18 0t6 -16q-1 -14 -4.5 -26.5t-12.5 -21.5q-20 -20 -43.5 -29.5t-52.5 -0.5q-13 4 -19 10q-25 21 -41 47.5t-25 57.5
q-12 44 -11 87t5 87q1 5 1 15q0 2 -0.5 3l-2.5 5q-5 -6 -8.5 -11t-6.5 -10l-56.5 -105.5t-44.5 -110.5q-11 -36 -18 -72q-2 -11 -10 -16t-16 -11q-10 3 -15 10t-7 16q-11 45 -18 89t-8 89q0 8 0.5 24t0.5 24q0 3 0.5 12t0.5 19t0.5 19.5t0.5 14.5z" />
    <glyph glyph-name="o" unicode="o" horiz-adv-x="241" 
d="M267 363q3 -2 4 -9.5t-0.5 -15t-5.5 -13.5t-9 -4q-58 10 -120 19q17 -26 22 -53t5 -56q-1 -45 -10.5 -87.5t-34.5 -80.5q-13 -19 -32 -29.5t-43 -7.5q-14 2 -23 12t-14 22q-8 17 -10 34.5t-2 35.5v7t-1 10q0 8 2 18t4 18q7 18 10 37t8 38q13 46 30 93l18.5 52l19.5 52
q1 4 5 12q2 5 5 9.5t11 2.5q6 -2 11 -6t5 -12q-1 -6 -0.5 -12.5t-1.5 -12.5q-3 -14 -7 -27l-8 -27q21 1 41 -1t40 -6t40 -7.5t41 -4.5zM59 90q18 13 29 47t15 71t-0.5 68.5t-17.5 41.5q-3 -11 -7 -21.5t-6 -21.5l-10.5 -64t-9.5 -64q-2 -14 -1 -28t8 -29z" />
    <glyph glyph-name="p" unicode="p" horiz-adv-x="357" 
d="M337 451q3 -47 -14 -93q-13 -35 -28 -68.5t-35 -65.5q-7 -12 -12 -24.5t-12 -25.5q-3 -5 -7.5 -9.5l-9.5 -9.5q-8 -6 -19.5 -7.5t-18.5 3.5q-8 5 -12 17t0 22l15.5 32.5l15.5 31.5l35 74.5l34 74.5q2 5 2.5 11.5t1.5 12.5q-2 1 -2.5 1.5t-2.5 1.5q-12 -14 -25 -27
t-22 -28l-39 -70l-37 -70q-11 -21 -20 -42.5l-17 -42.5q-13 -34 -22 -67.5t-4 -71.5q4 -26 3 -53t1 -54q2 -26 4.5 -52.5t4.5 -52.5q2 -18 -1 -34.5t-15 -31.5q-14 -16 -30 -16t-27 19q-8 14 -14 30t-8 32q-5 35 -6.5 70.5t5.5 70.5l10 52t8 52q2 19 1 38t1 38l6 98.5
t7 97.5q1 14 3 28q2 12 3 25t3 22t7 18t10 17q7 8 15 7t10 -12q3 -9 5 -18.5t1 -18.5q-2 -16 -2 -31.5v-31.5h1q0 -7 -1 -10q0 -2 -0.5 -5.5t-0.5 -6.5v-7q-2 -12 -2.5 -24t-2.5 -25q2 0 6 -2l13.5 27.5l13.5 27.5q18 38 38.5 74t46.5 68q12 15 26.5 28t29.5 24
q11 8 24.5 10t26 -2.5t21.5 -16t10 -29.5z" />
    <glyph glyph-name="q" unicode="q" horiz-adv-x="303" 
d="M352 266q5 1 7.5 -7t2 -18t-4 -19t-9.5 -9q-10 0 -19.5 -4l-19.5 -8q-33 -10 -64 0q-3 1 -7 1t-9 2q1 -11 3 -18l21.5 -60.5l21.5 -61.5q8 -26 10 -52.5t0 -52.5q-2 -38 -9.5 -74.5t-18.5 -72.5l-10 -32t-12 -31q-11 -21 -28 -36q-17 -16 -38 -10t-28 28q-6 18 -8 36
t-3 37q-1 48 4.5 95t13.5 95q7 40 12.5 80t13.5 81q3 14 4.5 28.5t-0.5 28.5q-1 5 2 10t5 10q3 6 6.5 12t6.5 12q-1 1 -2 1.5t-2 1.5l-28 -31.5l-28 -31.5l-39 -43t-39 -41q-6 -6 -14.5 -10t-16.5 -4q-19 -2 -28 10.5t-7 31.5q2 20 9 37t17 34q55 96 129 180q27 29 54 50
q6 5 15 7.5t17 3.5q8 2 14.5 -3t8.5 -13t-2 -13t-11 -9l-11.5 -8t-10.5 -9q-27 -26 -50 -56.5l-46 -63.5q12 5 19 12t15 13l27.5 24.5t33.5 15.5q2 7 5 13.5t5 13.5q5 9 11.5 13.5t13.5 1.5q8 -4 10.5 -10.5t0.5 -14.5q-4 -18 -8.5 -35.5t-9.5 -34.5l-2 -4q-8 -26 -2 -33.5
t33 -3.5q22 4 36.5 8.5t36.5 9.5zM227 -89q11 48 8.5 95t-25.5 95l-13.5 -83t-11 -82t-6 -82t2.5 -82q2 0 3 -0.5t2 -0.5q2 2 3 4t2 5l18 65.5t17 65.5z" />
    <glyph glyph-name="r" unicode="r" horiz-adv-x="210" 
d="M236 438q8 1 13 2t9 -0.5t7 -6t6 -14.5q-4 -4 -4 -5q-3 -10 -15 -18.5t-28 -16.5t-33.5 -15t-30.5 -14q-26 -12 -55 -38.5t-46 -68.5q0 -13 0.5 -25.5t0.5 -26.5l31 -177q1 -13 -2.5 -25t-18.5 -17q-14 -5 -30.5 2t-21.5 22q-9 30 -16 60.5t-7 62.5q0 14 -0.5 35l-1 43.5
t0 44t1.5 36.5q1 23 4 46l5.5 42t4.5 32t2 18q2 15 6.5 28t12.5 25q8 11 15.5 11t12.5 -13q5 -10 7 -20.5l4 -21.5q1 -7 0.5 -13.5t-0.5 -14.5l-2 -28l-2 -28q31 44 69.5 63.5t72.5 27.5q6 4 14 4t15 2z" />
    <glyph glyph-name="s" unicode="s" horiz-adv-x="238" 
d="M75 376q-2 37 8 71t34 81q7 14 16 25t24 18q5 2 9.5 4.5t9.5 -1.5q7 -5 10.5 -13.5t1.5 -15.5q-2 -5 -4 -8.5t-4 -7.5q-29 -45 -38 -94t0 -102q1 -3 2 -6.5t3 -8.5l24 16l23 16q46 34 102 48q2 1 4 1t4 1q8 0 11.5 -5t-1.5 -13q-2 -5 -6 -7q-22 -23 -46.5 -42.5
l-50.5 -38.5l-20 -13.5t-20 -14.5q-9 -6 -5 -18q13 -36 24 -72q17 -55 19 -108.5t-24 -107.5q-17 -32 -40.5 -56.5t-58.5 -37.5q-38 -14 -77 -7.5t-69 38.5q-15 16 -16 35q-2 18 -2.5 36t3.5 36q11 53 32.5 100t57.5 88l22 25.5l22 25.5q5 5 10 9.5t10 9.5q3 3 6 7.5t2 7.5
q-7 25 -9 49.5t-3 49.5zM137 64q2 23 -3 44l-10 42l-8 27.5l-9 29.5l-28 -29t-24 -29q-23 -30 -41 -62.5t-26 -69.5q-4 -16 -7.5 -31.5t0.5 -32.5q2 -14 10.5 -23t21.5 -10q19 -2 36 1.5t33 16.5q31 24 42 56.5t13 69.5z" />
    <glyph glyph-name="t" unicode="t" horiz-adv-x="179" 
d="M43 543l-66.5 -9.5t-62.5 -10.5q-25 -5 -42.5 -4.5t-36.5 8.5q23 27 77 40t143 27l13.5 37.5t14.5 36.5q5 12 10.5 23.5t10.5 23.5q2 3 4.5 5.5l4.5 4.5q17 14 35 1q16 -12 7 -34l-15.5 -45.5l-16.5 -48.5q19 0 27 0.5t12.5 0.5h9.5t17 -1q21 -2 45 -9t37.5 -15t9 -15
t-40.5 -9q-62 6 -125 -3l-9.5 -51.5t-7.5 -51.5q-5 -39 -8 -79l-6 -80l-2 -38t0 -39q0 -35 0.5 -68.5t1.5 -68.5q1 -20 1 -41t3 -42q4 -25 12.5 -49t24.5 -46q17 -23 -6 -35q-21 -10 -38 5q-13 11 -22.5 24t-14.5 30q-11 38 -18 76t-7 76q0 56 -2.5 111t1.5 110q4 61 7 121
t18 119q1 2 0.5 5t-0.5 8z" />
    <glyph glyph-name="u" unicode="u" horiz-adv-x="258" 
d="M14 258q2 11 5.5 28t8 35.5t9.5 35t8 27.5t9 20.5t13 18.5q7 8 14 6t8 -13q2 -14 1.5 -26.5t-2.5 -26.5t-6 -28t-6 -28q0 -3 -3 -21l-6.5 -40t-7.5 -43.5l-6 -31.5q-3 -15 -3.5 -30.5t-1.5 -30.5q2 -2 4 -2q4 3 7.5 6t5.5 7l50 92.5l50 92.5q5 11 8 22t8 22l13.5 31.5
t14.5 29.5q3 5 11 9t14 4q8 0 10 -7t2 -15q0 -12 -3 -24q-15 -63 -21 -127t-7 -129q-1 -22 -0.5 -43.5t7.5 -42.5q10 -31 -24 -44q-50 14 -49 64q0 21 -1.5 41.5t-3.5 43.5q-11 -17 -19 -32t-19 -29q-9 -11 -19.5 -20.5l-21.5 -19.5q-9 -8 -20.5 -10t-22 2.5t-18.5 15
t-9 25.5q-2 20 -1.5 40t1.5 40q1 7 3.5 21.5t5.5 30t5.5 30t4.5 23.5z" />
    <glyph glyph-name="v" unicode="v" horiz-adv-x="288" 
d="M300 198q-27 2 -50 19.5t-38 32.5q-2 -3 -5 -6t-4 -7q-8 -35 -20 -68t-26 -67l-16 -37.5t-20 -34.5q-16 -21 -40 -36q-14 -8 -31.5 -1t-28.5 28q-15 28 -20 60q-6 46 -7.5 92t4.5 93q5 37 9 74t9 74q3 17 11 39q4 8 9 14.5t16 4.5q16 -3 16 -31q0 -6 -0.5 -12.5
t-0.5 -13.5q-5 -51 -9.5 -102t-7.5 -102q-2 -34 0.5 -67.5t10.5 -66.5q1 -4 2 -7t3 -7q13 8 18.5 20.5l10.5 23.5q14 35 26.5 70.5t26.5 70.5l8 23l8 23q10 26 10 53t4 53t12 50.5t19 47.5q6 14 20 19.5t27 1.5q9 -3 15 -14t4 -25q-1 -14 -3.5 -28t-6.5 -28l-10 -32.5
l-11 -32.5q-8 -22 -6 -37.5t19 -30.5q11 -11 28.5 -25t31.5 -16q5 0 6 -9t-1 -19.5t-8 -18t-14 -5.5z" />
    <glyph glyph-name="w" unicode="w" horiz-adv-x="483" 
d="M517 100q-26 9 -46.5 23t-38.5 31t-33.5 37l-30.5 41q-8 -14 -9 -27.5t-3 -26.5q-7 -38 -15 -76t-22 -74q-2 -5 -4.5 -8.5l-5.5 -7.5q-14 -21 -34 -21.5t-34 19.5t-20 44q-8 27 -15 55t-12 56q-4 17 -5 33.5t-3 33.5q-1 8 -1.5 14.5t-2.5 14.5q-4 -8 -6 -13l-13.5 -57
t-14.5 -57l-18 -61.5l-19 -61.5q-2 -6 -5 -12t-6 -11q-10 -17 -24.5 -19.5t-25.5 13.5q-9 13 -16 27.5t-10 29.5q-14 72 -20.5 145t-9.5 147q-1 22 -0.5 44t0.5 45q0 7 2 12.5t10 7.5q14 2 19 -17q1 -7 1.5 -13.5t1.5 -12.5l6 -110t8 -110q4 -37 10 -73l12 -73q2 -8 11 -16
q3 10 6.5 19.5t6.5 20.5l16.5 61.5t16.5 62.5l14 53t15 54l12.5 46l12.5 46q2 7 5 10q5 3 9.5 7t8.5 2q5 -2 9 -6.5t5 -9.5q5 -19 8.5 -37.5t5.5 -37.5q4 -29 6 -58.5t6 -58.5q5 -30 10.5 -59.5l11.5 -59.5q2 -6 4.5 -12t5.5 -14q11 14 14.5 29t5.5 29q7 35 13 69.5t11 69.5
q5 37 5 73.5t-8 73.5q-13 55 1 114q5 20 22 31q13 8 27 4.5t20 -17.5q8 -20 9 -39.5t-1 -39.5t-3.5 -39.5t0.5 -38.5q2 -14 7.5 -28t11.5 -27q16 -32 37 -60t45 -54q4 -4 10 -8q9 -6 20 -11q6 -3 9 -16t3 -26.5t-3 -24t-9 -8.5z" />
    <glyph glyph-name="x" unicode="x" horiz-adv-x="274" 
d="M91 104l-39.5 -79t-32.5 -78q-1 -3 -1 -7v-8q1 -20 -19 -22t-22 19q0 9 1 17.5t5 16.5l34.5 79t37.5 77q8 14 9 27t-4 27l-10 32t-11 31q-14 37 -14 73q0 14 -0.5 28.5t-0.5 29.5q0 14 0.5 28.5t2.5 28.5q3 39 28 70q16 19 36.5 18.5t36.5 -18.5q15 -16 8 -35
q-11 -23 -11 -47t2 -48q2 -40 6 -77q0 -2 1 -4t3 -7l17.5 26l16.5 23l39.5 56.5l39.5 55.5q8 11 22 16q4 2 10 0.5t8 -3.5q4 -9 -2 -20q-5 -8 -10.5 -14t-10.5 -14l-32 -48.5l-32 -49.5q-11 -17 -20 -33.5l-19 -33.5q-15 -24 -3 -49q5 -9 7.5 -19t6.5 -19q3 -8 7.5 -15
t8.5 -15q8 -17 15 -33.5t15 -32.5l9.5 -18.5t11.5 -16.5t7 -16t-4 -16q-7 -17 -17 -27q-10 -9 -23 -9.5t-22 9.5q-27 29 -51 65q-11 17 -20.5 36.5z" />
    <glyph glyph-name="y" unicode="y" horiz-adv-x="363" 
d="M97 115q6 10 13 18.5t12 18.5l108 229l12 23t14 22q20 27 30 -4q3 -9 5 -18.5t2 -19.5q3 -49 5 -97t3 -97q1 -29 0.5 -58.5t-2.5 -58.5t-3 -57t-6 -56q-8 -48 -17 -96t-21 -95q-8 -31 -21 -60l-27 -58q-8 -19 -22 -33t-31 -25q-18 -11 -37.5 -12t-37.5 5.5t-32.5 21
t-20.5 34.5q-9 29 -7.5 58t6.5 58q14 83 60 152q14 20 30.5 37.5t32.5 36.5q29 32 64 49q3 2 5 6.5t3 8.5q3 58 5.5 116t4.5 120q-3 -5 -5 -7.5t-3 -4.5l-35 -80t-36 -79q-10 -24 -28 -43q-16 -17 -32.5 -16.5t-32.5 17.5q-17 17 -24.5 39t-9.5 44q-3 30 -2.5 60.5t1.5 60.5
q1 21 3.5 42t3.5 42q1 14 9 22.5l16 16.5q2 2 7 1.5t9 -2.5q11 -7 14.5 -17t2.5 -24q-2 -43 -3.5 -86t-2.5 -87q0 -17 4 -33.5t9 -33.5q3 0 5 -1zM205 -44q-2 2 -4 2l-22 -23q-21 -19 -35.5 -42t-27.5 -47q-26 -48 -31 -105q-2 -17 -2.5 -32.5t1.5 -32.5q0 -5 5 -10.5
t10 -8.5q2 -1 8 2.5t9 7.5q8 10 15 20t11 21l27.5 79.5t19.5 82.5q3 22 7.5 43t8.5 43z" />
    <glyph glyph-name="z" unicode="z" horiz-adv-x="363" 
d="M398 183q5 -5 3.5 -16.5t-9.5 -19.5l-24 -19.5t-20 -18.5l-45.5 -49.5l-44.5 -50.5q-12 -14 -23 -28.5l-22 -29.5q-2 -2 -2.5 -3.5t-1.5 -3.5q-9 -28 -17 -55.5t-18 -54.5q-9 -24 -20 -48l-22 -47q-9 -18 -19 -36t-23 -34q-17 -20 -38 -25t-41 18q-8 10 -10 23
q-1 23 4 45.5t13 45.5q15 42 40.5 76.5l51.5 69.5q7 9 13.5 18.5t14.5 19.5q10 14 13 29t5 31q2 22 2.5 44t-8.5 44q-8 20 -19.5 22.5t-28.5 -6.5q-11 -7 -19 -16.5t-10 -24.5q-2 -20 -14 -25.5t-29 3.5q-5 2 -9.5 4.5t-10.5 4.5q-8 19 2 34.5t22 30.5l22 28l22 29l53.5 77
l53.5 78l25.5 38.5l25.5 37.5q2 4 3.5 9t3.5 10q-18 3 -34 -1l-32 -8q-23 -6 -45.5 -13.5t-45.5 -13.5q-14 -3 -30.5 -7t-26.5 2q-5 3 -3 7t7 8.5t11.5 8.5t10.5 6q42 17 85 29.5t88 22.5q0 1 2 1q14 2 26.5 2.5t23.5 -12.5q11 -14 11 -29t-7 -29t-15 -27.5l-16 -26.5
l-54 -82l-54 -81q-5 -6 -7 -11q18 -7 31 -13t23 -18t17 -33t14 -57l34 35.5l34 34.5q11 11 21.5 20.5t22.5 18.5q17 14 29.5 15.5t33.5 -8.5zM51 -307q4 -3 10 4t13.5 19.5t15 30l15.5 36.5q18 43 36 101q-32 -50 -54 -90q-10 -17 -18.5 -34t-14 -31t-7 -23.5t3.5 -12.5z
" />
    <glyph glyph-name="A" unicode="A" horiz-adv-x="435" 
d="M367 334q8 -6 17 -9.5t11 -17.5q2 -11 -0.5 -17.5t-12.5 -9.5q-12 -4 -14.5 -11.5t-3.5 -18.5l-4 -103.5l-4 -103.5q-2 -39 -3.5 -78t-4.5 -78q-3 -41 -9 -82q-2 -9 -7 -15.5t-16 -5.5q-9 0 -15 3.5t-7 12.5q-2 11 -3.5 22.5t1.5 22.5q10 31 10 62t2 63l4 100l4 100
l2 37.5l2 38.5q0 3 -1 6t-2 8q-8 -2 -16 -2.5t-16 -2.5l-43 -9.5t-42 -9.5q-5 -1 -9 -5t-5 -8l-11.5 -50l-10.5 -50l-27 -123l-6 -23t-8 -23q-6 -17 -20 -19.5t-28 8.5q-29 21 -27 56q3 48 8 94.5t18 93.5q2 5 3 11t3 15l-17.5 -3.5t-15.5 -2.5q-5 -1 -11.5 -2t-11.5 0
q-11 2 -19.5 11.5t-7.5 17.5q2 11 8 19t17 11q14 3 28 6.5t28 5.5q9 2 15.5 5.5t9.5 13.5l18.5 58l19.5 58l33 103.5t36 102.5q28 73 75 132q6 8 12.5 15t14.5 13q5 4 13 7t13 0q8 -3 12 -11t-1 -18q-8 -18 -15 -35.5t-15 -34.5q-2 -6 -3 -10q17 -6 26.5 -16t14.5 -22.5
t6 -26.5l2 -28q2 -57 2.5 -113t1.5 -113q1 -5 1 -10.5t1 -11.5zM319 341q0 23 0.5 45t0.5 45v80t-1 81q0 11 -1.5 22t-3.5 24l-9 -4.5t-5 -3.5q-2 -3 -5 -6.5t-5 -7.5l-47 -155.5t-42 -159.5q7 1 11.5 1t8.5 1l37.5 8t37.5 6q12 2 17.5 7t5.5 17z" />
    <glyph glyph-name="B" unicode="B" horiz-adv-x="434" 
d="M302 395q26 -7 41.5 -23.5t24.5 -40.5q22 -57 13.5 -109t-43.5 -101q-34 -48 -74.5 -87t-89.5 -69q-17 -11 -36.5 -18.5l-38.5 -15.5q-10 -4 -18 -2.5t-15 11.5q-2 3 -7 5t-12 7q-2 -11 -2.5 -19.5t-1.5 -16.5q-1 -5 -3 -13q-1 -11 -7.5 -16.5t-16.5 -7.5q-6 -2 -13.5 7
t-8.5 19q-2 22 0 45q2 64 4.5 127.5t5.5 127.5q2 34 5.5 67t6.5 67q2 35 4.5 69.5t4.5 69.5q4 50 7.5 99.5t7.5 99.5q2 18 2.5 35.5t1.5 34.5q0 5 -1 9.5t1 7.5l8.5 11t9.5 7q8 2 14 -3.5t6 -14.5l2 -35.5t0 -34.5q0 -23 -1.5 -45.5t-2.5 -45.5q0 -1 2 -7l31 41.5l31 40.5
q23 29 52 49t64 32q41 14 75 -11q13 -9 18 -23.5t5 -28.5q-1 -57 -14 -108.5t-51 -96.5q-17 -20 -32.5 -40.5l-30.5 -40.5q18 -4 36 -7t36 -8zM306 280q4 16 -0.5 31t-17.5 23q-17 11 -36 14.5t-39 2.5q-17 -2 -31.5 -6.5t-25.5 -19.5q-1 -2 -2.5 -3t-3.5 -3q-21 -15 -36 -3
q-10 8 -13 19t2 22l14.5 28t15.5 27l58.5 89.5l57.5 89.5q12 20 20.5 41.5l17.5 43.5q5 9 5.5 19.5t-9.5 16.5q-6 4 -16 2t-19 -2q-1 0 -1.5 -1t-2.5 -1q-26 -15 -48.5 -34t-40.5 -45l-34.5 -46l-34.5 -46q-3 -3 -4.5 -7.5t-2.5 -9.5q-2 -32 -4.5 -65t-4.5 -65
q-3 -53 -5.5 -105.5t-4.5 -105.5l-4 -84l-4 -86q24 -3 43 4t36 21q27 22 51 46.5t46 51.5q26 33 47 68.5t31 77.5z" />
    <glyph glyph-name="C" unicode="C" horiz-adv-x="503" 
d="M480 280q9 -6 8.5 -14.5t-5.5 -16.5l-27.5 -44t-30.5 -42q-32 -39 -66 -76.5l-69 -74.5q-37 -40 -84 -62q-46 -22 -93 -11.5t-77 52.5q-27 38 -31 84q-2 28 -5.5 55t-5.5 54q-2 19 -0.5 38t4.5 38l15.5 102t22.5 101q15 51 33 100t47 94q17 28 36 55.5t39 53.5
q13 17 31 27.5t37 18.5q13 6 26 10t27 9q30 11 55.5 0t39.5 -40q12 -26 11.5 -52.5t-8.5 -52.5q-8 -30 -17.5 -60l-19.5 -60q-7 -22 -32 -36q-7 15 -4.5 28t6.5 25q11 36 20 72t12 74q2 14 -2 26t-12 23q-7 11 -17.5 11.5t-19.5 -4.5q-27 -13 -50 -35q-10 -8 -19 -18.5
l-17 -20.5q-23 -26 -37.5 -56l-28.5 -61q-20 -50 -33 -101t-23 -104q-5 -22 -9 -43.5t-7 -44.5q-7 -56 -11 -111.5t6 -112.5q3 -18 11 -38q19 -44 59 -27q21 9 41 20.5t37 25.5l69 61.5l67 63.5q20 20 38.5 42t38.5 43q5 5 10 11.5t14 0.5z" />
    <glyph glyph-name="D" unicode="D" horiz-adv-x="553" 
d="M534 566q3 -13 4.5 -25t3.5 -25q8 -42 2.5 -82.5t-20.5 -79.5l-20 -52t-21 -51q-20 -44 -49.5 -80l-58.5 -73q-27 -35 -60.5 -63.5l-67.5 -56.5q-24 -20 -52 -32.5t-54 -27.5q-17 -10 -34.5 -18l-35.5 -16q-22 -9 -48 -12q-13 -2 -22 3.5t-8 12.5q2 10 9 15.5t16 9.5
l21 7.5t21 8.5q3 2 6 6.5t3 9.5q1 25 0.5 49.5t1.5 49.5q2 51 5.5 101t6.5 101q3 46 6.5 91.5t5.5 91.5q1 14 0 29t-1 30q-2 48 3.5 96t15.5 96q3 13 5 26t6 27q2 8 6 15.5t9 14.5q3 4 9 6t10 0q4 -1 7.5 -6t3.5 -10q0 -14 -1 -28t-3 -28q-2 -20 -4.5 -41t-4.5 -41
q1 -1 5 -3q5 5 8.5 9.5t8.5 9.5q27 33 57.5 62t67.5 51q62 35 129 3q35 -17 53 -45.5t32 -60.5q8 -17 10.5 -36.5t6.5 -38.5zM409 301q21 76 30.5 153t-9.5 156q-5 23 -15.5 42t-28.5 33q-17 14 -36.5 15.5t-37.5 -9.5l-23 -16t-20 -18q-25 -26 -48.5 -53l-46.5 -55
q-10 -12 -18.5 -25t-9.5 -30q-3 -54 -6.5 -107.5t-6.5 -107.5l-4 -105.5l-4 -105.5q-2 -25 -3 -50t-3 -54l38 26t35 26l51 48.5l51 49.5q41 40 70 86.5t45 100.5z" />
    <glyph glyph-name="E" unicode="E" horiz-adv-x="454" 
d="M376 39q11 0 14 -6t-2 -15q-6 -9 -13.5 -18t-15.5 -16q-29 -21 -60 -36l-62 -31t-63 -29q-23 -11 -39 -3t-30 31q-7 11 -10.5 24.5t-5.5 27.5q-11 54 -11 108.5t3 110.5q2 23 1.5 45.5t-0.5 47.5q-12 -2 -23.5 -3.5t-22.5 -1.5q-8 1 -17.5 2.5t-16.5 6.5q-19 13 2 30
q14 11 29 15t32 7t20.5 7t5.5 21q8 48 15 94.5l14 94.5l9.5 61.5l9.5 61.5q1 1 -1 11l-29.5 -2l-28.5 -2l-6 -2t-5 1q-5 2 -9.5 5t-7.5 8q-1 2 2 7.5t6 7.5q11 5 21.5 7.5t21.5 5.5q8 2 15.5 3t15.5 1q18 1 26 19q3 8 7 13t13 4q8 -1 15.5 -4t10.5 -12l2 -4t3 -5l63.5 9.5
l63.5 9.5q10 2 15 2q23 0 26 -17q1 -8 -5 -15t-16 -9q-18 -3 -36 -5l-35 -4t-33.5 -5t-33.5 -5q-15 -2 -15 -17q-2 -38 -3.5 -75t-3.5 -75q-2 -26 -5 -51.5t-5 -51.5q-1 -15 -0.5 -30.5t0.5 -32.5l32.5 8l30.5 8q23 5 46.5 11t46.5 11q21 5 32 -11q20 -24 -6 -36
q-37 -17 -73 -27q-25 -8 -50 -14l-51 -12q-16 -4 -16 -21q-2 -60 -5 -118.5t-5 -117.5q-1 -20 -0.5 -41t0.5 -44l15 5t11 4l63.5 31t64.5 30q11 5 25 6t27 1z" />
    <glyph glyph-name="F" unicode="F" horiz-adv-x="306" 
d="M296 793q10 -1 17 -8t7 -15q2 -21 -23 -24l-72 -10l-72 -10q-16 -1 -16 -16q0 -36 0.5 -71.5t-0.5 -71.5q-2 -37 -4.5 -73t-4.5 -72q-1 -6 0 -12t1 -13l51 11.5l50 10.5q1 0 2 1q13 4 22.5 0.5t13.5 -11.5q3 -7 -2 -18t-16 -16q-21 -8 -42 -15t-43 -12q-15 -3 -23 -5.5
t-12 -7t-5 -12.5t-1 -23q-2 -57 -3 -113l-2 -113q-1 -26 0 -51t1 -51q0 -10 -2 -19.5t-5 -18.5q-11 -29 -30.5 -29t-38.5 22q-11 13 -11 32q0 38 0.5 76t0.5 76q0 15 -1 30t-1 31q1 35 1.5 69.5t1.5 69.5q0 2 -0.5 4t-0.5 6q-9 2 -16 4.5t-15 4.5q-19 5 -5 17q12 12 26 20
q12 7 12 21q0 26 0.5 50.5t0.5 49.5q0 44 3.5 86.5t11.5 84.5q2 14 5 27.5l6 27.5q-9 0 -18.5 0.5t-19.5 -0.5q-15 -2 -21 11q-3 8 1.5 13t9.5 8q9 6 22 8l108 15q32 5 64.5 11t64.5 11q5 1 10.5 1.5t11.5 0.5z" />
    <glyph glyph-name="G" unicode="G" horiz-adv-x="504" 
d="M490 363q8 -1 13 -5t6 -13q0 -8 -2 -14t-11 -8q-14 -4 -28 -8.5t-28 -7.5q-20 -6 -21 -24l-9.5 -88.5l-9.5 -88.5l-6 -75t-4 -75q-1 -19 3 -37.5l8 -36.5q2 -8 3 -16t-7 -14q-7 -6 -17 -5t-18 9q-14 14 -19 31t-5 35q1 48 3 94.5l4 94.5v9t-2 9l-23 -43.5t-24 -43.5
l-38 -67l-39 -66q-8 -13 -15 -25.5t-15 -24.5q-22 -35 -50.5 -39.5t-63.5 8.5q-26 9 -41 29.5t-23 45.5q-12 33 -15.5 67.5t-0.5 69.5q5 57 12 112.5t15 111.5q7 42 15 83.5t19 82.5q11 35 26 68t27 67q13 34 33 63l40 58q15 22 34.5 41t43.5 30q37 17 72.5 8.5t61.5 -45.5
q17 -23 23.5 -50t8.5 -55q2 -20 -13 -28q-14 13 -19.5 28.5t-9.5 31.5q-5 17 -12 30.5t-21 24.5q-19 14 -37.5 13.5t-35.5 -16.5q-42 -41 -64 -98l-16.5 -39.5t-15.5 -40.5q-9 -26 -16 -52.5t-15 -52.5q-5 -17 -8.5 -33.5t-7.5 -33.5l-16.5 -72t-13.5 -72q-7 -42 -10.5 -83
t-9.5 -83q-5 -32 -2 -63.5t9 -62.5q4 -12 8 -18q23 -29 42 1l51.5 82l49.5 83q18 29 34 60l32 62q12 24 23 48.5t24 50.5q-9 -2 -17.5 -3.5t-17.5 -3.5q-27 -6 -54.5 -13t-55.5 -12q-5 -2 -11.5 0t-11.5 5q-20 14 0 30q9 8 25 13l86 21.5l87 21.5l78 18q7 2 13 3t13 1z" />
    <glyph glyph-name="H" unicode="H" horiz-adv-x="494" 
d="M454 811q18 -8 16 -29q-2 -10 -3 -19.5t-3 -19.5q-9 -39 -9.5 -79t-1.5 -80l-2 -36t-3 -36q-3 -30 -6.5 -60.5t-5.5 -60.5q-3 -29 -5.5 -57.5t-4.5 -57.5l-4 -57.5t-5 -57.5q-2 -26 -6.5 -52t-6.5 -52q-2 -21 -2 -42t-1 -43q0 -5 0.5 -11t-1.5 -11l-10 -54.5l-10 -54.5
q-4 -17 -19 -23t-32 2q-11 6 -18 14.5t-9 22.5q-5 44 -6 86.5t1 86.5q2 30 2.5 60t3.5 60q4 37 9 73.5l10 73.5q3 20 6.5 40.5l7.5 43.5l-42 -9.5t-38 -9.5l-52 -12l-52 -12q-8 -2 -13 -6t-6 -15q-2 -38 -6 -75.5l-8 -75.5q-3 -38 -6.5 -77t-6.5 -78q-2 -35 -3 -69.5
t-3 -69.5q0 -10 -3 -17.5t-14 -12.5q-26 -14 -36 12q-8 22 -10.5 45t-0.5 47q3 45 5 90t5 90q2 17 4.5 34.5t4.5 34.5q3 28 6.5 55.5t6.5 55.5q0 2 -2 12q-12 -2 -22 -3l-21 -2q-11 -2 -17 3t-11 13q-5 9 0 15t11 9q9 5 18.5 8l19.5 6l15.5 4l15.5 4q2 26 4.5 51t4.5 50
q1 8 1.5 15t1.5 14q3 33 5.5 65.5t4.5 65.5q3 31 5.5 61t6.5 61q1 6 3.5 12.5t5.5 12.5q2 8 7.5 12.5t14.5 2.5t12.5 -8t3.5 -14q0 -14 -0.5 -27t-1.5 -27l-6 -177l-9 -132v-9t-1 -11q21 3 35 7l77.5 20l77.5 21q7 2 12.5 5t6.5 11l8 63t9 62l10.5 72t12.5 72q3 17 9.5 32.5
t12.5 31.5q2 5 5 8.5t6 6.5q16 15 34 6z" />
    <glyph glyph-name="I" unicode="I" horiz-adv-x="287" 
d="M318 753q10 -3 14 -16q1 -3 -2.5 -8t-7.5 -7q-6 -4 -12.5 -5t-12.5 -3q-17 -2 -33.5 -4.5t-33.5 -4.5q-19 -1 -19 -21l-4 -69.5l-4 -69.5q-2 -36 -3.5 -72t-3.5 -73l-4 -71t-5 -72q-2 -27 -5.5 -54t-5.5 -54q-4 -40 -6.5 -80t-5.5 -82h21l10.5 2l10.5 2q19 1 26 -19
q4 -9 -1.5 -14l-11.5 -10q-5 -4 -10.5 -5t-11.5 -3q-43 -13 -86.5 -19t-88.5 -11q-11 -2 -18 4q-23 15 0 26q15 8 31 13t33 11q13 4 22 5q-2 182 10 360t32 360l-28 -4l-28 -4q-4 0 -8.5 -0.5t-8.5 1.5q-10 4 -12 13q0 4 3.5 8.5t6.5 5.5l32 10t33 8q43 8 86 14t86 13
q6 1 12.5 1t11.5 -2z" />
    <glyph glyph-name="J" unicode="J" horiz-adv-x="346" 
d="M417 749q4 1 8.5 2t8.5 -1q5 -2 9 -5.5t9 -6.5q-4 -5 -7 -11t-8 -8q-13 -5 -26 -6.5t-27 -3.5q-20 -2 -41 -3.5t-44 -3.5l-4 -47t-3 -47q-2 -35 -2.5 -69.5t-1.5 -69.5q0 -30 0.5 -60t-1.5 -60q-2 -44 -6 -87t-9 -86q-5 -40 -10.5 -79t-16.5 -77q-10 -32 -22.5 -62
t-35.5 -54q-23 -23 -54 -14q-39 12 -56 48q-24 47 -39 96.5t-28 100.5q-4 15 -7 29.5t-7 29.5q-1 4 -2.5 8t0.5 7q3 8 6.5 15t9.5 11q2 2 10 -2t13 -8q9 -9 12 -20l51 -180q7 -23 17 -42t23 -32q2 5 4.5 8.5t4.5 8.5q3 12 7 24t6 24l17.5 100.5t10.5 101.5q1 19 4 37.5
t5 37.5q2 29 2.5 58.5t2.5 58.5q3 71 6.5 142t16.5 144h-84l-12.5 2t-12.5 3q-3 2 -6 6t-3 7q2 10 10 15q4 2 9 2.5t10 1.5l78.5 4l78.5 4l63 4z" />
    <glyph glyph-name="K" unicode="K" horiz-adv-x="375" 
d="M448 -192q7 -2 10.5 -7.5t4.5 -13t-1.5 -15.5t-8.5 -13q-23 -21 -52 -3q-20 12 -34.5 28.5t-27.5 35.5l-53 77.5t-50 80.5q-21 35 -39.5 70.5l-36.5 70.5l-25.5 51l-24.5 50q-2 2 -4 5t-6 8q-2 -24 -3.5 -45t-2.5 -41q-3 -59 -5.5 -117.5t-5.5 -117.5q-1 -17 -4 -33
l-6 -33q-2 -11 -9 -14.5t-16 -5.5q-18 -1 -26 15q-10 19 -15.5 38.5t-6.5 40.5l-4 94.5t-3 94.5q0 28 1.5 56t2.5 57q1 8 0 17t0 17q4 40 7 79.5t8 78.5q4 38 10 75.5t11 75.5l9.5 75.5l9.5 75.5q5 28 12 52q4 12 14.5 15.5t21.5 -1.5t17.5 -13t6.5 -20v-36t-1 -36
q-2 -47 -4.5 -93t-4.5 -94l-2 -61t-3 -65l24.5 32l22.5 30l86 125t78 129l18.5 34.5l18.5 34.5q2 3 3.5 7t3.5 6q6 3 12.5 5.5t11.5 1.5q4 -1 8 -7t4 -11q0 -9 -1.5 -18.5t-6.5 -17.5l-48 -90t-52 -88q-33 -52 -70 -101.5l-73 -100.5q-3 -4 -6 -7.5t-5 -8.5q-2 -3 -2.5 -7.5
t1.5 -7.5l26.5 -45.5t25.5 -45.5q15 -29 29 -60t31 -60q24 -44 50.5 -86.5l52.5 -84.5q13 -21 27 -41l28 -40q8 -11 17 -20t24 -13z" />
    <glyph glyph-name="L" unicode="L" horiz-adv-x="402" 
d="M365 -56q35 3 39 -28q2 -11 -8.5 -22.5t-24.5 -14.5q-38 -7 -76.5 -13t-76.5 -13q-21 -4 -42 -9l-42 -10q-22 -5 -43 -9t-42 -7q-20 -3 -30 5t-17 26q-8 23 -8.5 46.5t1.5 47.5q4 45 5.5 90.5t5.5 90.5q2 37 6.5 73.5t8.5 73.5q4 38 7 74.5t8 74.5q2 20 5 40.5l6 40.5
q4 29 6.5 57.5t7.5 56.5q4 23 8.5 44l9.5 43q2 11 5 21t5 21l3 9q13 25 32 22q11 -3 17.5 -12t5.5 -23q-2 -23 -4.5 -44.5t-4.5 -43.5q-4 -39 -7.5 -78t-6.5 -78l-4 -54l-4 -55q-3 -48 -5 -96l-4 -97q-1 -14 -2.5 -28.5t-2.5 -29.5q-3 -45 -6.5 -90t-5.5 -90
q-1 -12 -1 -24.5v-26.5l35 4t35 5l85 13.5l85 13.5l36 3v0z" />
    <glyph glyph-name="M" unicode="M" horiz-adv-x="583" 
d="M541 746q5 -4 8.5 -11t2.5 -13q-1 -23 -3.5 -45.5t-4.5 -45.5l-6 -60l-6 -61l-10 -115.5l-10 -116.5q-2 -19 -3 -37.5t-1 -38.5q-3 -78 -5.5 -156t-4.5 -156q-1 -19 -6 -27t-17 -10q-17 -2 -27.5 7t-11.5 29q-1 14 -1.5 28.5t-0.5 29.5q-1 29 -1.5 57t0.5 57q2 65 6 128
q4 57 9 113.5l10 113.5l8 74t9 78q-5 -9 -8.5 -16l-6.5 -13l-63.5 -135t-60.5 -136q-19 -46 -33 -93t-30 -95q0 -5 -1 -6q-5 -5 -9.5 -12t-10.5 -8q-9 -2 -16.5 4t-10.5 14l-10 32t-9 33q-5 26 -9.5 53t-9.5 54l-21.5 128l-21.5 129q-3 15 -10 27q-2 -20 -3 -41l-2 -42
q-2 -30 -2.5 -60t-1.5 -61q-1 -33 -0.5 -66t-0.5 -65q-3 -78 -9 -156l-4 -55t-6 -55q-3 -15 -8.5 -30l-11.5 -30q-7 -17 -28 -11q-3 2 -7 1.5t-8 -0.5q-30 2 -39 16.5t-10 34.5q0 29 1.5 57t3.5 56l6 79l6 79l4 48l4 47q3 42 6.5 83.5t5.5 83.5q2 30 3 60t5 59q5 32 11 63.5
t16 61.5q4 13 14 24.5t21 20.5q12 9 23.5 5.5t16.5 -18.5q8 -23 14.5 -47.5t11.5 -48.5q11 -51 20 -101.5t20 -101.5l18.5 -96l19.5 -96q2 -13 5.5 -25t6.5 -24l28 72t30 72l41 91.5l43 90.5l45.5 90l45.5 90q5 11 8 23.5t8 24.5q5 14 15 18.5t21 -3.5z" />
    <glyph glyph-name="N" unicode="N" horiz-adv-x="474" 
d="M432 805q9 -1 12.5 -6t3.5 -13q-2 -23 -3 -45.5t-3 -45.5q-6 -54 -12.5 -106.5l-12.5 -105.5l-10 -101l-10 -101q-4 -49 -7 -97.5t-8 -97.5q-4 -48 -8.5 -95.5t-9.5 -95.5l-4 -16.5t-7 -16.5q-11 -18 -29 -19t-32 15q-18 22 -27 47t-17 51l-22.5 82l-21.5 82
q-10 42 -18.5 84t-18.5 84l-22.5 98.5l-22.5 98.5q-1 5 -7 15q-1 -17 -2 -30.5t-1 -27.5q-1 -25 -0.5 -49t0.5 -49q-2 -82 -6 -164q-1 -27 -3.5 -54t-4.5 -53q-4 -43 -6.5 -85t-6.5 -85q-2 -11 -5.5 -22.5t-8.5 -22.5t-14.5 -14t-20.5 -3t-17 6.5t-9 15.5q-11 26 -14.5 53
t-1.5 55q2 40 3.5 79t3.5 79q2 32 3 63.5t6 63.5q5 30 5 60.5t2 60.5q7 69 12 138.5t11 139.5q2 14 5 28.5l6 28.5q0 2 0.5 2.5t0.5 1.5q5 14 15.5 23.5t21.5 9.5q11 1 21.5 -8.5t15.5 -23.5l26 -93.5l26 -93.5l16 -60.5l16 -60.5t14.5 -60.5l13.5 -60.5q5 -19 9 -38t9 -38
l27.5 -115.5l27.5 -114.5q2 -5 3 -9.5t3 -9.5q2 0 3 0.5t2 0.5q2 20 3.5 39.5t3.5 39.5q6 75 12.5 148.5l13.5 148.5q5 51 10.5 100.5l11.5 100.5l13.5 104.5t14.5 104.5q3 20 9 40q3 16 18 15z" />
    <glyph glyph-name="O" unicode="O" horiz-adv-x="394" 
d="M370 589q6 -57 3.5 -113.5t-11.5 -113.5l-20.5 -114t-23.5 -114q-11 -51 -26.5 -100t-40.5 -95q-17 -31 -40.5 -54.5t-56.5 -37.5q-32 -14 -61 -5t-50 38q-14 20 -20 41.5t-13 43.5q-10 35 -11.5 71.5t-5.5 78.5q2 17 3 38.5t3 44.5q6 61 15 123q4 21 9 42.5t12 41.5
q8 25 17 49t17 49q7 18 5 36q-9 86 38 157q11 17 25 31.5t34 22.5q17 7 33 20q15 10 32.5 13.5t35 -0.5t33.5 -16.5t28 -33.5q18 -34 25.5 -70.5t11.5 -73.5zM286 290q2 9 2.5 18.5t1.5 17.5q-17 -1 -31 -2.5t-28 0.5q-22 2 -39.5 13t-32.5 27q-24 25 -48 54q-2 -5 -3 -9.5
t-2 -9.5q-5 -30 -11.5 -59.5t-10.5 -59.5q-3 -23 -2.5 -45.5t-1.5 -45.5q-7 -63 -0.5 -123t23.5 -120q6 -20 16.5 -22.5t27.5 8.5q20 13 32 31t22 38q21 45 35 92.5l27 95.5l12 50t11 51zM310 451q2 35 3 71t-1 72q-3 61 -27 115q-7 16 -22 22.5t-30 -1.5l-29.5 -16
t-28.5 -19q-18 -15 -27.5 -35t-13.5 -45q8 2 14.5 4l12.5 4q8 2 16 0t10 -10q2 -6 0.5 -13t-4.5 -13q-3 -7 -7.5 -13t-9.5 -12q-18 -26 -23 -51.5t15 -54.5q2 -2 3 -5.5t3 -5.5q11 -16 23 -30.5t26.5 -24t32 -14t40.5 0.5q3 1 6.5 0.5t8.5 -0.5l5.5 38t3.5 36z" />
    <glyph glyph-name="P" unicode="P" horiz-adv-x="302" 
d="M321 748q31 -22 43 -53.5t9 -66.5q-5 -49 -26.5 -90.5t-53.5 -77.5l-51 -60l-51 -59l-27.5 -29t-29.5 -28q-9 -8 -12.5 -16t-4.5 -19q-1 -37 -1 -73.5t-2 -73.5q-2 -41 -4.5 -81.5t-4.5 -81.5q-1 -18 -4 -34t-11 -33q-9 -19 -30 -17q-17 0 -27 20q-16 32 -14 70
q2 28 3.5 55.5t3.5 55.5q1 27 1.5 54.5t2.5 55.5q0 15 3 32q2 12 1 23t-10 22q-7 9 -4 18t9 16q8 10 10 20.5t3 21.5l8 90l8 90l12 132l6 60q-17 0 -32 -0.5t-30 0.5q-5 1 -10 3.5t-11 4.5q4 15 14 22.5t21 12.5q7 4 14 5.5t15 3.5q11 5 21 9t16 18q4 11 14.5 14t19.5 -3
q14 -9 26.5 -8.5t26.5 2.5q38 8 73 2t67 -29zM307 629q2 10 0 23.5t-8 25.5t-16.5 22t-23.5 14q-20 6 -40.5 6.5t-40.5 -1.5q-11 -1 -17.5 -2t-9.5 -4t-4 -8.5t-2 -16.5q-1 -3 -1 -11q-4 -66 -7.5 -131t-7.5 -131l-2 -22t-3 -25q7 5 11 8.5t7 7.5l56 67t54 68q20 24 34 51
t21 59z" />
    <glyph glyph-name="Q" unicode="Q" horiz-adv-x="408" 
d="M402 -93q5 -8 11 -14t11 -13q5 -8 7 -16t-4 -17q-7 -9 -16 -10.5t-17 3.5q-16 8 -27 24l-44.5 64l-44.5 64q-3 -5 -5.5 -8t-4.5 -7l-21.5 -42.5t-23.5 -41.5q-32 -51 -93 -44q-16 2 -28 9.5t-22 18.5q-11 14 -20 29.5l-18 30.5l-10.5 18t-8.5 19l-14.5 54.5t-10.5 56.5
q-4 38 -4.5 76.5t0.5 76.5q1 28 5.5 55t7.5 55q2 18 3 36.5t5 35.5q8 37 18 73.5l20 73.5q2 9 4.5 18t7.5 17l28.5 61.5t31.5 60.5q8 14 19.5 25.5l23.5 22.5q5 5 13.5 8.5t15.5 2.5q16 -2 30 0.5t28 7.5q17 4 30 -6q26 -18 43.5 -41.5t24.5 -55.5q8 -45 11 -90t3 -90
q0 -54 -5.5 -106t-14.5 -104q-8 -51 -19 -101.5t-20 -101.5q-2 -7 -1.5 -15t4.5 -13l45 -80.5zM275 164l18 89.5t17 89.5q6 38 10.5 76.5t6.5 76.5t0 75.5t-5 75.5q-2 27 -9 52.5t-28 45.5q-33 30 -63 -4q-14 -16 -25 -33.5t-20 -37.5q-29 -58 -45 -119.5t-26 -125.5
q-4 -25 -6 -50t-5 -51q-2 -17 -4.5 -34.5t-1.5 -34.5q2 -46 -0.5 -91t5.5 -91q6 -36 15 -71t25 -67q9 -17 20.5 -18t22.5 15q20 25 34 53t25 57q7 19 1 35q-8 17 -14.5 34.5t-11.5 34.5q-5 14 -7.5 28.5t-5.5 28.5q-2 11 3 16t13 9q15 7 27 -8q7 -10 12 -23l7.5 -19.5
t6.5 -20.5q2 1 5 1z" />
    <glyph glyph-name="R" unicode="R" horiz-adv-x="434" 
d="M477 -87q12 -9 22 -26q7 -10 4.5 -15.5t-13.5 -10.5q-20 -8 -37 -3.5t-33 15.5q-38 26 -68.5 59t-59.5 68l-33.5 43l-32.5 45l-31.5 47l-30.5 47q-2 2 -3.5 4.5t-3.5 4.5q-1 -1 -4 -1l-2 -63t-3 -62q-2 -32 -3.5 -63t-3.5 -63q-1 -14 -1.5 -28t-3.5 -28t-11 -20.5
t-18 -6.5q-13 1 -22.5 9t-11.5 22q-3 17 -5.5 33.5t-2.5 33.5q0 42 1 84l2 84q0 22 0.5 43.5t0.5 44.5v2q-11 17 -5 33t8 33q3 35 5 71t5 71l4 37l4 36q2 24 3.5 48t3.5 47t4.5 45.5t5.5 45.5q0 7 0.5 14t1.5 18l-25 -11l-21 -10q-11 -5 -21.5 -11l-20.5 -12q-6 -4 -11 -5
t-10 5q-5 5 -6.5 11.5t3.5 11.5l16.5 16t18.5 14q16 9 32.5 17l32.5 16q8 5 16 9.5t16 9.5q18 12 43 11q20 -1 39 1t39 1q33 -1 63 -10.5t56 -33.5q22 -21 29.5 -47t5.5 -54q-2 -31 -12.5 -58t-26.5 -53q-29 -46 -61.5 -87l-67.5 -83l-20 -26t-21 -24q-9 -9 -8.5 -17
t5.5 -18q23 -52 54 -98l64 -91q28 -39 59 -74t66 -68q9 -8 20.5 -15t21.5 -15zM174 367q2 3 3.5 6.5t3.5 6.5l67.5 90.5l66.5 90.5q17 23 24 49.5t6 55.5q-1 21 -12 34.5t-28 20.5q-23 11 -47.5 14t-50.5 0q-17 -1 -19 -19l-2 -25l-2 -25q-2 -42 -4.5 -84.5t-4.5 -84.5
q-2 -15 -4.5 -30t-3.5 -30q-2 -17 -1.5 -33t0.5 -33l4 -2z" />
    <glyph glyph-name="S" unicode="S" horiz-adv-x="448" 
d="M361 625q4 -11 6 -23l4 -24q1 -5 1.5 -10t-1.5 -9q-4 -6 -9 -12t-11 -8q-4 -2 -11 2.5t-9 9.5q-6 10 -11 21.5t-7 22.5q-6 32 -22 59.5t-36 53.5q-12 16 -30 23.5t-39 6.5q-11 -1 -18.5 -7t-12.5 -15q-25 -47 -25 -102q2 -37 6 -72.5t18 -70.5q9 -23 16 -46.5t18 -46.5
q14 -29 29 -56t32 -54l33 -56.5t36 -53.5q16 -21 22.5 -44.5t14.5 -46.5t12 -50t-6 -50q-13 -30 -32 -57t-54 -38q-5 -2 -10 -2h-10q-28 3 -54 10t-49 24q-42 31 -78.5 65t-63.5 78q-7 13 -10 27.5t-7 28.5q-1 3 2 7.5t6 6.5q2 1 7 -1t8 -4q5 -5 9.5 -10.5t8.5 -11.5
q26 -50 64.5 -86t85.5 -65q11 -6 23.5 -8.5t25.5 -5.5q8 -2 12.5 2.5t5.5 12.5q1 14 0.5 28t-6.5 29q-10 25 -21.5 48.5t-24.5 46.5q-8 14 -18 27t-15 28q-5 14 -12.5 26.5t-14.5 25.5q-2 5 -5 9t-5 9q-9 21 -17 42.5t-19 41.5q-20 42 -31.5 85t-19.5 88q-4 23 -3 46.5
t1 46.5q0 9 0.5 18t0.5 18q2 35 13 66t26 62q14 27 37 43.5t49.5 21.5t54 -1.5t51.5 -23.5q38 -27 56.5 -65.5t32.5 -80.5z" />
    <glyph glyph-name="T" unicode="T" horiz-adv-x="352" 
d="M427 753q11 0 16 -6t5 -15q0 -5 -4.5 -10.5t-9.5 -7.5q-11 -5 -23 -9t-24 -6q-25 -3 -49.5 -5l-50.5 -4l-14 -2t-16 -3q-2 -36 -3 -69q-2 -60 -3.5 -118.5t-3.5 -118.5q-2 -41 -5.5 -81t-6.5 -81q-2 -23 -2.5 -45.5t-2.5 -45.5q-2 -26 -3.5 -50.5t-3.5 -49.5
q-4 -47 -7 -93t-7 -93q0 -5 -1 -9.5t-3 -9.5q-5 -10 -17 -18t-20 -6q-11 3 -16.5 11t-10.5 18q-7 18 -7 36.5t3 36.5q8 49 9 97.5l2 97.5l2 108t5 108q3 43 9 85.5t11 84.5l13.5 99.5l13.5 101.5q-21 -2 -41.5 -3.5t-40.5 -3.5q-32 -2 -63 -3.5t-63 -3.5q-22 0 -26 18
q-2 11 3.5 20t16.5 13q9 2 18 4.5t18 4.5l106.5 11.5t105.5 10.5q22 2 43 5t42 3q26 1 53 -0.5t53 -3.5z" />
    <glyph glyph-name="U" unicode="U" horiz-adv-x="460" 
d="M358 779q9 1 18 -10t10 -24q1 -17 0.5 -33t-1.5 -33q-2 -60 -5 -119.5l-6 -119.5q-2 -41 -5 -81t-4 -81q-2 -92 0 -184q1 -46 3 -91.5l4 -91.5q0 -6 -1 -12.5l-2 -13.5q-1 -8 -5 -12.5t-12 -3.5q-5 1 -10 4.5t-7 7.5q-4 12 -6.5 24t-3.5 25q-8 67 -14 134t-6 135v95
q-1 1 -2 1l-10 -35.5t-11 -35.5l-33 -101t-36 -101q-10 -26 -24 -50t-29 -47q-18 -28 -47.5 -29t-52.5 24q-23 26 -36 57t-17 65q-5 38 -7.5 76.5t-4.5 76.5q-5 64 2 126t15 125l10 83.5l10 83.5q4 30 9.5 59.5t18.5 58.5q8 17 22 24.5t28 13.5q3 2 8 -1t8 -5q14 -11 18 -25
t2 -31q-5 -32 -8.5 -64.5t-8.5 -64.5q-5 -37 -11 -73t-11 -73q-9 -68 -15 -135q-4 -36 -8.5 -71.5t-6.5 -70.5q-3 -44 -2.5 -86.5t11.5 -84.5q2 -8 5 -16t7 -16q13 -22 24 0l21.5 40.5t18.5 41.5q17 54 32 107.5l31 107.5l14 48t13 49q7 27 13 54.5t13 55.5l14.5 61.5
t12.5 61.5q6 35 10 70t9 70q1 7 1.5 14t2.5 14q2 11 11.5 21.5t18.5 10.5z" />
    <glyph glyph-name="V" unicode="V" horiz-adv-x="342" 
d="M485 783q11 6 20 0.5t8 -18.5q-1 -16 -10 -33l-78 -135q-22 -37 -41 -75t-35 -79l-34.5 -84l-34.5 -85q-15 -41 -28 -81l-27 -82q-11 -34 -20 -68.5t-20 -69.5l-8.5 -23t-9.5 -23q-5 -9 -15 -10t-15 8q-6 11 -11 22.5t-7 23.5q-10 54 -19 107.5l-18 107.5l-16.5 101.5
t-18.5 101.5q-9 45 -19.5 89.5t-19.5 89.5q-8 39 -11.5 78.5t-3.5 79.5q1 19 6.5 36t19.5 31q7 8 15.5 13t20.5 3q24 -8 30 -31q3 -15 6.5 -30t5.5 -30q9 -60 17 -119l16 -119l9.5 -75l9.5 -75q2 -19 2 -37t2 -37q2 -39 5 -78.5l6 -79.5h3l12 39.5l12 39.5l27.5 82.5
l27.5 81.5q29 81 63 158t79 150q17 29 35 56l37 55q10 16 25 23z" />
    <glyph glyph-name="W" unicode="W" horiz-adv-x="585" 
d="M511 813q19 1 21 -20l2 -25.5t0 -26.5q-5 -57 -9 -114.5l-8 -114.5l-6 -82l-6 -81l-8 -102l-8 -102q-3 -35 -5.5 -70.5t-4.5 -70.5q-3 -52 -27 -95q-8 -15 -24 -19t-31 4q-20 10 -31.5 26.5t-19.5 35.5q-10 23 -16.5 46.5l-12.5 46.5l-11.5 48t-8.5 48q-5 29 -6.5 59
t-3.5 60q-2 29 -3 58.5l-2 58.5h-3l-17 -88.5t-18 -88.5l-28.5 -125l-30.5 -125q-4 -14 -13 -27t-18 -24q-11 -14 -26 -14.5t-29 8.5q-23 16 -34.5 39.5l-23.5 46.5q-15 29 -19.5 60.5l-9.5 63.5q-11 68 -15.5 135.5t-3.5 136.5q1 39 6.5 78t7.5 78q2 30 7.5 58.5l11.5 57.5
q5 23 14 44.5t20 41.5q5 9 12.5 17l15.5 16q14 15 31 8q9 -3 15.5 -9t8.5 -17q1 -8 1 -15v-15l-6 -64t-5 -64q-2 -16 -2 -32t-1 -33l-3 -117q-2 -45 -3 -90l-2 -90q0 -26 1.5 -51t2.5 -51q1 -29 1.5 -57t2.5 -57l2 -25.5t3 -25.5q1 -1 2 -1t3 -1q5 15 11 29.5t10 29.5
l37.5 157l36.5 157l21.5 94l20.5 95q3 15 4.5 30.5t4.5 31.5l4 16.5t6 16.5q3 5 9 9.5t11 3.5t9.5 -7t5.5 -11q3 -12 3.5 -24t0.5 -24l4 -91.5l4 -91.5q4 -65 7 -129.5t9 -130.5q4 -37 13 -73.5l18 -72.5q2 -11 7.5 -20l10.5 -18h6q3 13 6.5 25t4.5 25l9.5 105l9.5 105
l8 88.5l8 88.5q4 36 7 72t7 71l10 90l10 90q2 23 2.5 45.5t1.5 45.5l2 13.5t11 8.5z" />
    <glyph glyph-name="X" unicode="X" horiz-adv-x="434" 
d="M446 770q8 -5 9 -14.5t-4 -18.5l-26.5 -39l-26.5 -38l-57 -85l-57 -85l-16 -26t-17 -25q-18 -22 -7 -49l12.5 -35t11.5 -37l25 -81.5t26 -82.5q9 -28 19 -55.5t21 -54.5l22.5 -51l24.5 -51q2 -5 7 -9t10 -9t11 -10t5 -10q0 -6 -5 -13t-10 -11q-9 -8 -20 -7.5t-22 5.5
q-23 9 -41 23.5t-33 34.5q-22 28 -36.5 59l-28.5 63q-13 29 -24.5 59l-22.5 60q-8 23 -14.5 47.5t-13.5 47.5q-1 1 -5 1l-18 -34.5t-17 -35.5l-29 -69.5l-28 -69.5q-8 -20 -14 -39.5l-12 -39.5q-2 -5 -0.5 -11t3.5 -12q3 -11 2 -20.5t-10 -17.5q-13 -11 -25.5 -7.5
t-17.5 20.5t-3 34t7 33l40 115l42 114q10 26 22.5 50.5l25.5 49.5q8 14 10 26.5t-3 28.5q-15 59 -27.5 117l-25.5 118q-5 23 -9 46l-8 46q-2 14 -2.5 28t-1.5 28q0 8 10 18.5t18 11.5q23 3 31 -25q6 -23 11 -46.5t12 -46.5q10 -33 21 -65.5l22 -64.5l11.5 -33.5l12.5 -36.5
l18.5 28l17.5 26l61.5 85.5l62.5 85.5l16 21.5l16 21.5l5.5 7.5t6.5 5.5q7 5 14 8t15 -2z" />
    <glyph glyph-name="Y" unicode="Y" horiz-adv-x="316" 
d="M423 763q9 -8 10.5 -17.5t-2.5 -20.5l-18 -40l-18 -40l-33.5 -81l-32.5 -82l-31 -81.5l-29 -81.5l-47.5 -141l-48.5 -140q-21 -59 -47 -118q-6 -13 -14.5 -24t-18.5 -22q-11 -11 -23 -8.5t-19 16.5q-14 25 -9 57q10 60 24 118t31 116l3.5 8.5t3.5 7.5q7 17 7.5 32.5
t-7.5 33.5l-38.5 94t-32.5 95q-17 55 -26 111.5t-11 114.5l-2 28t0 28q0 8 2.5 16.5t6.5 15.5q7 11 16 9.5t14 -13.5q3 -6 3 -15q5 -67 15.5 -132.5t27.5 -130.5q24 -91 62 -182q5 10 7.5 17.5t6.5 14.5l62 129.5l63 128.5l32.5 60.5l33.5 59.5q7 11 15.5 22l16.5 22
q4 7 11 9q8 4 16.5 9t17.5 -3z" />
    <glyph glyph-name="Z" unicode="Z" horiz-adv-x="513" 
d="M562 784q12 6 22.5 4t18 -8.5t11 -16.5t2.5 -21t-5 -22t-9 -20q-11 -20 -23 -38.5l-24 -36.5l-13.5 -20.5l-13.5 -19.5l-43 -60.5l-43 -61.5l-26 -33.5t-24 -33.5l-41.5 -62.5l-40.5 -62.5l-46 -73l-46 -73q-12 -20 -22.5 -40l-21.5 -40q-7 -13 -14.5 -25l-15.5 -25
l-10 -20l46 7.5t44 7.5q42 8 84.5 14.5t85.5 7.5l36.5 2l37.5 2q6 0 13 -0.5t12 -3.5q5 -2 11.5 -7t5.5 -9q-1 -6 -5.5 -13.5t-9.5 -9.5q-12 -5 -25 -7l-26 -4q-66 -10 -132 -19t-132 -20q-22 -4 -43.5 -10.5t-42.5 -11.5q-8 -2 -10 -5q-11 -11 -22.5 -14.5t-28.5 -0.5
q-15 3 -27 12t-13 24q0 11 1.5 22t6.5 20l31 58l32 58l31.5 54l32.5 54q10 16 20.5 31l21.5 31l15.5 27t16.5 26l36 50.5l36 49.5l47.5 65.5l48.5 64.5l64 81.5l64 80.5l12 15.5l12 15.5q-5 20 -27 18q-43 -3 -85.5 -5t-85.5 -7q-38 -4 -76 -11t-76 -12q-6 -2 -12 -1.5
t-12 1.5q-11 2 -14 7.5t3 13.5q5 8 12 15.5t15 10.5q15 7 31.5 11.5t33.5 6.5q39 7 78 12.5t79 8.5q29 2 58.5 1t58.5 -3q10 -1 20 -5t22 -8q2 2 7 4t10 5z" />
    <glyph glyph-name="j_ss02" horiz-adv-x="230" 
d="M224 395q-8 3 -14 -1t-11.5 -11t-10 -15.5t-9.5 -14.5q-8 -10 -15 -20.5l-15 -21.5q-3 4 -3 6q-1 39 -2.5 78.5t14.5 77.5q1 2 1 4t1 4q3 17 -8.5 27t-27.5 5q-10 -4 -18.5 -10t-11.5 -18l-10 -39t-8 -39q-6 -43 -5 -85.5t3 -85.5q0 -9 -1.5 -18t-6.5 -17l-40.5 -59.5
l-40.5 -58.5l-53.5 -74.5t-48.5 -78.5q-14 -26 -27 -53t-18 -57q-6 -30 -3.5 -60t21.5 -56q13 -20 29 -29.5t33 -11.5t34 3.5t32 16.5q21 15 37 35t28 43q12 21 21.5 43t18.5 45q8 20 15 41.5t13 42.5q5 21 8.5 42l7.5 43q4 20 7 39t5 39q2 31 2 61.5t1 61.5v7.5t2 5.5
l37 53l38 53q6 7 9 15.5t3 17t-3 15t-10 9.5zM71 76l-8 -56.5t-11 -54.5q-8 -30 -17.5 -59.5t-20.5 -58.5t-25.5 -57t-35.5 -52q-14 -16 -31.5 -13.5t-25.5 22.5q-14 30 -3 61q6 20 14 40l16 39q16 35 35.5 67.5l40.5 64.5l35 51l37 52q0 -13 1 -24t-1 -22zM166 736
q7 -6 6 -20q-1 -6 -3 -12t-4 -13q-5 -11 -8.5 -21l-7.5 -21q-3 -8 -8 -17q-2 -4 -4.5 -6.5l-4.5 -4.5l-19.5 -16t-17.5 -6q-3 1 -6 4t-5 7q-4 7 -5.5 18t1.5 25q4 18 16 35q8 12 20 24q14 14 27 23.5t23 0.5z" />
    <glyph glyph-name="y_ss03" horiz-adv-x="363" 
d="M34 230q-12 19 -17 39.5t-7 47.5q-1 15 -1 26t1.5 21.5t4 21.5t6.5 25q3 16 17 17q28 3 27 -25q-2 -17 -3 -32.5t-1 -32.5q-1 -38 16 -78q19 -38 51 -8q22 22 35 41t28 45q7 14 15 34.5t16 33.5q2 5 3 9t3 9q4 8 7 15.5t8 12.5q11 11 26.5 4.5t19.5 -23.5q1 -2 1 -6
l6 -51.5l6 -51.5l6 -59.5l6 -59.5q0 -2 0.5 -4t0.5 -5l21 15.5l20 14.5q14 10 29 14q13 5 17.5 1t3.5 -18q-1 -8 -2.5 -10t-4 -2.5t-6.5 -1.5t-8 -7q-17 -20 -41 -39q-14 -12 -16 -27t-1 -32q1 -21 1.5 -46.5t-0.5 -52.5t-3.5 -52.5t-6.5 -46.5q-3 -12 -3 -24.5t-2 -24.5
l-8 -42.5t-10 -41.5q-8 -26 -17 -52l-18 -52q-11 -30 -27 -58.5t-38.5 -50t-51 -35t-63.5 -13.5q-12 -1 -24 3.5t-23 10.5q-27 15 -41.5 42t-19 58t0.5 63t17 58q19 39 37 72t39.5 66.5t49 71.5l64.5 87q14 19 29 36.5t29 35.5q6 9 6 20q0 23 -2.5 44.5t-5.5 43.5
q-2 19 -3.5 38.5t-5.5 39.5l-10 -18t-10 -17l-22.5 -34t-28.5 -30q-44 -33 -89 -8q-4 2 -7 5.5t-6 6.5q-5 5 -9.5 10.5zM247 -45q0 7 1 20t1.5 27l1 27.5t0.5 21.5q-22 -21 -38 -43.5l-31 -45.5q-16 -25 -33 -48t-32 -47q-17 -26 -31 -52.5l-29 -52.5q-13 -23 -21 -46
t-14 -49q-8 -32 -6 -52t9.5 -32t18.5 -17t22 -6q27 -2 50 20q19 18 31 39.5l24 43.5q20 35 31.5 74l22.5 78q5 17 9 34.5t6 34.5q3 18 4.5 36t2.5 35z" />
    <glyph glyph-name="l_ss02" horiz-adv-x="217" 
d="M215 229q13 12 23 11.5t14.5 -9t3.5 -23.5t-10 -31l-20 -42l-23 -49.5l-23 -49.5l-20 -42q-5 -11 -15 -22q-11 -13 -25.5 -16.5t-29 -1t-27.5 10t-21 16.5q-20 23 -30 49.5t-14 55.5q-1 6 -1.5 12t-1.5 14q-2 24 -2 45t1 50q2 28 7.5 55.5t11.5 54.5l10 43.5t12 42.5
q16 46 35.5 89t45.5 84q11 17 30 28q14 9 27 3t13 -23q1 -17 -3.5 -34.5t-4.5 -34.5q0 -25 -9 -59.5t-24 -73t-35 -76.5t-43 -69q-5 -7 -12 -30.5t-5 -64.5l4 -40.5t7 -40.5q5 -15 14 -29.5t26 -24.5q17 14 24.5 30l15.5 32q20 40 37 80t37 80zM62 295q12 19 24 46
t22.5 55.5t17.5 55.5t9 46l-22 -32.5t-22.5 -41t-18.5 -55t-10 -74.5z" />
    <glyph glyph-name="a_ss01" 
d="M171 178l-27.5 -45t-25.5 -43q-14 -25 -26.5 -50.5l-26.5 -51.5q-11 -20 -20 -26t-21 -2q-11 5 -21 22.5t-10 33.5q1 34 10 65.5t20 62.5q15 39 36 75t47 68q20 28 50 48q8 5 18.5 5.5t19.5 2.5l11.5 15.5t13.5 14.5q12 11 24 9t19 -18q5 -11 8 -25t1 -26q-7 -32 -6 -64
t3 -64q1 -38 4.5 -76t11.5 -75q2 -5 1.5 -10t0.5 -10q2 -53 -48 -47q-18 3 -26 15.5t-12 29.5q-5 20 -8.5 40.5t-7.5 40.5t-6.5 40t-6.5 45zM190 306q-2 1 -3.5 1.5t-3.5 1.5q-31 -24 -53 -54t-37.5 -64t-26.5 -71.5t-19 -76.5q7 8 12.5 17t10.5 19l48.5 83l47.5 83
q8 14 13 29.5t11 31.5z" />
    <glyph glyph-name="b_ss01" horiz-adv-x="302" 
d="M13 10l-3 30.5t-3.5 43t-3 42.5t-1.5 31q-2 14 -3 26.5t-3 25.5v-1q1 5 2.5 10t-0.5 8q-6 8 -5 16.5t3 16.5q2 11 2 22v22l3 69q2 21 2 42t2 41q8 95 18 185q4 38 9.5 75.5t19.5 74.5q2 8 5.5 15l7.5 15q5 8 13 13q11 8 21.5 6t16.5 -12q4 -7 6 -16l4 -43l4 -42
q2 -22 3.5 -43t1.5 -42q0 -25 -2 -49.5t-9 -49.5q-7 -29 -12 -57t-13 -56q-6 -23 -14.5 -45t-16.5 -45l-6 -19.5t-3 -18.5q0 -34 1.5 -67.5t2.5 -67.5q2 0 3 -0.5t3 -0.5q3 5 7 10t6 10q11 28 32 51.5l42 46.5q10 11 25 17t30 11q18 6 35.5 -2t23.5 -23q13 -32 5 -69
q-10 -40 -25 -78t-39 -74q-8 -11 -16.5 -20.5l-17.5 -19.5q-6 -7 -22.5 -10.5t-25.5 -1.5q-10 3 -17 17t-2 23t10.5 17.5t13.5 16.5q12 11 19.5 23.5t13.5 26.5l16.5 41.5l16.5 41.5q4 9 4 22q-16 -8 -25 -20l-18 -24q-8 -10 -13.5 -20.5t-11.5 -20.5q-25 -41 -35.5 -83
t-14.5 -86q-1 -11 -12 -22.5t-24.5 -13.5t-25 10t-11.5 48zM57 410q10 11 17.5 39.5t12 65.5t7 78.5t3 79t-1 66t-4.5 40.5q-10 -46 -15.5 -91.5t-8.5 -91.5t-5 -92.5t-5 -93.5z" />
    <glyph glyph-name="b_ss02" horiz-adv-x="262" 
d="M47 189l27 52t29 50q14 21 33 27.5t45 -7.5q17 -10 24 -25t10 -32q4 -20 4 -44q0 -11 -1 -22t-3 -25l20 12.5t19 9.5q16 7 29 7q4 0 8.5 -3.5t5.5 -7.5q1 -5 -0.5 -11t-4.5 -8l-39.5 -25t-38.5 -25q-7 -5 -13 -10.5t-9 -11.5q-14 -33 -32.5 -62.5t-47.5 -52.5
q-8 -7 -18.5 -11.5t-21.5 -6.5q-14 -3 -22 5.5t-3 22.5q8 25 17.5 49t33.5 41q35 23 47 57.5t17 72.5q2 17 0.5 33.5t-13.5 34.5q-8 -11 -16.5 -19.5t-13.5 -18.5q-40 -73 -58 -159q-4 -14 -7 -27.5t-10 -25.5q-3 -7 -12 -10.5t-17 -8.5q-4 7 -8.5 13t-5.5 14
q-3 31 -4.5 61.5t-2.5 61.5q-1 59 -1 116.5t2 116.5q3 58 12.5 115t32.5 111q18 44 49 40q6 0 12.5 -4t8.5 -9q6 -14 11 -29.5t5 -30.5q1 -61 -9 -119.5t-33 -115.5l-15.5 -35t-16.5 -34q-11 -22 -8.5 -43.5t3.5 -43.5zM84 616q-27 -69 -33.5 -139.5t-4.5 -143.5
q8 22 18.5 41.5t12.5 43.5q3 31 9.5 61.5t9.5 62.5q2 18 3 37t-15 37z" />
    <glyph glyph-name="c_ss01" horiz-adv-x="281" 
d="M123 300l11 41q6 19 12.5 37.5t0.5 38.5q-2 7 -7.5 14.5t-8.5 7.5q-8 -2 -16.5 -6.5t-10.5 -10.5q-8 -17 -13.5 -34.5t-8.5 -35.5q-5 -36 -9 -72t-5 -72q-2 -42 -2.5 -83.5t14.5 -81.5q4 -9 8 -17t10 -15q8 -10 23 -7t26 17l37 47l36 48q2 3 4 6.5t5 5.5q5 2 11.5 2.5
t12.5 2.5q-1 -6 0 -12t-1 -11q-19 -34 -41 -65.5t-48 -60.5q-29 -32 -63 -31t-63 33q-23 27 -32.5 58t-10.5 65q-2 63 4.5 124.5t19.5 124.5q5 23 12.5 44.5t20.5 41.5q25 38 69 38q43 -1 57 -45q11 -35 3 -66t-25 -60q-4 -5 -11 -9t-12 -8z" />
    <glyph glyph-name="d_ss01" horiz-adv-x="356" 
d="M8 193l21 32t21.5 30.5t25.5 27t32 21.5q23 11 48 -1q20 -11 5 -26q-6 -7 -13.5 -12l-15.5 -10q-32 -20 -51.5 -49t-29.5 -65v-13q10 8 18 13.5t15 11.5l84 91q9 10 12.5 21.5t5.5 25.5q3 29 9 56.5l12 55.5q4 20 9 40l10 40q8 25 15 49.5t22 46.5q19 29 51 41
q19 7 34.5 -5.5t13.5 -34.5q-3 -24 -7.5 -48t-12.5 -47q-8 -26 -18 -50.5t-21 -48.5q-19 -47 -19 -98q0 -18 -3 -36t-3 -35q-1 -19 0.5 -37.5t2.5 -37.5q1 -27 0.5 -53.5t0.5 -53.5q0 -26 0.5 -51.5t0.5 -51.5q0 -8 -1 -17t-4 -17q-6 -17 -19.5 -19.5t-25.5 11.5l-11.5 16
t-8.5 17q-13 45 -20.5 89.5t-7.5 91.5q0 21 -1 42t-3 46l-14 -17t-12 -13q-18 -16 -36.5 -30.5t-35.5 -30.5q-16 -14 -32 -15t-34 9l-7 3q-6 1 -10.5 10.5t-6 23.5t2 30.5t12.5 30.5z" />
    <glyph glyph-name="e_ss01" horiz-adv-x="351" 
d="M-6 143q2 40 14 75.5t27 62.5l28 48t33 44l10.5 10t11.5 9q15 11 26.5 8.5t22.5 -17.5l10.5 8t10.5 6q14 7 25.5 1.5t15.5 -20.5q5 -17 0 -32.5t-14 -28.5q-38 -56 -78 -108q-17 -21 -36 -41.5l-38 -40.5q-10 -11 -7 -20t18 -12q5 -1 9 0t8 1q42 2 81.5 13t77.5 28
q28 12 52 29t44 40q9 10 20.5 16t25.5 10q5 -13 6 -24t-7 -26q-17 -31 -42.5 -52t-55.5 -36q-23 -12 -46 -22t-47 -18t-48.5 -12t-49.5 -9q-26 -5 -48.5 4t-42.5 24q-8 6 -9 14q-6 17 -7.5 33t-0.5 35zM167 371q-11 -4 -26 -21t-28.5 -39.5t-24 -46.5t-11.5 -41l51 67l51 67
q-4 4 -6.5 7.5t-5.5 6.5z" />
    <glyph glyph-name="f_ss01" horiz-adv-x="235" 
d="M122 117q15 3 28.5 5t26.5 5q8 2 16 3.5t15.5 0t13 -8t9.5 -19.5l-11.5 -9t-14.5 -8q-20 -6 -40.5 -11t-40.5 -11q-5 -1 -9.5 -5.5t-4.5 -8.5q-2 -15 -2 -30.5t-1 -30.5q-4 -51 -7 -100.5t-8 -100.5q-1 -11 -10 -25q-11 -16 -27.5 -16t-22.5 19q-7 17 -9.5 35.5
t-2.5 37.5q0 47 1.5 93t2.5 93q1 6 1 11.5v10.5q2 1 2 9t-0.5 17.5t-1 17.5t0.5 10q2 38 4.5 75t5.5 74l11.5 136t15.5 135q3 25 14 49.5l22 47.5q16 35 53 35q21 0 33 -12t20 -28q15 -32 16.5 -65t-5.5 -65q-12 -62 -28 -122.5l-32 -121.5l-16.5 -60zM161 620
q-6 -7 -11.5 -12t-7.5 -10l-10 -28t-7 -28q-3 -43 -4.5 -85t-3.5 -84q-1 -26 -0.5 -50.5t0.5 -50.5q4 2 5.5 5t3.5 6l27 90t25 91q8 38 6.5 76.5t-23.5 79.5z" />
    <glyph glyph-name="g_ss01" horiz-adv-x="286" 
d="M78 29q7 11 14 20.5t13 20.5q34 64 60 130.5t47 135.5q3 9 12 18q7 8 14 6.5t11 -11.5l4 -14t1 -14q-2 -42 -3.5 -82.5t-5.5 -82.5q-2 -24 -8 -48.5t-11 -53.5l21.5 12.5l18.5 10.5l10 6t10 2q5 0 11 -3.5t8 -7.5t-0.5 -10.5t-6.5 -8.5q-19 -13 -38 -24.5l-39 -24.5
q-5 -3 -9 -8.5t-6 -10.5q-17 -46 -41 -86.5t-56 -77.5q-11 -12 -22 -18q-15 -8 -27.5 -2t-17.5 23q-8 27 0.5 49.5t24.5 41.5q18 23 38.5 43t42.5 38q14 11 23 23t13 29q11 44 20 87.5t11 88.5q-2 2 -5 2l-21 -50l-28.5 -70t-30.5 -70q-6 -13 -15 -24t-19 -21
q-14 -14 -33.5 -12t-32.5 18q-15 20 -22.5 42t-10.5 45q-5 30 -4 60.5t5 61.5q3 26 10.5 49l15.5 46q13 32 31.5 61t50.5 47q17 11 36.5 15.5t41.5 -7.5q35 -19 9 -46q-6 -6 -9 -7q-19 -6 -32 -17t-22 -25t-15.5 -30t-12.5 -33l-15.5 -52t-11.5 -52q-5 -26 -5 -51.5
t-1 -51.5q0 -6 1.5 -11.5t3.5 -11.5q2 0 4 -2zM151 -48q-16 -11 -33 -26.5t-30 -32.5t-18 -33t3 -28q52 55 78 120z" />
    <glyph glyph-name="h_ss01" horiz-adv-x="328" 
d="M251 67l24 31l24 31l8 11.5t10 10.5q5 3 11.5 5t10.5 0t5 -9.5t3 -13.5q0 -2 -1.5 -4.5t-3.5 -4.5l-35.5 -52.5t-37.5 -50.5q-18 -22 -38 -17.5t-25 33.5q-5 34 -6 68.5l-2 69.5q0 28 2 56t3 56q-1 1 -2 1t-2 1l-9.5 -15t-8.5 -15q-42 -85 -65 -177q-5 -20 -7.5 -39.5
t-5.5 -39.5q-2 -12 -3.5 -24t-5.5 -23q-2 -8 -8 -14t-17 -5q-11 0 -19 4.5t-10 16.5l-6 40.5t-5 40.5q-2 42 -3 83t-1 83q1 34 3 67l4 67l8 100t9 100q2 26 7 51.5t11 50.5q3 14 15 22.5t23 6.5t17.5 -11.5t6.5 -25.5v-19.5t-1 -19.5l-8 -115t-7 -115q-3 -41 -5 -81l-4 -81
q0 -2 0.5 -5t0.5 -8q8 11 9 15q18 38 38.5 74t50.5 67q14 14 26.5 11t16.5 -22q3 -17 4 -33.5t0 -33.5q-1 -38 -2.5 -77t-3.5 -77q0 -11 1 -22.5l2 -22.5q2 0 2.5 -0.5t1.5 -0.5z" />
    <glyph glyph-name="i_ss01" horiz-adv-x="204" 
d="M123 115l30.5 33.5l30.5 33.5l13.5 15.5t14.5 14.5q4 3 10.5 4.5t10.5 -0.5t6 -8t4 -11q2 -7 -3 -13l-39 -55.5t-40 -53.5q-8 -10 -19 -16.5t-22 -11.5q-27 -11 -50.5 0t-34.5 38q-7 20 -7 44q0 23 -0.5 47t4.5 47q5 20 9 41t22 35l14.5 10t14.5 4q11 -2 19 -9t10 -20
q1 -10 1 -20v-20q-2 -32 -3 -63l-2 -62zM121 438q-5 -7 -13.5 -11t-16.5 -9q-13 0 -23.5 13.5t-8.5 23.5q4 15 7.5 31t17.5 27q23 18 44 5q24 -14 14 -41q-4 -11 -8.5 -21t-12.5 -18z" />
    <glyph glyph-name="j_ss01" horiz-adv-x="161" 
d="M103 206l12.5 19.5l10.5 16.5t11.5 13.5t17.5 -0.5q23 -11 10 -34l-26.5 -43.5l-26.5 -43.5q-4 -8 -5 -17t-3 -18q-2 -17 -5 -51t-8 -72t-13.5 -72.5t-20.5 -50.5q-10 -26 -30 -38t-46 -11q-23 1 -40.5 23.5t-16.5 50.5q2 34 15 63t30 58l35 55.5t35 56.5q2 4 4.5 8.5
t2.5 9.5q-2 42 -4.5 84t-5.5 84q-1 14 -4.5 28t-6.5 28q-2 9 1.5 15.5t11.5 8.5q5 1 13.5 -1.5t10.5 -6.5q8 -16 14.5 -32t10.5 -33q5 -19 7 -39l4 -40q1 -4 2 -7.5t3 -11.5zM29 0q-7 -17 -16 -33t-16.5 -32.5t-11.5 -34t-2 -37.5q10 6 20 23.5t17 38.5t10 41.5t-1 33.5z
M-4 480q-1 5 -1 10t-1 10q2 23 12 41t24 35q6 8 14.5 7.5t16.5 -5.5q9 -5 11.5 -12.5t0.5 -15.5l-6 -31.5t-7 -31.5q-2 -6 -3.5 -12.5t-6.5 -10.5q-14 -15 -31.5 -9.5t-22.5 25.5z" />
    <glyph glyph-name="k_ss01" horiz-adv-x="238" 
d="M104 118l-7.5 -42t-6.5 -38l-4 -33l-4 -32q-1 -8 -3.5 -15t-13.5 -9q-20 -3 -28 16q-11 26 -20 54t-14 57q-9 57 -8.5 112t-1.5 112q0 17 1.5 33t3.5 33q4 35 7.5 70.5t5.5 70.5q1 20 10 35t22 28q5 5 13 6t15.5 -1.5t13.5 -8t7 -13.5q3 -30 3 -60q1 -44 1 -86.5v-86.5
v-96l6 -3q4 3 8.5 6t6.5 7q14 20 26 40.5t25 40.5l15 21.5t16 20.5q3 4 9 5t11 3q2 -6 4.5 -12.5t3.5 -12.5q0 -5 -3 -9l-6 -8q-45 -56 -74 -117q-2 -6 -2.5 -13.5t1.5 -12.5l30.5 -54t32.5 -53q2 -4 7 -6.5t10 -5.5q8 -6 13 -14t0 -17q-3 -7 -11.5 -13t-14.5 -5
q-11 1 -22.5 4.5t-17.5 11.5q-16 20 -29 40.5l-27 41.5q-1 1 -3 2t-7 6z" />
    <glyph glyph-name="l_ss01" horiz-adv-x="268" 
d="M4 240v140q1 100 24 198q5 19 9.5 38t10.5 37q3 10 10 19.5t16.5 16t20.5 10t23 1.5q44 -8 70.5 -39.5t23.5 -76.5q-4 -64 -15 -126.5t-33 -122.5q-11 -29 -26 -57t-31 -55q-9 -16 -14 -31t-3 -34q3 -35 4 -69.5t4 -69.5q2 -30 18.5 -34t32.5 21l52.5 83.5l51.5 83.5
l13.5 24t14.5 23q7 10 18 15q9 4 15 -1.5t4 -15.5q-2 -11 -6.5 -21.5t-9.5 -20.5l-45.5 -85.5l-45.5 -84.5q-11 -20 -24.5 -39t-33.5 -33q-15 -11 -30 -13.5t-28.5 1t-24.5 13t-18 22.5q-7 12 -14 30.5t-13 46t-11 65.5t-7 89q-2 14 -2 27t-1 25zM90 287q4 0 6 -1q4 4 5 6
l37 95t24 98q5 36 6 72t-8 72q-2 5 -6 10l-8 10q-5 -5 -12 -8.5t-9 -9.5q-11 -31 -14 -63q-5 -48 -8 -94.5l-6 -93.5q-2 -23 -3.5 -46.5t-3.5 -46.5z" />
    <glyph glyph-name="m_ss01" horiz-adv-x="519" 
d="M278 233l22 55.5t23 54.5q14 30 30 58.5t38 54.5q15 18 36 9q23 -6 24 -28q1 -20 1.5 -40.5t0.5 -41.5q0 -58 -1 -116t1 -116q2 -45 7.5 -89t9.5 -89q1 -7 -3 -15t-9 -12q-8 -7 -18 -5t-15 11q-13 25 -19 49l-9.5 51.5t-6.5 51.5q-2 29 -2 57.5v57.5q1 35 2.5 68.5
t2.5 68.5q1 6 0.5 11.5t-1.5 11.5q-1 0 -2 0.5t-2 0.5l-13.5 -26.5t-11.5 -26.5l-22.5 -60t-20.5 -61q-9 -29 -14.5 -59t-13.5 -59q-3 -11 -6.5 -22t-9.5 -21q-5 -8 -12.5 -11.5t-15 -3.5t-14.5 4.5t-10 12.5q-7 17 -10 36t-3 38q-1 42 0.5 82.5t3.5 82.5q0 6 1 12t3 13
q-2 0 -3 0.5t-3 0.5l-16.5 -48l-16.5 -48l-28 -93l-28 -92q-9 -30 -41 -35q-19 -4 -35 6t-19 28q-7 37 -10.5 74t-0.5 75q3 42 5 84t6 84q2 18 6 35.5t9 34.5q5 14 15.5 21t24.5 5q12 -2 19.5 -10.5t7.5 -23.5q0 -28 -0.5 -55t-1.5 -55v-46l31 73t32 71q13 29 30 52
q6 8 14.5 15t17.5 12q11 8 26.5 1t20.5 -21q8 -20 7 -41t-3 -41q-2 -28 -5 -55.5l-6 -56.5q2 0 4 -1z" />
    <glyph glyph-name="n_ss01" horiz-adv-x="300" 
d="M116 266l13 26.5t13 25.5q8 14 16.5 25.5t25.5 16.5q18 6 30 -9q14 -15 15.5 -33.5t3.5 -36.5q4 -34 5.5 -68t6.5 -68t14 -67t17 -66l4 -18.5t1 -19.5q-1 -14 -11.5 -19.5t-22.5 1.5q-20 12 -27 32t-13 40q-17 56 -20 113t-5 115q0 4 -0.5 8.5t-4.5 9.5l-16.5 -43.5
t-13.5 -44.5q-9 -38 -16 -75.5t-15 -75.5q-3 -14 -13.5 -23t-26.5 -10q-12 0 -23.5 9t-13.5 21q-8 38 -10.5 76.5t-4.5 77.5q-2 50 5 98t6 98q0 13 13.5 26t26.5 14q10 1 22 -12t13 -29q2 -22 2 -44v-45v-25q3 0 4 -1z" />
    <glyph glyph-name="o_ss01" horiz-adv-x="297" 
d="M230 225q-3 -14 -5.5 -28.5t-5.5 -28.5q-8 -40 -20 -78.5t-32 -74.5q-11 -20 -26.5 -32.5t-40.5 -11.5q-19 1 -33 10t-24 24q-29 44 -33 91t5 96q6 35 14 68t25 65q7 14 -3 30q-20 34 -20 68.5t22 67.5q13 19 30.5 29.5t36.5 11.5t38 -7t34 -24q29 -32 37.5 -69.5
t11.5 -77.5q1 -6 1 -11.5v-11.5q1 -11 -1 -24t3 -18q11 -10 25.5 -15t28.5 -11q9 -4 18.5 -6.5t18.5 -7.5q8 -5 13.5 -11.5t1.5 -17.5q-7 -17 -13.5 -21.5t-20.5 -0.5q-21 7 -42 13t-44 14zM106 36q5 6 8.5 9.5t5.5 7.5q26 43 37.5 90.5l22.5 95.5q1 4 -0.5 8.5t-3.5 6.5
q-14 9 -29.5 17.5l-32.5 18.5q-7 -32 -14.5 -63t-10.5 -62.5t0 -63.5t17 -65zM185 315q2 2 3.5 2.5t3.5 1.5q-2 23 -2.5 45t-4.5 45q-3 18 -10 35.5t-24 30.5q-14 11 -29.5 8t-23.5 -19q-16 -29 -4 -64q3 -11 10 -19t15 -15t16 -13t15 -14t16.5 -13t18.5 -11z" />
    <glyph glyph-name="p_ss01" horiz-adv-x="250" 
d="M93 378q16 14 31.5 29.5t33.5 26.5q26 16 51 4t33 -43q6 -22 3.5 -42t-10.5 -39q-20 -46 -48 -91q-10 -15 -22.5 -28.5t-26.5 -25.5q-6 -5 -15 -8t-15 -1q-9 2 -11.5 15t3.5 23q11 17 24 33.5t22 35.5q12 24 21.5 49l19.5 50q2 5 -0.5 10.5t-4.5 10.5q-5 -2 -10 -2.5
t-9 -3.5q-24 -16 -38 -39l-28 -48t-13 -51t1 -52q0 -46 1.5 -91t2.5 -91q1 -9 -1 -19t-4 -19q-8 -31 -35 -29q-10 1 -17.5 11t-8.5 24q-2 24 -3 48t-1 47l2 119.5t3 119.5q1 23 3 46t7 46q2 9 8.5 17.5t14.5 13.5q12 8 23.5 1t12.5 -21v-36z" />
    <glyph glyph-name="q_ss01" horiz-adv-x="275" 
d="M185 268l-22 -36.5t-24 -36.5q-12 -17 -25 -33.5t-27 -30.5q-20 -20 -42.5 -16t-37.5 28q-7 11 -9.5 22t-3.5 24q-4 42 9 79t30 73l15.5 34t17.5 33q7 11 16.5 21.5t20.5 17.5q17 10 31 7.5t25 -13.5q7 -8 7 -25.5t-7 -30.5l-33 -58t-30 -59q-9 -20 -14 -41.5t-12 -42.5
q4 -2 5 -3l26.5 27.5t24.5 28.5l36.5 51.5l35.5 51.5q5 5 11.5 8t12.5 7q4 -7 10 -14t6 -14q-3 -47 -7.5 -92.5t-7.5 -91.5q-2 -39 -3.5 -78.5t-3.5 -78.5l-6 -117q-1 -9 -5.5 -15t-14.5 -7q-21 0 -23 22q-1 22 -1.5 44t0.5 45q3 50 6.5 99.5t7.5 99.5q2 28 4.5 55.5
t4.5 54.5q-1 1 -4 1z" />
    <glyph glyph-name="r_ss01" horiz-adv-x="283" 
d="M25 30q-5 3 -6 9.5t0 15t3 17.5t3 16q5 29 11 58.5t10 58.5q4 25 5.5 50.5t2.5 51.5q0 4 -3.5 9.5t-8.5 7.5q-20 13 -27 33.5t-5.5 41.5t11.5 40.5t25 30.5q14 10 28.5 5t20.5 -22q3 -10 5 -20.5t2 -21.5q-1 -20 16 -23q18 -2 35.5 -3t35.5 -3q43 -6 40 -51
q-5 -64 -8.5 -127t-7.5 -127q1 0 5 -2l25.5 35.5l25.5 35.5q5 8 9.5 16.5t11.5 14.5q5 4 14 6t14 0q9 -3 10 -12t-4 -17l-21.5 -36.5t-21.5 -35.5l-21.5 -32.5t-22.5 -30.5q-8 -11 -19 -20.5t-27 -5.5q-18 4 -26.5 17.5t-10.5 30.5q-3 25 -4 50t0 50q2 42 5.5 82t5.5 82
q-15 0 -30 0.5t-30 -1.5q-4 -1 -8 -8t-5 -13q-8 -50 -15 -99t-15 -98q-1 -8 -4.5 -19t-8 -20t-10 -14.5t-10.5 -2.5z" />
    <glyph glyph-name="s_ss01" horiz-adv-x="270" 
d="M69 -78q-26 1 -47 13t-34.5 31.5t-17 43.5t6.5 48q21 52 48 99.5t59 93.5q8 11 11 22.5t2 26.5q-3 32 -2 64t1 64q1 11 2 20.5t2 20.5q3 26 26 28q8 1 17.5 -1t16.5 -7q9 -6 9.5 -16.5t-4.5 -20.5q-12 -20 -15 -39.5t5 -43.5q8 -21 17 -41t21 -38q26 -43 37.5 -88.5
t6.5 -95.5q-3 -25 -11.5 -49t-24.5 -44l-22.5 -28l-23.5 -28q-14 -16 -40 -26t-46 -9zM124 214q-2 0 -3.5 0.5t-3.5 0.5q-14 -26 -29.5 -46.5t-28.5 -46.5q-11 -20 -23.5 -45.5t-18.5 -47.5q-3 -11 2.5 -20.5t15.5 -16t22 -8.5t23 1q35 12 55 38t24 60q2 17 -1.5 33.5t-9 33
t-12.5 32.5t-12 32z" />
    <glyph glyph-name="t_ss01" horiz-adv-x="187" 
d="M117 61l19.5 50t20.5 49q6 12 14.5 22.5t17.5 19.5q8 8 15 4.5t9 -14.5q2 -10 2 -20.5t-4 -19.5l-32.5 -89.5t-42.5 -85.5q-17 -26 -39 -26t-39 26q-12 18 -14.5 38.5t-4.5 40.5q-4 71 -2 141.5t10 141.5q5 38 7.5 77t5.5 78q-20 0 -40 0.5t-40 -0.5q-30 -1 -33 32
q-2 13 6.5 18.5t18.5 8.5l28 6t28 4q9 0 18.5 -3t22.5 -5v69q1 6 1 11.5t2 10.5q5 11 16.5 13.5t18.5 -7.5q12 -16 13 -34q2 -15 1.5 -31t-0.5 -33q14 -3 28.5 -3.5t28.5 -2t27 -6.5t25 -16q-14 -16 -30 -20.5t-33 -4.5q-18 0 -27.5 -1t-14 -5.5t-5.5 -14t-2 -26.5
q-3 -52 -7 -103t-6 -103q-2 -26 -1 -52.5t1 -53.5l3 -60q0 -5 0.5 -10t1.5 -10q2 -1 7 -1z" />
    <glyph glyph-name="u_ss01" horiz-adv-x="334" 
d="M75 83l25.5 68.5l26.5 68.5l17 42l20.5 49l20 48l16.5 40q7 7 17.5 9.5t20.5 1t18 -7.5t10 -16q0 -2 -0.5 -13t-1.5 -26l-2 -30.5t-2 -25.5q-2 -35 -5.5 -70.5t-5.5 -71.5q-1 -12 0 -25.5t2 -30.5l27 38l26 35q8 11 15.5 23t15.5 22q4 5 10.5 5t12.5 2q1 -8 3.5 -16
t-0.5 -13q-11 -23 -23 -45.5t-26 -44.5q-13 -20 -27 -38l-28 -37q-10 -13 -22.5 -21t-27.5 0q-29 14 -35 54q-2 15 1.5 45t9 63t11.5 63l9 45q2 8 -4 16q-2 -4 -8.5 -23l-14 -41.5l-14 -41.5t-8.5 -23l-27 -68t-28 -67q-6 -14 -15.5 -25.5t-26.5 -12.5q-25 -1 -40.5 15
t-19.5 45q-11 79 0 153.5t35 147.5q4 11 7 21.5t7 21.5q2 6 5.5 12.5t8.5 9.5q7 3 15.5 4.5t14.5 -0.5q9 -5 11 -14.5t0 -20.5l-17.5 -75t-15.5 -75q-5 -23 -5.5 -46t-2.5 -46q0 -18 1.5 -29.5t4 -17.5t5 -8t3.5 -2z" />
    <glyph glyph-name="v_ss01" horiz-adv-x="302" 
d="M135 125q13 38 23.5 72t23.5 67q14 35 29.5 70l31.5 70q4 8 12 13q14 10 22.5 5.5t10.5 -21.5q1 -10 0.5 -20t-3.5 -20l-24.5 -80.5l-25.5 -80.5l-44 -137q-3 -9 -7.5 -18t-9.5 -18q-17 -33 -52 -27q-33 6 -43 39q-20 61 -32 123t-13 127q-1 32 -1 64.5t2 65.5
q0 10 2.5 19.5t5.5 19.5q8 25 32 21q27 -5 28 -33q1 -44 1.5 -87.5t3.5 -87.5q2 -36 6 -72t21 -74z" />
    <glyph glyph-name="w_ss01" horiz-adv-x="371" 
d="M241 156l16.5 78t16.5 73q8 32 18 63t19 63q2 6 4 8q6 4 12 9t11 4q5 -2 9 -8.5t6 -13.5q7 -23 1.5 -45t-9.5 -45q-9 -51 -19 -101.5l-21 -101.5q-4 -18 -9.5 -35t-22.5 -29q-15 -11 -33 -10t-28 17q-11 17 -18.5 35t-15.5 35q-2 3 -2 6t-2 8l-23.5 -71.5l-22.5 -69.5
q-9 -26 -28.5 -36.5t-41.5 0.5q-11 5 -19 14.5t-13 20.5q-14 30 -18 63t-9 66q-5 45 -5.5 89.5t2.5 89.5q2 18 3.5 35.5t4.5 35.5q2 9 7.5 16t17.5 5q24 -6 24 -29q2 -49 3 -98t4 -98q2 -26 5.5 -51t7.5 -50h4q7 20 13 40.5t14 40.5q14 33 29 65l30 64q5 10 13 12.5t16 -0.5
t16 -8.5t11 -12.5q5 -12 5.5 -25t2.5 -26q2 -20 4.5 -40t4.5 -40q1 -2 2 -4.5z" />
    <glyph glyph-name="x_ss01" horiz-adv-x="298" 
d="M87 162l-32 -47.5l-29 -45.5q-7 -11 -15.5 -16t-19.5 -1q-23 7 -13 31q3 6 5 13t7 12l31 43.5l32 42.5q8 9 10 17.5t-4 22.5q-10 25 -16.5 50.5t-12.5 51.5q-2 8 -0.5 16.5t14.5 13.5q4 1 8 4.5t8 6.5t9 3.5t12 -2.5q30 -14 37 -45q2 -8 5.5 -17l7.5 -20l12 13.5l10 10.5
l18.5 16t20.5 14q4 2 11 1.5t10 -3.5t4.5 -9.5t-0.5 -11.5q-3 -9 -8.5 -16.5t-10.5 -15.5l-4.5 -4.5l-4.5 -4.5q-8 -12 -17 -24l-19 -26l31.5 -56.5l33.5 -59.5l38 43.5l35 40.5q4 4 7.5 8t8.5 6q12 3 24 -2q3 -2 4 -8t1 -11q0 -21 -13 -35t-24 -30q-13 -18 -28 -35l-30 -35
q-22 -27 -53 -15q-18 6 -30.5 19t-23.5 28l-22 31.5z" />
    <glyph glyph-name="y_ss01" horiz-adv-x="298" 
d="M169 223q-14 -20 -25 -37.5t-23 -34.5q-8 -12 -20.5 -20.5t-28.5 -6.5q-15 2 -25 12.5t-12 24.5q-4 20 -6 41t0 41q5 71 28 135q5 13 13 16.5t19 1.5t13.5 -10.5t1.5 -16.5q-2 -14 -4.5 -27.5t-4.5 -27.5q-3 -18 -5.5 -36t-4.5 -35q-2 -13 -1.5 -26.5t0.5 -30.5
q9 10 16.5 17.5t13.5 16.5q17 26 33 53l32 54q6 10 10 20.5t7 21.5q5 17 13.5 30.5t25.5 21.5q14 6 24.5 1t13.5 -20q2 -10 2 -20t-1 -20q-3 -44 -6.5 -87t-5.5 -87t-1.5 -87.5t-0.5 -88.5q-1 -17 -2.5 -34.5t-4.5 -34.5q-2 -13 -10.5 -22.5t-20.5 -14.5q-15 -7 -34 -1
t-22 32q-3 25 -4 50l-2 51q-1 17 -1 33.5t2 33.5l4 57.5t4 60.5z" />
    <glyph glyph-name="z_ss01" horiz-adv-x="272" 
d="M134 177q10 -5 18 -8.5l19 -8.5q8 12 15.5 24.5t14.5 26.5q9 14 19.5 16t21.5 -11q3 -2 4.5 -7.5t-0.5 -8.5l-15.5 -32.5t-16.5 -31.5q-6 -10 -8.5 -20t2.5 -19q11 -17 11 -36t1 -38q1 -56 -10 -114.5t-37.5 -109t-69.5 -87.5t-105 -49q-19 2 -30 18.5t-12 42.5
q0 35 8.5 67.5t22.5 63.5l28.5 56.5t30.5 53.5l40.5 62.5l40.5 61.5q4 5 6.5 12t1.5 13q0 4 -6 7.5t-11 5.5q-4 1 -9 -2.5t-8 -7.5q-11 -14 -20 -17.5t-22 2.5q-8 4 -13.5 18.5t-2.5 25.5q5 20 11.5 38.5l13.5 37.5l32 96l32 96q2 9 2 19t2 19q-2 2 -6 4l-28 -31.5
t-27 -32.5q-24 -31 -39.5 -66.5t-26.5 -73.5q-1 -3 -1.5 -6.5t-2.5 -5.5q-5 -5 -10.5 -9.5t-10.5 -9.5q-2 7 -5.5 14t-1.5 13q4 20 9.5 39.5t12.5 38.5q18 51 48.5 93l63.5 84q18 23 47 15q15 -4 24 -15.5t13 -25.5q9 -32 6 -63t-12 -61q-12 -42 -25.5 -83.5l-27.5 -83.5
q-1 -2 -1 -4.5t-1 -4.5zM14 -260q2 -1 2.5 -1.5t2.5 -1.5q31 28 58.5 58t45.5 69q18 38 23 79t6 83l-60 -102t-56 -104q-9 -19 -13 -39.5t-9 -40.5z" />
    <glyph glyph-name="zero" unicode="0" horiz-adv-x="246" 
d="M245 389q8 -38 4.5 -78.5t-12.5 -81.5q-5 -23 -9 -45t-12 -44q-17 -50 -41 -97q-11 -20 -30 -28.5t-43 -6.5q-21 2 -34.5 15t-24.5 30q-17 29 -22.5 58t-3.5 58q5 93 17.5 155.5t21.5 91.5q10 31 34 45.5t54 29.5q11 5 22.5 2.5t19.5 -7.5q26 -16 41.5 -39t17.5 -58z
M180 466q-20 -9 -37.5 -26.5t-24.5 -37.5q-14 -38 -23 -78t-14 -82q-5 -33 -4 -66.5t15 -68.5q2 -5 5.5 -11t7.5 -14q7 8 13 14t8 13l21.5 55.5t18.5 56.5q8 26 11.5 52t7.5 52q4 25 3.5 50t-4.5 51q-2 10 -2.5 19.5t-1.5 20.5z" />
    <glyph glyph-name="one" unicode="1" horiz-adv-x="142" 
d="M45 306q-4 -6 -7.5 -12.5t-8.5 -12.5q-7 -8 -14.5 -15t-15.5 -13q-3 -2 -7.5 -1t-9.5 1q0 5 -0.5 10t1.5 9q8 12 17.5 23t16.5 24l33 58.5t21 64.5q1 6 3 12.5l4 12.5q3 8 9.5 11t14.5 3q9 -1 13 -6.5t4 -13.5l2 -38t0 -39q-2 -31 -5 -61.5t-5 -61.5q-2 -28 -2.5 -56
t-2.5 -57q-1 -26 -2.5 -51.5t-1.5 -51.5q0 -14 -5 -26t-11 -23q-10 -16 -26 -11q-9 2 -18 6t-11 16q-1 5 -2 11.5t1 11.5q8 20 5.5 39.5t-0.5 39.5q4 32 5.5 63t3.5 62q1 14 1.5 26.5t1.5 25.5q0 5 1 9.5t2 9.5q-1 0 -2 0.5t-3 0.5z" />
    <glyph glyph-name="two" unicode="2" horiz-adv-x="274" 
d="M191 456q-27 -5 -48 -18t-38 -30t-32.5 -36.5l-30.5 -38.5q-13 4 -13 11.5t2 13.5q4 11 9.5 21l11.5 20q18 26 41 47.5t52 36.5q12 7 24.5 11.5t27.5 1.5q28 -5 42.5 -23.5t8.5 -44.5q-5 -20 -13 -40t-17 -39l-39.5 -75.5t-39.5 -76.5q-14 -29 -25.5 -60.5t-25.5 -64.5
q5 1 9 1t8 1q32 5 62.5 10.5t62.5 10.5q11 2 21.5 1.5t21.5 -2.5q12 -1 19.5 -8t7.5 -17q0 -11 -6.5 -15t-15.5 -6q-22 -4 -43.5 -6.5t-43.5 -5.5q-38 -5 -73.5 -16.5t-66.5 -33.5q-11 -8 -22 -5.5t-19 14.5q-15 20 -9 40q13 40 30 82q22 52 47 103l25.5 48.5l26.5 47.5
l30.5 54l30.5 55q3 5 4 12.5t3 14.5q-2 1 -3.5 2t-3.5 2z" />
    <glyph glyph-name="three" unicode="3" horiz-adv-x="308" 
d="M229 452l-19.5 -4t-19.5 -6q-31 -11 -58 -28.5t-51 -40.5q-11 -10 -22 -17.5t-25 -12.5q-8 15 -2.5 26.5t13.5 21.5q21 26 48 45.5t56 35.5q17 9 35 15l35 12q14 5 27 1.5t26 -9.5q11 -6 16 -25t-1 -34q-18 -52 -55 -90q-11 -11 -20.5 -23.5l-19.5 -24.5q12 -2 23 -4.5
t22 -5.5q34 -8 43.5 -31t4.5 -49q-5 -27 -19 -48.5t-32 -40.5q-17 -17 -34.5 -32l-34.5 -31q-28 -25 -57 -48t-63 -40q-8 -4 -18 -5t-19 1q-5 1 -10 7.5t-7 12.5q-3 7 0 13t10 11l15 9t14 9l45.5 36.5l44.5 37.5q39 34 75 72q8 10 14.5 22l13.5 24q6 12 -9 18q-15 5 -30 2
t-30 -5q-37 -8 -58 -38q-5 -8 -11.5 -8.5t-12.5 4.5t-13 9.5t-2 15.5q2 6 4.5 12t7.5 11l61 75.5l62 75.5q12 14 22 29.5t19 32.5q-2 1 -2.5 2t-1.5 2z" />
    <glyph glyph-name="four" unicode="4" horiz-adv-x="243" 
d="M61 264q17 5 28 16t19 24q21 34 37 70.5t30 74.5q2 5 4 9.5t6 8.5q3 3 4.5 7t3.5 7t5 4.5t9 -1.5q21 -11 20 -31q-1 -14 -2 -26.5l-2 -25.5q-2 -23 -4.5 -45.5t-4.5 -45.5q-2 -26 -3.5 -52.5t-3.5 -52.5q-1 -17 -0.5 -34.5t-1.5 -34.5q-2 -29 -3.5 -57t-6.5 -57
q-1 -9 -6.5 -17.5t-12.5 -15.5q-13 -13 -25 -10.5t-16 21.5q-6 23 -4 49q1 40 3 79.5l4 79.5q1 11 2.5 22t-0.5 23l-17.5 -15.5t-19.5 -13.5q-10 -6 -21.5 -10l-22.5 -8q-9 -3 -18 0.5t-16.5 10t-12 15.5t-4.5 18q1 17 8 37l21.5 69l20.5 69q4 12 5.5 24.5t3.5 25.5
q1 7 3.5 13t10.5 4t14.5 -6.5t5.5 -13.5q-2 -23 -3 -44.5t-6 -43.5q-6 -30 -14.5 -59.5t-16.5 -60.5z" />
    <glyph glyph-name="six" unicode="6" horiz-adv-x="205" 
d="M86 288q20 1 36 -4.5t30 -14.5q33 -21 33 -57q1 -58 -24 -106q-7 -14 -12 -29t-14 -27l-22 -27.5t-31 -18.5t-38 3.5t-30 28.5t-16.5 39t-3.5 39q1 18 0 36.5t1 35.5q7 49 18 95.5t30 90.5l27 58.5t34 54.5q5 6 12.5 10.5t15.5 7.5q8 4 17 0.5t15 -11.5q7 -8 6.5 -16
t-5.5 -14q-21 -30 -37 -62.5t-30 -67.5q-4 -10 -6.5 -20.5zM63 75q6 4 7 5q25 28 40 61.5t18 73.5q1 12 -5.5 19t-19.5 6q-8 0 -15 -1l-14 -2q-10 -38 -14.5 -77.5t3.5 -84.5z" />
    <glyph glyph-name="seven" unicode="7" horiz-adv-x="219" 
d="M131 415q-20 2 -39 5t-38 3q-14 1 -25.5 7.5t-23.5 12.5q-4 2 -8 8.5t-4 9.5q1 4 6 7t10 3q11 -1 23 -2.5t23 -2.5q18 -2 36.5 -3t35.5 -1q24 1 39 13.5t30 26.5q11 11 22 16t18.5 3t16.5 -13q17 -18 6 -35l-28.5 -48.5t-27.5 -49.5q-10 -20 -17 -40t-15 -40l-21.5 -58.5
t-19.5 -59.5q-7 -22 -11.5 -44.5t-11.5 -44.5q-9 -27 -14.5 -54.5t-23.5 -49.5q-5 -7 -11 -10q-23 -10 -44 8q-25 20 -20 46q6 42 16 82.5t25 78.5q11 29 20 58t20 57q11 26 24.5 51l26.5 51q2 2 2.5 4.5t2.5 4.5z" />
    <glyph glyph-name="eight" unicode="8" horiz-adv-x="269" 
d="M159 259l14 -9t12 -9q39 -32 51 -74t-5 -80t-44.5 -64.5t-68.5 -38.5q-23 -8 -44 -5t-38 15t-28 31t-14 45q-3 32 4.5 62t21.5 56q11 20 22.5 38t22.5 37q3 7 -1 17q-4 11 -9 20.5l-10 19.5q-13 34 -4.5 60t26.5 49q12 16 26.5 30l29.5 28q8 8 18 13.5t21 10.5q13 5 25 3
t24 -16q3 1 5.5 1t4.5 1q33 10 57 -15q9 -9 11.5 -25.5t-5.5 -27.5l-34 -57.5t-41 -52.5q-14 -14 -25 -30t-25 -33zM61 40q10 1 17 1t12 2q64 22 87 89q4 10 1.5 22.5t-9 24.5t-16.5 21.5t-22 14.5q-24 -39 -41.5 -81.5t-28.5 -93.5zM219 493q-6 -5 -10 -9t-9 -6
q-17 -5 -30 -14t-24 -20q-16 -16 -29.5 -33t-23.5 -37q-12 -28 10 -59q3 1 7 3l54.5 55.5l54.5 55.5q6 6 11.5 12.5t10.5 13.5q7 10 -3 20q-5 5 -9.5 9t-9.5 9z" />
    <glyph glyph-name="nine" unicode="9" horiz-adv-x="267" 
d="M44 289q3 -7 15 -0.5l22 11.5q23 14 47.5 40t45.5 56q6 6 11 16t9.5 21t8 22.5l6.5 20.5q2 5 7 9l10 8q14 10 28 -4q5 -5 8.5 -12t4.5 -15q1 -6 -1 -13t-4 -13l-18.5 -57.5l-18.5 -57.5t-17 -58.5l-16 -58.5l-21.5 -72l-21.5 -71q-3 -11 -5.5 -22t-5.5 -22
q-5 -12 -11 -20q-7 -11 -16 -15t-17 0q-4 2 -8.5 7t-8.5 11.5t-6 13t-1 11.5l8 44.5t9 44.5q8 32 17.5 64l18.5 64l9.5 26.5t6.5 26.5l-26.5 -21.5t-26.5 -22.5q-12 -11 -26 -12t-30 1q-7 1 -14 7t-12.5 14.5t-8 18.5t-1.5 20q2 18 6.5 35.5t12.5 33.5q34 74 99 117
q11 8 23.5 12.5t27.5 0.5q5 -1 10 -4t8 -7q2 -3 0.5 -8.5t-3.5 -8.5q-12 -14 -24 -23t-26.5 -23.5t-28.5 -31.5t-26 -34t-19 -30q-5 -9 -7.5 -18t-6.5 -19q2 -2 4 -3z" />
    <glyph glyph-name="five" unicode="5" horiz-adv-x="241" 
d="M93 423l-6 -57l-6 -57q16 3 26 7q14 5 27.5 4t27.5 -6q16 -5 24 -17.5t15 -26.5q5 -10 4 -19t-1 -19q1 -25 -5 -46.5t-16 -42.5q-5 -11 -11 -21t-11 -21q-8 -13 -14 -25.5t-14 -24.5q-12 -20 -24.5 -38t-26.5 -36q-10 -11 -27 -13q-8 0 -16 3t-16 7q-8 5 -9 20t7 26
q11 20 24 38t24 38l33.5 64.5t21.5 70.5q0 2 -0.5 4.5t-0.5 7.5q-5 -2 -10.5 -2.5t-9.5 -2.5q-10 -6 -18.5 -13t-18.5 -14q-5 -3 -10.5 -5.5t-10.5 -4.5q-18 -7 -33 11q-16 17 -4 33q23 35 28.5 75l11.5 80q2 8 3.5 17t-6.5 20q-2 3 -0.5 8t5.5 10.5t9 10.5t10 7
q37 13 74.5 21.5t76.5 13.5q5 1 15 -1q6 -2 12 -3.5t7 -11.5q1 -9 1.5 -17.5t-10.5 -12.5l-26 -10t-27 -8q-24 -6 -48.5 -11z" />
    <glyph glyph-name="at" unicode="@" horiz-adv-x="704" 
d="M388 201q-5 -6 -9.5 -10.5t-7.5 -9.5l-34 -39t-38 -35q-26 -19 -55 -18.5t-54 19.5q-7 5 -10 14q-17 52 6 98q10 20 18 40t18 40q21 41 49 74.5t68 56.5q19 11 39 12t40 -6q17 -5 25 -17.5t14 -31.5q8 11 13 19t11 16q11 15 25.5 17.5t28.5 -8.5q14 -13 9 -29l-12 -33
q-11 -32 -23.5 -63.5t-21.5 -64.5q-5 -20 -8.5 -40t2.5 -41q5 -16 10 -29q4 0 6 -1l16 19.5t16 20.5q17 25 33 51t24 57q5 19 8 37t5 37q2 12 2.5 24t1.5 24q2 26 -2 52.5t-16 49.5q-11 23 -29.5 40t-47.5 23q-32 7 -60 -1.5l-56 -16.5q-25 -7 -48 -17t-46 -22
q-30 -17 -56.5 -40t-46.5 -52q-15 -22 -28 -45l-26 -46q-5 -9 -9 -18l-8 -18q-16 -46 -28 -92.5t-13 -96.5q-2 -37 10 -69q10 -26 29 -37.5t42 -16.5q67 -15 121 31l34 27.5l34 27.5l10 8q10 6 21.5 6.5t16.5 -5.5q7 -7 7 -21.5t-8 -22.5l-24 -25.5t-25 -23.5
q-19 -17 -38.5 -32l-39.5 -30q-25 -18 -52.5 -22.5t-56.5 -1.5q-24 3 -47 9.5t-43 20.5q-26 19 -45.5 42.5t-24.5 58.5q-2 17 -6.5 34.5t-4.5 35.5q0 35 8 68.5t20 66.5l22.5 59.5t27.5 57.5q32 57 71 107.5t93 87.5q40 28 84.5 43t92.5 20q22 2 44 1.5t44 2.5q38 5 69 -6.5
t58 -38.5q20 -20 30 -43t15 -49q11 -52 6 -103t-22 -102q-6 -17 -15.5 -33t-17.5 -32l-12 -21t-13 -20q-20 -35 -48.5 -58.5t-70.5 -31.5q-17 -2 -30.5 1t-24.5 19q-12 16 -20 33t-10 37q-1 9 -2.5 18.5zM266 173q52 46 95 95l85 100q-10 2 -18 4l-16 4q-11 2 -21 0.5
t-21 -9.5q-20 -16 -33.5 -35.5t-25.5 -40.5q-16 -27 -26.5 -56t-18.5 -62z" />
    <glyph glyph-name="ampersand" unicode="&#x26;" horiz-adv-x="360" 
d="M209 337l18.5 -72l19.5 -75q10 6 11 14t4 15q3 8 7 14.5t7 12.5q23 -5 34 -21.5t9 -37.5q-6 -40 -33 -70q-9 -10 -10 -20t3 -22l16 -53.5t14 -54.5q5 -20 6.5 -39.5t-3.5 -39.5q-2 -8 -6 -15t-15 -5q-9 2 -17.5 4.5t-12.5 15.5l-22 66.5l-22 66.5l-4 8t-4 9
q-14 -9 -26 -18t-26 -17q-24 -17 -51 -24t-56 0q-25 5 -41 27t-16 48q1 65 38 120l36.5 55l37.5 54l8 11.5t10 9.5q10 7 11 15t-1 18q-2 12 -4.5 24t-4.5 25q-4 30 -7.5 60t-5.5 60q-1 24 5 50q6 27 28.5 38.5t48.5 3.5q45 -12 63.5 -44t19.5 -72q2 -32 -8 -60t-28 -54
q-6 -8 -14 -15t-17 -16zM150 255q-8 -12 -13 -21t-12 -17q-20 -26 -34.5 -55t-27.5 -59q-4 -10 -5 -21.5t0 -22.5t6.5 -13.5t16.5 -0.5q29 7 52 24.5t45 36.5q11 9 5 24q-3 8 -5 16.5l-4 16.5q-5 22 -11 44zM197 383q23 31 28.5 58.5t0.5 56.5q-2 14 -8.5 25.5t-20.5 17.5
q-4 2 -9 4t-7 0q-6 -8 -4 -17q2 -24 5.5 -47.5t6.5 -46.5l4 -24t4 -27z" />
    <glyph glyph-name="thorn" horiz-adv-x="382" 
d="M59 19q-17 -12 -32 -11t-34 18q2 7 2.5 13t2.5 12q2 5 3.5 10t5.5 8q23 19 43 33q13 10 13 26l4 78.5t6 78.5q4 48 8.5 95t8.5 95q3 36 3 73q2 37 7.5 73t13.5 72q2 10 10 17t17 8q9 0 16.5 -6.5t10.5 -18.5t3 -25q-3 -51 -5.5 -100t-5.5 -99q-1 -16 -1.5 -31t-1.5 -32
q6 1 12 0.5t11 1.5q31 8 61 4t59 -12q44 -12 60 -47t-8 -80q-10 -19 -23.5 -36t-28.5 -33q-30 -30 -68 -60l-36.5 -27.5l-37.5 -27.5q-18 -12 -16 -38q2 -10 1.5 -20t-0.5 -21q0 -14 -0.5 -27t-0.5 -27l-2 -95l-2 -95q0 -14 3 -26q5 -22 -6 -38q-5 -8 -11.5 -13.5
t-17.5 -4.5q-11 2 -20 7t-11 17l-6 36.5t-5 37.5q-2 21 -3 42.5t-1 42.5q-1 33 -1 66v66v20zM290 323q-68 29 -135 5q-4 -36 -6.5 -73t0.5 -78l40 33t38.5 33t34.5 36.5t28 43.5z" />
    <glyph glyph-name="question" unicode="?" horiz-adv-x="273" 
d="M196 628q-17 0 -27 -7.5t-17 -18.5l-35.5 -66.5l-36.5 -67.5l-10.5 -20t-13.5 -18q-9 -11 -18.5 -6.5t-13.5 20.5q-3 8 -1 19q5 35 18 65t32 56q6 8 11.5 17t11.5 17q16 22 37 36.5t45 24.5q17 8 33 0.5t30 -21.5q23 -23 25.5 -47t-2.5 -48q-8 -41 -16.5 -80t-19.5 -78
q-12 -43 -25.5 -84.5t-29.5 -82.5l-20.5 -49t-28.5 -43q-15 -15 -35 -1l-6.5 4.5l-7.5 5.5q-17 11 -21.5 28t3.5 32q5 10 7.5 19.5l5.5 20.5l26.5 94.5t29.5 92.5q14 41 30 80l32 79l4 12.5t4 14.5zM111 79q-14 8 -28 4t-22 -19q-2 -6 -4.5 -12t-5.5 -12q-6 -11 -5 -20.5
t6 -18.5q4 -8 9 -15l10 -14q3 -4 7 -6.5t8 -4.5q12 -6 24 -4t21.5 10t15 21t5.5 28q-2 19 -12 35.5t-29 27.5z" />
    <glyph glyph-name="percent" unicode="%" horiz-adv-x="560" 
d="M53 -47q-13 -2 -21 5.5t-13 17.5q-7 11 -5.5 21.5t8.5 21.5l30 44t32 43l36.5 48.5t38.5 46.5l50.5 57.5l52.5 56.5l66.5 68l68.5 66q22 20 45.5 39l46.5 38q8 7 16.5 10t19.5 -3q18 -10 9 -26q-4 -9 -13 -20l-54 -53.5l-53 -53.5l-35 -40.5l-35 -40.5q-6 -8 -13 -15
t-13 -15l-52 -63.5l-52 -63.5q-20 -25 -37.5 -50l-36.5 -51l-21.5 -33l-21.5 -32q-8 -10 -18 -16t-26 -7zM141 423q11 12 23.5 21.5t27.5 17.5q17 8 16.5 20.5t-14.5 23.5q-13 9 -25 7.5t-24 -8.5q-44 -24 -70 -61.5t-42 -83.5q-5 -14 -4 -27q5 -35 30 -48.5t56 3.5
q12 7 22 15.5t21 16.5q29 24 55.5 50.5t47.5 58.5q4 7 6.5 14.5t2.5 15.5q2 17 -8.5 24t-24.5 -1q-7 -4 -12 -9.5l-10 -11.5q-23 -31 -51 -55.5t-59 -47.5q12 37 36 65zM473 264q-12 0 -25 -1t-24 -6q-67 -34 -87 -111q-11 -41 18 -67q16 -15 35 -19t41 6q29 13 46.5 35.5
t33.5 46.5q10 15 14 30q2 8 -4.5 19.5t-15.5 13.5q-8 2 -15 -2t-12 -11q-12 -16 -24.5 -30.5l-25.5 -28.5q-5 -6 -12 -9.5t-15 -8.5q-6 18 -0.5 40t18.5 40.5t31.5 31.5t38.5 15q-5 17 -16 16z" />
    <glyph glyph-name="dollar" unicode="$" horiz-adv-x="420" 
d="M219 458l49.5 8t49.5 6q15 1 29 -4t22 -22q7 -14 -2 -24q-5 -5 -9.5 -5.5t-11.5 0.5q-26 6 -50.5 0.5t-48.5 -16.5q-1 0 -1.5 -1t-1.5 -1q-26 -5 -32 -21t-7 -37q-1 -15 -1.5 -30t-2.5 -31q23 -6 45.5 -11t44.5 -12q20 -6 39 -12.5t34 -22.5q22 -23 23.5 -45t-15.5 -49
q-15 -22 -35.5 -34t-43.5 -20q-17 -6 -35 -11.5l-36 -10.5q-9 -3 -18.5 -5.5l-20.5 -5.5q0 -8 -0.5 -16t-1.5 -16q-5 -26 -25 -26q-8 0 -15 7.5t-9 18.5l-2 26q-20 -2 -39 -3.5t-37 -6.5q-17 -3 -29.5 2t-24.5 13q-5 3 -7 13q-1 19 12.5 33.5t33.5 16.5l74 12q10 2 16 7.5
t5 17.5q-1 11 0 22t1 22q1 10 1.5 19.5t0.5 17.5q-17 10 -32.5 18t-29.5 18q-17 11 -20.5 35t7.5 42q28 46 79 76q20 11 23 36q2 11 3.5 22.5t3.5 22.5q3 11 9 20q8 14 24 9t15 -21v-41zM299 169q0 4 -1 5q-25 8 -50.5 14.5t-53.5 14.5q2 -18 -2.5 -34t1.5 -33q14 3 28 5.5
t27 7.5q14 4 26 9.5t25 10.5zM126 309l18 -9l4 33l-4 2z" />
    <glyph glyph-name="numbersign" unicode="#" horiz-adv-x="465" 
d="M130 310q-10 4 -20 7.5t-18 8.5q-11 8 -10.5 16t11.5 17q9 8 18.5 10t20.5 2q14 -1 23.5 3.5t14.5 19.5q4 13 11 24t13 22q1 3 5 7q9 12 20.5 17.5t22.5 0.5q24 -11 16 -45l-6 -18q-2 -5 -4 -9.5t-6 -12.5q17 1 31.5 1.5t28.5 2.5l33 63q6 11 16.5 15.5t21.5 1.5
q13 -4 18 -11t4 -22v-9.5t-2 -9.5q-1 -5 -2 -8.5t-2 -6.5q10 -5 19 -8t16 -8q10 -8 7 -19t-14 -16q-8 -3 -15.5 -5.5t-15.5 -4.5q-9 -2 -15 -5.5t-8 -14.5q-3 -14 -8.5 -27t-10.5 -27q10 -3 19.5 -4.5t17.5 -5.5q10 -4 11 -10t1 -16q-1 -12 -6 -18.5t-12 -9t-15 -3.5t-15 -3
q-17 -4 -23.5 -12t-10.5 -24q-5 -18 -12.5 -35t-14.5 -35q-3 -8 -4.5 -16.5t-5.5 -16.5q-8 -18 -21 -31q-10 -11 -25.5 -13t-24.5 5q-11 8 -15 22.5t1 28.5l33 116q-14 0 -25.5 0.5t-22.5 -1.5q-5 0 -8.5 -4.5t-5.5 -9.5q-6 -15 -11 -30.5t-11 -30.5l-10 -20.5t-13 -18.5
q-5 -5 -13 -8.5t-14 -2.5q-14 2 -23.5 11t-10.5 25q0 17 5 35q3 13 7 25t8 26q-10 4 -23 7q-8 3 -13.5 8t-3.5 16q1 10 7 15t15 7q13 3 26 3q16 1 21 16zM192 245l47 5q6 2 9 6l15.5 29.5t9.5 34.5q-11 -1 -21 -2.5t-20 -0.5q-11 1 -16.5 -5t-8.5 -14q-5 -13 -8 -26t-7 -27z
" />
    <glyph glyph-name="germandbls" unicode="&#xdf;" horiz-adv-x="375" 
d="M245 509q26 2 47.5 1t42.5 -11q15 -7 25.5 -19.5t16 -28t5 -31.5t-7.5 -31q-20 -39 -52 -68q-18 -17 -34.5 -34.5l-33.5 -35.5q-22 -23 -42.5 -47l-41.5 -48q-8 -9 -20 -11t-19 4q-10 8 -13.5 22.5t3.5 25.5q20 34 42 65.5t49 57.5l89 92q3 3 4.5 7.5t4.5 9.5
q-15 5 -27.5 4.5t-24.5 -4.5l-30 -10l-30 -10t-31 -3q-12 0 -21 6t-15 15t-7 20t4 23q8 21 19 40.5t23 38.5q15 23 31.5 44t31.5 44q9 13 16.5 27l15.5 28q7 14 4 22t-17 15q-38 18 -78 10q-15 -4 -29.5 -9l-29.5 -10q-14 -5 -16.5 -17.5t-4.5 -25.5l-6 -62q-1 -9 -0.5 -18
t0.5 -18q0 -35 -0.5 -70t-0.5 -70q0 -26 -0.5 -51.5t0.5 -51.5q1 -17 0 -33.5t-3 -33.5q-2 -25 0 -51t3 -52q0 -11 -1 -21l-2 -21q0 -23 0.5 -45.5t-1.5 -44.5q-2 -20 -5 -39.5t-8 -38.5t-20.5 -23t-29.5 10q-5 2 -5 6q-5 24 -12 46.5t-5 48.5q2 20 0 41t-3 42
q-1 36 -1 72.5v72.5q0 26 -0.5 51t0.5 51q0 26 2 51t1 51q-2 27 2 53t3 54q0 24 4.5 48t9.5 48q3 15 6.5 30.5t10.5 29.5q12 25 30.5 35t43.5 10q12 0 24.5 2.5t24.5 6.5q35 11 70.5 8t70.5 -23q27 -16 38 -46t0 -66q-13 -38 -33.5 -70l-42.5 -64z" />
    <glyph glyph-name="Thorn" horiz-adv-x="361" 
d="M55 146q-8 -2 -15 -4t-13 -2q-27 3 -33 28q-3 12 3 22t14 18q8 10 18.5 18l20.5 16q7 5 11 11.5t-1 16.5q-2 4 -1.5 8t0.5 9l5 144q1 17 2.5 33t3.5 32q1 8 -0.5 15t-11.5 12q-12 6 -12 18t13 20q11 8 13.5 16t4.5 20q4 48 9.5 94t12.5 93q2 10 7.5 18.5t11.5 16.5
q4 5 9.5 8t12.5 -5l3 -3q21 3 25 -9.5t5 -25.5q1 -20 -0.5 -39.5t-2.5 -39.5l-5 -97q15 1 30 1t29 2q23 2 45 -1t43 -14q22 -12 34 -36q12 -26 9 -50t-12 -50q-16 -43 -43.5 -77t-57.5 -66l-33.5 -34.5t-34.5 -32.5q-14 -12 -14.5 -27t-1.5 -30t0 -30.5t0 -30.5
q0 -21 -0.5 -42t-2.5 -41q-3 -26 -3 -51t-10 -49q-3 -7 -11 -13t-17 -10t-18 -5t-15 2q-13 6 -20 19t-9 28q-2 9 0 17q2 24 3.5 48t2.5 48q1 16 -0.5 31t-2.5 32zM162 544q-4 -26 0 -51t-3 -51q-5 -17 -2.5 -35.5t4.5 -36.5q0 -5 1.5 -9.5l3.5 -10.5l74 85q15 17 23.5 37.5
t14.5 41.5q5 14 1 20.5t-18 10.5q-46 13 -99 -1z" />
    <glyph glyph-name="exclam" unicode="!" horiz-adv-x="244" 
d="M87 188q-2 23 -2 46t-4 46q-7 38 -7.5 74.5t-1.5 73.5q0 38 1 76l2 76l3 64q1 24 20 25q12 2 19 4q22 5 29 -19q5 -17 8.5 -34t3.5 -33l-2 -136t-3 -136l-4 -144l-2 -13.5t-3 -12.5q-6 -24 -26 -18q-7 2 -14 10.5t-9 19.5q-2 8 -3 15.5t-3 15.5h-2zM161 19v19
q0 32 -26 40q-15 4 -28.5 -1t-19.5 -18q-12 -23 -13 -46.5t11 -46.5q5 -9 11.5 -16t20.5 -6q12 1 21.5 5.5t14.5 16.5q4 13 6.5 26t5.5 26q-3 0 -4 1z" />
    <glyph glyph-name="quotedbl" unicode="&#x22;" horiz-adv-x="287" 
d="M171 675q-4 -35 -11.5 -68.5t-25.5 -65.5q-8 -14 -14.5 -28l-12.5 -28t-17.5 -19.5t-23.5 -9.5q-17 -5 -30 11q-14 17 -14.5 29t8.5 32q8 17 13.5 34.5t11.5 34.5q7 19 13 37.5l12 38.5q4 8 4 14q-4 18 5.5 28.5t22.5 19.5q8 5 16.5 3t15.5 -7q14 -9 23 -22.5t4 -33.5z
M310 698q-9 20 -24 21.5t-30 -12.5q-13 -14 -19 -33l-21 -57t-22 -56q-11 -26 -23.5 -50l-24.5 -49q-6 -13 3.5 -29t23.5 -16q11 1 21.5 5t17.5 14l17.5 28.5l16.5 29.5l24 48.5t22 50.5q8 19 13.5 38.5t11.5 38.5q-2 8 -3 15t-4 13z" />
    <glyph glyph-name="semicolon" unicode=";" horiz-adv-x="833" 
d="M-7 -20q4 8 6.5 15.5t5.5 14.5q16 32 29.5 64t18.5 67q2 14 16.5 25t25.5 9q15 -2 23.5 -16.5t4.5 -31.5q-6 -29 -15.5 -57t-24.5 -54q-5 -9 -9.5 -18.5t-9.5 -17.5q-5 -6 -11 -11.5t-11 -11.5q-8 -9 -17 -7.5t-17 6.5q-5 3 -8 10.5t-7 13.5zM126 367q12 -5 15 -16.5
t3 -19.5q0 -15 -6.5 -30t-17 -26t-23.5 -18t-26 -7q-20 0 -32.5 11.5t-14.5 34.5q-1 25 11 44.5t32 33.5q16 11 30.5 5z" />
    <glyph glyph-name="colon" unicode=":" horiz-adv-x="833" 
d="M-7 283q0 26 10.5 43t27.5 30q5 4 15 5t20.5 -0.5t20 -5t13.5 -7.5q2 -2 2.5 -5t1.5 -5q5 -29 -8 -55.5t-39 -40.5q-45 -23 -60 23q-2 5 -2.5 10t-1.5 8zM6 71q8 -20 28 -24t34 13q12 15 20.5 32.5t8.5 38.5q0 10 -5 18t-12.5 13.5t-17.5 7t-19 -2.5q-45 -17 -43 -66
q2 -8 3 -15t3 -15z" />
    <glyph glyph-name="period" unicode="." horiz-adv-x="223" 
d="M103 -31q-24 2 -37.5 16.5t-11.5 34.5q1 15 7 29t15 24t19.5 15t21.5 3q7 -1 16.5 -6t17.5 -12.5t13.5 -17t4.5 -19.5q-4 -30 -22 -49.5t-44 -17.5z" />
    <glyph glyph-name="comma" unicode="," horiz-adv-x="242" 
d="M188 14q-2 -6 -6 -17t-11 -22q-15 -20 -32.5 -38.5t-38.5 -33.5l-19.5 -16t-23.5 -10q-7 -1 -15 2t-14.5 8.5t-10.5 12t-2 12.5q2 9 7.5 16.5t11.5 14.5l27.5 30.5l27.5 29.5q5 5 8 10.5t7 10.5l10.5 14l10.5 13q8 8 17 14t21 1q26 -9 25 -52z" />
    <glyph glyph-name="hyphen" unicode="-" horiz-adv-x="414" 
d="M289 283q17 -1 29.5 -1t24.5 -2q14 -2 19 -7.5t5 -15.5q-1 -15 -6 -23t-17 -10q-42 -7 -82.5 -13l-82.5 -12q-22 -3 -44 -5t-44 -5q-11 -2 -18.5 3.5t-13.5 13.5l-10.5 14t2.5 15q10 11 20.5 20t27.5 10q19 1 37.5 3l38.5 4q30 3 59 5.5t55 5.5z" />
    <glyph glyph-name="asciicircum" unicode="^" horiz-adv-x="277" 
d="M165 452l-27.5 -28.5l-27.5 -29.5q-10 -12 -22 -16t-26 -4q-11 0 -18 14.5t-2 27.5q2 6 6 12.5t9 10.5q27 17 45.5 41l37.5 49q9 12 19.5 22.5t26.5 14.5q18 5 25 -8q5 -9 9.5 -18.5t6.5 -20.5q6 -64 9 -130q2 -14 -9.5 -21t-25.5 -1q-24 9 -25 34q-1 11 -2.5 23t-3.5 24
q-2 2 -5 4z" />
    <glyph glyph-name="braceright" unicode="}" horiz-adv-x="363" 
d="M255 310q-18 18 -22.5 41.5t-5.5 48.5q-1 22 3 44t5 44q1 21 1 42t-2 41.5t-8 40.5t-17 39q-6 10 -14.5 15t-17.5 7q-11 2 -21.5 0.5t-21.5 -3.5q-20 -5 -31 12q-12 17 1 33q11 14 23.5 20t29.5 8q17 3 32 2t30 -5q50 -15 72 -60q3 -8 9 -13.5t8 -13.5q6 -21 11 -42.5
t7 -43.5q5 -41 0 -80.5t-13 -79.5q-5 -20 -1.5 -38.5t25.5 -30.5q7 -4 13 -10t11 -12q13 -16 6 -37q-5 -11 -11.5 -14.5t-17.5 -3.5h-2q-15 -1 -24.5 -2.5t-14.5 -6t-8.5 -13t-6.5 -24.5q-5 -23 -7 -47l-4 -48q-3 -63 -23.5 -119.5t-63.5 -104.5l-31.5 -33.5t-37.5 -26.5
q-22 -11 -44 -4.5t-34 26.5q-5 8 -3.5 21.5t8.5 21.5t15 9.5t16 -3.5q9 -5 15.5 -2t11.5 8l25.5 28t22.5 31q20 35 33 73.5t13 80.5q0 12 3.5 24t5.5 24q0 3 0.5 6t0.5 5q1 35 16 65t35 60z" />
    <glyph glyph-name="equal" unicode="=" horiz-adv-x="365" 
d="M210 349q14 2 27 3.5t26 0.5q10 0 20 -3t19 -7q9 -3 12.5 -10.5t3.5 -17.5q-1 -34 -34 -37l-80 -6t-81 -4q-15 -1 -31.5 0t-30.5 12q-12 9 -13.5 17t8.5 19q16 19 40 22q25 2 49 5.5t48 6.5q5 0 8.5 0.5t8.5 0.5v-2zM244 125q-38 -2 -76.5 -3.5t-76.5 -3.5q-21 0 -31 25
q-5 14 10 24q7 5 14 9.5t15 6.5l65 10t66 8q10 1 20.5 -2.5t20.5 -7.5q20 -9 20 -31q-2 -24 -22 -33q-6 -3 -12 -4t-13 -3v5z" />
    <glyph glyph-name="fraction" unicode="&#x2044;" horiz-adv-x="313" 
d="M290 511q9 -12 7.5 -22.5t-7.5 -21.5q-7 -14 -15 -27l-17 -27q-11 -17 -22.5 -33t-22.5 -33l-35.5 -61.5l-36.5 -61.5l-43.5 -73l-44.5 -72q-5 -9 -14 -12t-18 0q-11 4 -12 11.5t0 15.5q0 13 7 25q14 23 29 44.5t29 44.5l27.5 44l27.5 44l56 84l57 84q9 14 19.5 26.5
t28.5 20.5z" />
    <glyph glyph-name="greater" unicode="&#x3e;" horiz-adv-x="279" 
d="M168 339q-8 5 -13 8.5t-10 5.5q-17 9 -28.5 22.5t-20.5 29.5q-6 11 -12.5 20l-12.5 18q-11 14 -13 30l-4 32q-1 6 7.5 16.5t14.5 9.5t12.5 -4t10.5 -8q7 -9 11.5 -19l9.5 -21q17 -35 42.5 -62t63.5 -41q17 -6 21 -19t-7 -27q-5 -8 -11.5 -14.5t-13.5 -12.5
q-20 -16 -35 -36l-29 -40q-11 -15 -20 -30.5t-20 -31.5q-3 -5 -7.5 -8t-9.5 -7q-14 -12 -26 -4q-8 5 -12.5 12t-2.5 17q2 17 9 29l32.5 51t34.5 49q8 10 18 18z" />
    <glyph glyph-name="bar" unicode="|" horiz-adv-x="239" 
d="M91 -28q2 63 3 124l2 124q1 44 1 87.5t2 88.5q2 62 5 123.5l6 123.5q1 8 2.5 15.5t4.5 14.5q2 3 6.5 5.5t8.5 3.5q4 0 7.5 -3.5t5.5 -6.5q2 -4 2.5 -8t0.5 -9q-2 -54 -3.5 -107t-2.5 -107q-5 -147 -6 -294q-1 -49 0 -97.5t1 -97.5q0 -14 0.5 -27t0.5 -26q0 -10 -3 -13
q-4 -4 -8.5 -7.5t-9.5 -4.5q-3 0 -7.5 5t-5.5 9q-3 18 -5 36.5l-4 36.5v11h-4z" />
    <glyph glyph-name="slash" unicode="/" horiz-adv-x="267" 
d="M242 554l-9.5 -32t-9.5 -30l-23.5 -69l-22.5 -69l-33 -112.5l-32 -112.5q-6 -21 -11 -43l-10 -43q-2 -11 -8 -19t-19 -12q-15 -4 -21.5 -1.5t-11.5 16.5t-1 27l22.5 76.5l22.5 77.5l16.5 54.5l17.5 54.5l22 61.5l22 61.5l20.5 54.5l21.5 54.5q4 11 15 20q4 2 10 3.5
t10 -0.5q5 -2 7.5 -7.5t4.5 -10.5z" />
    <glyph glyph-name="braceleft" unicode="{" horiz-adv-x="470" 
d="M112 195l-27.5 -13l-24.5 -12q-16 -8 -32.5 -5t-27.5 16q-9 11 -6 27t17 26q16 11 32 20.5t32 20.5q8 5 14.5 12.5t10.5 15.5q13 26 18 54.5t5 57.5q2 42 3 83t3 83q2 28 11.5 53t24.5 48q9 13 21 24t27 17.5t31.5 7t33.5 -7.5t22.5 -24t-5.5 -30q-3 2 -5.5 3t-5.5 3
q-25 14 -44.5 8.5t-31.5 -32.5q-27 -62 -18 -129q1 -7 1.5 -14t0.5 -14q1 -23 2.5 -45t0.5 -45q-1 -28 -3.5 -55.5t-13.5 -53.5q-6 -15 -3 -28t14 -26q7 -8 10.5 -18t5.5 -21q5 -17 8 -34.5t5 -35.5q3 -23 5.5 -46t4.5 -46q1 -8 2 -15t2 -15q2 -21 11 -39t21 -35
q11 -14 25.5 -16t29.5 1q30 6 46 31q5 8 10.5 15t12.5 14t15.5 10t17.5 -2q9 -4 12 -11.5t4 -17.5q1 -25 -11 -43t-28 -34q-28 -27 -62 -34t-69 -2q-29 5 -51.5 22t-36.5 44q-14 26 -24.5 52t-14.5 55q-2 17 -4.5 34t-4.5 34q-2 13 -2 25t-2 25q-6 27 -15 57z" />
    <glyph glyph-name="underscore" unicode="_" horiz-adv-x="833" 
d="M63 26q8 9 16.5 11.5t17.5 2.5q59 2 117.5 3.5t117.5 4.5q52 2 104 6t104 7l109.5 6t109.5 5q7 1 13 0t8 -10q2 -8 -0.5 -18.5t-10.5 -13.5q-10 -5 -20 -9t-21 -5q-35 -3 -70.5 -4.5t-70.5 -3.5q-53 -2 -105 -3.5t-105 -3.5q-29 -2 -59 -3t-60 -1q-41 1 -81 2.5t-81 3.5
q-11 0 -21 4t-12 19z" />
    <glyph glyph-name="backslash" unicode="\" horiz-adv-x="250" 
d="M212 30l-2 -10.5t-3 -11.5q-7 -18 -25 -22t-31 10q-14 14 -20 31q-5 14 -8 29t-7 30q-4 14 -7.5 28t-7.5 28l-9.5 35.5l-9.5 35.5l-6 19.5t-5 19.5l-27 115.5l-26 115.5q-4 17 -5.5 33.5t-2.5 33.5q0 9 3 18.5t7 18.5q11 18 29 3q12 -11 16.5 -24.5l9.5 -27.5l21.5 -77
l21.5 -77l22 -70l22 -70l18 -61.5t17 -62.5q5 -21 8 -43.5t7 -46.5z" />
    <glyph glyph-name="plus" unicode="+" horiz-adv-x="444" 
d="M264 302q26 2 50.5 3t48.5 1q32 0 34 -32q0 -5 -1.5 -9.5t-8.5 -7.5q-11 -5 -20.5 -8.5t-22.5 -4.5q-21 -2 -42 -6t-41 -7q-2 -34 -3 -65.5t-3 -63.5q0 -6 0.5 -11.5t-0.5 -10.5q0 -13 -7.5 -21t-18.5 -9q-14 -2 -23 5.5t-10 21.5q-4 58 -6 118q-1 7 -1 13.5v14.5
q-16 -2 -31.5 -2.5t-30.5 -2.5l-24 -4l-25 -4q-11 -2 -16.5 4.5t-10.5 14.5t-3 12.5t7 10.5q11 15 26.5 19.5t32.5 7.5q20 4 40 7l40 6l5.5 36t5.5 34q2 11 4 20.5t6 19.5q3 8 8.5 14t16.5 6q21 0 26 -21q3 -9 3 -19l-2 -39.5t-3 -40.5z" />
    <glyph glyph-name="parenright" unicode=")" horiz-adv-x="296" 
d="M164 273q4 30 9 59.5t5 59.5q1 32 -2.5 64.5t-5.5 64.5q-1 32 -13.5 60t-20.5 58q-4 16 -4 38q0 17 16 10q12 -5 22.5 -10.5t17.5 -17.5q26 -42 43.5 -85t21.5 -92l6 -66t3 -65q1 -24 -1 -48.5t-5 -48.5q-5 -28 -9.5 -56t-12.5 -56q-9 -29 -19.5 -57.5t-23.5 -56.5
q-8 -16 -21 -29.5t-24 -28.5l-20 -26.5t-21 -26.5q-8 -11 -22 -23q-8 -6 -16.5 -7.5t-17.5 3.5q-9 6 -12.5 17t1.5 22q11 26 25 45q48 65 67 143q8 34 17.5 67.5t17.5 67.5q2 5 1 10.5t-1 10.5h-1z" />
    <glyph glyph-name="parenleft" unicode="(" horiz-adv-x="300" 
d="M40 213q-2 28 -3 55t-3 55q-2 40 3 78.5t12 77.5q7 35 23.5 66t36.5 60q16 23 39 39.5t49 29.5q7 4 15 2t14.5 -5.5t14.5 -6.5q-3 -7 -5.5 -14.5t-7.5 -13.5q-9 -11 -19.5 -20l-21.5 -18q-25 -23 -37.5 -51.5t-20.5 -59.5q-10 -38 -11.5 -76t0.5 -76q2 -36 5 -71.5
t8 -70.5q4 -25 11 -49.5t15 -47.5q11 -30 26 -57t38 -50l14 -12t12 -13t9 -14.5t7 -15.5q2 -8 1 -16t-10 -13q-8 -5 -17 -6.5t-19 5.5q-27 18 -52 38.5t-45 46.5q-16 20 -29 41.5t-18 47.5q-5 23 -13 43.5t-14 42.5q-3 12 -4.5 24.5t-3.5 24.5h1z" />
    <glyph glyph-name="bracketright" unicode="]" horiz-adv-x="327" 
d="M186 666q-18 1 -36.5 0.5t-36.5 1.5q-14 2 -28.5 3.5t-28.5 5.5q-12 4 -12.5 9t8.5 13q16 16 37 14l51.5 -2l51.5 -2q8 -1 17 -0.5t17 0.5q13 0 19 -14q9 -20 8.5 -40t-0.5 -40q-2 -66 -4.5 -130.5t-4.5 -130.5q-1 -34 -0.5 -67t-0.5 -67q0 -26 -0.5 -51.5t-0.5 -51.5
q1 -20 3 -39.5t1 -39.5q0 -14 1 -28.5t1.5 -28.5t-0.5 -28t-7 -28q-2 -4 -1.5 -8t1.5 -9q1 -20 -10 -32.5t-31 -13.5q-29 0 -57.5 -0.5t-56.5 8.5q-16 5 -33 19q-8 6 -6.5 12.5t8.5 11.5q10 8 20.5 10t22.5 0q16 -3 32.5 -5t35.5 -4q-1 13 -1.5 25t-1.5 24q-2 39 -3.5 78
t-3.5 79v26t1 26q1 37 1.5 73t2.5 73l6 88.5t8 88.5q5 41 6.5 81.5t7.5 81.5q0 2 -0.5 3z" />
    <glyph glyph-name="bracketleft" unicode="[" horiz-adv-x="330" 
d="M152 645q-2 -172 -4.5 -340t-4.5 -339q18 2 33 3.5t30 1.5q14 1 27 0.5t27 -2.5q7 -2 14 -7.5t10 -11.5q3 -7 2 -14.5t-5.5 -13.5t-12 -9.5t-15.5 -2.5q-15 2 -28 -3t-27 -8q-17 -4 -34 -9.5t-35 -8.5q-38 -6 -43 33l-6 50t-5 51q-2 33 -2 66.5v66.5v85t2 84q3 97 9 195
q2 36 5.5 72t4.5 72q0 28 22 36q7 3 11 2l63.5 -8l63.5 -8q1 -1 4 -1l7.5 -7.5t6.5 -7.5q-4 -4 -8 -9.5t-9 -6.5q-18 -2 -36.5 -1.5t-36.5 0.5q-7 -1 -13.5 -0.5t-16.5 0.5z" />
    <glyph glyph-name="less" unicode="&#x3c;" horiz-adv-x="296" 
d="M130 326q0 -1 1 -2q0 -2 2 -2q29 -21 50.5 -48.5l43.5 -54.5q11 -13 13 -31q1 -10 -0.5 -20t-12.5 -15q-12 -5 -24.5 -3t-23.5 11q-8 7 -14 14t-14 13q-17 17 -35.5 33t-35.5 33l-21.5 22.5l-20.5 23.5q-20 27 10 57l25.5 24.5t24.5 24.5l23.5 24.5t22.5 26.5
q22 25 41 50q8 11 19 13l22 4q6 2 12 -7.5t5 -18.5q-2 -16 -6 -30t-15 -28q-15 -18 -28.5 -37.5t-28.5 -37.5q-8 -11 -16.5 -19.5t-18.5 -19.5z" />
    <glyph glyph-name="asterisk" unicode="*" horiz-adv-x="361" 
d="M200 422l15.5 -59l14.5 -58q2 -7 2 -14.5t-1 -15.5q-1 -11 -8.5 -18t-18.5 -9q-8 -1 -17 4.5t-12 14.5q-5 13 -9 25.5t-8 26.5q-2 5 -3 10t-3 10q-5 11 -9 22.5t-9 23.5l-19 -20.5l-18 -18.5q-7 -6 -13.5 -12.5t-14.5 -11.5q-19 -13 -33 2q-6 7 -6 16.5t7 17.5l28 32.5
l28 31.5l3.5 3.5t4.5 5.5q-3 2 -5.5 3.5t-4.5 1.5q-15 4 -22.5 15t-13.5 23q-8 20 11 20q9 0 19 -2t19 -4q6 -2 12 -6.5l13 -9.5q2 5 3 8.5t2 6.5q3 15 5 30t5 29q3 13 12 20.5t19 14.5q7 3 15.5 -1t11.5 -13q2 -8 3.5 -17.5t0.5 -17.5q-2 -14 -5.5 -27.5l-7.5 -29.5
q24 8 46 14.5l44 13.5l11.5 4l11.5 4q11 4 21 0t14 -13q2 -7 -2.5 -16t-14.5 -14q-9 -5 -18.5 -8.5l-19.5 -7.5q-21 -8 -42.5 -15t-43.5 -15z" />
    <glyph glyph-name="quotesingle" unicode="'" horiz-adv-x="206" 
d="M206 737q26 -23 29 -44.5t-14 -47.5l-52.5 -81.5l-54.5 -81.5q-4 -8 -11.5 -14t-14.5 -11q-26 -22 -50 -5q-15 12 -16 24t9 26l41 62.5l41 62.5l21.5 36t24.5 35q9 11 21.5 20z" />
    <glyph glyph-name="asciitilde" unicode="~" horiz-adv-x="553" 
d="M186 308q-15 -14 -28.5 -24.5t-24.5 -23.5q-17 -22 -39 -34q-10 -6 -21 -7t-17 4q-4 3 -7 9.5t-5.5 13.5t-2.5 14t2 11q13 23 27 43.5t33 37.5l21 21q17 16 37 28.5t43 19.5q16 5 31.5 1t30.5 -9q6 -3 11 -10t9 -14q8 -14 14 -29t8 -32q1 -13 2.5 -20t5.5 -9.5t11 -1.5
t20 4q26 6 52.5 13t52.5 13q21 5 38 -5.5t21 -32.5q2 -6 -1 -15.5t-8 -12.5q-23 -13 -44.5 -28t-48.5 -21q-14 -3 -27.5 -9.5t-27.5 -12.5q-24 -11 -47.5 -8t-49.5 12q-32 11 -47 40q-6 11 -10 23.5t-9 25.5q-2 5 -2.5 10.5t-2.5 14.5z" />
    <glyph glyph-name="bullet" unicode="&#x2022;" horiz-adv-x="354" 
d="M285 234q-1 -15 -8 -35t-21 -39q-16 -22 -37 -37t-47 -24t-49.5 2.5t-37.5 34.5q-11 18 -14 35.5t-1 34.5t7 34t11 34q9 27 25.5 49t37.5 41q26 23 52 1q2 -2 5 -3.5t6 -1.5q14 -2 20 -9.5t8 -21.5q2 -10 10 -17q18 -13 25 -31t8 -47z" />
    <glyph glyph-name="quotedblleft" unicode="&#x201c;" horiz-adv-x="213" 
d="M10 638q5 14 12 27.5t15 26.5q16 29 48 27q19 0 16 -16q-2 -10 -3.5 -20t-6.5 -19q-34 -71 -31 -151q0 -8 2 -16.5t3 -17.5q1 -12 -3.5 -18t-16.5 -10q-18 -8 -31 8q-12 15 -13.5 32t-6.5 34q-3 39 3 66t13 47zM183 437q-2 12 -5 23.5t-4 23.5q-2 15 -3 30t1 30
q3 26 12.5 49.5t20.5 46.5q4 8 7.5 17t5.5 18q2 8 -2 12t-12 0q-16 -5 -23 -15q-10 -13 -18 -26l-16 -27q-32 -48 -29 -96.5t23 -98.5q3 -6 7.5 -10.5t12.5 -2.5q28 0 22 26z" />
    <glyph glyph-name="quotedblright" unicode="&#x201d;" horiz-adv-x="203" 
d="M215 627q2 -31 -7.5 -59l-19.5 -57l-16.5 -37.5l-16.5 -37.5q-10 -22 -26 -24t-30 17q-8 8 -4 17l12 38.5t14 37.5q13 32 20 64t5 67q0 14 2 27t5 26q4 18 23 10q28 -12 34 -42q2 -11 2.5 -23t2.5 -24zM100 642l-2 29.5t-12 27.5q-14 17 -24.5 16t-21.5 -20
q-4 -10 -4 -18q-2 -37 -8.5 -72.5t-17.5 -70.5q-5 -12 -8.5 -24.5t-6.5 -24.5q-5 -18 3.5 -29.5t25.5 -10.5q14 0 22 8.5t13 19.5t8.5 23t8.5 24l16 53.5t7 56.5q1 2 1 5.5v6.5z" />
    <glyph glyph-name="quoteright" unicode="&#x2019;" horiz-adv-x="167" 
d="M144 642q-4 -24 -12 -47.5t-25 -45.5l-27.5 -38t-32.5 -35q-2 -2 -4.5 -4t-5.5 -4q-14 -8 -21.5 -8.5t-13.5 7.5q-8 10 -8.5 23.5t8.5 21.5q20 20 34.5 42t27.5 46q7 13 11.5 26.5t7.5 27.5q4 18 10 29t15 10q6 0 12.5 -5t12 -12.5t8.5 -16t3 -17.5z" />
    <glyph glyph-name="quoteleft" unicode="&#x2018;" horiz-adv-x="157" 
d="M123 713q4 -3 11.5 -6t8.5 -8q2 -8 1.5 -17.5t-5.5 -16.5q-14 -21 -22.5 -42.5t-12.5 -45.5q-3 -20 -2 -39t10 -37q11 -25 -12 -41q-29 -19 -49 16q-19 31 -21 63.5t5 66.5q5 24 15 45.5t27 40.5q15 17 46 21z" />
    <glyph glyph-name="dieresis" unicode="&#xa8;" horiz-adv-x="348" 
d="M207 643q3 10 5.5 22t13.5 22q7 5 12 16q4 8 13 12t18.5 4t18.5 -5t15 -16q7 -12 6 -29t-8.5 -33.5t-21 -29t-31.5 -14.5q-16 -2 -28 12.5t-13 38.5zM129 726q7 -3 9.5 -14t7.5 -21l-7 -14t-7 -12q-7 -10 -13.5 -20.5t-15.5 -18.5q-12 -12 -27.5 -8.5t-25.5 17.5
q-8 13 -10 27.5t1.5 28t12 24.5t21.5 18q16 9 29 4t25 -11z" />
    <glyph glyph-name="hungarumlaut" unicode="&#xbd;" horiz-adv-x="334" 
d="M124 775q21 1 30.5 -9.5t3.5 -29.5q-7 -19 -16 -37t-17 -37q-5 -10 -9 -19t-6 -19q-2 -11 -9 -18.5t-16 -11.5q-11 -5 -22 2q-15 8 -21 28t0 36q5 11 9 21.5t9 21.5q15 32 31 57q5 8 13.5 14t19.5 1zM216 576q14 33 31.5 63l36.5 60q9 15 10 31q2 11 -6 17t-19 1
l-18.5 -10.5t-15.5 -13.5q-11 -14 -19 -28l-16 -29q-19 -35 -32 -68q-6 -17 1.5 -26.5t24.5 -11.5q9 -1 13.5 2t8.5 13z" />
    <glyph glyph-name="hungarumlaut" unicode="&#x2dd;" horiz-adv-x="334" 
d="M124 775q21 1 30.5 -9.5t3.5 -29.5q-7 -19 -16 -37t-17 -37q-5 -10 -9 -19t-6 -19q-2 -11 -9 -18.5t-16 -11.5q-11 -5 -22 2q-15 8 -21 28t0 36q5 11 9 21.5t9 21.5q15 32 31 57q5 8 13.5 14t19.5 1zM216 576q14 33 31.5 63l36.5 60q9 15 10 31q2 11 -6 17t-19 1
l-18.5 -10.5t-15.5 -13.5q-11 -14 -19 -28l-16 -29q-19 -35 -32 -68q-6 -17 1.5 -26.5t24.5 -11.5q9 -1 13.5 2t8.5 13z" />
    <glyph glyph-name="circumflex" horiz-adv-x="344" 
d="M180 636l-28.5 -23.5l-28.5 -25.5q-15 -14 -32 -20t-37 2q-11 4 -13.5 9.5t2.5 17.5q7 17 20 30t28 24q20 16 37 34.5t32 39.5q6 8 13 14t19 3q10 -3 17 -8.5t11 -17.5q4 -15 11.5 -29t16.5 -27q10 -14 22 -26.5t23 -25.5q9 -10 11.5 -24.5t-4.5 -25.5q-2 -3 -8 -5.5
t-9 -0.5q-10 4 -19.5 8.5t-17.5 11.5l-33 32z" />
    <glyph glyph-name="tilde" horiz-adv-x="371" 
d="M128 676q-8 -5 -13.5 -9l-10.5 -8q-14 -11 -26 -23q-6 -6 -12 -8.5t-14 4.5q-8 6 -11.5 15.5t0.5 17.5q6 10 12.5 19t14.5 17q11 11 23.5 21.5t26.5 18.5q23 13 45 3.5t31 -33.5l10.5 -24l12.5 -26l26 16.5l26 16.5q6 3 11.5 6.5t11.5 6.5q9 5 19 3t15 -7q5 -8 5 -22
t-6 -21l-4 -4l-4 -4l-21 -20t-22 -19t-24.5 -17.5t-26.5 -13.5q-12 -5 -25.5 -2.5t-25.5 9.5t-21 18t-12 24q-2 10 -4.5 20.5t-6.5 24.5z" />
    <glyph glyph-name="breve" unicode="&#xa2;" horiz-adv-x="297" 
d="M258 686q-1 -2 -2 -7t-5 -9l-35 -36t-39 -32q-19 -13 -42 -13t-43 9.5t-34.5 26t-15.5 36.5q0 3 -0.5 6t-1.5 7q-3 14 5 29t21 19q4 1 9 0t7 -3l17 -15.5t15 -16.5q8 -10 14 -12.5t16 3.5q9 5 18 11.5l18 12.5l15.5 10t15.5 9q12 5 20.5 4t14.5 -6.5t9 -14t3 -18.5z" />
    <glyph glyph-name="breve" unicode="&#x2d8;" horiz-adv-x="297" 
d="M258 686q-1 -2 -2 -7t-5 -9l-35 -36t-39 -32q-19 -13 -42 -13t-43 9.5t-34.5 26t-15.5 36.5q0 3 -0.5 6t-1.5 7q-3 14 5 29t21 19q4 1 9 0t7 -3l17 -15.5t15 -16.5q8 -10 14 -12.5t16 3.5q9 5 18 11.5l18 12.5l15.5 10t15.5 9q12 5 20.5 4t14.5 -6.5t9 -14t3 -18.5z" />
    <glyph glyph-name="caron" unicode="&#xa1;" horiz-adv-x="298" 
d="M125 624l84 105q7 8 14.5 8.5t21.5 -4.5q17 -8 13 -25q-3 -17 -10.5 -32t-17.5 -29q-11 -15 -20 -30l-18 -31q-6 -11 -11.5 -18.5t-13 -12t-18 -6t-27.5 -0.5q-20 1 -35 14t-20 33q-6 20 -12.5 39.5t-11.5 39.5q-2 9 -3.5 18t2.5 20q4 10 9 16.5t16 6.5q21 0 29 -22
q5 -14 9.5 -29t9.5 -29q2 -8 5 -16t5 -16z" />
    <glyph glyph-name="caron" unicode="&#x2c7;" horiz-adv-x="298" 
d="M125 624l84 105q7 8 14.5 8.5t21.5 -4.5q17 -8 13 -25q-3 -17 -10.5 -32t-17.5 -29q-11 -15 -20 -30l-18 -31q-6 -11 -11.5 -18.5t-13 -12t-18 -6t-27.5 -0.5q-20 1 -35 14t-20 33q-6 20 -12.5 39.5t-11.5 39.5q-2 9 -3.5 18t2.5 20q4 10 9 16.5t16 6.5q21 0 29 -22
q5 -14 9.5 -29t9.5 -29q2 -8 5 -16t5 -16z" />
    <glyph glyph-name="ring" unicode="&#x2da;" horiz-adv-x="272" 
d="M134 746q9 11 19.5 10.5t21.5 -5.5q8 -4 15 -6.5t14 -7.5q38 -23 25 -66q-6 -19 -18.5 -35t-28 -28t-32 -19.5t-30.5 -9.5q-20 -3 -35.5 3t-26 18.5t-15.5 28.5t-3 33q2 22 12.5 39.5t23.5 34.5q22 27 58 10zM140 718l-9.5 -13t-8.5 -13q-4 -6 -7.5 -12t-5.5 -13
q-2 -5 -2 -11t2 -11q1 -2 7.5 -2t11.5 1q19 6 29.5 19.5t18.5 30.5l-17.5 12t-18.5 12z" />
    <glyph glyph-name="dotaccent" unicode="&#xff;" horiz-adv-x="205" 
d="M40 654q-1 21 8 35t20 25q8 8 19 11t23 -3q11 -5 21.5 -10.5t20.5 -11.5q4 -3 7 -9.5t4.5 -14t1 -14.5t-3.5 -11l-20.5 -23.5t-23.5 -20.5q-26 -19 -49 -5.5t-27 45.5q-1 1 -1 5v2z" />
    <glyph glyph-name="dotaccent" unicode="&#x2d9;" horiz-adv-x="205" 
d="M40 654q-1 21 8 35t20 25q8 8 19 11t23 -3q11 -5 21.5 -10.5t20.5 -11.5q4 -3 7 -9.5t4.5 -14t1 -14.5t-3.5 -11l-20.5 -23.5t-23.5 -20.5q-26 -19 -49 -5.5t-27 45.5q-1 1 -1 5v2z" />
    <glyph glyph-name="grave" unicode="`" horiz-adv-x="226" 
d="M39 755l4 14t6 15q5 10 13.5 18.5t19.5 6.5q14 -2 28 -9t21 -22l27 -66t25 -67q8 -22 -4 -40t-35 -20q-12 -1 -22 5.5t-15 16.5l-32.5 62l-30.5 63q-2 5 -2.5 10.5t-2.5 12.5z" />
    <glyph glyph-name="acute" unicode="&#xb4;" horiz-adv-x="244" 
d="M204 763q2 -22 -6 -34.5l-15 -23.5l-38.5 -65l-38.5 -64q-8 -15 -14.5 -17.5t-23.5 2.5q-2 1 -4 0t-4 0l-10.5 4t-6.5 5q-2 9 -3 19t1 19q9 32 24.5 60t33.5 55q5 8 10 14.5t9 14.5q8 14 19.5 22t25.5 13q17 5 29 -4t12 -20z" />
    <glyph glyph-name="cedilla" unicode="&#xb8;" horiz-adv-x="269" 
d="M147 -77q-11 12 -21 10.5t-19 -4.5q-34 -9 -34 24q0 14 0.5 28t2.5 28q2 13 10 21.5t19 14.5q8 4 18 -3t13 -18q2 -6 2 -13.5t1 -15.5q5 0 10.5 -0.5t11.5 -0.5q25 2 40 -10.5t25 -32.5q7 -14 2.5 -34.5t-15.5 -34.5q-20 -26 -44.5 -46.5l-49.5 -41.5q-5 -5 -12 -8
t-14 -7q-15 -7 -30 -1t-22 21q-5 12 1.5 21t13.5 16q13 13 27.5 23.5t27.5 22.5q10 9 18 19.5t18 21.5z" />
    <glyph glyph-name="ogonek" unicode="&#xb2;" horiz-adv-x="281" 
d="M149 -221l-22 4t-22 5q-20 5 -34.5 20t-22.5 34.5t-9 41t6 40.5q8 21 17 40.5t24 36.5q14 14 27.5 29t32.5 23q8 3 18 5t19 0q27 -4 34 -23.5t-10 -40.5l-26 -33l-26 -33q-5 -8 -9.5 -16.5l-9.5 -17.5q-5 -10 -4 -20.5t9 -17.5q11 -8 23 -11.5t26 1.5q23 9 23 34
q0 9 -0.5 18t12.5 9q11 0 12 -10t3 -18q6 -44 -20 -73t-71 -27z" />
    <glyph glyph-name="ogonek" unicode="&#x2db;" horiz-adv-x="281" 
d="M149 -221l-22 4t-22 5q-20 5 -34.5 20t-22.5 34.5t-9 41t6 40.5q8 21 17 40.5t24 36.5q14 14 27.5 29t32.5 23q8 3 18 5t19 0q27 -4 34 -23.5t-10 -40.5l-26 -33l-26 -33q-5 -8 -9.5 -16.5l-9.5 -17.5q-5 -10 -4 -20.5t9 -17.5q11 -8 23 -11.5t26 1.5q23 9 23 34
q0 9 -0.5 18t12.5 9q11 0 12 -10t3 -18q6 -44 -20 -73t-71 -27z" />
    <glyph glyph-name="Agrave" horiz-adv-x="435" 
d="M367 334q8 -6 17 -9.5t11 -17.5q2 -11 -0.5 -17.5t-12.5 -9.5q-12 -4 -14.5 -11.5t-3.5 -18.5l-4 -103.5l-4 -103.5q-2 -39 -3.5 -78t-4.5 -78q-3 -41 -9 -82q-2 -9 -7 -15.5t-16 -5.5q-9 0 -15 3.5t-7 12.5q-2 11 -3.5 22.5t1.5 22.5q10 31 10 62t2 63l4 100l4 100
l2 37.5l2 38.5q0 3 -1 6t-2 8q-8 -2 -16 -2.5t-16 -2.5l-43 -9.5t-42 -9.5q-5 -1 -9 -5t-5 -8l-11.5 -50l-10.5 -50l-27 -123l-6 -23t-8 -23q-6 -17 -20 -19.5t-28 8.5q-29 21 -27 56q3 48 8 94.5t18 93.5q2 5 3 11t3 15l-17.5 -3.5t-15.5 -2.5q-5 -1 -11.5 -2t-11.5 0
q-11 2 -19.5 11.5t-7.5 17.5q2 11 8 19t17 11q14 3 28 6.5t28 5.5q9 2 15.5 5.5t9.5 13.5l18.5 58l19.5 58l33 103.5t36 102.5q28 73 75 132q6 8 12.5 15t14.5 13q5 4 13 7t13 0q8 -3 12 -11t-1 -18q-8 -18 -15 -35.5t-15 -34.5q-2 -6 -3 -10q17 -6 26.5 -16t14.5 -22.5
t6 -26.5l2 -28q2 -57 2.5 -113t1.5 -113q1 -5 1 -10.5t1 -11.5zM319 341q0 23 0.5 45t0.5 45v80t-1 81q0 11 -1.5 22t-3.5 24l-9 -4.5t-5 -3.5q-2 -3 -5 -6.5t-5 -7.5l-47 -155.5t-42 -159.5q7 1 11.5 1t8.5 1l37.5 8t37.5 6q12 2 17.5 7t5.5 17zM228 1003l4 14t6 15
q5 10 13.5 18.5t19.5 6.5q14 -2 28 -9t21 -22l27 -66t25 -67q8 -22 -4 -40t-35 -20q-12 -1 -22 5.5t-15 16.5l-32.5 62l-30.5 63q-2 5 -2.5 10.5t-2.5 12.5z" />
    <glyph glyph-name="Aacute" unicode="&#xc1;" horiz-adv-x="435" 
d="M367 334q8 -6 17 -9.5t11 -17.5q2 -11 -0.5 -17.5t-12.5 -9.5q-12 -4 -14.5 -11.5t-3.5 -18.5l-4 -103.5l-4 -103.5q-2 -39 -3.5 -78t-4.5 -78q-3 -41 -9 -82q-2 -9 -7 -15.5t-16 -5.5q-9 0 -15 3.5t-7 12.5q-2 11 -3.5 22.5t1.5 22.5q10 31 10 62t2 63l4 100l4 100
l2 37.5l2 38.5q0 3 -1 6t-2 8q-8 -2 -16 -2.5t-16 -2.5l-43 -9.5t-42 -9.5q-5 -1 -9 -5t-5 -8l-11.5 -50l-10.5 -50l-27 -123l-6 -23t-8 -23q-6 -17 -20 -19.5t-28 8.5q-29 21 -27 56q3 48 8 94.5t18 93.5q2 5 3 11t3 15l-17.5 -3.5t-15.5 -2.5q-5 -1 -11.5 -2t-11.5 0
q-11 2 -19.5 11.5t-7.5 17.5q2 11 8 19t17 11q14 3 28 6.5t28 5.5q9 2 15.5 5.5t9.5 13.5l18.5 58l19.5 58l33 103.5t36 102.5q28 73 75 132q6 8 12.5 15t14.5 13q5 4 13 7t13 0q8 -3 12 -11t-1 -18q-8 -18 -15 -35.5t-15 -34.5q-2 -6 -3 -10q17 -6 26.5 -16t14.5 -22.5
t6 -26.5l2 -28q2 -57 2.5 -113t1.5 -113q1 -5 1 -10.5t1 -11.5zM319 341q0 23 0.5 45t0.5 45v80t-1 81q0 11 -1.5 22t-3.5 24l-9 -4.5t-5 -3.5q-2 -3 -5 -6.5t-5 -7.5l-47 -155.5t-42 -159.5q7 1 11.5 1t8.5 1l37.5 8t37.5 6q12 2 17.5 7t5.5 17zM445 1038q2 -22 -6 -34.5
l-15 -23.5l-38.5 -65l-38.5 -64q-8 -15 -14.5 -17.5t-23.5 2.5q-2 1 -4 0t-4 0l-10.5 4t-6.5 5q-2 9 -3 19t1 19q9 32 24.5 60t33.5 55q5 8 10 14.5t9 14.5q8 14 19.5 22t25.5 13q17 5 29 -4t12 -20z" />
    <glyph glyph-name="Acircumflex" unicode="&#xc2;" horiz-adv-x="435" 
d="M367 334q8 -6 17 -9.5t11 -17.5q2 -11 -0.5 -17.5t-12.5 -9.5q-12 -4 -14.5 -11.5t-3.5 -18.5l-4 -103.5l-4 -103.5q-2 -39 -3.5 -78t-4.5 -78q-3 -41 -9 -82q-2 -9 -7 -15.5t-16 -5.5q-9 0 -15 3.5t-7 12.5q-2 11 -3.5 22.5t1.5 22.5q10 31 10 62t2 63l4 100l4 100
l2 37.5l2 38.5q0 3 -1 6t-2 8q-8 -2 -16 -2.5t-16 -2.5l-43 -9.5t-42 -9.5q-5 -1 -9 -5t-5 -8l-11.5 -50l-10.5 -50l-27 -123l-6 -23t-8 -23q-6 -17 -20 -19.5t-28 8.5q-29 21 -27 56q3 48 8 94.5t18 93.5q2 5 3 11t3 15l-17.5 -3.5t-15.5 -2.5q-5 -1 -11.5 -2t-11.5 0
q-11 2 -19.5 11.5t-7.5 17.5q2 11 8 19t17 11q14 3 28 6.5t28 5.5q9 2 15.5 5.5t9.5 13.5l18.5 58l19.5 58l33 103.5t36 102.5q28 73 75 132q6 8 12.5 15t14.5 13q5 4 13 7t13 0q8 -3 12 -11t-1 -18q-8 -18 -15 -35.5t-15 -34.5q-2 -6 -3 -10q17 -6 26.5 -16t14.5 -22.5
t6 -26.5l2 -28q2 -57 2.5 -113t1.5 -113q1 -5 1 -10.5t1 -11.5zM319 341q0 23 0.5 45t0.5 45v80t-1 81q0 11 -1.5 22t-3.5 24l-9 -4.5t-5 -3.5q-2 -3 -5 -6.5t-5 -7.5l-47 -155.5t-42 -159.5q7 1 11.5 1t8.5 1l37.5 8t37.5 6q12 2 17.5 7t5.5 17zM331 892l-28.5 -23.5
l-28.5 -25.5q-15 -14 -32 -20t-37 2q-11 4 -13.5 9.5t2.5 17.5q7 17 20 30t28 24q20 16 37 34.5t32 39.5q6 8 13 14t19 3q10 -3 17 -8.5t11 -17.5q4 -15 11.5 -29t16.5 -27q10 -14 22 -26.5t23 -25.5q9 -10 11.5 -24.5t-4.5 -25.5q-2 -3 -8 -5.5t-9 -0.5q-10 4 -19.5 8.5
t-17.5 11.5l-33 32z" />
    <glyph glyph-name="Atilde" horiz-adv-x="435" 
d="M367 334q8 -6 17 -9.5t11 -17.5q2 -11 -0.5 -17.5t-12.5 -9.5q-12 -4 -14.5 -11.5t-3.5 -18.5l-4 -103.5l-4 -103.5q-2 -39 -3.5 -78t-4.5 -78q-3 -41 -9 -82q-2 -9 -7 -15.5t-16 -5.5q-9 0 -15 3.5t-7 12.5q-2 11 -3.5 22.5t1.5 22.5q10 31 10 62t2 63l4 100l4 100
l2 37.5l2 38.5q0 3 -1 6t-2 8q-8 -2 -16 -2.5t-16 -2.5l-43 -9.5t-42 -9.5q-5 -1 -9 -5t-5 -8l-11.5 -50l-10.5 -50l-27 -123l-6 -23t-8 -23q-6 -17 -20 -19.5t-28 8.5q-29 21 -27 56q3 48 8 94.5t18 93.5q2 5 3 11t3 15l-17.5 -3.5t-15.5 -2.5q-5 -1 -11.5 -2t-11.5 0
q-11 2 -19.5 11.5t-7.5 17.5q2 11 8 19t17 11q14 3 28 6.5t28 5.5q9 2 15.5 5.5t9.5 13.5l18.5 58l19.5 58l33 103.5t36 102.5q28 73 75 132q6 8 12.5 15t14.5 13q5 4 13 7t13 0q8 -3 12 -11t-1 -18q-8 -18 -15 -35.5t-15 -34.5q-2 -6 -3 -10q17 -6 26.5 -16t14.5 -22.5
t6 -26.5l2 -28q2 -57 2.5 -113t1.5 -113q1 -5 1 -10.5t1 -11.5zM319 341q0 23 0.5 45t0.5 45v80t-1 81q0 11 -1.5 22t-3.5 24l-9 -4.5t-5 -3.5q-2 -3 -5 -6.5t-5 -7.5l-47 -155.5t-42 -159.5q7 1 11.5 1t8.5 1l37.5 8t37.5 6q12 2 17.5 7t5.5 17zM278 932q-8 -5 -13.5 -9
l-10.5 -8q-14 -11 -26 -23q-6 -6 -12 -8.5t-14 4.5q-8 6 -11.5 15.5t0.5 17.5q6 10 12.5 19t14.5 17q11 11 23.5 21.5t26.5 18.5q23 13 45 3.5t31 -33.5l10.5 -24l12.5 -26l26 16.5l26 16.5q6 3 11.5 6.5t11.5 6.5q9 5 19 3t15 -7q5 -8 5 -22t-6 -21l-4 -4l-4 -4l-21 -20
t-22 -19t-24.5 -17.5t-26.5 -13.5q-12 -5 -25.5 -2.5t-25.5 9.5t-21 18t-12 24q-2 10 -4.5 20.5t-6.5 24.5z" />
    <glyph glyph-name="Adieresis" unicode="&#xc4;" horiz-adv-x="435" 
d="M367 334q8 -6 17 -9.5t11 -17.5q2 -11 -0.5 -17.5t-12.5 -9.5q-12 -4 -14.5 -11.5t-3.5 -18.5l-4 -103.5l-4 -103.5q-2 -39 -3.5 -78t-4.5 -78q-3 -41 -9 -82q-2 -9 -7 -15.5t-16 -5.5q-9 0 -15 3.5t-7 12.5q-2 11 -3.5 22.5t1.5 22.5q10 31 10 62t2 63l4 100l4 100
l2 37.5l2 38.5q0 3 -1 6t-2 8q-8 -2 -16 -2.5t-16 -2.5l-43 -9.5t-42 -9.5q-5 -1 -9 -5t-5 -8l-11.5 -50l-10.5 -50l-27 -123l-6 -23t-8 -23q-6 -17 -20 -19.5t-28 8.5q-29 21 -27 56q3 48 8 94.5t18 93.5q2 5 3 11t3 15l-17.5 -3.5t-15.5 -2.5q-5 -1 -11.5 -2t-11.5 0
q-11 2 -19.5 11.5t-7.5 17.5q2 11 8 19t17 11q14 3 28 6.5t28 5.5q9 2 15.5 5.5t9.5 13.5l18.5 58l19.5 58l33 103.5t36 102.5q28 73 75 132q6 8 12.5 15t14.5 13q5 4 13 7t13 0q8 -3 12 -11t-1 -18q-8 -18 -15 -35.5t-15 -34.5q-2 -6 -3 -10q17 -6 26.5 -16t14.5 -22.5
t6 -26.5l2 -28q2 -57 2.5 -113t1.5 -113q1 -5 1 -10.5t1 -11.5zM319 341q0 23 0.5 45t0.5 45v80t-1 81q0 11 -1.5 22t-3.5 24l-9 -4.5t-5 -3.5q-2 -3 -5 -6.5t-5 -7.5l-47 -155.5t-42 -159.5q7 1 11.5 1t8.5 1l37.5 8t37.5 6q12 2 17.5 7t5.5 17zM364 854q3 10 5.5 22
t13.5 22q7 5 12 16q4 8 13 12t18.5 4t18.5 -5t15 -16q7 -12 6 -29t-8.5 -33.5t-21 -29t-31.5 -14.5q-16 -2 -28 12.5t-13 38.5zM286 937q7 -3 9.5 -14t7.5 -21l-7 -14t-7 -12q-7 -10 -13.5 -20.5t-15.5 -18.5q-12 -12 -27.5 -8.5t-25.5 17.5q-8 13 -10 27.5t1.5 28t12 24.5
t21.5 18q16 9 29 4t25 -11z" />
    <glyph glyph-name="Aring" horiz-adv-x="435" 
d="M367 334q8 -6 17 -9.5t11 -17.5q2 -11 -0.5 -17.5t-12.5 -9.5q-12 -4 -14.5 -11.5t-3.5 -18.5l-4 -103.5l-4 -103.5q-2 -39 -3.5 -78t-4.5 -78q-3 -41 -9 -82q-2 -9 -7 -15.5t-16 -5.5q-9 0 -15 3.5t-7 12.5q-2 11 -3.5 22.5t1.5 22.5q10 31 10 62t2 63l4 100l4 100
l2 37.5l2 38.5q0 3 -1 6t-2 8q-8 -2 -16 -2.5t-16 -2.5l-43 -9.5t-42 -9.5q-5 -1 -9 -5t-5 -8l-11.5 -50l-10.5 -50l-27 -123l-6 -23t-8 -23q-6 -17 -20 -19.5t-28 8.5q-29 21 -27 56q3 48 8 94.5t18 93.5q2 5 3 11t3 15l-17.5 -3.5t-15.5 -2.5q-5 -1 -11.5 -2t-11.5 0
q-11 2 -19.5 11.5t-7.5 17.5q2 11 8 19t17 11q14 3 28 6.5t28 5.5q9 2 15.5 5.5t9.5 13.5l18.5 58l19.5 58l33 103.5t36 102.5q28 73 75 132q6 8 12.5 15t14.5 13q5 4 13 7t13 0q8 -3 12 -11t-1 -18q-8 -18 -15 -35.5t-15 -34.5q-2 -6 -3 -10q17 -6 26.5 -16t14.5 -22.5
t6 -26.5l2 -28q2 -57 2.5 -113t1.5 -113q1 -5 1 -10.5t1 -11.5zM319 341q0 23 0.5 45t0.5 45v80t-1 81q0 11 -1.5 22t-3.5 24l-9 -4.5t-5 -3.5q-2 -3 -5 -6.5t-5 -7.5l-47 -155.5t-42 -159.5q7 1 11.5 1t8.5 1l37.5 8t37.5 6q12 2 17.5 7t5.5 17zM341 1012q9 11 19.5 10.5
t21.5 -5.5q8 -4 15 -6.5t14 -7.5q38 -23 25 -66q-6 -19 -18.5 -35t-28 -28t-32 -19.5t-30.5 -9.5q-20 -3 -35.5 3t-26 18.5t-15.5 28.5t-3 33q2 22 12.5 39.5t23.5 34.5q22 27 58 10zM347 984l-9.5 -13t-8.5 -13q-4 -6 -7.5 -12t-5.5 -13q-2 -5 -2 -11t2 -11q1 -2 7.5 -2
t11.5 1q19 6 29.5 19.5t18.5 30.5l-17.5 12t-18.5 12z" />
    <glyph glyph-name="AE" horiz-adv-x="713" 
d="M635 38q11 0 14 -6t-2 -15q-6 -9 -13.5 -18t-15.5 -16q-29 -21 -60 -36l-62 -31t-63 -29q-23 -11 -39 -3t-30 31q-7 11 -10.5 24.5t-5.5 27.5q-11 54 -11 108.5t3 110.5q2 23 1.5 45t-0.5 47l-36 -10t-42.5 -13l-40 -12.5t-27.5 -7.5q-5 -1 -9 -5t-5 -8l-11.5 -50
l-10.5 -50l-27 -123l-6 -23t-8 -23q-6 -17 -20 -19.5t-28 8.5q-29 21 -27 56q3 48 8 94.5t18 93.5l6 26l-17.5 -3.5t-15.5 -2.5q-5 -1 -11.5 -2t-11.5 0q-11 2 -19.5 11.5t-7.5 17.5q2 11 8 19t17 11q14 3 28 6.5t28 5.5q9 2 15.5 5.5t9.5 13.5l18.5 58l19.5 58l33 103.5
t36 102.5q28 73 75 132q6 8 12.5 15t14.5 13q5 4 13 7t13 0q8 -3 12 -11t-1 -18l-19 -39l-1 -4q9 4 19 6t19 5q8 2 15.5 3t15.5 1q18 1 26 19q3 8 7 13t13 4q8 -1 15.5 -4t10.5 -12l2 -4t3 -5l63.5 9.5l63.5 9.5q10 2 15 2q23 0 26 -17q1 -8 -5 -15t-16 -9q-18 -3 -36 -5
l-35 -4l-67 -10q-15 -2 -15 -17q-2 -38 -3.5 -75t-3.5 -75q-2 -26 -5 -51.5t-5 -51.5q-1 -15 -0.5 -30.5t0.5 -32.5l32.5 8l30.5 8l93 22q21 5 32 -11q20 -24 -6 -36q-37 -17 -73 -27q-25 -8 -50 -14l-51 -12q-16 -4 -16 -21l-10 -236q-1 -20 -0.5 -41t0.5 -44l15 5t11 4
l63.5 31t64.5 30q11 5 25 6t27 1zM398 675q1 1 -1 11l-58 -4l-6 -2t-5 1l-10 6q-4 -4 -7 -10l-27 -87l-31 -99t-30 -100.5t-23 -90.5l70 18q13 8 26.5 11.5t27.5 5.5q17 3 20.5 7t5.5 21q8 48 15 94.5l14 94.5l9.5 61.5z" />
    <glyph glyph-name="Ccedilla" unicode="&#xc7;" horiz-adv-x="503" 
d="M480 280q9 -6 8.5 -14.5t-5.5 -16.5l-27.5 -44t-30.5 -42q-32 -39 -66 -76.5l-69 -74.5q-37 -40 -84 -62q-46 -22 -93 -11.5t-77 52.5q-27 38 -31 84q-2 28 -5.5 55t-5.5 54q-2 19 -0.5 38t4.5 38l15.5 102t22.5 101q15 51 33 100t47 94q17 28 36 55.5t39 53.5
q13 17 31 27.5t37 18.5q13 6 26 10t27 9q30 11 55.5 0t39.5 -40q12 -26 11.5 -52.5t-8.5 -52.5q-8 -30 -17.5 -60l-19.5 -60q-7 -22 -32 -36q-7 15 -4.5 28t6.5 25q11 36 20 72t12 74q2 14 -2 26t-12 23q-7 11 -17.5 11.5t-19.5 -4.5q-27 -13 -50 -35q-10 -8 -19 -18.5
l-17 -20.5q-23 -26 -37.5 -56l-28.5 -61q-20 -50 -33 -101t-23 -104q-5 -22 -9 -43.5t-7 -44.5q-7 -56 -11 -111.5t6 -112.5q3 -18 11 -38q19 -44 59 -27q21 9 41 20.5t37 25.5l69 61.5l67 63.5q20 20 38.5 42t38.5 43q5 5 10 11.5t14 0.5zM159 -165q-11 12 -21 10.5
t-19 -4.5q-34 -9 -34 24q0 14 0.5 28t2.5 28q2 13 10 21.5t19 14.5q8 4 18 -3t13 -18q2 -6 2 -13.5t1 -15.5q5 0 10.5 -0.5t11.5 -0.5q25 2 40 -10.5t25 -32.5q7 -14 2.5 -34.5t-15.5 -34.5q-20 -26 -44.5 -46.5l-49.5 -41.5q-5 -5 -12 -8t-14 -7q-15 -7 -30 -1t-22 21
q-5 12 1.5 21t13.5 16q13 13 27.5 23.5t27.5 22.5q10 9 18 19.5t18 21.5z" />
    <glyph glyph-name="Egrave" horiz-adv-x="454" 
d="M376 39q11 0 14 -6t-2 -15q-6 -9 -13.5 -18t-15.5 -16q-29 -21 -60 -36l-62 -31t-63 -29q-23 -11 -39 -3t-30 31q-7 11 -10.5 24.5t-5.5 27.5q-11 54 -11 108.5t3 110.5q2 23 1.5 45.5t-0.5 47.5q-12 -2 -23.5 -3.5t-22.5 -1.5q-8 1 -17.5 2.5t-16.5 6.5q-19 13 2 30
q14 11 29 15t32 7t20.5 7t5.5 21q8 48 15 94.5l14 94.5l9.5 61.5l9.5 61.5q1 1 -1 11l-29.5 -2l-28.5 -2l-6 -2t-5 1q-5 2 -9.5 5t-7.5 8q-1 2 2 7.5t6 7.5q11 5 21.5 7.5t21.5 5.5q8 2 15.5 3t15.5 1q18 1 26 19q3 8 7 13t13 4q8 -1 15.5 -4t10.5 -12l2 -4t3 -5l63.5 9.5
l63.5 9.5q10 2 15 2q23 0 26 -17q1 -8 -5 -15t-16 -9q-18 -3 -36 -5l-35 -4t-33.5 -5t-33.5 -5q-15 -2 -15 -17q-2 -38 -3.5 -75t-3.5 -75q-2 -26 -5 -51.5t-5 -51.5q-1 -15 -0.5 -30.5t0.5 -32.5l32.5 8l30.5 8q23 5 46.5 11t46.5 11q21 5 32 -11q20 -24 -6 -36
q-37 -17 -73 -27q-25 -8 -50 -14l-51 -12q-16 -4 -16 -21q-2 -60 -5 -118.5t-5 -117.5q-1 -20 -0.5 -41t0.5 -44l15 5t11 4l63.5 31t64.5 30q11 5 25 6t27 1zM125 992l4 14t6 15q5 10 13.5 18.5t19.5 6.5q14 -2 28 -9t21 -22l27 -66t25 -67q8 -22 -4 -40t-35 -20
q-12 -1 -22 5.5t-15 16.5l-32.5 62l-30.5 63q-2 5 -2.5 10.5t-2.5 12.5z" />
    <glyph glyph-name="Eacute" unicode="&#xc9;" horiz-adv-x="454" 
d="M376 39q11 0 14 -6t-2 -15q-6 -9 -13.5 -18t-15.5 -16q-29 -21 -60 -36l-62 -31t-63 -29q-23 -11 -39 -3t-30 31q-7 11 -10.5 24.5t-5.5 27.5q-11 54 -11 108.5t3 110.5q2 23 1.5 45.5t-0.5 47.5q-12 -2 -23.5 -3.5t-22.5 -1.5q-8 1 -17.5 2.5t-16.5 6.5q-19 13 2 30
q14 11 29 15t32 7t20.5 7t5.5 21q8 48 15 94.5l14 94.5l9.5 61.5l9.5 61.5q1 1 -1 11l-29.5 -2l-28.5 -2l-6 -2t-5 1q-5 2 -9.5 5t-7.5 8q-1 2 2 7.5t6 7.5q11 5 21.5 7.5t21.5 5.5q8 2 15.5 3t15.5 1q18 1 26 19q3 8 7 13t13 4q8 -1 15.5 -4t10.5 -12l2 -4t3 -5l63.5 9.5
l63.5 9.5q10 2 15 2q23 0 26 -17q1 -8 -5 -15t-16 -9q-18 -3 -36 -5l-35 -4t-33.5 -5t-33.5 -5q-15 -2 -15 -17q-2 -38 -3.5 -75t-3.5 -75q-2 -26 -5 -51.5t-5 -51.5q-1 -15 -0.5 -30.5t0.5 -32.5l32.5 8l30.5 8q23 5 46.5 11t46.5 11q21 5 32 -11q20 -24 -6 -36
q-37 -17 -73 -27q-25 -8 -50 -14l-51 -12q-16 -4 -16 -21q-2 -60 -5 -118.5t-5 -117.5q-1 -20 -0.5 -41t0.5 -44l15 5t11 4l63.5 31t64.5 30q11 5 25 6t27 1zM336 1016q2 -22 -6 -34.5l-15 -23.5l-38.5 -65l-38.5 -64q-8 -15 -14.5 -17.5t-23.5 2.5q-2 1 -4 0t-4 0l-10.5 4
t-6.5 5q-2 9 -3 19t1 19q9 32 24.5 60t33.5 55q5 8 10 14.5t9 14.5q8 14 19.5 22t25.5 13q17 5 29 -4t12 -20z" />
    <glyph glyph-name="Ecircumflex" horiz-adv-x="454" 
d="M376 39q11 0 14 -6t-2 -15q-6 -9 -13.5 -18t-15.5 -16q-29 -21 -60 -36l-62 -31t-63 -29q-23 -11 -39 -3t-30 31q-7 11 -10.5 24.5t-5.5 27.5q-11 54 -11 108.5t3 110.5q2 23 1.5 45.5t-0.5 47.5q-12 -2 -23.5 -3.5t-22.5 -1.5q-8 1 -17.5 2.5t-16.5 6.5q-19 13 2 30
q14 11 29 15t32 7t20.5 7t5.5 21q8 48 15 94.5l14 94.5l9.5 61.5l9.5 61.5q1 1 -1 11l-29.5 -2l-28.5 -2l-6 -2t-5 1q-5 2 -9.5 5t-7.5 8q-1 2 2 7.5t6 7.5q11 5 21.5 7.5t21.5 5.5q8 2 15.5 3t15.5 1q18 1 26 19q3 8 7 13t13 4q8 -1 15.5 -4t10.5 -12l2 -4t3 -5l63.5 9.5
l63.5 9.5q10 2 15 2q23 0 26 -17q1 -8 -5 -15t-16 -9q-18 -3 -36 -5l-35 -4t-33.5 -5t-33.5 -5q-15 -2 -15 -17q-2 -38 -3.5 -75t-3.5 -75q-2 -26 -5 -51.5t-5 -51.5q-1 -15 -0.5 -30.5t0.5 -32.5l32.5 8l30.5 8q23 5 46.5 11t46.5 11q21 5 32 -11q20 -24 -6 -36
q-37 -17 -73 -27q-25 -8 -50 -14l-51 -12q-16 -4 -16 -21q-2 -60 -5 -118.5t-5 -117.5q-1 -20 -0.5 -41t0.5 -44l15 5t11 4l63.5 31t64.5 30q11 5 25 6t27 1zM224 900l-28.5 -23.5l-28.5 -25.5q-15 -14 -32 -20t-37 2q-11 4 -13.5 9.5t2.5 17.5q7 17 20 30t28 24
q20 16 37 34.5t32 39.5q6 8 13 14t19 3q10 -3 17 -8.5t11 -17.5q4 -15 11.5 -29t16.5 -27q10 -14 22 -26.5t23 -25.5q9 -10 11.5 -24.5t-4.5 -25.5q-2 -3 -8 -5.5t-9 -0.5q-10 4 -19.5 8.5t-17.5 11.5l-33 32z" />
    <glyph glyph-name="Edieresis" unicode="&#xcb;" horiz-adv-x="454" 
d="M376 39q11 0 14 -6t-2 -15q-6 -9 -13.5 -18t-15.5 -16q-29 -21 -60 -36l-62 -31t-63 -29q-23 -11 -39 -3t-30 31q-7 11 -10.5 24.5t-5.5 27.5q-11 54 -11 108.5t3 110.5q2 23 1.5 45.5t-0.5 47.5q-12 -2 -23.5 -3.5t-22.5 -1.5q-8 1 -17.5 2.5t-16.5 6.5q-19 13 2 30
q14 11 29 15t32 7t20.5 7t5.5 21q8 48 15 94.5l14 94.5l9.5 61.5l9.5 61.5q1 1 -1 11l-29.5 -2l-28.5 -2l-6 -2t-5 1q-5 2 -9.5 5t-7.5 8q-1 2 2 7.5t6 7.5q11 5 21.5 7.5t21.5 5.5q8 2 15.5 3t15.5 1q18 1 26 19q3 8 7 13t13 4q8 -1 15.5 -4t10.5 -12l2 -4t3 -5l63.5 9.5
l63.5 9.5q10 2 15 2q23 0 26 -17q1 -8 -5 -15t-16 -9q-18 -3 -36 -5l-35 -4t-33.5 -5t-33.5 -5q-15 -2 -15 -17q-2 -38 -3.5 -75t-3.5 -75q-2 -26 -5 -51.5t-5 -51.5q-1 -15 -0.5 -30.5t0.5 -32.5l32.5 8l30.5 8q23 5 46.5 11t46.5 11q21 5 32 -11q20 -24 -6 -36
q-37 -17 -73 -27q-25 -8 -50 -14l-51 -12q-16 -4 -16 -21q-2 -60 -5 -118.5t-5 -117.5q-1 -20 -0.5 -41t0.5 -44l15 5t11 4l63.5 31t64.5 30q11 5 25 6t27 1zM257 875q3 10 5.5 22t13.5 22q7 5 12 16q4 8 13 12t18.5 4t18.5 -5t15 -16q7 -12 6 -29t-8.5 -33.5t-21 -29
t-31.5 -14.5q-16 -2 -28 12.5t-13 38.5zM179 958q7 -3 9.5 -14t7.5 -21l-7 -14t-7 -12q-7 -10 -13.5 -20.5t-15.5 -18.5q-12 -12 -27.5 -8.5t-25.5 17.5q-8 13 -10 27.5t1.5 28t12 24.5t21.5 18q16 9 29 4t25 -11z" />
    <glyph glyph-name="Igrave" horiz-adv-x="287" 
d="M318 753q10 -3 14 -16q1 -3 -2.5 -8t-7.5 -7q-6 -4 -12.5 -5t-12.5 -3q-17 -2 -33.5 -4.5t-33.5 -4.5q-19 -1 -19 -21l-4 -69.5l-4 -69.5q-2 -36 -3.5 -72t-3.5 -73l-4 -71t-5 -72q-2 -27 -5.5 -54t-5.5 -54q-4 -40 -6.5 -80t-5.5 -82h21l10.5 2l10.5 2q19 1 26 -19
q4 -9 -1.5 -14l-11.5 -10q-5 -4 -10.5 -5t-11.5 -3q-43 -13 -86.5 -19t-88.5 -11q-11 -2 -18 4q-23 15 0 26q15 8 31 13t33 11q13 4 22 5q-2 182 10 360t32 360l-28 -4l-28 -4q-4 0 -8.5 -0.5t-8.5 1.5q-10 4 -12 13q0 4 3.5 8.5t6.5 5.5l32 10t33 8q43 8 86 14t86 13
q6 1 12.5 1t11.5 -2zM74 971l4 14t6 15q5 10 13.5 18.5t19.5 6.5q14 -2 28 -9t21 -22l27 -66t25 -67q8 -22 -4 -40t-35 -20q-12 -1 -22 5.5t-15 16.5l-32.5 62l-30.5 63q-2 5 -2.5 10.5t-2.5 12.5z" />
    <glyph glyph-name="Iacute" unicode="&#xcd;" horiz-adv-x="287" 
d="M318 753q10 -3 14 -16q1 -3 -2.5 -8t-7.5 -7q-6 -4 -12.5 -5t-12.5 -3q-17 -2 -33.5 -4.5t-33.5 -4.5q-19 -1 -19 -21l-4 -69.5l-4 -69.5q-2 -36 -3.5 -72t-3.5 -73l-4 -71t-5 -72q-2 -27 -5.5 -54t-5.5 -54q-4 -40 -6.5 -80t-5.5 -82h21l10.5 2l10.5 2q19 1 26 -19
q4 -9 -1.5 -14l-11.5 -10q-5 -4 -10.5 -5t-11.5 -3q-43 -13 -86.5 -19t-88.5 -11q-11 -2 -18 4q-23 15 0 26q15 8 31 13t33 11q13 4 22 5q-2 182 10 360t32 360l-28 -4l-28 -4q-4 0 -8.5 -0.5t-8.5 1.5q-10 4 -12 13q0 4 3.5 8.5t6.5 5.5l32 10t33 8q43 8 86 14t86 13
q6 1 12.5 1t11.5 -2zM278 997q2 -22 -6 -34.5l-15 -23.5l-38.5 -65l-38.5 -64q-8 -15 -14.5 -17.5t-23.5 2.5q-2 1 -4 0t-4 0l-10.5 4t-6.5 5q-2 9 -3 19t1 19q9 32 24.5 60t33.5 55q5 8 10 14.5t9 14.5q8 14 19.5 22t25.5 13q17 5 29 -4t12 -20z" />
    <glyph glyph-name="Icircumflex" unicode="&#xce;" horiz-adv-x="287" 
d="M318 753q10 -3 14 -16q1 -3 -2.5 -8t-7.5 -7q-6 -4 -12.5 -5t-12.5 -3q-17 -2 -33.5 -4.5t-33.5 -4.5q-19 -1 -19 -21l-4 -69.5l-4 -69.5q-2 -36 -3.5 -72t-3.5 -73l-4 -71t-5 -72q-2 -27 -5.5 -54t-5.5 -54q-4 -40 -6.5 -80t-5.5 -82h21l10.5 2l10.5 2q19 1 26 -19
q4 -9 -1.5 -14l-11.5 -10q-5 -4 -10.5 -5t-11.5 -3q-43 -13 -86.5 -19t-88.5 -11q-11 -2 -18 4q-23 15 0 26q15 8 31 13t33 11q13 4 22 5q-2 182 10 360t32 360l-28 -4l-28 -4q-4 0 -8.5 -0.5t-8.5 1.5q-10 4 -12 13q0 4 3.5 8.5t6.5 5.5l32 10t33 8q43 8 86 14t86 13
q6 1 12.5 1t11.5 -2zM196 894l-28.5 -23.5l-28.5 -25.5q-15 -14 -32 -20t-37 2q-11 4 -13.5 9.5t2.5 17.5q7 17 20 30t28 24q20 16 37 34.5t32 39.5q6 8 13 14t19 3q10 -3 17 -8.5t11 -17.5q4 -15 11.5 -29t16.5 -27q10 -14 22 -26.5t23 -25.5q9 -10 11.5 -24.5t-4.5 -25.5
q-2 -3 -8 -5.5t-9 -0.5q-10 4 -19.5 8.5t-17.5 11.5l-33 32z" />
    <glyph glyph-name="Idieresis" horiz-adv-x="287" 
d="M318 753q10 -3 14 -16q1 -3 -2.5 -8t-7.5 -7q-6 -4 -12.5 -5t-12.5 -3q-17 -2 -33.5 -4.5t-33.5 -4.5q-19 -1 -19 -21l-4 -69.5l-4 -69.5q-2 -36 -3.5 -72t-3.5 -73l-4 -71t-5 -72q-2 -27 -5.5 -54t-5.5 -54q-4 -40 -6.5 -80t-5.5 -82h21l10.5 2l10.5 2q19 1 26 -19
q4 -9 -1.5 -14l-11.5 -10q-5 -4 -10.5 -5t-11.5 -3q-43 -13 -86.5 -19t-88.5 -11q-11 -2 -18 4q-23 15 0 26q15 8 31 13t33 11q13 4 22 5q-2 182 10 360t32 360l-28 -4l-28 -4q-4 0 -8.5 -0.5t-8.5 1.5q-10 4 -12 13q0 4 3.5 8.5t6.5 5.5l32 10t33 8q43 8 86 14t86 13
q6 1 12.5 1t11.5 -2zM213 849q3 10 5.5 22t13.5 22q7 5 12 16q4 8 13 12t18.5 4t18.5 -5t15 -16q7 -12 6 -29t-8.5 -33.5t-21 -29t-31.5 -14.5q-16 -2 -28 12.5t-13 38.5zM135 932q7 -3 9.5 -14t7.5 -21l-7 -14t-7 -12q-7 -10 -13.5 -20.5t-15.5 -18.5q-12 -12 -27.5 -8.5
t-25.5 17.5q-8 13 -10 27.5t1.5 28t12 24.5t21.5 18q16 9 29 4t25 -11z" />
    <glyph glyph-name="Ntilde" horiz-adv-x="474" 
d="M432 805q9 -1 12.5 -6t3.5 -13q-2 -23 -3 -45.5t-3 -45.5q-6 -54 -12.5 -106.5l-12.5 -105.5l-10 -101l-10 -101q-4 -49 -7 -97.5t-8 -97.5q-4 -48 -8.5 -95.5t-9.5 -95.5l-4 -16.5t-7 -16.5q-11 -18 -29 -19t-32 15q-18 22 -27 47t-17 51l-22.5 82l-21.5 82
q-10 42 -18.5 84t-18.5 84l-22.5 98.5l-22.5 98.5q-1 5 -7 15q-1 -17 -2 -30.5t-1 -27.5q-1 -25 -0.5 -49t0.5 -49q-2 -82 -6 -164q-1 -27 -3.5 -54t-4.5 -53q-4 -43 -6.5 -85t-6.5 -85q-2 -11 -5.5 -22.5t-8.5 -22.5t-14.5 -14t-20.5 -3t-17 6.5t-9 15.5q-11 26 -14.5 53
t-1.5 55q2 40 3.5 79t3.5 79q2 32 3 63.5t6 63.5q5 30 5 60.5t2 60.5q7 69 12 138.5t11 139.5q2 14 5 28.5l6 28.5q0 2 0.5 2.5t0.5 1.5q5 14 15.5 23.5t21.5 9.5q11 1 21.5 -8.5t15.5 -23.5l26 -93.5l26 -93.5l16 -60.5l16 -60.5t14.5 -60.5l13.5 -60.5q5 -19 9 -38t9 -38
l27.5 -115.5l27.5 -114.5q2 -5 3 -9.5t3 -9.5q2 0 3 0.5t2 0.5q2 20 3.5 39.5t3.5 39.5q6 75 12.5 148.5l13.5 148.5q5 51 10.5 100.5l11.5 100.5l13.5 104.5t14.5 104.5q3 20 9 40q3 16 18 15zM190 903q-8 -5 -13.5 -9l-10.5 -8q-14 -11 -26 -23q-6 -6 -12 -8.5t-14 4.5
q-8 6 -11.5 15.5t0.5 17.5q6 10 12.5 19t14.5 17q11 11 23.5 21.5t26.5 18.5q23 13 45 3.5t31 -33.5l10.5 -24l12.5 -26l26 16.5l26 16.5q6 3 11.5 6.5t11.5 6.5q9 5 19 3t15 -7q5 -8 5 -22t-6 -21l-4 -4l-4 -4l-21 -20t-22 -19t-24.5 -17.5t-26.5 -13.5q-12 -5 -25.5 -2.5
t-25.5 9.5t-21 18t-12 24q-2 10 -4.5 20.5t-6.5 24.5z" />
    <glyph glyph-name="Ograve" horiz-adv-x="394" 
d="M370 589q6 -57 3.5 -113.5t-11.5 -113.5l-20.5 -114t-23.5 -114q-11 -51 -26.5 -100t-40.5 -95q-17 -31 -40.5 -54.5t-56.5 -37.5q-32 -14 -61 -5t-50 38q-14 20 -20 41.5t-13 43.5q-10 35 -11.5 71.5t-5.5 78.5q2 17 3 38.5t3 44.5q6 61 15 123q4 21 9 42.5t12 41.5
q8 25 17 49t17 49q7 18 5 36q-9 86 38 157q11 17 25 31.5t34 22.5q17 7 33 20q15 10 32.5 13.5t35 -0.5t33.5 -16.5t28 -33.5q18 -34 25.5 -70.5t11.5 -73.5zM286 290q2 9 2.5 18.5t1.5 17.5q-17 -1 -31 -2.5t-28 0.5q-22 2 -39.5 13t-32.5 27q-24 25 -48 54q-2 -5 -3 -9.5
t-2 -9.5q-5 -30 -11.5 -59.5t-10.5 -59.5q-3 -23 -2.5 -45.5t-1.5 -45.5q-7 -63 -0.5 -123t23.5 -120q6 -20 16.5 -22.5t27.5 8.5q20 13 32 31t22 38q21 45 35 92.5l27 95.5l12 50t11 51zM310 451q2 35 3 71t-1 72q-3 61 -27 115q-7 16 -22 22.5t-30 -1.5l-29.5 -16
t-28.5 -19q-18 -15 -27.5 -35t-13.5 -45q8 2 14.5 4l12.5 4q8 2 16 0t10 -10q2 -6 0.5 -13t-4.5 -13q-3 -7 -7.5 -13t-9.5 -12q-18 -26 -23 -51.5t15 -54.5q2 -2 3 -5.5t3 -5.5q11 -16 23 -30.5t26.5 -24t32 -14t40.5 0.5q3 1 6.5 0.5t8.5 -0.5l5.5 38t3.5 36zM154 1003
l4 14t6 15q5 10 13.5 18.5t19.5 6.5q14 -2 28 -9t21 -22l27 -66t25 -67q8 -22 -4 -40t-35 -20q-12 -1 -22 5.5t-15 16.5l-32.5 62l-30.5 63q-2 5 -2.5 10.5t-2.5 12.5z" />
    <glyph glyph-name="Oacute" unicode="&#xd3;" horiz-adv-x="394" 
d="M370 589q6 -57 3.5 -113.5t-11.5 -113.5l-20.5 -114t-23.5 -114q-11 -51 -26.5 -100t-40.5 -95q-17 -31 -40.5 -54.5t-56.5 -37.5q-32 -14 -61 -5t-50 38q-14 20 -20 41.5t-13 43.5q-10 35 -11.5 71.5t-5.5 78.5q2 17 3 38.5t3 44.5q6 61 15 123q4 21 9 42.5t12 41.5
q8 25 17 49t17 49q7 18 5 36q-9 86 38 157q11 17 25 31.5t34 22.5q17 7 33 20q15 10 32.5 13.5t35 -0.5t33.5 -16.5t28 -33.5q18 -34 25.5 -70.5t11.5 -73.5zM286 290q2 9 2.5 18.5t1.5 17.5q-17 -1 -31 -2.5t-28 0.5q-22 2 -39.5 13t-32.5 27q-24 25 -48 54q-2 -5 -3 -9.5
t-2 -9.5q-5 -30 -11.5 -59.5t-10.5 -59.5q-3 -23 -2.5 -45.5t-1.5 -45.5q-7 -63 -0.5 -123t23.5 -120q6 -20 16.5 -22.5t27.5 8.5q20 13 32 31t22 38q21 45 35 92.5l27 95.5l12 50t11 51zM310 451q2 35 3 71t-1 72q-3 61 -27 115q-7 16 -22 22.5t-30 -1.5l-29.5 -16
t-28.5 -19q-18 -15 -27.5 -35t-13.5 -45q8 2 14.5 4l12.5 4q8 2 16 0t10 -10q2 -6 0.5 -13t-4.5 -13q-3 -7 -7.5 -13t-9.5 -12q-18 -26 -23 -51.5t15 -54.5q2 -2 3 -5.5t3 -5.5q11 -16 23 -30.5t26.5 -24t32 -14t40.5 0.5q3 1 6.5 0.5t8.5 -0.5l5.5 38t3.5 36zM375 1027
q2 -22 -6 -34.5l-15 -23.5l-38.5 -65l-38.5 -64q-8 -15 -14.5 -17.5t-23.5 2.5q-2 1 -4 0t-4 0l-10.5 4t-6.5 5q-2 9 -3 19t1 19q9 32 24.5 60t33.5 55q5 8 10 14.5t9 14.5q8 14 19.5 22t25.5 13q17 5 29 -4t12 -20z" />
    <glyph glyph-name="Ocircumflex" unicode="&#xd4;" horiz-adv-x="394" 
d="M370 589q6 -57 3.5 -113.5t-11.5 -113.5l-20.5 -114t-23.5 -114q-11 -51 -26.5 -100t-40.5 -95q-17 -31 -40.5 -54.5t-56.5 -37.5q-32 -14 -61 -5t-50 38q-14 20 -20 41.5t-13 43.5q-10 35 -11.5 71.5t-5.5 78.5q2 17 3 38.5t3 44.5q6 61 15 123q4 21 9 42.5t12 41.5
q8 25 17 49t17 49q7 18 5 36q-9 86 38 157q11 17 25 31.5t34 22.5q17 7 33 20q15 10 32.5 13.5t35 -0.5t33.5 -16.5t28 -33.5q18 -34 25.5 -70.5t11.5 -73.5zM286 290q2 9 2.5 18.5t1.5 17.5q-17 -1 -31 -2.5t-28 0.5q-22 2 -39.5 13t-32.5 27q-24 25 -48 54q-2 -5 -3 -9.5
t-2 -9.5q-5 -30 -11.5 -59.5t-10.5 -59.5q-3 -23 -2.5 -45.5t-1.5 -45.5q-7 -63 -0.5 -123t23.5 -120q6 -20 16.5 -22.5t27.5 8.5q20 13 32 31t22 38q21 45 35 92.5l27 95.5l12 50t11 51zM310 451q2 35 3 71t-1 72q-3 61 -27 115q-7 16 -22 22.5t-30 -1.5l-29.5 -16
t-28.5 -19q-18 -15 -27.5 -35t-13.5 -45q8 2 14.5 4l12.5 4q8 2 16 0t10 -10q2 -6 0.5 -13t-4.5 -13q-3 -7 -7.5 -13t-9.5 -12q-18 -26 -23 -51.5t15 -54.5q2 -2 3 -5.5t3 -5.5q11 -16 23 -30.5t26.5 -24t32 -14t40.5 0.5q3 1 6.5 0.5t8.5 -0.5l5.5 38t3.5 36zM262 921
l-28.5 -23.5l-28.5 -25.5q-15 -14 -32 -20t-37 2q-11 4 -13.5 9.5t2.5 17.5q7 17 20 30t28 24q20 16 37 34.5t32 39.5q6 8 13 14t19 3q10 -3 17 -8.5t11 -17.5q4 -15 11.5 -29t16.5 -27q10 -14 22 -26.5t23 -25.5q9 -10 11.5 -24.5t-4.5 -25.5q-2 -3 -8 -5.5t-9 -0.5
q-10 4 -19.5 8.5t-17.5 11.5l-33 32z" />
    <glyph glyph-name="Otilde" horiz-adv-x="394" 
d="M370 589q6 -57 3.5 -113.5t-11.5 -113.5l-20.5 -114t-23.5 -114q-11 -51 -26.5 -100t-40.5 -95q-17 -31 -40.5 -54.5t-56.5 -37.5q-32 -14 -61 -5t-50 38q-14 20 -20 41.5t-13 43.5q-10 35 -11.5 71.5t-5.5 78.5q2 17 3 38.5t3 44.5q6 61 15 123q4 21 9 42.5t12 41.5
q8 25 17 49t17 49q7 18 5 36q-9 86 38 157q11 17 25 31.5t34 22.5q17 7 33 20q15 10 32.5 13.5t35 -0.5t33.5 -16.5t28 -33.5q18 -34 25.5 -70.5t11.5 -73.5zM286 290q2 9 2.5 18.5t1.5 17.5q-17 -1 -31 -2.5t-28 0.5q-22 2 -39.5 13t-32.5 27q-24 25 -48 54q-2 -5 -3 -9.5
t-2 -9.5q-5 -30 -11.5 -59.5t-10.5 -59.5q-3 -23 -2.5 -45.5t-1.5 -45.5q-7 -63 -0.5 -123t23.5 -120q6 -20 16.5 -22.5t27.5 8.5q20 13 32 31t22 38q21 45 35 92.5l27 95.5l12 50t11 51zM310 451q2 35 3 71t-1 72q-3 61 -27 115q-7 16 -22 22.5t-30 -1.5l-29.5 -16
t-28.5 -19q-18 -15 -27.5 -35t-13.5 -45q8 2 14.5 4l12.5 4q8 2 16 0t10 -10q2 -6 0.5 -13t-4.5 -13q-3 -7 -7.5 -13t-9.5 -12q-18 -26 -23 -51.5t15 -54.5q2 -2 3 -5.5t3 -5.5q11 -16 23 -30.5t26.5 -24t32 -14t40.5 0.5q3 1 6.5 0.5t8.5 -0.5l5.5 38t3.5 36zM236 926
q-8 -5 -13.5 -9l-10.5 -8q-14 -11 -26 -23q-6 -6 -12 -8.5t-14 4.5q-8 6 -11.5 15.5t0.5 17.5q6 10 12.5 19t14.5 17q11 11 23.5 21.5t26.5 18.5q23 13 45 3.5t31 -33.5l10.5 -24l12.5 -26l26 16.5l26 16.5q6 3 11.5 6.5t11.5 6.5q9 5 19 3t15 -7q5 -8 5 -22t-6 -21l-4 -4
l-4 -4l-21 -20t-22 -19t-24.5 -17.5t-26.5 -13.5q-12 -5 -25.5 -2.5t-25.5 9.5t-21 18t-12 24q-2 10 -4.5 20.5t-6.5 24.5z" />
    <glyph glyph-name="Odieresis" unicode="&#xd6;" horiz-adv-x="394" 
d="M370 589q6 -57 3.5 -113.5t-11.5 -113.5l-20.5 -114t-23.5 -114q-11 -51 -26.5 -100t-40.5 -95q-17 -31 -40.5 -54.5t-56.5 -37.5q-32 -14 -61 -5t-50 38q-14 20 -20 41.5t-13 43.5q-10 35 -11.5 71.5t-5.5 78.5q2 17 3 38.5t3 44.5q6 61 15 123q4 21 9 42.5t12 41.5
q8 25 17 49t17 49q7 18 5 36q-9 86 38 157q11 17 25 31.5t34 22.5q17 7 33 20q15 10 32.5 13.5t35 -0.5t33.5 -16.5t28 -33.5q18 -34 25.5 -70.5t11.5 -73.5zM286 290q2 9 2.5 18.5t1.5 17.5q-17 -1 -31 -2.5t-28 0.5q-22 2 -39.5 13t-32.5 27q-24 25 -48 54q-2 -5 -3 -9.5
t-2 -9.5q-5 -30 -11.5 -59.5t-10.5 -59.5q-3 -23 -2.5 -45.5t-1.5 -45.5q-7 -63 -0.5 -123t23.5 -120q6 -20 16.5 -22.5t27.5 8.5q20 13 32 31t22 38q21 45 35 92.5l27 95.5l12 50t11 51zM310 451q2 35 3 71t-1 72q-3 61 -27 115q-7 16 -22 22.5t-30 -1.5l-29.5 -16
t-28.5 -19q-18 -15 -27.5 -35t-13.5 -45q8 2 14.5 4l12.5 4q8 2 16 0t10 -10q2 -6 0.5 -13t-4.5 -13q-3 -7 -7.5 -13t-9.5 -12q-18 -26 -23 -51.5t15 -54.5q2 -2 3 -5.5t3 -5.5q11 -16 23 -30.5t26.5 -24t32 -14t40.5 0.5q3 1 6.5 0.5t8.5 -0.5l5.5 38t3.5 36zM315 867
q3 10 5.5 22t13.5 22q7 5 12 16q4 8 13 12t18.5 4t18.5 -5t15 -16q7 -12 6 -29t-8.5 -33.5t-21 -29t-31.5 -14.5q-16 -2 -28 12.5t-13 38.5zM237 950q7 -3 9.5 -14t7.5 -21l-7 -14t-7 -12q-7 -10 -13.5 -20.5t-15.5 -18.5q-12 -12 -27.5 -8.5t-25.5 17.5q-8 13 -10 27.5
t1.5 28t12 24.5t21.5 18q16 9 29 4t25 -11z" />
    <glyph glyph-name="Oslash" horiz-adv-x="394" 
d="M370 585q6 -57 3.5 -113.5t-11.5 -113.5l-20.5 -114t-23.5 -114q-11 -51 -26.5 -100t-40.5 -95q-17 -31 -40.5 -54.5t-56.5 -37.5q-43 -18 -80 4q-5 -17 -16 -29.5t-33 -16.5q-12 -2 -21.5 2t-11.5 9q-5 11 -6 23.5t4 24.5l12.5 42l12.5 42q-1 5 -2 8.5t-3 8.5
q-10 35 -11.5 71.5t-5.5 78.5q2 17 3 38.5t3 44.5q6 61 15 123q4 21 9 42.5t12 41.5q8 25 17 49t17 49q7 18 5 36q-9 86 38 157q11 17 25 31.5t34 22.5q17 7 33 20q23 17 53 15.5t54 -23.5q3 7 7.5 15.5t9 15.5t8.5 11.5t7 3.5q9 -5 14 -14.5l9 -17.5l-21 -67
q11 -29 16.5 -59.5t8.5 -60.5zM175 691q-18 -15 -27.5 -35t-13.5 -45l27 8q8 2 16 0t10 -10q2 -6 0.5 -13t-4.5 -13q-3 -7 -7.5 -13t-9.5 -12q-18 -26 -23 -51.5t15 -54.5q2 -2 3 -5.5t3 -5.5q3 -5 6 -8.5t6 -8.5l24.5 63.5l25.5 63.5l29 75.5t32 75.5q-1 1 -1 1.5t-1 1.5
q-7 16 -22 22.5t-30 -1.5l-29.5 -16t-28.5 -19zM84 276q-3 -23 -2.5 -45.5t-1.5 -45.5l-3 -45l31.5 95.5l32.5 95.5q3 9 6.5 17.5t6.5 17.5q-11 11 -21.5 23l-21.5 25q-2 -5 -3 -9.5t-2 -9.5q-5 -30 -11.5 -59.5t-10.5 -59.5zM286 286q2 9 2.5 18.5t1.5 17.5
q-17 -1 -31 -2.5t-28 0.5q-5 1 -9 1.5t-9 2.5l-49 -157l-47 -156q-5 -15 -8.5 -30t-7.5 -30q1 -2 1 -4.5t1 -4.5q6 -20 16.5 -22.5t27.5 8.5q20 13 32 31t22 38q21 45 35 92.5l27 95.5l12 50t11 51zM310 447q2 35 3 71t-1 72q0 5 -0.5 9.5t-0.5 9.5l-35.5 -97.5t-33.5 -98.5
l-6 -18t-6 -17q25 -11 56 -5q3 1 6.5 0.5t8.5 -0.5l5.5 38t3.5 36z" />
    <glyph glyph-name="Ugrave" horiz-adv-x="460" 
d="M358 779q9 1 18 -10t10 -24q1 -17 0.5 -33t-1.5 -33q-2 -60 -5 -119.5l-6 -119.5q-2 -41 -5 -81t-4 -81q-2 -92 0 -184q1 -46 3 -91.5l4 -91.5q0 -6 -1 -12.5l-2 -13.5q-1 -8 -5 -12.5t-12 -3.5q-5 1 -10 4.5t-7 7.5q-4 12 -6.5 24t-3.5 25q-8 67 -14 134t-6 135v95
q-1 1 -2 1l-10 -35.5t-11 -35.5l-33 -101t-36 -101q-10 -26 -24 -50t-29 -47q-18 -28 -47.5 -29t-52.5 24q-23 26 -36 57t-17 65q-5 38 -7.5 76.5t-4.5 76.5q-5 64 2 126t15 125l10 83.5l10 83.5q4 30 9.5 59.5t18.5 58.5q8 17 22 24.5t28 13.5q3 2 8 -1t8 -5q14 -11 18 -25
t2 -31q-5 -32 -8.5 -64.5t-8.5 -64.5q-5 -37 -11 -73t-11 -73q-9 -68 -15 -135q-4 -36 -8.5 -71.5t-6.5 -70.5q-3 -44 -2.5 -86.5t11.5 -84.5q2 -8 5 -16t7 -16q13 -22 24 0l21.5 40.5t18.5 41.5q17 54 32 107.5l31 107.5l14 48t13 49q7 27 13 54.5t13 55.5l14.5 61.5
t12.5 61.5q6 35 10 70t9 70q1 7 1.5 14t2.5 14q2 11 11.5 21.5t18.5 10.5zM128 955l4 14t6 15q5 10 13.5 18.5t19.5 6.5q14 -2 28 -9t21 -22l27 -66t25 -67q8 -22 -4 -40t-35 -20q-12 -1 -22 5.5t-15 16.5l-32.5 62l-30.5 63q-2 5 -2.5 10.5t-2.5 12.5z" />
    <glyph glyph-name="Uacute" unicode="&#xda;" horiz-adv-x="460" 
d="M358 779q9 1 18 -10t10 -24q1 -17 0.5 -33t-1.5 -33q-2 -60 -5 -119.5l-6 -119.5q-2 -41 -5 -81t-4 -81q-2 -92 0 -184q1 -46 3 -91.5l4 -91.5q0 -6 -1 -12.5l-2 -13.5q-1 -8 -5 -12.5t-12 -3.5q-5 1 -10 4.5t-7 7.5q-4 12 -6.5 24t-3.5 25q-8 67 -14 134t-6 135v95
q-1 1 -2 1l-10 -35.5t-11 -35.5l-33 -101t-36 -101q-10 -26 -24 -50t-29 -47q-18 -28 -47.5 -29t-52.5 24q-23 26 -36 57t-17 65q-5 38 -7.5 76.5t-4.5 76.5q-5 64 2 126t15 125l10 83.5l10 83.5q4 30 9.5 59.5t18.5 58.5q8 17 22 24.5t28 13.5q3 2 8 -1t8 -5q14 -11 18 -25
t2 -31q-5 -32 -8.5 -64.5t-8.5 -64.5q-5 -37 -11 -73t-11 -73q-9 -68 -15 -135q-4 -36 -8.5 -71.5t-6.5 -70.5q-3 -44 -2.5 -86.5t11.5 -84.5q2 -8 5 -16t7 -16q13 -22 24 0l21.5 40.5t18.5 41.5q17 54 32 107.5l31 107.5l14 48t13 49q7 27 13 54.5t13 55.5l14.5 61.5
t12.5 61.5q6 35 10 70t9 70q1 7 1.5 14t2.5 14q2 11 11.5 21.5t18.5 10.5zM355 987q2 -22 -6 -34.5l-15 -23.5l-38.5 -65l-38.5 -64q-8 -15 -14.5 -17.5t-23.5 2.5q-2 1 -4 0t-4 0l-10.5 4t-6.5 5q-2 9 -3 19t1 19q9 32 24.5 60t33.5 55q5 8 10 14.5t9 14.5q8 14 19.5 22
t25.5 13q17 5 29 -4t12 -20z" />
    <glyph glyph-name="Ucircumflex" horiz-adv-x="460" 
d="M358 779q9 1 18 -10t10 -24q1 -17 0.5 -33t-1.5 -33q-2 -60 -5 -119.5l-6 -119.5q-2 -41 -5 -81t-4 -81q-2 -92 0 -184q1 -46 3 -91.5l4 -91.5q0 -6 -1 -12.5l-2 -13.5q-1 -8 -5 -12.5t-12 -3.5q-5 1 -10 4.5t-7 7.5q-4 12 -6.5 24t-3.5 25q-8 67 -14 134t-6 135v95
q-1 1 -2 1l-10 -35.5t-11 -35.5l-33 -101t-36 -101q-10 -26 -24 -50t-29 -47q-18 -28 -47.5 -29t-52.5 24q-23 26 -36 57t-17 65q-5 38 -7.5 76.5t-4.5 76.5q-5 64 2 126t15 125l10 83.5l10 83.5q4 30 9.5 59.5t18.5 58.5q8 17 22 24.5t28 13.5q3 2 8 -1t8 -5q14 -11 18 -25
t2 -31q-5 -32 -8.5 -64.5t-8.5 -64.5q-5 -37 -11 -73t-11 -73q-9 -68 -15 -135q-4 -36 -8.5 -71.5t-6.5 -70.5q-3 -44 -2.5 -86.5t11.5 -84.5q2 -8 5 -16t7 -16q13 -22 24 0l21.5 40.5t18.5 41.5q17 54 32 107.5l31 107.5l14 48t13 49q7 27 13 54.5t13 55.5l14.5 61.5
t12.5 61.5q6 35 10 70t9 70q1 7 1.5 14t2.5 14q2 11 11.5 21.5t18.5 10.5zM251 908l-28.5 -23.5l-28.5 -25.5q-15 -14 -32 -20t-37 2q-11 4 -13.5 9.5t2.5 17.5q7 17 20 30t28 24q20 16 37 34.5t32 39.5q6 8 13 14t19 3q10 -3 17 -8.5t11 -17.5q4 -15 11.5 -29t16.5 -27
q10 -14 22 -26.5t23 -25.5q9 -10 11.5 -24.5t-4.5 -25.5q-2 -3 -8 -5.5t-9 -0.5q-10 4 -19.5 8.5t-17.5 11.5l-33 32z" />
    <glyph glyph-name="Udieresis" unicode="&#xdc;" horiz-adv-x="460" 
d="M358 779q9 1 18 -10t10 -24q1 -17 0.5 -33t-1.5 -33q-2 -60 -5 -119.5l-6 -119.5q-2 -41 -5 -81t-4 -81q-2 -92 0 -184q1 -46 3 -91.5l4 -91.5q0 -6 -1 -12.5l-2 -13.5q-1 -8 -5 -12.5t-12 -3.5q-5 1 -10 4.5t-7 7.5q-4 12 -6.5 24t-3.5 25q-8 67 -14 134t-6 135v95
q-1 1 -2 1l-10 -35.5t-11 -35.5l-33 -101t-36 -101q-10 -26 -24 -50t-29 -47q-18 -28 -47.5 -29t-52.5 24q-23 26 -36 57t-17 65q-5 38 -7.5 76.5t-4.5 76.5q-5 64 2 126t15 125l10 83.5l10 83.5q4 30 9.5 59.5t18.5 58.5q8 17 22 24.5t28 13.5q3 2 8 -1t8 -5q14 -11 18 -25
t2 -31q-5 -32 -8.5 -64.5t-8.5 -64.5q-5 -37 -11 -73t-11 -73q-9 -68 -15 -135q-4 -36 -8.5 -71.5t-6.5 -70.5q-3 -44 -2.5 -86.5t11.5 -84.5q2 -8 5 -16t7 -16q13 -22 24 0l21.5 40.5t18.5 41.5q17 54 32 107.5l31 107.5l14 48t13 49q7 27 13 54.5t13 55.5l14.5 61.5
t12.5 61.5q6 35 10 70t9 70q1 7 1.5 14t2.5 14q2 11 11.5 21.5t18.5 10.5zM262 843q3 10 5.5 22t13.5 22q7 5 12 16q4 8 13 12t18.5 4t18.5 -5t15 -16q7 -12 6 -29t-8.5 -33.5t-21 -29t-31.5 -14.5q-16 -2 -28 12.5t-13 38.5zM184 926q7 -3 9.5 -14t7.5 -21l-7 -14t-7 -12
q-7 -10 -13.5 -20.5t-15.5 -18.5q-12 -12 -27.5 -8.5t-25.5 17.5q-8 13 -10 27.5t1.5 28t12 24.5t21.5 18q16 9 29 4t25 -11z" />
    <glyph glyph-name="Yacute" unicode="&#xdd;" horiz-adv-x="316" 
d="M423 763q9 -8 10.5 -17.5t-2.5 -20.5l-18 -40l-18 -40l-33.5 -81l-32.5 -82l-31 -81.5l-29 -81.5l-47.5 -141l-48.5 -140q-21 -59 -47 -118q-6 -13 -14.5 -24t-18.5 -22q-11 -11 -23 -8.5t-19 16.5q-14 25 -9 57q10 60 24 118t31 116l3.5 8.5t3.5 7.5q7 17 7.5 32.5
t-7.5 33.5l-38.5 94t-32.5 95q-17 55 -26 111.5t-11 114.5l-2 28t0 28q0 8 2.5 16.5t6.5 15.5q7 11 16 9.5t14 -13.5q3 -6 3 -15q5 -67 15.5 -132.5t27.5 -130.5q24 -91 62 -182q5 10 7.5 17.5t6.5 14.5l62 129.5l63 128.5l32.5 60.5l33.5 59.5q7 11 15.5 22l16.5 22
q4 7 11 9q8 4 16.5 9t17.5 -3zM323 932q2 -22 -6 -34.5l-15 -23.5l-38.5 -65l-38.5 -64q-8 -15 -14.5 -17.5t-23.5 2.5q-2 1 -4 0t-4 0l-10.5 4t-6.5 5q-2 9 -3 19t1 19q9 32 24.5 60t33.5 55q5 8 10 14.5t9 14.5q8 14 19.5 22t25.5 13q17 5 29 -4t12 -20z" />
    <glyph glyph-name="agrave" 
d="M336 73q4 -3 4 -9.5t-4.5 -14t-12.5 -14.5t-18 -10q-36 -8 -56.5 6.5t-36.5 39.5q-15 25 -21.5 58t-10.5 78q-1 13 -1 26.5t-1 30.5l-18 -34.5l-16 -30.5l-35.5 -63l-36.5 -63q-12 -18 -29 -32q-10 -8 -22 -9.5t-23 3.5q-12 5 -16.5 16.5t-3.5 22.5q2 19 5 38t8 37
q15 48 36 97q10 23 21.5 45.5t24.5 45.5q4 8 10.5 14.5t14.5 11.5q22 16 38 12.5t30 -26.5q8 13 17 26t16 27q8 14 20 22l26 17q19 -25 13 -50q-11 -45 -14.5 -90t-2.5 -91q1 -30 6 -55.5l11 -54.5q2 -9 7.5 -17.5t12.5 -15.5q4 -3 11 -2.5t13 1.5q9 1 17.5 6.5t16.5 0.5z
M127 313q-4 -2 -15.5 -18.5t-24 -42t-23.5 -56.5t-15 -61q11 15 24.5 37.5l27 47l26 47.5l21.5 39q1 7 -6 9.5t-15 -2.5zM109.42 568.879l2.70996 9.43555q1.35449 4.71875 4.06445 10.1104q3.38672 6.74023 9.14453 12.4697q5.75879 5.72852 13.21 4.38086
q9.48438 -1.34863 18.9688 -6.06641q9.4834 -4.71777 14.2256 -14.8281l18.291 -44.4844q8.80664 -22.2432 16.9355 -45.1592q5.41895 -14.8281 -2.70996 -26.9609q-8.12891 -12.1318 -23.71 -13.4795q-8.12891 -0.673828 -14.9033 3.70703t-10.1611 11.1211
l-22.0166 41.7881l-20.6621 42.4629q-1.35449 3.37012 -1.69336 7.07715t-1.69336 8.42578z" />
    <glyph glyph-name="aacute" unicode="&#xe1;" 
d="M336 73q4 -3 4 -9.5t-4.5 -14t-12.5 -14.5t-18 -10q-36 -8 -56.5 6.5t-36.5 39.5q-15 25 -21.5 58t-10.5 78q-1 13 -1 26.5t-1 30.5l-18 -34.5l-16 -30.5l-35.5 -63l-36.5 -63q-12 -18 -29 -32q-10 -8 -22 -9.5t-23 3.5q-12 5 -16.5 16.5t-3.5 22.5q2 19 5 38t8 37
q15 48 36 97q10 23 21.5 45.5t24.5 45.5q4 8 10.5 14.5t14.5 11.5q22 16 38 12.5t30 -26.5q8 13 17 26t16 27q8 14 20 22l26 17q19 -25 13 -50q-11 -45 -14.5 -90t-2.5 -91q1 -30 6 -55.5l11 -54.5q2 -9 7.5 -17.5t12.5 -15.5q4 -3 11 -2.5t13 1.5q9 1 17.5 6.5t16.5 0.5z
M127 313q-4 -2 -15.5 -18.5t-24 -42t-23.5 -56.5t-15 -61q11 15 24.5 37.5l27 47l26 47.5l21.5 39q1 7 -6 9.5t-15 -2.5zM209.36 535.171q1.13086 -12.5195 -3.39355 -19.6318l-8.48242 -13.3721l-21.7705 -36.9873l-21.7715 -36.418q-4.52441 -8.53516 -8.2002 -9.95801
t-13.2891 1.42285q-1.13086 0.568359 -2.26172 0q-1.13086 -0.569336 -2.26172 0l-5.9375 2.27539q-3.11035 1.13867 -3.67578 2.8457q-1.13086 5.12109 -1.69727 10.8115q-0.56543 5.69043 0.566406 10.8115q5.08887 18.209 13.8545 34.1416
q8.76465 15.9326 18.9434 31.2969q2.82715 4.55273 5.65527 8.25098q2.82715 3.69922 5.08887 8.25098q4.52441 7.9668 11.0273 12.5186q6.50293 4.55273 14.4199 7.39746q9.61328 2.84473 16.3994 -2.27637t6.78613 -11.3799z" />
    <glyph glyph-name="acircumflex" unicode="&#xe2;" 
d="M336 73q4 -3 4 -9.5t-4.5 -14t-12.5 -14.5t-18 -10q-36 -8 -56.5 6.5t-36.5 39.5q-15 25 -21.5 58t-10.5 78q-1 13 -1 26.5t-1 30.5l-18 -34.5l-16 -30.5l-35.5 -63l-36.5 -63q-12 -18 -29 -32q-10 -8 -22 -9.5t-23 3.5q-12 5 -16.5 16.5t-3.5 22.5q2 19 5 38t8 37
q15 48 36 97q10 23 21.5 45.5t24.5 45.5q4 8 10.5 14.5t14.5 11.5q22 16 38 12.5t30 -26.5q8 13 17 26t16 27q8 14 20 22l26 17q19 -25 13 -50q-11 -45 -14.5 -90t-2.5 -91q1 -30 6 -55.5l11 -54.5q2 -9 7.5 -17.5t12.5 -15.5q4 -3 11 -2.5t13 1.5q9 1 17.5 6.5t16.5 0.5z
M127 313q-4 -2 -15.5 -18.5t-24 -42t-23.5 -56.5t-15 -61q11 15 24.5 37.5l27 47l26 47.5l21.5 39q1 7 -6 9.5t-15 -2.5zM169.514 527.418l-16.3896 -13.4287l-16.3896 -14.5713q-8.62695 -7.99902 -18.4023 -11.4277q-9.77637 -3.42871 -21.2783 1.14258
q-6.3252 2.28613 -7.76367 5.42871q-1.4375 3.14258 1.43848 9.99902q4.02539 9.71484 11.501 17.1426q7.47559 7.42871 16.1025 13.7139q11.501 9.14258 21.2773 19.7139t18.4023 22.5703q3.4502 4.57227 7.47559 8q4.02637 3.42871 10.9268 1.71484
q5.75098 -1.71484 9.77637 -4.85742t6.3252 -10q2.30078 -8.57031 6.61426 -16.5703q4.3125 -8 9.48828 -15.4287q5.75098 -7.99902 12.6514 -15.1416q6.90137 -7.14258 13.2266 -14.5713q5.17578 -5.71387 6.61328 -14q1.43848 -8.28516 -2.58789 -14.5703
q-1.14941 -1.71484 -4.59961 -3.14355q-3.45117 -1.42773 -5.17578 -0.285156q-5.75098 2.28516 -11.2139 4.85645q-5.46387 2.57129 -10.0645 6.57129l-18.9775 18.2852z" />
    <glyph glyph-name="atilde" 
d="M336 73q4 -3 4 -9.5t-4.5 -14t-12.5 -14.5t-18 -10q-36 -8 -56.5 6.5t-36.5 39.5q-15 25 -21.5 58t-10.5 78q-1 13 -1 26.5t-1 30.5l-18 -34.5l-16 -30.5l-35.5 -63l-36.5 -63q-12 -18 -29 -32q-10 -8 -22 -9.5t-23 3.5q-12 5 -16.5 16.5t-3.5 22.5q2 19 5 38t8 37
q15 48 36 97q10 23 21.5 45.5t24.5 45.5q4 8 10.5 14.5t14.5 11.5q22 16 38 12.5t30 -26.5q8 13 17 26t16 27q8 14 20 22l26 17q19 -25 13 -50q-11 -45 -14.5 -90t-2.5 -91q1 -30 6 -55.5l11 -54.5q2 -9 7.5 -17.5t12.5 -15.5q4 -3 11 -2.5t13 1.5q9 1 17.5 6.5t16.5 0.5z
M127 313q-4 -2 -15.5 -18.5t-24 -42t-23.5 -56.5t-15 -61q11 15 24.5 37.5l27 47l26 47.5l21.5 39q1 7 -6 9.5t-15 -2.5zM141.469 522.854q-5.2793 -3.29785 -8.90918 -5.93652q-3.62891 -2.6377 -6.92871 -5.27637q-9.23828 -7.25488 -17.1582 -15.1699
q-3.95898 -3.95703 -7.91797 -5.60547q-3.95996 -1.64941 -9.23926 2.96777q-5.2793 3.95703 -7.58887 10.2227t0.330078 11.542q3.95898 6.5957 8.24902 12.5312q4.28906 5.93652 9.56836 11.2129q7.25879 7.25488 15.5078 14.1797q8.24902 6.92578 17.4873 12.2021
q15.1787 8.57422 29.6963 2.30859q14.5186 -6.26562 20.458 -22.0947q3.29883 -7.91504 6.92871 -15.8291l8.24902 -17.1484l17.1572 10.8828l17.1582 10.8818q3.95898 1.97852 7.58887 4.28711q3.62891 2.30859 7.58887 4.28711q5.93945 3.29785 12.5381 1.97852
q6.59961 -1.31836 9.89844 -4.61621q3.2998 -5.27637 3.2998 -14.5107q0 -9.2334 -3.95898 -13.8496l-2.63965 -2.63867l-2.63965 -2.63867q-7.25879 -6.59473 -13.8584 -13.1904t-14.5176 -12.5312l-16.168 -11.542q-8.24902 -5.60645 -17.4883 -8.9043
q-7.91895 -3.29785 -16.8271 -1.64844q-8.90918 1.64844 -16.8281 6.26562t-13.8584 11.8721t-7.91895 15.8291q-1.31934 6.59473 -2.96973 13.5205q-1.64941 6.9248 -4.28906 16.1592z" />
    <glyph glyph-name="adieresis" unicode="&#xe4;" 
d="M336 73q4 -3 4 -9.5t-4.5 -14t-12.5 -14.5t-18 -10q-36 -8 -56.5 6.5t-36.5 39.5q-15 25 -21.5 58t-10.5 78q-1 13 -1 26.5t-1 30.5l-18 -34.5l-16 -30.5l-35.5 -63l-36.5 -63q-12 -18 -29 -32q-10 -8 -22 -9.5t-23 3.5q-12 5 -16.5 16.5t-3.5 22.5q2 19 5 38t8 37
q15 48 36 97q10 23 21.5 45.5t24.5 45.5q4 8 10.5 14.5t14.5 11.5q22 16 38 12.5t30 -26.5q8 13 17 26t16 27q8 14 20 22l26 17q19 -25 13 -50q-11 -45 -14.5 -90t-2.5 -91q1 -30 6 -55.5l11 -54.5q2 -9 7.5 -17.5t12.5 -15.5q4 -3 11 -2.5t13 1.5q9 1 17.5 6.5t16.5 0.5z
M127 313q-4 -2 -15.5 -18.5t-24 -42t-23.5 -56.5t-15 -61q11 15 24.5 37.5l27 47l26 47.5l21.5 39q1 7 -6 9.5t-15 -2.5zM203.531 513.826q1.93555 6.45117 3.54883 14.1934q1.6123 7.74121 8.70801 14.1924q4.51562 3.22559 7.74121 10.3223
q2.58008 5.16113 8.38574 7.74219q5.80566 2.58008 11.9346 2.58008q6.12793 0 11.9336 -3.22559t9.67578 -10.3223q4.51562 -7.74121 3.87109 -18.709q-0.645508 -10.9668 -5.4834 -21.6123q-4.83789 -10.6445 -13.5469 -18.709q-8.70801 -8.06445 -20.3193 -9.35449
q-10.3223 -1.29004 -18.0625 8.06445q-7.74121 9.35449 -8.38672 24.8379zM153.216 567.373q4.51465 -1.93555 6.12793 -9.03223q1.6123 -7.09668 4.83789 -13.5479l-4.51562 -9.03223t-4.51562 -7.74121q-4.51562 -6.45215 -8.70801 -13.2256
q-4.19336 -6.77441 -9.99902 -11.9355q-7.74121 -7.74121 -17.7402 -5.4834q-9.99805 2.25781 -16.4492 11.29q-5.16016 8.38672 -6.45117 17.7412q-1.29004 9.35449 0.967773 18.0645q2.25781 8.70898 7.74121 15.8057t13.8691 11.6123q10.3213 5.80664 18.707 2.58105
q8.38672 -3.22559 16.1279 -7.09668z" />
    <glyph glyph-name="aring" 
d="M336 73q4 -3 4 -9.5t-4.5 -14t-12.5 -14.5t-18 -10q-36 -8 -56.5 6.5t-36.5 39.5q-15 25 -21.5 58t-10.5 78q-1 13 -1 26.5t-1 30.5l-18 -34.5l-16 -30.5l-35.5 -63l-36.5 -63q-12 -18 -29 -32q-10 -8 -22 -9.5t-23 3.5q-12 5 -16.5 16.5t-3.5 22.5q2 19 5 38t8 37
q15 48 36 97q10 23 21.5 45.5t24.5 45.5q4 8 10.5 14.5t14.5 11.5q22 16 38 12.5t30 -26.5q8 13 17 26t16 27q8 14 20 22l26 17q19 -25 13 -50q-11 -45 -14.5 -90t-2.5 -91q1 -30 6 -55.5l11 -54.5q2 -9 7.5 -17.5t12.5 -15.5q4 -3 11 -2.5t13 1.5q9 1 17.5 6.5t16.5 0.5z
M127 313q-4 -2 -15.5 -18.5t-24 -42t-23.5 -56.5t-15 -61q11 15 24.5 37.5l27 47l26 47.5l21.5 39q1 7 -6 9.5t-15 -2.5zM149.633 531.108q4.94531 6.04785 10.7158 5.77246q5.76953 -0.274414 11.8135 -3.02344q4.39648 -2.19922 8.24316 -3.57324
q3.8457 -1.37402 7.69238 -4.12305q20.8809 -12.6445 13.7373 -36.2832q-3.29688 -10.4453 -10.165 -19.2412q-6.86914 -8.7959 -15.3867 -15.3926q-8.5166 -6.59668 -17.584 -10.7197q-9.06641 -4.12305 -16.7598 -5.22266q-10.9893 -1.64941 -19.5068 1.64941
q-8.51758 3.29785 -14.2871 10.1699t-8.5166 15.668q-2.74805 8.7959 -1.64844 18.1416q1.09863 12.0938 6.86816 21.7148q5.76953 9.62012 12.9131 18.9658q12.0889 14.8428 31.8711 5.49707zM152.93 515.716l-5.21973 -7.14648t-4.6709 -7.14648
q-2.19824 -3.29883 -4.12109 -6.59668q-1.92383 -3.29883 -3.02246 -7.14746q-1.09863 -2.74805 -1.09863 -6.04688t1.09863 -6.04688q0.549805 -1.09961 4.12109 -1.09961q3.57227 0 6.31934 0.549805q10.4404 3.29785 16.21 10.7197q5.77051 7.42188 10.166 16.7676
l-9.61621 6.59668t-10.166 6.59668z" />
    <glyph glyph-name="ae" horiz-adv-x="465" 
d="M483 220q2 5 8 5t11.5 -3.5t8 -10.5t-2.5 -16l-24 -43l-66 -110q-14 -22 -32.5 -38.5t-39.5 -31.5t-45.5 -21t-50.5 -8q-19 -1 -37 1.5t-36 11.5q-14 7 -24.5 17.5t-16.5 22.5q-15 29 -23.5 60t-6.5 66q0 7 1 11l-35 -59q-12 -18 -29 -32q-10 -8 -22 -9.5t-23 3.5
q-12 5 -16.5 16.5t-3.5 22.5q2 19 5 38t8 37q15 48 36 97q10 23 21.5 45.5t24.5 45.5q4 8 10.5 14.5t14.5 11.5q20 14 39.5 8.5t33.5 -28.5q7 11 14.5 21.5l15.5 21.5q11 14 24 26.5t30 18.5q27 10 46.5 -3t20.5 -42q0 -5 -1 -11.5t-2 -11.5q-10 -42 -25.5 -80t-35.5 -76
q-14 -26 -29.5 -50.5l-31.5 -49.5q-5 -8 -6.5 -15t1.5 -16l11 -30q11 -22 39 -22q27 1 50.5 10t44.5 24q64 48 108 116q8 13 17.5 23.5t20.5 21.5zM272 377q-37 -48 -55 -99.5t-24 -107.5q17 25 32.5 55.5t26.5 60t17 54t3 37.5zM49 136q11 15 24.5 37.5l27 47l26 47.5
l21.5 39q1 7 -6 9.5t-15 -2.5q-4 -2 -15.5 -18.5t-24 -42t-23.5 -56.5t-15 -61z" />
    <glyph glyph-name="ccedilla" unicode="&#xe7;" horiz-adv-x="281" 
d="M326 228q-11 -12 -20.5 -23.5l-19.5 -22.5q-23 -24 -49 -44t-57 -34l-23 -10l-23 -10q-21 -10 -44 -8.5t-42.5 12.5t-33.5 30.5t-18 45.5q-2 16 -2.5 36.5t2.5 52.5t11 54.5t13 33.5q10 31 35 54q4 6 11 9q61 32 78 -35q8 -30 8.5 -60.5t-1.5 -62.5q0 -3 -1 -4
q-3 -7 -4.5 -15t-11.5 -8q-10 -1 -11 6.5t-3 14.5q-2 15 -3.5 30t-3.5 30t-5 29.5l-6 29.5q-2 0 -3 0.5t-3 0.5q-3 -5 -7 -9.5t-6 -10.5q-37 -73 -24 -149l2 -4q5 -29 23.5 -36.5t41.5 5.5q20 11 39.5 19t36.5 22l37 32.5t32 36.5q8 11 19 19q13 8 18.5 8.5t21.5 -4.5
q7 -5 9 -12t0.5 -15.5t-5.5 -17.5t-8 -16zM111.571 6.44922q-7.97461 8.65723 -15.2246 7.5752q-7.24902 -1.08203 -13.7744 -3.24609q-24.6494 -6.49316 -24.6494 17.3145q0 10.0996 0.363281 20.2002q0.362305 10.0996 1.81152 20.2002q1.4502 9.37793 7.25 15.5107
q5.7998 6.13184 13.7744 10.4609q5.7998 2.88574 13.0498 -2.16406q7.25 -5.05078 9.4248 -12.9863q1.4502 -4.32812 1.4502 -9.73926t0.724609 -11.1826q3.625 0 7.6123 -0.360352t8.33691 -0.360352q18.125 1.44238 28.999 -7.5752q10.875 -9.01855 18.125 -23.4473
q5.07422 -10.0996 1.8125 -24.8896q-3.2627 -14.7891 -11.2373 -24.8887q-14.5 -18.7578 -32.2617 -33.5469l-35.8857 -29.9395q-3.625 -3.60742 -8.7002 -5.77148q-5.07422 -2.16504 -10.1494 -5.05078q-10.875 -5.0498 -21.749 -0.720703
q-10.875 4.32812 -15.9502 15.1494q-3.62402 8.65723 1.08789 15.1504t9.78711 11.543q9.4248 9.37891 19.9365 16.9541q10.5127 7.57422 19.9375 16.2324q7.24902 6.49219 13.0488 14.0674t13.0498 15.5107z" />
    <glyph glyph-name="egrave" horiz-adv-x="353" 
d="M396 194l-16 -28t-8 -15l-33 -55.5l-33 -54.5q-14 -22 -32.5 -38.5t-39.5 -31.5t-45.5 -21t-50.5 -8q-19 -1 -37 1.5t-36 11.5q-14 7 -24.5 17.5t-16.5 22.5q-15 29 -23.5 60t-6.5 66q1 19 3.5 37.5t5.5 36.5q5 21 11.5 41.5t13.5 40.5q11 30 26 57t35 52q11 14 24 26.5
t30 18.5q27 10 46.5 -3t20.5 -42q0 -5 -1 -11.5t-2 -11.5q-10 -42 -25.5 -80t-35.5 -76q-14 -26 -29.5 -50.5l-31.5 -49.5q-5 -8 -6.5 -15t1.5 -16l5.5 -15l5.5 -15q11 -22 39 -22q27 1 50.5 10t44.5 24q64 48 108 116q8 13 17.5 23.5t20.5 21.5q2 5 8 5t11.5 -3.5t8 -10.5
t-2.5 -16zM160 376q-37 -48 -55 -99.5t-24 -107.5q17 25 32.5 55.5t26.5 60t17 54t3 37.5zM107.182 601.467l2.88965 10.1152q1.44531 5.05664 4.33594 10.8369q3.61328 7.22461 9.75488 13.3662q6.14258 6.14062 14.0908 4.69531q10.1162 -1.44434 20.2324 -6.50195
t15.1748 -15.8945l19.5098 -47.6836q9.39355 -23.8408 18.0654 -48.4053q5.78027 -15.8945 -2.89062 -28.8984q-8.6709 -13.0049 -25.291 -14.4502q-8.6709 -0.722656 -15.8975 3.97363q-7.22559 4.69629 -10.8389 11.9209l-23.4844 44.7939l-22.0391 45.5156
q-1.44531 3.6123 -1.80664 7.58594t-1.80566 9.03027z" />
    <glyph glyph-name="eacute" unicode="&#xe9;" horiz-adv-x="353" 
d="M396 194l-16 -28t-8 -15l-33 -55.5l-33 -54.5q-14 -22 -32.5 -38.5t-39.5 -31.5t-45.5 -21t-50.5 -8q-19 -1 -37 1.5t-36 11.5q-14 7 -24.5 17.5t-16.5 22.5q-15 29 -23.5 60t-6.5 66q1 19 3.5 37.5t5.5 36.5q5 21 11.5 41.5t13.5 40.5q11 30 26 57t35 52q11 14 24 26.5
t30 18.5q27 10 46.5 -3t20.5 -42q0 -5 -1 -11.5t-2 -11.5q-10 -42 -25.5 -80t-35.5 -76q-14 -26 -29.5 -50.5l-31.5 -49.5q-5 -8 -6.5 -15t1.5 -16l5.5 -15l5.5 -15q11 -22 39 -22q27 1 50.5 10t44.5 24q64 48 108 116q8 13 17.5 23.5t20.5 21.5q2 5 8 5t11.5 -3.5t8 -10.5
t-2.5 -16zM160 376q-37 -48 -55 -99.5t-24 -107.5q17 25 32.5 55.5t26.5 60t17 54t3 37.5zM249.784 633.397q1.32129 -14.543 -3.96484 -22.8066l-9.91016 -15.5352l-25.4375 -42.9697l-25.4365 -42.3086q-5.28613 -9.91602 -9.58105 -11.5684
q-4.29395 -1.65332 -15.5264 1.65234q-1.32129 0.661133 -2.64258 0t-2.64258 0l-6.9375 2.64453t-4.29492 3.30469q-1.32129 5.9502 -1.98242 12.5605q-0.660156 6.61133 0.661133 12.5605q5.94629 21.1543 16.1875 39.6641t22.1338 36.3594
q3.30273 5.28809 6.60645 9.58496q3.30371 4.29785 5.94629 9.58594q5.28613 9.25488 12.8838 14.5439q7.59863 5.28809 16.8486 8.59375q11.2314 3.30469 19.1602 -2.64453t7.92871 -13.2217z" />
    <glyph glyph-name="ecircumflex" horiz-adv-x="353" 
d="M396 194l-16 -28t-8 -15l-33 -55.5l-33 -54.5q-14 -22 -32.5 -38.5t-39.5 -31.5t-45.5 -21t-50.5 -8q-19 -1 -37 1.5t-36 11.5q-14 7 -24.5 17.5t-16.5 22.5q-15 29 -23.5 60t-6.5 66q1 19 3.5 37.5t5.5 36.5q5 21 11.5 41.5t13.5 40.5q11 30 26 57t35 52q11 14 24 26.5
t30 18.5q27 10 46.5 -3t20.5 -42q0 -5 -1 -11.5t-2 -11.5q-10 -42 -25.5 -80t-35.5 -76q-14 -26 -29.5 -50.5l-31.5 -49.5q-5 -8 -6.5 -15t1.5 -16l5.5 -15l5.5 -15q11 -22 39 -22q27 1 50.5 10t44.5 24q64 48 108 116q8 13 17.5 23.5t20.5 21.5q2 5 8 5t11.5 -3.5t8 -10.5
t-2.5 -16zM160 376q-37 -48 -55 -99.5t-24 -107.5q17 25 32.5 55.5t26.5 60t17 54t3 37.5zM185.641 530.805l-19.418 -16.0664l-19.418 -17.4326q-10.2207 -9.57129 -21.8027 -13.6738q-11.583 -4.10156 -25.21 1.36816q-7.49414 2.73438 -9.19824 6.49414
q-1.70312 3.75977 1.7041 11.9639q4.76855 11.6221 13.626 20.5098t19.0781 16.4082q13.626 10.9385 25.209 23.5859t21.8027 27.0039q4.08789 5.46973 8.85742 9.57129t12.9453 2.05078q6.81348 -2.05078 11.583 -5.81055q4.76855 -3.76074 7.49414 -11.9639
q2.72559 -10.2549 7.83594 -19.8262q5.10938 -9.57129 11.2412 -18.459q6.81348 -9.57129 14.9902 -18.1162q8.17578 -8.5459 15.6699 -17.4336q6.13281 -6.83691 7.83594 -16.75q1.70312 -9.91211 -3.06641 -17.4326q-1.3623 -2.05078 -5.4502 -3.76074
q-4.08789 -1.70898 -6.13184 -0.341797q-6.81348 2.73535 -13.2861 5.81152t-11.9238 7.8623l-22.4844 21.877z" />
    <glyph glyph-name="edieresis" unicode="&#xeb;" horiz-adv-x="353" 
d="M396 194l-16 -28t-8 -15l-33 -55.5l-33 -54.5q-14 -22 -32.5 -38.5t-39.5 -31.5t-45.5 -21t-50.5 -8q-19 -1 -37 1.5t-36 11.5q-14 7 -24.5 17.5t-16.5 22.5q-15 29 -23.5 60t-6.5 66q1 19 3.5 37.5t5.5 36.5q5 21 11.5 41.5t13.5 40.5q11 30 26 57t35 52q11 14 24 26.5
t30 18.5q27 10 46.5 -3t20.5 -42q0 -5 -1 -11.5t-2 -11.5q-10 -42 -25.5 -80t-35.5 -76q-14 -26 -29.5 -50.5l-31.5 -49.5q-5 -8 -6.5 -15t1.5 -16l5.5 -15l5.5 -15q11 -22 39 -22q27 1 50.5 10t44.5 24q64 48 108 116q8 13 17.5 23.5t20.5 21.5q2 5 8 5t11.5 -3.5t8 -10.5
t-2.5 -16zM160 376q-37 -48 -55 -99.5t-24 -107.5q17 25 32.5 55.5t26.5 60t17 54t3 37.5zM211.887 511.427q2.02734 6.70996 3.7168 14.7617q1.68945 8.05078 9.12305 14.7607q4.73047 3.35449 8.10938 10.7354q2.70312 5.36719 8.78516 8.05176
q6.08203 2.68359 12.502 2.68359t12.502 -3.35449q6.08203 -3.35547 10.1367 -10.7354q4.73047 -8.05176 4.05469 -19.458t-5.74414 -22.4775q-5.06836 -11.0703 -14.1914 -19.458q-9.12305 -8.38672 -21.2871 -9.72852q-10.8125 -1.3418 -18.9219 8.38672
q-8.10938 9.72949 -8.78516 25.832zM159.176 567.116q4.73047 -2.0127 6.41992 -9.39355q1.68945 -7.37988 5.06836 -14.0898l-4.73047 -9.39355q-2.02734 -4.02539 -4.73047 -8.05078q-4.73047 -6.70996 -9.12305 -13.7549t-10.4746 -12.4131
q-8.10938 -8.05176 -18.584 -5.70312t-17.2324 11.7422q-5.40625 8.72168 -6.75781 18.4512q-1.35156 9.72852 1.01367 18.7871q2.36523 9.05762 8.10938 16.4385q5.74414 7.37988 14.5293 12.0771q10.8125 6.03809 19.5977 2.68359t16.8945 -7.38086z" />
    <glyph glyph-name="igrave" horiz-adv-x="240" 
d="M273 197l-12.5 -12.5t-11.5 -14.5l-39.5 -53l-39.5 -53l-14.5 -18t-15.5 -17q-12 -12 -26.5 -17t-28 -2t-25.5 14.5t-19 32.5q-6 18 -9.5 37.5t-5.5 38.5q-2 48 -2.5 94.5t6.5 94.5q3 17 5 33.5l4 33.5q4 19 21 22q10 3 18.5 -2.5t10.5 -15.5q1 -8 1.5 -15.5t-0.5 -15.5
q-5 -42 -6 -84t1 -84l2 -38.5t3 -37.5q1 -11 2.5 -21.5t10.5 -20.5q22 23 43 49l57 68l57 68q2 2 5 4.5t5 4.5q5 3 11 0t10 -10t5.5 -17t-2.5 -19t-6 -13t-4.5 -5.5t-4.5 -3t-6 -5.5zM17 580l2 8t3 8q3 5 8 10t10 4q8 -2 16 -5.5t12 -11.5l15 -37l14 -37q5 -12 -2 -22
t-20 -11q-7 -1 -12.5 3t-8.5 9l-17.5 34.5l-17.5 34.5q-1 3 -1 6t-1 7z" />
    <glyph glyph-name="iacute" unicode="&#xed;" horiz-adv-x="240" 
d="M273 197l-12.5 -12.5t-11.5 -14.5l-39.5 -53l-39.5 -53l-14.5 -18t-15.5 -17q-12 -12 -26.5 -17t-28 -2t-25.5 14.5t-19 32.5q-6 18 -9.5 37.5t-5.5 38.5q-2 48 -2.5 94.5t6.5 94.5q3 17 5 33.5l4 33.5q4 19 21 22q10 3 18.5 -2.5t10.5 -15.5q1 -8 1.5 -15.5t-0.5 -15.5
q-5 -42 -6 -84t1 -84l2 -38.5t3 -37.5q1 -11 2.5 -21.5t10.5 -20.5q22 23 43 49l57 68l57 68q2 2 5 4.5t5 4.5q5 3 11 0t10 -10t5.5 -17t-2.5 -19t-6 -13t-4.5 -5.5t-4.5 -3t-6 -5.5zM141 600q1 -14 -3.5 -21t-9.5 -14q-11 -20 -23.5 -39.5t-23.5 -39.5q-5 -9 -8.5 -11
t-14.5 2h-5q-3 1 -6.5 2t-4.5 3l-2 12t1 11q5 20 15 37l21 34q2 5 5.5 8.5t5.5 8.5q5 9 12 14t16 8q11 2 18 -3t7 -12z" />
    <glyph glyph-name="icircumflex" unicode="&#xee;" horiz-adv-x="240" 
d="M273 197l-12.5 -12.5t-11.5 -14.5l-39.5 -53l-39.5 -53l-14.5 -18t-15.5 -17q-12 -12 -26.5 -17t-28 -2t-25.5 14.5t-19 32.5q-6 18 -9.5 37.5t-5.5 38.5q-2 48 -2.5 94.5t6.5 94.5q3 17 5 33.5l4 33.5q4 19 21 22q10 3 18.5 -2.5t10.5 -15.5q1 -8 1.5 -15.5t-0.5 -15.5
q-5 -42 -6 -84t1 -84l2 -38.5t3 -37.5q1 -11 2.5 -21.5t10.5 -20.5q22 23 43 49l57 68l57 68q2 2 5 4.5t5 4.5q5 3 11 0t10 -10t5.5 -17t-2.5 -19t-6 -13t-4.5 -5.5t-4.5 -3t-6 -5.5zM73 511q-8 -7 -17.5 -14.5t-17.5 -15.5q-10 -8 -20 -12t-23 1q-12 4 -7 17q5 11 13 18.5
t17 14.5q13 10 23 21t19 24q4 5 8 9t12 2q6 -2 10.5 -5t6.5 -11q2 -9 7 -18t11 -17t13 -15.5l14 -15.5q6 -6 7.5 -15t-2.5 -16q-2 -2 -5.5 -3.5t-5.5 -0.5q-14 5 -23 13q-11 9 -20.5 19z" />
    <glyph glyph-name="idieresis" horiz-adv-x="240" 
d="M273 197l-12.5 -12.5t-11.5 -14.5l-39.5 -53l-39.5 -53l-14.5 -18t-15.5 -17q-12 -12 -26.5 -17t-28 -2t-25.5 14.5t-19 32.5q-6 18 -9.5 37.5t-5.5 38.5q-2 48 -2.5 94.5t6.5 94.5q3 17 5 33.5l4 33.5q4 19 21 22q10 3 18.5 -2.5t10.5 -15.5q1 -8 1.5 -15.5t-0.5 -15.5
q-5 -42 -6 -84t1 -84l2 -38.5t3 -37.5q1 -11 2.5 -21.5t10.5 -20.5q22 23 43 49l57 68l57 68q2 2 5 4.5t5 4.5q5 3 11 0t10 -10t5.5 -17t-2.5 -19t-6 -13t-4.5 -5.5t-4.5 -3t-6 -5.5zM108 477q2 7 3.5 14.5t8.5 13.5q3 2 7 10q6 10 20 10.5t21 -13.5q4 -8 3.5 -18.5t-5 -21
t-13 -18.5t-19.5 -9t-18.5 8t-7.5 24zM58 529q5 -2 6.5 -8.5t4.5 -13.5q-2 -5 -4 -8.5t-5 -7.5l-8 -12.5t-10 -11.5q-8 -8 -17.5 -6t-15.5 11q-11 17 -6 35t21 27q11 5 18.5 2t15.5 -7z" />
    <glyph glyph-name="ntilde" horiz-adv-x="380" 
d="M-4 284q1 12 4 30.5t7 37.5l8 37t7 30q2 10 7.5 18l11.5 16q4 5 9.5 7.5t13.5 -0.5q14 -5 12 -21q-1 -22 -6 -43q-9 -48 -13.5 -95.5t-2.5 -96.5q1 -14 1 -29v-29q0 -5 0.5 -9.5t1.5 -9.5q2 0 3 -0.5t2 -0.5l18 39.5l18 39.5q18 38 39.5 73.5t45.5 70.5q9 11 19 18
q17 11 30 7t20 -23q3 -9 5 -19t1 -19q-2 -36 -1.5 -72t5.5 -71q4 -29 11.5 -56t27.5 -50q8 -8 14 -10.5t16 1.5l15 9q10 5 19 10.5l18 10.5q11 5 18 0t6 -16q-1 -14 -4.5 -26.5t-12.5 -21.5q-20 -20 -43.5 -29.5t-52.5 -0.5q-13 4 -19 10q-25 21 -41 47.5t-25 57.5
q-12 44 -11 87t5 87q1 5 1 15q0 2 -0.5 3l-2.5 5q-5 -6 -8.5 -11t-6.5 -10l-56.5 -105.5t-44.5 -110.5q-11 -36 -18 -72q-2 -11 -10 -16t-16 -11q-10 3 -15 10t-7 16q-11 45 -18 89t-8 89q0 8 0.5 24t0.5 24q0 3 0.5 12t0.5 19t0.5 19.5t0.5 14.5zM143.953 536.231
q-5.87207 -3.6709 -9.90918 -6.60645q-4.03711 -2.93652 -7.70703 -5.87305q-10.2764 -8.07422 -19.084 -16.8838q-4.4043 -4.4043 -8.80859 -6.23926q-4.40332 -1.83496 -10.2764 3.30273q-5.87109 4.40527 -8.44043 11.3789t0.367188 12.8457
q4.40332 7.34082 9.1748 13.9473t10.6426 12.4795q8.07422 8.0752 17.25 15.7822q9.1748 7.70801 19.4512 13.5801q16.8818 9.54297 33.0303 2.56934t22.7539 -24.5908l7.70703 -17.6182l9.17578 -19.0859l19.084 12.1123l19.084 12.1123q4.4043 2.20215 8.44141 4.77148
t8.44043 4.77148q6.60645 3.6709 13.9463 2.20215q7.34082 -1.46777 11.0107 -5.13867q3.66992 -5.87207 3.66992 -16.1494q0 -10.2764 -4.4043 -15.415l-2.93555 -2.93652l-2.93652 -2.93652q-8.07422 -7.34082 -15.4141 -14.6816q-7.33984 -7.33984 -16.1484 -13.9473
q-8.80762 -6.60645 -17.9834 -12.8457q-9.1748 -6.23926 -19.4512 -9.91016q-8.80762 -3.66992 -18.7168 -1.83496t-18.7168 6.97363q-8.80859 5.13867 -15.415 13.2129q-6.60547 8.0752 -8.80762 17.6182q-1.46777 7.34082 -3.30273 15.0479
q-1.83594 7.70801 -4.77148 17.9854z" />
    <glyph glyph-name="ograve" horiz-adv-x="241" 
d="M267 363q3 -2 4 -9.5t-0.5 -15t-5.5 -13.5t-9 -4q-58 10 -120 19q17 -26 22 -53t5 -56q-1 -45 -10.5 -87.5t-34.5 -80.5q-13 -19 -32 -29.5t-43 -7.5q-14 2 -23 12t-14 22q-8 17 -10 34.5t-2 35.5v7t-1 10q0 8 2 18t4 18q7 18 10 37t8 38q13 46 30 93l18.5 52l19.5 52
q1 4 5 12q2 5 5 9.5t11 2.5q6 -2 11 -6t5 -12q-1 -6 -0.5 -12.5t-1.5 -12.5q-3 -14 -7 -27l-8 -27q21 1 41 -1t40 -6t40 -7.5t41 -4.5zM59 90q18 13 29 47t15 71t-0.5 68.5t-17.5 41.5q-3 -11 -7 -21.5t-6 -21.5l-10.5 -64t-9.5 -64q-2 -14 -1 -28t8 -29zM79.1211 612.523
l1.96191 6.90723t2.94141 7.40137q2.45117 4.93359 6.61914 9.12793q4.16699 4.19434 9.56055 3.20703q6.86426 -0.986328 13.7285 -4.44043t10.2959 -10.8555l13.2383 -32.5645t12.2568 -33.0586q3.92285 -10.8545 -1.96094 -19.7363q-5.88379 -8.88086 -17.1602 -9.86816
q-5.88379 -0.493164 -10.7861 2.71387q-4.90332 3.20703 -7.35449 8.1416l-15.9346 30.5908l-14.9541 31.085q-0.980469 2.4668 -1.22559 5.18066t-1.22656 6.16797z" />
    <glyph glyph-name="oacute" unicode="&#xf3;" horiz-adv-x="241" 
d="M267 363q3 -2 4 -9.5t-0.5 -15t-5.5 -13.5t-9 -4q-58 10 -120 19q17 -26 22 -53t5 -56q-1 -45 -10.5 -87.5t-34.5 -80.5q-13 -19 -32 -29.5t-43 -7.5q-14 2 -23 12t-14 22q-8 17 -10 34.5t-2 35.5v7t-1 10q0 8 2 18t4 18q7 18 10 37t8 38q13 46 30 93l18.5 52l19.5 52
q1 4 5 12q2 5 5 9.5t11 2.5q6 -2 11 -6t5 -12q-1 -6 -0.5 -12.5t-1.5 -12.5q-3 -14 -7 -27l-8 -27q21 1 41 -1t40 -6t40 -7.5t41 -4.5zM59 90q18 13 29 47t15 71t-0.5 68.5t-17.5 41.5q-3 -11 -7 -21.5t-6 -21.5l-10.5 -64t-9.5 -64q-2 -14 -1 -28t8 -29zM180.504 622.03
q1.08398 -11.9668 -3.25 -18.7666l-8.125 -12.7822l-20.8555 -35.3564l-20.8545 -34.8125q-4.33398 -8.15918 -7.85449 -9.51953q-3.52148 -1.35938 -12.7295 1.36035q-1.08398 0.543945 -2.16699 0t-2.16699 0q-2.70801 1.08789 -5.6875 2.17578t-3.52051 2.71973
q-1.08398 4.89551 -1.625 10.335q-0.541992 5.43945 0.541016 10.335q4.875 17.4062 13.2715 32.6367t18.1465 29.917q2.70898 4.35156 5.41699 7.8877q2.70801 3.53516 4.875 7.88672q4.33398 7.61523 10.5635 11.9668q6.22852 4.35156 13.8125 7.07129
q9.20898 2.71973 15.709 -2.17578t6.5 -10.8789z" />
    <glyph glyph-name="ocircumflex" unicode="&#xf4;" horiz-adv-x="241" 
d="M267 363q3 -2 4 -9.5t-0.5 -15t-5.5 -13.5t-9 -4q-58 10 -120 19q17 -26 22 -53t5 -56q-1 -45 -10.5 -87.5t-34.5 -80.5q-13 -19 -32 -29.5t-43 -7.5q-14 2 -23 12t-14 22q-8 17 -10 34.5t-2 35.5v7t-1 10q0 8 2 18t4 18q7 18 10 37t8 38q13 46 30 93l18.5 52l19.5 52
q1 4 5 12q2 5 5 9.5t11 2.5q6 -2 11 -6t5 -12q-1 -6 -0.5 -12.5t-1.5 -12.5q-3 -14 -7 -27l-8 -27q21 1 41 -1t40 -6t40 -7.5t41 -4.5zM59 90q18 13 29 47t15 71t-0.5 68.5t-17.5 41.5q-3 -11 -7 -21.5t-6 -21.5l-10.5 -64t-9.5 -64q-2 -14 -1 -28t8 -29zM111.898 546.452
l-15.6582 -12.9492l-15.6592 -14.0508q-8.24121 -7.71484 -17.582 -11.0205q-9.34082 -3.30664 -20.3291 1.10156q-6.04395 2.2041 -7.41797 5.23535q-1.37305 3.03027 1.37402 9.64258q3.8457 9.36719 10.9883 16.5303q7.14355 7.16406 15.3848 13.2246
q10.9883 8.81641 20.3291 19.0107t17.582 21.7656q3.29688 4.4082 7.14258 7.71387q3.8457 3.30664 10.4395 1.65332q5.49414 -1.65332 9.34082 -4.68359q3.8457 -3.03027 6.04395 -9.64258q2.19727 -8.26562 6.31836 -15.9795q4.12012 -7.71484 9.06543 -14.8779
q5.49414 -7.71484 12.0879 -14.6025q6.59277 -6.8877 12.6367 -14.0508q4.94531 -5.51074 6.31836 -13.5q1.37402 -7.99023 -2.47168 -14.0518q-1.09961 -1.65332 -4.39648 -3.03027q-3.2959 -1.37793 -4.94434 -0.275391q-5.49414 2.2041 -10.7139 4.68359
t-9.61523 6.33691l-18.1318 17.6328z" />
    <glyph glyph-name="otilde" horiz-adv-x="241" 
d="M267 363q3 -2 4 -9.5t-0.5 -15t-5.5 -13.5t-9 -4q-58 10 -120 19q17 -26 22 -53t5 -56q-1 -45 -10.5 -87.5t-34.5 -80.5q-13 -19 -32 -29.5t-43 -7.5q-14 2 -23 12t-14 22q-8 17 -10 34.5t-2 35.5v7t-1 10q0 8 2 18t4 18q7 18 10 37t8 38q13 46 30 93l18.5 52l19.5 52
q1 4 5 12q2 5 5 9.5t11 2.5q6 -2 11 -6t5 -12q-1 -6 -0.5 -12.5t-1.5 -12.5q-3 -14 -7 -27l-8 -27q21 1 41 -1t40 -6t40 -7.5t41 -4.5zM59 90q18 13 29 47t15 71t-0.5 68.5t-17.5 41.5q-3 -11 -7 -21.5t-6 -21.5l-10.5 -64t-9.5 -64q-2 -14 -1 -28t8 -29zM100.047 555.832
q-3.69043 -2.31445 -6.22754 -4.16504l-4.84375 -3.70215q-6.45801 -5.09082 -11.9941 -10.6445q-2.76758 -2.77637 -5.53516 -3.93262q-2.76855 -1.15723 -6.45801 2.08203q-3.69141 2.77637 -5.30566 7.17285t0.230469 8.09863q2.76855 4.62793 5.7666 8.79199
q2.99805 4.16504 6.68945 7.86719q5.07422 5.09082 10.8398 9.9502q5.7666 4.8584 12.2246 8.56055q10.6104 6.0166 20.7588 1.62012t14.3008 -15.5029l4.84375 -11.1064l5.76562 -12.0322l11.9941 7.63574l11.9941 7.63574q2.76758 1.38867 5.30469 3.00781
q2.53711 1.62012 5.30566 3.00879q4.15137 2.31348 8.76465 1.3877q4.6123 -0.924805 6.91895 -3.23926q2.30664 -3.70215 2.30664 -10.1807t-2.76758 -9.71777l-1.8457 -1.85156l-1.84473 -1.85156q-5.07422 -4.62695 -9.6875 -9.25488t-10.1484 -8.79297
q-5.53613 -4.16504 -11.3018 -8.09766q-5.7666 -3.93359 -12.2246 -6.24805q-5.53613 -2.31348 -11.7637 -1.15625q-6.22754 1.15625 -11.7637 4.39551q-5.53516 3.24023 -9.68652 8.33008q-4.15234 5.09082 -5.53613 11.1064q-0.922852 4.62793 -2.07617 9.4873
q-1.15234 4.8584 -2.99805 11.3379z" />
    <glyph glyph-name="odieresis" unicode="&#xf6;" horiz-adv-x="241" 
d="M267 363q3 -2 4 -9.5t-0.5 -15t-5.5 -13.5t-9 -4q-58 10 -120 19q17 -26 22 -53t5 -56q-1 -45 -10.5 -87.5t-34.5 -80.5q-13 -19 -32 -29.5t-43 -7.5q-14 2 -23 12t-14 22q-8 17 -10 34.5t-2 35.5v7t-1 10q0 8 2 18t4 18q7 18 10 37t8 38q13 46 30 93l18.5 52l19.5 52
q1 4 5 12q2 5 5 9.5t11 2.5q6 -2 11 -6t5 -12q-1 -6 -0.5 -12.5t-1.5 -12.5q-3 -14 -7 -27l-8 -27q21 1 41 -1t40 -6t40 -7.5t41 -4.5zM59 90q18 13 29 47t15 71t-0.5 68.5t-17.5 41.5q-3 -11 -7 -21.5t-6 -21.5l-10.5 -64t-9.5 -64q-2 -14 -1 -28t8 -29zM138.563 527.062
q1.68945 5.67773 3.09766 12.4902q1.40723 6.81348 7.60156 12.4912q3.94238 2.83887 6.75781 9.08398q2.25195 4.54199 7.32031 6.8125q5.06738 2.27148 10.417 2.27148t10.418 -2.83887t8.44629 -9.08398q3.94238 -6.81348 3.37891 -16.4648
q-0.563477 -9.65234 -4.78613 -19.0195q-4.22363 -9.36816 -11.8252 -16.4648q-7.60254 -7.09668 -17.7383 -8.23242q-9.00977 -1.13574 -15.7666 7.09668q-6.75781 8.23242 -7.32129 21.8584zM94.6416 574.186q3.94141 -1.70312 5.34961 -7.94824
q1.40723 -6.24512 4.22266 -11.9229l-3.94141 -7.94824t-3.94238 -6.81348q-3.94141 -5.67676 -7.60156 -11.6387q-3.66016 -5.96094 -8.72852 -10.5029q-6.75684 -6.81348 -15.4854 -4.82617q-8.72754 1.9873 -14.3594 9.93555q-4.50488 7.38086 -5.63086 15.6133
t0.844727 15.8965q1.9707 7.66504 6.75684 13.9102q4.78711 6.24512 12.1074 10.2197q9.00977 5.10938 16.3301 2.27051t14.0781 -6.24512z" />
    <glyph glyph-name="oslash" horiz-adv-x="195" 
d="M158 338l-6 -10.5t-5 -10.5q10 -21 13 -43.5t3 -45.5q-1 -45 -10.5 -87.5t-34.5 -80.5q-13 -19 -32 -29.5t-43 -7.5q-14 2 -23 12l-3 -7q-6 -17 -19 -20q-9 -1 -12.5 1.5t-4.5 13.5q0 11 4 20l15 33q-4 12 -5 25t-1 26v7t-1 10q0 8 2 18t4 18q7 18 10 37t8 38
q13 46 30 93l18.5 52l19.5 52q1 4 5 12q2 5 5 9.5t11 2.5q6 -2 11 -6t5 -12q-1 -6 -0.5 -12.5t-1.5 -12.5q-3 -14 -7 -27l-8 -27q4 -3 8 -7t8.5 -10.5t9.5 -14.5l19 36q4 7 12 13q2 1 5.5 1.5t5.5 -1.5t3 -6.5t1 -8.5zM59 87q10 8 18.5 23t14.5 34.5t9 41.5t4 43l-53 -118
q2 -13 7 -24zM85 315q-3 -11 -7 -21.5t-6 -21.5l-10 -60l6 12l16 31.5l16 31.5q-5 21 -15 28z" />
    <glyph glyph-name="ugrave" horiz-adv-x="258" 
d="M14 258q2 11 5.5 28t8 35.5t9.5 35t8 27.5t9 20.5t13 18.5q7 8 14 6t8 -13q2 -14 1.5 -26.5t-2.5 -26.5t-6 -28t-6 -28q0 -3 -3 -21l-6.5 -40t-7.5 -43.5l-6 -31.5q-3 -15 -3.5 -30.5t-1.5 -30.5q2 -2 4 -2q4 3 7.5 6t5.5 7l50 92.5l50 92.5q5 11 8 22t8 22l13.5 31.5
t14.5 29.5q3 5 11 9t14 4q8 0 10 -7t2 -15q0 -12 -3 -24q-15 -63 -21 -127t-7 -129q-1 -22 -0.5 -43.5t7.5 -42.5q10 -31 -24 -44q-50 14 -49 64q0 21 -1.5 41.5t-3.5 43.5q-11 -17 -19 -32t-19 -29q-9 -11 -19.5 -20.5l-21.5 -19.5q-9 -8 -20.5 -10t-22 2.5t-18.5 15
t-9 25.5q-2 20 -1.5 40t1.5 40q1 7 3.5 21.5t5.5 30t5.5 30t4.5 23.5zM112.879 537.477l2.03809 7.09277t3.05859 7.59863q2.54883 5.06641 6.88086 9.37207q4.33301 4.30566 9.93945 3.29297q7.13574 -1.01367 14.2715 -4.55957t10.7041 -11.1445l13.7617 -33.4355
t12.7432 -33.9414q4.07715 -11.1455 -2.03906 -20.2637q-6.11621 -9.11914 -17.8398 -10.1318q-6.11621 -0.506836 -11.2139 2.78613q-5.09668 3.29297 -7.64551 8.3584l-16.5654 31.4092l-15.5459 31.915q-1.01953 2.5332 -1.27441 5.31934t-1.27344 6.33203z" />
    <glyph glyph-name="uacute" unicode="&#xfa;" horiz-adv-x="258" 
d="M14 258q2 11 5.5 28t8 35.5t9.5 35t8 27.5t9 20.5t13 18.5q7 8 14 6t8 -13q2 -14 1.5 -26.5t-2.5 -26.5t-6 -28t-6 -28q0 -3 -3 -21l-6.5 -40t-7.5 -43.5l-6 -31.5q-3 -15 -3.5 -30.5t-1.5 -30.5q2 -2 4 -2q4 3 7.5 6t5.5 7l50 92.5l50 92.5q5 11 8 22t8 22l13.5 31.5
t14.5 29.5q3 5 11 9t14 4q8 0 10 -7t2 -15q0 -12 -3 -24q-15 -63 -21 -127t-7 -129q-1 -22 -0.5 -43.5t7.5 -42.5q10 -31 -24 -44q-50 14 -49 64q0 21 -1.5 41.5t-3.5 43.5q-11 -17 -19 -32t-19 -29q-9 -11 -19.5 -20.5l-21.5 -19.5q-9 -8 -20.5 -10t-22 2.5t-18.5 15
t-9 25.5q-2 20 -1.5 40t1.5 40q1 7 3.5 21.5t5.5 30t5.5 30t4.5 23.5zM222.504 562.03q1.08398 -11.9668 -3.25 -18.7666l-8.125 -12.7822l-20.8555 -35.3564l-20.8545 -34.8125q-4.33398 -8.15918 -7.85449 -9.51953q-3.52148 -1.35938 -12.7295 1.36035
q-1.08398 0.543945 -2.16699 0t-2.16699 0q-2.70801 1.08789 -5.6875 2.17578t-3.52051 2.71973q-1.08398 4.89551 -1.625 10.335q-0.541992 5.43945 0.541016 10.335q4.875 17.4062 13.2715 32.6367t18.1465 29.917q2.70898 4.35156 5.41699 7.8877
q2.70801 3.53516 4.875 7.88672q4.33398 7.61523 10.5635 11.9668q6.22852 4.35156 13.8125 7.07129q9.20898 2.71973 15.709 -2.17578t6.5 -10.8789z" />
    <glyph glyph-name="ucircumflex" horiz-adv-x="258" 
d="M14 258q2 11 5.5 28t8 35.5t9.5 35t8 27.5t9 20.5t13 18.5q7 8 14 6t8 -13q2 -14 1.5 -26.5t-2.5 -26.5t-6 -28t-6 -28q0 -3 -3 -21l-6.5 -40t-7.5 -43.5l-6 -31.5q-3 -15 -3.5 -30.5t-1.5 -30.5q2 -2 4 -2q4 3 7.5 6t5.5 7l50 92.5l50 92.5q5 11 8 22t8 22l13.5 31.5
t14.5 29.5q3 5 11 9t14 4q8 0 10 -7t2 -15q0 -12 -3 -24q-15 -63 -21 -127t-7 -129q-1 -22 -0.5 -43.5t7.5 -42.5q10 -31 -24 -44q-50 14 -49 64q0 21 -1.5 41.5t-3.5 43.5q-11 -17 -19 -32t-19 -29q-9 -11 -19.5 -20.5l-21.5 -19.5q-9 -8 -20.5 -10t-22 2.5t-18.5 15
t-9 25.5q-2 20 -1.5 40t1.5 40q1 7 3.5 21.5t5.5 30t5.5 30t4.5 23.5zM162.49 518.161l-16.7021 -13.7881l-16.7031 -14.9619q-8.79004 -8.21387 -18.7539 -11.7344q-9.96289 -3.52051 -21.6836 1.17285q-6.44727 2.34766 -7.91211 5.57422t1.46484 10.2676
q4.10254 9.97461 11.7217 17.6025q7.61914 7.62695 16.4092 14.0811q11.7217 9.3877 21.6846 20.2422t18.7539 23.1758q3.5166 4.69434 7.61914 8.21484q4.10156 3.51953 11.1348 1.75977q5.86035 -1.75977 9.96289 -4.9873q4.10254 -3.22656 6.44727 -10.2676
q2.34375 -8.80078 6.73926 -17.0156q4.39551 -8.21387 9.66992 -15.8418q5.86035 -8.21387 12.8936 -15.5479q7.03223 -7.33398 13.4795 -14.9619q5.27441 -5.86719 6.73926 -14.375q1.46484 -8.50684 -2.63672 -14.9609q-1.17285 -1.76074 -4.68945 -3.22754
q-3.51562 -1.4668 -5.27441 -0.292969q-5.86035 2.34668 -11.4277 4.9873q-5.56738 2.63965 -10.2559 6.74707l-19.3398 18.7754z" />
    <glyph glyph-name="udieresis" unicode="&#xfc;" horiz-adv-x="258" 
d="M14 258q2 11 5.5 28t8 35.5t9.5 35t8 27.5t9 20.5t13 18.5q7 8 14 6t8 -13q2 -14 1.5 -26.5t-2.5 -26.5t-6 -28t-6 -28q0 -3 -3 -21l-6.5 -40t-7.5 -43.5l-6 -31.5q-3 -15 -3.5 -30.5t-1.5 -30.5q2 -2 4 -2q4 3 7.5 6t5.5 7l50 92.5l50 92.5q5 11 8 22t8 22l13.5 31.5
t14.5 29.5q3 5 11 9t14 4q8 0 10 -7t2 -15q0 -12 -3 -24q-15 -63 -21 -127t-7 -129q-1 -22 -0.5 -43.5t7.5 -42.5q10 -31 -24 -44q-50 14 -49 64q0 21 -1.5 41.5t-3.5 43.5q-11 -17 -19 -32t-19 -29q-9 -11 -19.5 -20.5l-21.5 -19.5q-9 -8 -20.5 -10t-22 2.5t-18.5 15
t-9 25.5q-2 20 -1.5 40t1.5 40q1 7 3.5 21.5t5.5 30t5.5 30t4.5 23.5zM193.302 492.747q2.04785 6.83887 3.75488 15.0459q1.70605 8.20703 9.21484 15.0459q4.77832 3.41895 8.19141 10.9424q2.73047 5.4707 8.87402 8.20605q6.14355 2.73633 12.6279 2.73633
q6.48535 0 12.6289 -3.41992q6.14355 -3.41895 10.2393 -10.9424q4.77832 -8.20703 4.0957 -19.833t-5.80176 -22.9102q-5.12012 -11.2852 -14.3359 -19.833q-9.21484 -8.54883 -21.502 -9.91699q-10.9219 -1.36816 -19.1133 8.54883q-8.19141 9.91602 -8.87402 26.3301z
M140.058 549.511q4.77832 -2.05176 6.48535 -9.5752q1.70605 -7.52246 5.11914 -14.3613l-4.77832 -9.57422q-2.04785 -4.10352 -4.77832 -8.20703q-4.77832 -6.83887 -9.21484 -14.0205q-4.4375 -7.18066 -10.5811 -12.6514q-8.19141 -8.20703 -18.7725 -5.81348
q-10.5801 2.39355 -17.4062 11.9678q-5.46094 8.89062 -6.82617 18.8076t1.02344 19.1494q2.38965 9.23242 8.19141 16.7549q5.80273 7.52344 14.6768 12.3105q10.9219 6.15527 19.7959 2.73535q8.87402 -3.41895 17.0654 -7.52246z" />
    <glyph glyph-name="yacute" unicode="&#xfd;" horiz-adv-x="363" 
d="M97 115q6 10 13 18.5t12 18.5l108 229l12 23t14 22q20 27 30 -4q3 -9 5 -18.5t2 -19.5q3 -49 5 -97t3 -97q1 -29 0.5 -58.5t-2.5 -58.5t-3 -57t-6 -56q-8 -48 -17 -96t-21 -95q-8 -31 -21 -60l-27 -58q-8 -19 -22 -33t-31 -25q-18 -11 -37.5 -12t-37.5 5.5t-32.5 21
t-20.5 34.5q-9 29 -7.5 58t6.5 58q14 83 60 152q14 20 30.5 37.5t32.5 36.5q29 32 64 49q3 2 5 6.5t3 8.5q3 58 5.5 116t4.5 120q-3 -5 -5 -7.5t-3 -4.5l-35 -80t-36 -79q-10 -24 -28 -43q-16 -17 -32.5 -16.5t-32.5 17.5q-17 17 -24.5 39t-9.5 44q-3 30 -2.5 60.5t1.5 60.5
q1 21 3.5 42t3.5 42q1 14 9 22.5l16 16.5q2 2 7 1.5t9 -2.5q11 -7 14.5 -17t2.5 -24q-2 -43 -3.5 -86t-2.5 -87q0 -17 4 -33.5t9 -33.5q3 0 5 -1zM205 -44q-2 2 -4 2l-22 -23q-21 -19 -35.5 -42t-27.5 -47q-26 -48 -31 -105q-2 -17 -2.5 -32.5t1.5 -32.5q0 -5 5 -10.5
t10 -8.5q2 -1 8 2.5t9 7.5q8 10 15 20t11 21l27.5 79.5t19.5 82.5q3 22 7.5 43t8.5 43zM260.855 593.812q1.54785 -17.1211 -4.64258 -26.8496l-11.6064 -18.2891l-29.792 -50.5869l-29.791 -49.8086q-6.19043 -11.6738 -11.2207 -13.6191
q-5.0293 -1.94629 -18.1836 1.94531q-1.54785 0.77832 -3.0957 0t-3.0957 0q-3.86816 1.55664 -8.12402 3.11328q-4.25684 1.55664 -5.03027 3.89062q-1.54785 7.00488 -2.32129 14.7871q-0.773438 7.7832 0.773438 14.7871q6.96484 24.9043 18.959 46.6953
q11.9932 21.791 25.9219 42.8047q3.86914 6.22559 7.73828 11.2842q3.86914 5.05957 6.96387 11.2852q6.19043 10.8955 15.0898 17.1221q8.89844 6.22559 19.7314 10.1172q13.1553 3.89062 22.4404 -3.11328t9.28516 -15.5654z" />
    <glyph glyph-name="ydieresis" horiz-adv-x="363" 
d="M97 115q6 10 13 18.5t12 18.5l108 229l12 23t14 22q20 27 30 -4q3 -9 5 -18.5t2 -19.5q3 -49 5 -97t3 -97q1 -29 0.5 -58.5t-2.5 -58.5t-3 -57t-6 -56q-8 -48 -17 -96t-21 -95q-8 -31 -21 -60l-27 -58q-8 -19 -22 -33t-31 -25q-18 -11 -37.5 -12t-37.5 5.5t-32.5 21
t-20.5 34.5q-9 29 -7.5 58t6.5 58q14 83 60 152q14 20 30.5 37.5t32.5 36.5q29 32 64 49q3 2 5 6.5t3 8.5q3 58 5.5 116t4.5 120q-3 -5 -5 -7.5t-3 -4.5l-35 -80t-36 -79q-10 -24 -28 -43q-16 -17 -32.5 -16.5t-32.5 17.5q-17 17 -24.5 39t-9.5 44q-3 30 -2.5 60.5t1.5 60.5
q1 21 3.5 42t3.5 42q1 14 9 22.5l16 16.5q2 2 7 1.5t9 -2.5q11 -7 14.5 -17t2.5 -24q-2 -43 -3.5 -86t-2.5 -87q0 -17 4 -33.5t9 -33.5q3 0 5 -1zM205 -44q-2 2 -4 2l-22 -23q-21 -19 -35.5 -42t-27.5 -47q-26 -48 -31 -105q-2 -17 -2.5 -32.5t1.5 -32.5q0 -5 5 -10.5
t10 -8.5q2 -1 8 2.5t9 7.5q8 10 15 20t11 21l27.5 79.5t19.5 82.5q3 22 7.5 43t8.5 43zM186.675 543.153q2.4873 8.32227 4.56152 18.3096q2.07324 9.9873 11.1953 18.3105q5.80566 4.16113 9.95312 13.3164q3.31641 6.6582 10.7812 9.9873q7.46387 3.3291 15.3428 3.3291
t15.3428 -4.16211q7.46387 -4.16113 12.4404 -13.3164q5.80566 -9.98633 4.97559 -24.1357q-0.829102 -14.1484 -7.04883 -27.8809q-6.2207 -13.7324 -17.417 -24.1357q-11.1963 -10.4043 -26.124 -12.0684q-13.2695 -1.66406 -23.2217 10.4033
q-9.95215 12.0684 -10.7812 32.043zM121.985 612.232q5.80566 -2.49707 7.87891 -11.6523t6.21973 -17.4775l-5.80469 -11.6523q-2.48828 -4.99316 -5.80566 -9.9873q-5.80566 -8.32227 -11.1963 -17.0615t-12.8545 -15.3975q-9.95215 -9.98633 -22.8076 -7.07422
q-12.8545 2.91309 -21.1484 14.5654q-6.63477 10.8193 -8.29297 22.8877q-1.6582 12.0674 1.24414 23.3037q2.90234 11.2354 9.95215 20.3906t17.8311 14.9805q13.2695 7.49121 24.0508 3.3291q10.7812 -4.16113 20.7334 -9.1543z" />
    <glyph glyph-name="oe" horiz-adv-x="449" 
d="M467 222q2 5 8 5t11.5 -3.5t8 -10.5t-2.5 -16l-24 -43l-66 -110q-14 -22 -32.5 -38.5t-39.5 -31.5t-45.5 -21t-50.5 -8q-19 -1 -37 1.5t-36 11.5q-14 7 -24.5 17.5t-16.5 22.5t-10.5 24t-9.5 24q-23 -20 -56 -17q-14 2 -23 12t-14 22q-8 17 -10 34.5t-2 35.5v7t-1 10
q0 8 2 18t4 18q7 18 10 37t8 38q13 46 30 93l18.5 52l19.5 52q1 4 5 12q2 5 5 9.5t11 2.5q6 -2 11 -6t5 -12q-1 -6 -0.5 -12.5t-1.5 -12.5q-3 -14 -7 -27l-8 -27l18.5 -21.5t12.5 -20.5l9 -14q16 31 39 60q11 14 24 26.5t30 18.5q27 10 46.5 -3t20.5 -42q0 -5 -1 -11.5
t-2 -11.5q-10 -42 -25.5 -80t-35.5 -76q-14 -26 -29.5 -50.5l-31.5 -49.5q-5 -8 -6.5 -15t1.5 -16l11 -30q11 -22 39 -22q27 1 50.5 10t44.5 24q64 48 108 116q8 13 17.5 23.5t20.5 21.5zM60 93q11 8 18.5 22.5t13.5 32.5l7 50l6 24q2 35 -2 62.5t-17 36.5q-3 -11 -7 -21.5
t-6 -21.5l-10.5 -64t-9.5 -64q-2 -14 -1 -28t8 -29zM256 379q-37 -48 -55 -99.5t-24 -107.5q17 25 32.5 55.5t26.5 60t17 54t3 37.5z" />
    <glyph glyph-name="OE" horiz-adv-x="651" 
d="M573 39q11 0 14 -6t-2 -15q-6 -9 -13.5 -18t-15.5 -16q-29 -21 -60 -36l-62 -31t-63 -29q-23 -11 -39 -3t-30 31q-7 11 -10.5 24.5t-5.5 27.5q-4 17 -6 37q-7 -17 -14.5 -33.5l-15.5 -32.5q-17 -31 -40.5 -54.5t-56.5 -37.5q-32 -14 -61 -5t-50 38q-14 20 -20 41.5
t-13 43.5q-10 35 -11.5 71.5t-5.5 78.5q2 17 3 38.5t3 44.5q6 61 15 123q4 21 9 42.5t12 41.5q8 25 17 49t17 49q7 18 5 36q-9 86 38 157q11 17 25 31.5t34 22.5q17 7 33 20q15 10 32.5 13.5t35 -0.5t33.5 -16.5t28 -33.5l3 -6q14 3 22 19q3 8 7 13t13 4q8 -1 15.5 -4
t10.5 -12l2 -4t3 -5l63.5 9.5l63.5 9.5q10 2 15 2q23 0 26 -17q1 -8 -5 -15t-16 -9q-18 -3 -36 -5l-35 -4l-67 -10q-15 -2 -15 -17q-2 -38 -3.5 -75t-3.5 -75q-2 -26 -5 -51.5t-5 -51.5q-1 -15 -0.5 -30.5t0.5 -32.5l32.5 8l30.5 8l93 22q21 5 32 -11q20 -24 -6 -36
q-37 -17 -73 -27q-25 -8 -50 -14l-51 -12q-16 -4 -16 -21l-10 -236q-1 -20 -0.5 -41t0.5 -44l15 5t11 4l63.5 31t64.5 30q11 5 25 6t27 1zM200 1q21 45 35 92.5l27 95.5l12 50t11 51q2 9 2.5 18.5t1.5 17.5q-17 -1 -31 -2.5t-28 0.5q-22 2 -39.5 13t-32.5 27q-24 25 -48 54
q-2 -5 -3 -9.5t-2 -9.5q-5 -30 -11.5 -59.5t-10.5 -59.5q-3 -23 -2.5 -45.5t-1.5 -45.5q-7 -63 -0.5 -123t23.5 -120q6 -20 16.5 -22.5t27.5 8.5q20 13 32 31t22 38zM174 695q-18 -15 -27.5 -35t-13.5 -45l27 8q8 2 16 0t10 -10q2 -6 0.5 -13t-4.5 -13q-3 -7 -7.5 -13
t-9.5 -12q-18 -26 -23 -51.5t15 -54.5q2 -2 3 -5.5t3 -5.5q11 -16 23 -30.5t26.5 -24t32 -14t40.5 0.5q3 1 6.5 0.5t8.5 -0.5q2 14 3.5 27t3.5 26l3 42l2 60.5t-1 61.5q-3 61 -27 115q-7 16 -22 22.5t-30 -1.5l-29.5 -16t-28.5 -19z" />
    <glyph glyph-name="Zcaron" horiz-adv-x="513" 
d="M562 784q12 6 22.5 4t18 -8.5t11 -16.5t2.5 -21t-5 -22t-9 -20q-11 -20 -23 -38.5l-24 -36.5l-13.5 -20.5l-13.5 -19.5l-43 -60.5l-43 -61.5l-26 -33.5t-24 -33.5l-41.5 -62.5l-40.5 -62.5l-46 -73l-46 -73q-12 -20 -22.5 -40l-21.5 -40q-7 -13 -14.5 -25l-15.5 -25
l-10 -20l46 7.5t44 7.5q42 8 84.5 14.5t85.5 7.5l36.5 2l37.5 2q6 0 13 -0.5t12 -3.5q5 -2 11.5 -7t5.5 -9q-1 -6 -5.5 -13.5t-9.5 -9.5q-12 -5 -25 -7l-26 -4q-66 -10 -132 -19t-132 -20q-22 -4 -43.5 -10.5t-42.5 -11.5q-8 -2 -10 -5q-11 -11 -22.5 -14.5t-28.5 -0.5
q-15 3 -27 12t-13 24q0 11 1.5 22t6.5 20l31 58l32 58l31.5 54l32.5 54q10 16 20.5 31l21.5 31l15.5 27t16.5 26l36 50.5l36 49.5l47.5 65.5l48.5 64.5l64 81.5l64 80.5l12 15.5l12 15.5q-5 20 -27 18q-43 -3 -85.5 -5t-85.5 -7q-38 -4 -76 -11t-76 -12q-6 -2 -12 -1.5
t-12 1.5q-11 2 -14 7.5t3 13.5q5 8 12 15.5t15 10.5q15 7 31.5 11.5t33.5 6.5q39 7 78 12.5t79 8.5q29 2 58.5 1t58.5 -3q10 -1 20 -5t22 -8q2 2 7 4t10 5zM402 910l84 105q7 8 14.5 8.5t21.5 -4.5q17 -8 13 -25q-3 -17 -10.5 -32t-17.5 -29q-11 -15 -20 -30l-18 -31
q-6 -11 -11.5 -18.5t-13 -12t-18 -6t-27.5 -0.5q-20 1 -35 14t-20 33q-6 20 -12.5 39.5t-11.5 39.5q-2 9 -3.5 18t2.5 20q4 10 9 16.5t16 6.5q21 0 29 -22q5 -14 9.5 -29t9.5 -29q2 -8 5 -16t5 -16z" />
    <glyph glyph-name="Zcaron" unicode="&#x17d;" horiz-adv-x="513" 
d="M562 784q12 6 22.5 4t18 -8.5t11 -16.5t2.5 -21t-5 -22t-9 -20q-11 -20 -23 -38.5l-24 -36.5l-13.5 -20.5l-13.5 -19.5l-43 -60.5l-43 -61.5l-26 -33.5t-24 -33.5l-41.5 -62.5l-40.5 -62.5l-46 -73l-46 -73q-12 -20 -22.5 -40l-21.5 -40q-7 -13 -14.5 -25l-15.5 -25
l-10 -20l46 7.5t44 7.5q42 8 84.5 14.5t85.5 7.5l36.5 2l37.5 2q6 0 13 -0.5t12 -3.5q5 -2 11.5 -7t5.5 -9q-1 -6 -5.5 -13.5t-9.5 -9.5q-12 -5 -25 -7l-26 -4q-66 -10 -132 -19t-132 -20q-22 -4 -43.5 -10.5t-42.5 -11.5q-8 -2 -10 -5q-11 -11 -22.5 -14.5t-28.5 -0.5
q-15 3 -27 12t-13 24q0 11 1.5 22t6.5 20l31 58l32 58l31.5 54l32.5 54q10 16 20.5 31l21.5 31l15.5 27t16.5 26l36 50.5l36 49.5l47.5 65.5l48.5 64.5l64 81.5l64 80.5l12 15.5l12 15.5q-5 20 -27 18q-43 -3 -85.5 -5t-85.5 -7q-38 -4 -76 -11t-76 -12q-6 -2 -12 -1.5
t-12 1.5q-11 2 -14 7.5t3 13.5q5 8 12 15.5t15 10.5q15 7 31.5 11.5t33.5 6.5q39 7 78 12.5t79 8.5q29 2 58.5 1t58.5 -3q10 -1 20 -5t22 -8q2 2 7 4t10 5zM402 910l84 105q7 8 14.5 8.5t21.5 -4.5q17 -8 13 -25q-3 -17 -10.5 -32t-17.5 -29q-11 -15 -20 -30l-18 -31
q-6 -11 -11.5 -18.5t-13 -12t-18 -6t-27.5 -0.5q-20 1 -35 14t-20 33q-6 20 -12.5 39.5t-11.5 39.5q-2 9 -3.5 18t2.5 20q4 10 9 16.5t16 6.5q21 0 29 -22q5 -14 9.5 -29t9.5 -29q2 -8 5 -16t5 -16z" />
    <glyph glyph-name="zcaron" horiz-adv-x="363" 
d="M398 183q5 -5 3.5 -16.5t-9.5 -19.5l-24 -19.5t-20 -18.5l-45.5 -49.5l-44.5 -50.5q-12 -14 -23 -28.5l-22 -29.5q-2 -2 -2.5 -3.5t-1.5 -3.5q-9 -28 -17 -55.5t-18 -54.5q-9 -24 -20 -48l-22 -47q-9 -18 -19 -36t-23 -34q-17 -20 -38 -25t-41 18q-8 10 -10 23
q-1 23 4 45.5t13 45.5q15 42 40.5 76.5l51.5 69.5q7 9 13.5 18.5t14.5 19.5q10 14 13 29t5 31q2 22 2.5 44t-8.5 44q-8 20 -19.5 22.5t-28.5 -6.5q-11 -7 -19 -16.5t-10 -24.5q-2 -20 -14 -25.5t-29 3.5q-5 2 -9.5 4.5t-10.5 4.5q-8 19 2 34.5t22 30.5l22 28l22 29l53.5 77
l53.5 78l25.5 38.5l25.5 37.5q2 4 3.5 9t3.5 10q-18 3 -34 -1l-32 -8q-23 -6 -45.5 -13.5t-45.5 -13.5q-14 -3 -30.5 -7t-26.5 2q-5 3 -3 7t7 8.5t11.5 8.5t10.5 6q42 17 85 29.5t88 22.5q0 1 2 1q14 2 26.5 2.5t23.5 -12.5q11 -14 11 -29t-7 -29t-15 -27.5l-16 -26.5
l-54 -82l-54 -81q-5 -6 -7 -11q18 -7 31 -13t23 -18t17 -33t14 -57l34 35.5l34 34.5q11 11 21.5 20.5t22.5 18.5q17 14 29.5 15.5t33.5 -8.5zM51 -307q4 -3 10 4t13.5 19.5t15 30l15.5 36.5q18 43 36 101q-32 -50 -54 -90q-10 -17 -18.5 -34t-14 -31t-7 -23.5t3.5 -12.5z
M168.608 560.455l58.873 73.6104q4.90527 5.6084 10.1621 5.95898t15.0684 -3.15527q11.915 -5.6084 9.11133 -17.5254q-2.10254 -11.918 -7.3584 -22.4336q-5.25684 -10.5166 -12.2656 -20.3311q-7.70898 -10.5156 -14.0176 -21.0312l-12.6152 -21.7324
q-4.20508 -7.71191 -8.05957 -12.9697q-3.85547 -5.25781 -9.11133 -8.41211q-5.25684 -3.15527 -12.6162 -4.20703q-7.3584 -1.05078 -19.2734 -0.350586q-14.0176 0.701172 -24.5303 9.81543q-10.5127 9.11328 -14.0176 23.1348q-4.20508 14.0205 -8.76074 27.6914
q-4.55566 13.6699 -8.05957 27.6914q-1.40234 6.30859 -2.45312 12.6182q-1.05176 6.30957 1.75195 14.0215q2.80371 7.01074 6.30762 11.5674t11.2139 4.55664q14.7178 0 20.3252 -15.4229q3.50391 -9.81543 6.6582 -20.3311t6.6582 -20.3301
q1.40137 -5.6084 3.50391 -11.2168q2.10352 -5.6084 3.50488 -11.2168z" />
    <glyph glyph-name="zcaron" unicode="&#x17e;" horiz-adv-x="363" 
d="M398 183q5 -5 3.5 -16.5t-9.5 -19.5l-24 -19.5t-20 -18.5l-45.5 -49.5l-44.5 -50.5q-12 -14 -23 -28.5l-22 -29.5q-2 -2 -2.5 -3.5t-1.5 -3.5q-9 -28 -17 -55.5t-18 -54.5q-9 -24 -20 -48l-22 -47q-9 -18 -19 -36t-23 -34q-17 -20 -38 -25t-41 18q-8 10 -10 23
q-1 23 4 45.5t13 45.5q15 42 40.5 76.5l51.5 69.5q7 9 13.5 18.5t14.5 19.5q10 14 13 29t5 31q2 22 2.5 44t-8.5 44q-8 20 -19.5 22.5t-28.5 -6.5q-11 -7 -19 -16.5t-10 -24.5q-2 -20 -14 -25.5t-29 3.5q-5 2 -9.5 4.5t-10.5 4.5q-8 19 2 34.5t22 30.5l22 28l22 29l53.5 77
l53.5 78l25.5 38.5l25.5 37.5q2 4 3.5 9t3.5 10q-18 3 -34 -1l-32 -8q-23 -6 -45.5 -13.5t-45.5 -13.5q-14 -3 -30.5 -7t-26.5 2q-5 3 -3 7t7 8.5t11.5 8.5t10.5 6q42 17 85 29.5t88 22.5q0 1 2 1q14 2 26.5 2.5t23.5 -12.5q11 -14 11 -29t-7 -29t-15 -27.5l-16 -26.5
l-54 -82l-54 -81q-5 -6 -7 -11q18 -7 31 -13t23 -18t17 -33t14 -57l34 35.5l34 34.5q11 11 21.5 20.5t22.5 18.5q17 14 29.5 15.5t33.5 -8.5zM51 -307q4 -3 10 4t13.5 19.5t15 30l15.5 36.5q18 43 36 101q-32 -50 -54 -90q-10 -17 -18.5 -34t-14 -31t-7 -23.5t3.5 -12.5z
M168.608 560.455l58.873 73.6104q4.90527 5.6084 10.1621 5.95898t15.0684 -3.15527q11.915 -5.6084 9.11133 -17.5254q-2.10254 -11.918 -7.3584 -22.4336q-5.25684 -10.5166 -12.2656 -20.3311q-7.70898 -10.5156 -14.0176 -21.0312l-12.6152 -21.7324
q-4.20508 -7.71191 -8.05957 -12.9697q-3.85547 -5.25781 -9.11133 -8.41211q-5.25684 -3.15527 -12.6162 -4.20703q-7.3584 -1.05078 -19.2734 -0.350586q-14.0176 0.701172 -24.5303 9.81543q-10.5127 9.11328 -14.0176 23.1348q-4.20508 14.0205 -8.76074 27.6914
q-4.55566 13.6699 -8.05957 27.6914q-1.40234 6.30859 -2.45312 12.6182q-1.05176 6.30957 1.75195 14.0215q2.80371 7.01074 6.30762 11.5674t11.2139 4.55664q14.7178 0 20.3252 -15.4229q3.50391 -9.81543 6.6582 -20.3311t6.6582 -20.3301
q1.40137 -5.6084 3.50391 -11.2168q2.10352 -5.6084 3.50488 -11.2168z" />
    <glyph glyph-name="scaron" unicode="&#x161;" horiz-adv-x="270" 
d="M107 376q-2 37 8 71t34 81q7 14 16 25t24 18q5 2 9.5 4.5t9.5 -1.5q7 -5 10.5 -13.5t1.5 -15.5q-2 -5 -4 -8.5t-4 -7.5q-29 -45 -38 -94t0 -102q1 -3 2 -6.5t3 -8.5l24 16l23 16q46 34 102 48q2 1 4 1t4 1q8 0 11.5 -5t-1.5 -13q-2 -5 -6 -7q-22 -23 -46.5 -42.5
l-50.5 -38.5l-20 -13.5t-20 -14.5q-9 -6 -5 -18q13 -36 24 -72q17 -55 19 -108.5t-24 -107.5q-17 -32 -40.5 -56.5t-58.5 -37.5q-38 -14 -77 -7.5t-69 38.5q-15 16 -16 35q-2 18 -2.5 36t3.5 36q11 53 32.5 100t57.5 88l22 25.5l22 25.5q5 5 10 9.5t10 9.5q3 3 6 7.5t2 7.5
q-7 25 -9 49.5t-3 49.5zM169 64q2 23 -3 44l-10 42l-8 27.5l-9 29.5l-28 -29t-24 -29q-23 -30 -41 -62.5t-26 -69.5q-4 -16 -7.5 -31.5t0.5 -32.5q2 -14 10.5 -23t21.5 -10q19 -2 36 1.5t33 16.5q31 24 42 56.5t13 69.5zM220.702 669.146l56.248 70.3613
q4.68652 5.36035 9.70898 5.69531t14.3965 -3.01562q11.3838 -5.36035 8.70508 -16.752q-2.00879 -11.3916 -7.03027 -21.4434q-5.02246 -10.0518 -11.7188 -19.4336q-7.36523 -10.0518 -13.3926 -20.1025l-12.0527 -20.7734q-4.01758 -7.37109 -7.7002 -12.3975
q-3.68359 -5.02539 -8.70508 -8.04102q-5.02246 -3.01562 -12.0537 -4.02051q-7.03027 -1.00488 -18.4141 -0.334961q-13.3926 0.669922 -23.4365 9.38184q-10.0439 8.71094 -13.3926 22.1133q-4.01758 13.4023 -8.37012 26.4688q-4.35254 13.0674 -7.7002 26.4697
q-1.33984 6.03027 -2.34375 12.0615q-1.00488 6.03125 1.67383 13.4023q2.67871 6.70117 6.02637 11.0566t10.7139 4.35547q14.0615 0 19.4189 -14.7422q3.34766 -9.38184 6.36133 -19.4336q3.01367 -10.0508 6.36133 -19.4326q1.33887 -5.36035 3.34766 -10.7217
q2.00977 -5.36133 3.34863 -10.7217z" />
    <glyph glyph-name="Scaron" unicode="&#x160;" horiz-adv-x="448" 
d="M361 625q4 -11 6 -23l4 -24q1 -5 1.5 -10t-1.5 -9q-4 -6 -9 -12t-11 -8q-4 -2 -11 2.5t-9 9.5q-6 10 -11 21.5t-7 22.5q-6 32 -22 59.5t-36 53.5q-12 16 -30 23.5t-39 6.5q-11 -1 -18.5 -7t-12.5 -15q-25 -47 -25 -102q2 -37 6 -72.5t18 -70.5q9 -23 16 -46.5t18 -46.5
q14 -29 29 -56t32 -54l33 -56.5t36 -53.5q16 -21 22.5 -44.5t14.5 -46.5t12 -50t-6 -50q-13 -30 -32 -57t-54 -38q-5 -2 -10 -2h-10q-28 3 -54 10t-49 24q-42 31 -78.5 65t-63.5 78q-7 13 -10 27.5t-7 28.5q-1 3 2 7.5t6 6.5q2 1 7 -1t8 -4q5 -5 9.5 -10.5t8.5 -11.5
q26 -50 64.5 -86t85.5 -65q11 -6 23.5 -8.5t25.5 -5.5q8 -2 12.5 2.5t5.5 12.5q1 14 0.5 28t-6.5 29q-10 25 -21.5 48.5t-24.5 46.5q-8 14 -18 27t-15 28q-5 14 -12.5 26.5t-14.5 25.5q-2 5 -5 9t-5 9q-9 21 -17 42.5t-19 41.5q-20 42 -31.5 85t-19.5 88q-4 23 -3 46.5
t1 46.5q0 9 0.5 18t0.5 18q2 35 13 66t26 62q14 27 37 43.5t49.5 21.5t54 -1.5t51.5 -23.5q38 -27 56.5 -65.5t32.5 -80.5zM216.798 901.854l69.752 87.1387q5.81348 6.63965 12.041 7.05469t17.8535 -3.73438q14.1162 -6.63965 10.7949 -20.748
q-2.49121 -14.1084 -8.71973 -26.5566q-6.22754 -12.4482 -14.5312 -24.0664q-9.13477 -12.4482 -16.6074 -24.8975l-14.9473 -25.7266q-4.98242 -9.12891 -9.5498 -15.3525q-4.56641 -6.22461 -10.7949 -9.95898q-6.22754 -3.73438 -14.9463 -4.97949
q-8.71973 -1.24512 -22.8359 -0.415039q-16.6074 0.830078 -29.0635 11.6182q-12.4561 10.7891 -16.6074 27.3867q-4.98242 16.5977 -10.3799 32.7812q-5.39746 16.1826 -9.5498 32.7803q-1.66016 7.46973 -2.90625 14.9385q-1.24512 7.46875 2.07617 16.5977
q3.32129 8.29883 7.47363 13.6934t13.2861 5.39453q17.4385 0 24.0811 -18.2578q4.15234 -11.6182 7.88867 -24.0664q3.73633 -12.4492 7.88867 -24.0674q1.66113 -6.63965 4.15234 -13.2783q2.49023 -6.63867 4.15137 -13.2783z" />
    <glyph glyph-name="Ydieresis" horiz-adv-x="316" 
d="M423 763q9 -8 10.5 -17.5t-2.5 -20.5l-18 -40l-18 -40l-33.5 -81l-32.5 -82l-31 -81.5l-29 -81.5l-47.5 -141l-48.5 -140q-21 -59 -47 -118q-6 -13 -14.5 -24t-18.5 -22q-11 -11 -23 -8.5t-19 16.5q-14 25 -9 57q10 60 24 118t31 116l3.5 8.5t3.5 7.5q7 17 7.5 32.5
t-7.5 33.5l-38.5 94t-32.5 95q-17 55 -26 111.5t-11 114.5l-2 28t0 28q0 8 2.5 16.5t6.5 15.5q7 11 16 9.5t14 -13.5q3 -6 3 -15q5 -67 15.5 -132.5t27.5 -130.5q24 -91 62 -182q5 10 7.5 17.5t6.5 14.5l62 129.5l63 128.5l32.5 60.5l33.5 59.5q7 11 15.5 22l16.5 22
q4 7 11 9q8 4 16.5 9t17.5 -3zM255 811q3 10 5.5 22t13.5 22q7 5 12 16q4 8 13 12t18.5 4t18.5 -5t15 -16q7 -12 6 -29t-8.5 -33.5t-21 -29t-31.5 -14.5q-16 -2 -28 12.5t-13 38.5zM177 894q7 -3 9.5 -14t7.5 -21l-7 -14t-7 -12q-7 -10 -13.5 -20.5t-15.5 -18.5
q-12 -12 -27.5 -8.5t-25.5 17.5q-8 13 -10 27.5t1.5 28t12 24.5t21.5 18q16 9 29 4t25 -11z" />
    <glyph glyph-name="space" unicode=" " horiz-adv-x="313" 
 />
  </font>
</defs>
</svg>
