<svg xmlns="http://www.w3.org/2000/svg" width="45.412" height="45.412" viewBox="0 0 45.412 45.412">
  <g id="email_icon" data-name="email icon" transform="translate(0.75 0.75)">
    <path id="Pfad_17" data-name="Pfad 17" d="M448.645,172.416h0a21.955,21.955,0,0,1-21.955-21.955h0a21.955,21.955,0,0,1,21.955-21.956h0A21.956,21.956,0,0,1,470.6,150.461h0A21.956,21.956,0,0,1,448.645,172.416Z" transform="translate(-426.69 -128.505)" fill="none" stroke="#fff" stroke-miterlimit="10" stroke-width="1.5"/>
    <path id="Mail_2_Outlined" data-name="Mail 2 Outlined" d="M116.1,36.82H99.721A3.732,3.732,0,0,0,96,40.541v9.675a3.732,3.732,0,0,0,3.721,3.721H116.1a3.732,3.732,0,0,0,3.721-3.721V40.541A3.732,3.732,0,0,0,116.1,36.82ZM99.721,38.309H116.1a2.2,2.2,0,0,1,.8.156l-9.183,7.769-9.044-7.652A2.2,2.2,0,0,1,99.721,38.309ZM97.489,50.217V40.541a2.224,2.224,0,0,1,.174-.863l6.254,5.292-6.2,6.2A2.21,2.21,0,0,1,97.489,50.217ZM116.1,52.45H99.721a2.206,2.206,0,0,1-.956-.223l6.292-6.292,2.178,1.844a.746.746,0,0,0,.962,0l2.388-2.021,6.544,6.427A2.2,2.2,0,0,1,116.1,52.45Zm2.233-2.233a2.222,2.222,0,0,1-.182.88l-6.419-6.306,6.145-5.2a.731.731,0,0,0,.139-.176,2.211,2.211,0,0,1,.316,1.127Z" transform="translate(-85.58 -23.446)" fill="#fff"/>
  </g>
</svg>
