<svg xmlns="http://www.w3.org/2000/svg" width="138.498" height="125" viewBox="0 0 138.498 125">
  <defs>
    <style>
      .cls-1 {
        fill: #ff6f61;
      }
    </style>
  </defs>
  <g id="Gruppe_56" data-name="Gruppe 56" transform="translate(-248.634 -52.184)">
    <g id="Gruppe_54" data-name="Gruppe 54" transform="translate(248.634 52.184)">
      <path id="Pfad_46" data-name="Pfad 46" class="cls-1" d="M387.132,97.334a9.383,9.383,0,1,0-18.148,3.283l-6.251,3.611-4.86-17.4a9.4,9.4,0,1,0-11.7-2.82l-8.793,10.845L323.915,68.706a9.389,9.389,0,1,0-12.063,0L298.4,94.836,289.6,84a9.387,9.387,0,1,0-11.692,2.844l-4.86,17.393-6.264-3.617a9.376,9.376,0,1,0-10.307,5.954l15.606,56.589a7.245,7.245,0,0,0,2.578,14.024H361.1a7.245,7.245,0,0,0,2.578-14.024l15.613-56.589A9.389,9.389,0,0,0,387.132,97.334Zm-9.38-5.194a5.191,5.191,0,1,1-5.194,5.194A5.2,5.2,0,0,1,377.752,92.14Zm-24.04-18.865a5.191,5.191,0,1,1-5.194,5.188A5.191,5.191,0,0,1,353.711,73.275ZM349.365,86.73a9.235,9.235,0,0,0,4.347,1.125l.087-.012,5.182,18.55-12.064,6.975-7.438-14.438ZM317.88,56.376a5.194,5.194,0,1,1-5.188,5.194A5.2,5.2,0,0,1,317.88,56.376ZM276.866,78.463a5.191,5.191,0,1,1,5.194,5.194A5.2,5.2,0,0,1,276.866,78.463Zm5.114,9.38.08.012a9.284,9.284,0,0,0,4.359-1.125l9.875,12.187-7.438,14.45L276.8,106.4Zm-29.148,9.491a5.188,5.188,0,1,1,5.188,5.188A5.2,5.2,0,0,1,252.832,97.334Zm111.335,72.6a3.069,3.069,0,0,1-3.067,3.061H274.665a3.064,3.064,0,1,1,0-6.128H361.1A3.066,3.066,0,0,1,364.167,169.931Zm-4.705-7.259H276.3l-15.551-56.4a9.3,9.3,0,0,0,3.716-2.152L288.664,118.1a2.082,2.082,0,0,0,1.639.2,2.113,2.113,0,0,0,1.274-1.051l24-46.615a9.1,9.1,0,0,0,2.3.328,9.2,9.2,0,0,0,2.313-.328l24,46.615a2.1,2.1,0,0,0,2.919.853L371.3,104.117a9.306,9.306,0,0,0,3.716,2.152Z" transform="translate(-248.634 -52.184)"/>
    </g>
    <g id="Gruppe_55" data-name="Gruppe 55" transform="translate(302.775 119.733)">
      <path id="Pfad_47" data-name="Pfad 47" class="cls-1" d="M278.905,63.516a1.981,1.981,0,0,0-1.413-.583H267.256a1.99,1.99,0,0,0-1.413.583L257.856,71.5a1.972,1.972,0,0,0-.589,1.413V83.159a1.972,1.972,0,0,0,.589,1.413l7.988,7.988a1.991,1.991,0,0,0,1.413.583h10.237a1.981,1.981,0,0,0,1.413-.583l7.994-7.988a1.991,1.991,0,0,0,.583-1.413V72.916A1.991,1.991,0,0,0,286.9,71.5Zm4.58,18.813-6.817,6.822h-8.582l-6.822-6.822V73.746l6.822-6.822h8.582l6.817,6.822Z" transform="translate(-257.267 -62.933)"/>
    </g>
  </g>
</svg>
