<svg xmlns="http://www.w3.org/2000/svg" width="120.5" height="120.5" viewBox="0 0 120.5 120.5">
  <defs>
    <style>
      .cls-1 {
        fill: #ff6f61;
      }
    </style>
  </defs>
  <g id="Gruppe_36" data-name="Gruppe 36" transform="translate(-47.161 -18.41)">
    <g id="Gruppe_33" data-name="Gruppe 33" transform="translate(47.161 18.41)">
      <path id="Pfad_28" data-name="Pfad 28" class="cls-1" d="M167.107,42.71,143.362,18.965a1.806,1.806,0,0,0-1.276-.555H72.737a1.806,1.806,0,0,0-1.276.555L47.716,42.71a1.534,1.534,0,0,0-.555,1.276v69.349a1.8,1.8,0,0,0,.555,1.332l23.745,23.689a1.807,1.807,0,0,0,1.276.555h69.349a1.807,1.807,0,0,0,1.276-.555l23.745-23.689a2.047,2.047,0,0,0,.555-1.332V43.986A1.71,1.71,0,0,0,167.107,42.71ZM164,112.558l-22.691,22.691H73.458L50.823,112.558v-67.8L73.458,22.127h67.851L164,44.762Z" transform="translate(-47.161 -18.41)"/>
    </g>
    <g id="Gruppe_34" data-name="Gruppe 34" transform="translate(100.088 51.697)">
      <path id="Pfad_29" data-name="Pfad 29" class="cls-1" d="M53.608,20.841V38.927a7.267,7.267,0,0,0,1.831,14.314,7.293,7.293,0,0,0,7.268-7.268,6.926,6.926,0,0,0-.943-3.551l18.7-18.031a1.825,1.825,0,0,0,0-2.552,1.775,1.775,0,0,0-2.552,0L59.266,39.759a6.944,6.944,0,0,0-2-.832V20.841a1.831,1.831,0,1,0-3.661,0ZM59.1,45.973a3.662,3.662,0,0,1-7.323,0,3.662,3.662,0,0,1,7.323,0Z" transform="translate(-48.115 -19.01)"/>
    </g>
    <g id="Gruppe_35" data-name="Gruppe 35" transform="translate(58.146 29.339)">
      <path id="Pfad_30" data-name="Pfad 30" class="cls-1" d="M47.359,67.928A49.265,49.265,0,1,0,96.624,18.607,49.331,49.331,0,0,0,47.359,67.928Zm51.1-39.945V22.324a44.721,44.721,0,0,1,19.362,5.215l-2.829,4.882a1.85,1.85,0,0,0,.666,2.5,1.895,1.895,0,0,0,2.5-.666l2.829-4.882a45.084,45.084,0,0,1,14.2,14.2L130.3,46.347a1.833,1.833,0,0,0,.887,3.44,1.629,1.629,0,0,0,.888-.222l4.938-2.885A45.966,45.966,0,0,1,142.228,66.1h-5.714a1.8,1.8,0,0,0-1.776,1.831,1.753,1.753,0,0,0,1.776,1.775h5.714a45.748,45.748,0,0,1-5.215,19.418l-4.938-2.829a1.84,1.84,0,0,0-2.5.666,1.9,1.9,0,0,0,.721,2.5l4.882,2.829a45.489,45.489,0,0,1-14.2,14.147L118.15,101.6a1.77,1.77,0,0,0-2.5-.666,1.8,1.8,0,0,0-.666,2.441l2.829,4.938a45.455,45.455,0,0,1-19.362,5.159v-5.659a1.832,1.832,0,0,0-3.661,0v5.659a45.455,45.455,0,0,1-19.362-5.159l2.829-4.938a1.8,1.8,0,0,0-.666-2.441,1.77,1.77,0,0,0-2.5.666l-2.83,4.827a45.49,45.49,0,0,1-14.2-14.147l4.882-2.829a1.781,1.781,0,0,0,.666-2.5,1.815,1.815,0,0,0-2.5-.666l-4.882,2.829A44.961,44.961,0,0,1,51.021,69.7h5.714a1.753,1.753,0,0,0,1.776-1.775A1.8,1.8,0,0,0,56.735,66.1H51.021a45.171,45.171,0,0,1,5.215-19.417l4.882,2.885a2.116,2.116,0,0,0,.943.222,1.851,1.851,0,0,0,.888-3.44l-4.882-2.774a45.085,45.085,0,0,1,14.2-14.2l2.83,4.882a1.839,1.839,0,0,0,1.553.888,1.96,1.96,0,0,0,.943-.222,1.851,1.851,0,0,0,.666-2.5l-2.829-4.882a44.721,44.721,0,0,1,19.362-5.215v5.659a1.831,1.831,0,1,0,3.661,0Z" transform="translate(-47.359 -18.607)"/>
    </g>
  </g>
</svg>
