<svg xmlns="http://www.w3.org/2000/svg" width="107.114" height="125" viewBox="0 0 107.114 125">
  <defs>
    <style>
      .cls-1 {
        fill: #ff6f61;
      }
    </style>
  </defs>
  <g id="Gruppe_158" data-name="Gruppe 158" transform="translate(-140.355 -351.843)">
    <path id="Pfad_142" data-name="Pfad 142" class="cls-1" d="M235.275,432.008a81.317,81.317,0,0,0-8.907-3.644,56.088,56.088,0,0,0,8.265-29.181c0-25.665-18.65-47.34-40.716-47.34s-40.727,21.675-40.727,47.34a56.359,56.359,0,0,0,8.2,29.2,84.145,84.145,0,0,0-8.834,3.622,21.953,21.953,0,0,0-12.2,19.716v9.933a1.89,1.89,0,0,0,.659,1.429c.642.558,16.284,13.756,52.9,13.756h.011c36.609,0,52.246-13.2,52.9-13.756a1.9,1.9,0,0,0,.647-1.429v-9.933A21.958,21.958,0,0,0,235.275,432.008Zm-41.358-76.376c20.018,0,36.932,19.945,36.932,43.551a52.172,52.172,0,0,1-8.3,27.931c-1.311-.4-2.511-.737-3.666-1.032h0l-.056-.017h0c-2.126-.547-4.292-.971-6.468-1.362a15.921,15.921,0,0,1-4.23-8.215A32.238,32.238,0,0,0,217.8,401.1a4.7,4.7,0,0,0,2.561-1.116,10.472,10.472,0,0,0,3.192-7.087c.407-4.57-1.35-8.315-4.174-9.152-.011-1.072-.034-2.243-.056-2.751a1.9,1.9,0,0,0-2.2-1.786c-14.387,2.427-23.059-5.882-23.416-6.228a1.865,1.865,0,0,0-1.334-.552c-12.869,0-22.808,7.673-23.461,8.5a1.885,1.885,0,0,0-.407,1.133c-.011.251-.011.96-.017,1.68-2.818.837-4.582,4.587-4.174,9.152a10.494,10.494,0,0,0,3.187,7.087,4.745,4.745,0,0,0,2.573,1.116,32.285,32.285,0,0,0,9.593,15.33,15.9,15.9,0,0,1-4.225,8.282c-2.165.379-4.319.815-6.434,1.356h0l-.061.017c-1.172.3-2.383.642-3.711,1.049a52.335,52.335,0,0,1-8.254-27.948C156.98,375.577,173.894,355.632,193.918,355.632Zm-18.734,72.944c2.126,4.487,10.079,7.785,14.934,9.426l-8.025,6.992-.48-.3-.151-.111-.4-.274c-.067-.05-.139-.106-.212-.151-.134-.106-.262-.2-.4-.307-.084-.067-.162-.139-.245-.206-.134-.106-.273-.223-.419-.346-.089-.073-.179-.167-.274-.24-.139-.134-.285-.262-.43-.4-.1-.089-.2-.19-.3-.285-.145-.145-.29-.29-.435-.447-.1-.106-.212-.223-.318-.34-.145-.156-.29-.318-.441-.491-.106-.123-.218-.257-.329-.385-.145-.184-.29-.363-.435-.553-.112-.139-.223-.29-.335-.441q-.218-.293-.435-.6c-.112-.162-.223-.329-.335-.491-.145-.218-.285-.441-.424-.67-.112-.184-.223-.363-.329-.552-.145-.234-.279-.48-.419-.731-.106-.2-.218-.391-.318-.6-.139-.262-.262-.53-.4-.809-.1-.212-.207-.43-.307-.653-.128-.285-.251-.592-.374-.887-.095-.229-.19-.458-.279-.692-.123-.318-.24-.653-.352-.988-.084-.245-.179-.485-.262-.742-.112-.346-.212-.714-.318-1.083-.073-.256-.151-.508-.218-.776l-.034-.14C172.845,429.028,174.012,428.794,175.184,428.576Zm29.187-13.924a17.428,17.428,0,0,1-20.883-.011c-4.833-3.51-8.455-9.236-10.2-16.111a2,2,0,0,0-1.1-1.233,1.954,1.954,0,0,0-.8-.167,2.166,2.166,0,0,0-.887.19.867.867,0,0,1-.586-.262,6.939,6.939,0,0,1-1.825-4.492c-.274-3.053.871-5.14,1.719-5.168a1.908,1.908,0,0,0,1.691-.29,1.881,1.881,0,0,0,.765-1.523c0-.374.006-1.646.017-2.556,2.048-1.507,9.649-6.563,19.376-6.808a31.72,31.72,0,0,0,23.941,7.02c.005.932.011,1.881.011,2.344a1.942,1.942,0,0,0,.859,1.512,2.066,2.066,0,0,0,1.769.262c.692.084,1.825,2.165,1.551,5.207a6.939,6.939,0,0,1-1.825,4.492.884.884,0,0,1-.72.229,1.9,1.9,0,0,0-2.662,1.245C212.83,405.406,209.2,411.137,204.37,414.653Zm-21.391,4.185a20.71,20.71,0,0,0,21.826.045,19.326,19.326,0,0,0,4.476,8.092c-1.133,2.841-9.186,6.457-15.363,8.265-6.2-1.808-14.27-5.441-15.375-8.281A19.356,19.356,0,0,0,182.98,418.838Zm29.661,9.76c1.166.223,2.344.43,3.5.7l-.033.14c-.073.268-.151.525-.229.781-.1.363-.206.737-.318,1.077-.084.262-.167.508-.257.753-.117.329-.229.658-.346.977-.095.234-.19.469-.29.7-.117.29-.24.592-.368.882-.1.223-.206.435-.307.653-.134.274-.262.547-.4.809-.106.206-.212.4-.324.6-.134.24-.268.491-.413.731-.106.184-.218.363-.329.547-.139.229-.285.452-.424.664l-.335.5c-.145.2-.29.4-.435.6-.112.151-.229.3-.34.441-.139.19-.285.368-.435.547-.112.134-.218.268-.329.4-.145.162-.29.324-.435.48l-.324.346c-.145.156-.285.3-.43.441-.1.095-.2.2-.307.29-.134.14-.273.262-.413.391-.095.078-.2.173-.285.257l-.407.329-.257.212c-.139.112-.268.207-.4.307l-.212.151c-.14.106-.274.2-.407.285l-.145.1c-.167.106-.329.212-.474.3L197.712,438C202.562,436.367,210.5,433.069,212.641,428.6ZM170.9,437.84c.162.318.324.614.491.91.19.352.385.686.586,1.01.167.279.34.541.508.809.206.307.407.6.614.887.173.246.34.485.519.714.207.274.413.536.619.781.173.218.346.43.519.625.212.24.413.463.614.681.173.19.34.368.513.541.2.206.4.4.6.591l.48.452c.2.179.4.34.592.5.145.128.29.257.435.368.2.156.374.3.558.43.134.1.268.2.391.29.179.128.346.246.513.352a3.6,3.6,0,0,0,.324.212c.167.117.313.2.463.29l.245.151c.156.084.285.156.4.223.056.022.112.061.162.084a2.349,2.349,0,0,0,.324.156l.056.033c.095.045.162.073.19.089a1.779,1.779,0,0,0,.653.123l.078.017c.039,0,.078-.017.112-.017a1.823,1.823,0,0,0,.424-.073,1.727,1.727,0,0,0,.179-.056,1.844,1.844,0,0,0,.53-.318l10.319-8.979,10.313,8.979a1.9,1.9,0,0,0,1.976.323c.028-.017.089-.045.19-.089l.078-.039c.084-.039.179-.084.307-.151l.173-.089c.117-.067.24-.14.385-.218l.251-.156c.151-.089.3-.173.452-.279a3.972,3.972,0,0,0,.34-.223c.162-.106.324-.218.508-.341.123-.095.257-.2.391-.3.179-.14.357-.274.553-.424l.446-.379c.19-.162.38-.318.575-.491.162-.156.324-.307.491-.463.2-.2.4-.38.6-.586.173-.173.346-.352.519-.547.2-.218.4-.435.6-.67.179-.2.357-.419.53-.636.206-.246.407-.5.608-.77.179-.234.357-.48.536-.726.2-.284.4-.575.6-.876.173-.268.346-.541.525-.826.19-.318.385-.642.569-.988.162-.285.318-.569.474-.871-.631,10.369-4.766,26.486-22.987,34.957-18.561-8.622-22.574-24.806-23.087-35.141Zm-26.759,13.885a18.148,18.148,0,0,1,10.062-16.307,80.452,80.452,0,0,1,10.525-4.163c.887-.284,1.7-.53,2.489-.764-.614,7.818-.368,29.566,18.868,42.323-25.8-1.484-38.981-9.928-41.944-12.088Zm99.541,9.007c-2.947,2.165-16.039,10.6-41.944,12.082,19.242-12.757,19.482-34.5,18.868-42.323.8.24,1.618.486,2.528.776a80.638,80.638,0,0,1,10.486,4.152h0a18.148,18.148,0,0,1,10.062,16.307Z" transform="translate(0 0)"/>
  </g>
</svg>
