<svg xmlns="http://www.w3.org/2000/svg" width="114.03" height="146.552" viewBox="0 0 114.03 146.552">
  <defs>
    <style>
      .cls-1 {
        fill: #ff6f61;
      }
    </style>
  </defs>
  <g id="Gruppe_53" data-name="Gruppe 53" transform="translate(-81.208 -47.224)">
    <g id="Gruppe_40" data-name="Gruppe 40" transform="translate(81.208 47.224)">
      <path id="Pfad_33" data-name="Pfad 33" class="cls-1" d="M184.105,62.743H162.649V60.584a6.71,6.71,0,0,0-6.68-6.748H146.86a9.047,9.047,0,0,0-8.637-6.612,8.846,8.846,0,0,0-8.569,6.612h-9.177a6.71,6.71,0,0,0-6.68,6.748v2.159H92.274A11.13,11.13,0,0,0,81.208,73.876V182.643a11.174,11.174,0,0,0,11.066,11.133h91.831a11.188,11.188,0,0,0,11.133-11.133V73.876A11.144,11.144,0,0,0,184.105,62.743Zm-65.854-2.159a2.2,2.2,0,0,1,2.226-2.227h11.066a2.26,2.26,0,0,0,2.227-2.294,4.454,4.454,0,0,1,8.907,0,2.26,2.26,0,0,0,2.227,2.294h11.065a2.163,2.163,0,0,1,2.227,2.227v8.839a2.2,2.2,0,0,1-2.227,2.226H120.477a2.246,2.246,0,0,1-2.226-2.226Zm72.534,122.059a6.7,6.7,0,0,1-6.68,6.68H92.274a6.681,6.681,0,0,1-6.612-6.68V73.876a6.638,6.638,0,0,1,6.612-6.68H113.8v2.227a6.7,6.7,0,0,0,6.68,6.68h35.491a6.7,6.7,0,0,0,6.68-6.68V67.2h21.456a6.652,6.652,0,0,1,6.68,6.68Z" transform="translate(-81.208 -47.224)"/>
    </g>
    <g id="Gruppe_41" data-name="Gruppe 41" transform="translate(97.334 117.734)">
      <path id="Pfad_34" data-name="Pfad 34" class="cls-1" d="M89.274,48.269a7.76,7.76,0,1,0,7.692,7.759A7.775,7.775,0,0,0,89.274,48.269Zm0,11.133A3.384,3.384,0,0,1,85.9,56.028,3.34,3.34,0,1,1,89.274,59.4Z" transform="translate(-81.447 -48.269)"/>
    </g>
    <g id="Gruppe_42" data-name="Gruppe 42" transform="translate(97.334 139.932)">
      <path id="Pfad_35" data-name="Pfad 35" class="cls-1" d="M89.274,48.6a7.76,7.76,0,1,0,7.692,7.759A7.775,7.775,0,0,0,89.274,48.6Zm0,11.066a3.306,3.306,0,1,1,3.306-3.306A3.327,3.327,0,0,1,89.274,59.664Z" transform="translate(-81.447 -48.598)"/>
    </g>
    <g id="Gruppe_43" data-name="Gruppe 43" transform="translate(97.334 162.131)">
      <path id="Pfad_36" data-name="Pfad 36" class="cls-1" d="M89.274,48.927a7.76,7.76,0,1,0,7.692,7.759A7.818,7.818,0,0,0,89.274,48.927Zm0,11.065A3.327,3.327,0,0,1,85.9,56.687a3.34,3.34,0,1,1,6.68,0A3.312,3.312,0,0,1,89.274,59.993Z" transform="translate(-81.447 -48.927)"/>
    </g>
    <g id="Gruppe_44" data-name="Gruppe 44" transform="translate(120.478 123.334)">
      <path id="Pfad_37" data-name="Pfad 37" class="cls-1" d="M84.017,52.738h12.01a2.246,2.246,0,0,0,2.226-2.227,2.147,2.147,0,0,0-2.226-2.159H84.017a2.109,2.109,0,0,0-2.227,2.159A2.2,2.2,0,0,0,84.017,52.738Z" transform="translate(-81.79 -48.352)"/>
    </g>
    <g id="Gruppe_45" data-name="Gruppe 45" transform="translate(144.903 123.334)">
      <path id="Pfad_38" data-name="Pfad 38" class="cls-1" d="M114.134,48.352H84.379a2.109,2.109,0,0,0-2.226,2.159,2.2,2.2,0,0,0,2.226,2.227h29.756a2.246,2.246,0,0,0,2.227-2.227A2.147,2.147,0,0,0,114.134,48.352Z" transform="translate(-82.152 -48.352)"/>
    </g>
    <g id="Gruppe_46" data-name="Gruppe 46" transform="translate(120.478 145.465)">
      <path id="Pfad_39" data-name="Pfad 39" class="cls-1" d="M84.017,53.133h34.209a2.227,2.227,0,0,0,0-4.453H84.017a2.227,2.227,0,1,0,0,4.453Z" transform="translate(-81.79 -48.68)"/>
    </g>
    <g id="Gruppe_47" data-name="Gruppe 47" transform="translate(151.583 167.664)">
      <path id="Pfad_40" data-name="Pfad 40" class="cls-1" d="M98.648,49.009H84.41a2.148,2.148,0,0,0-2.159,2.227,2.189,2.189,0,0,0,2.159,2.227H98.648a2.246,2.246,0,0,0,2.227-2.227A2.2,2.2,0,0,0,98.648,49.009Z" transform="translate(-82.251 -49.009)"/>
    </g>
    <g id="Gruppe_48" data-name="Gruppe 48" transform="translate(120.478 167.664)">
      <path id="Pfad_41" data-name="Pfad 41" class="cls-1" d="M102.639,49.009H84.017a2.163,2.163,0,0,0-2.227,2.227,2.2,2.2,0,0,0,2.227,2.227h18.623a2.2,2.2,0,0,0,2.227-2.227A2.163,2.163,0,0,0,102.639,49.009Z" transform="translate(-81.79 -49.009)"/>
    </g>
    <g id="Gruppe_49" data-name="Gruppe 49" transform="translate(121.557 80.893)">
      <path id="Pfad_42" data-name="Pfad 42" class="cls-1" d="M98.472,81.055A16.666,16.666,0,1,0,81.806,64.389,16.746,16.746,0,0,0,98.472,81.055Zm0-28.878A12.179,12.179,0,1,1,86.26,64.389,12.209,12.209,0,0,1,98.472,52.176Z" transform="translate(-81.806 -47.723)"/>
    </g>
    <g id="Gruppe_50" data-name="Gruppe 50" transform="translate(129.924 89.192)">
      <path id="Pfad_43" data-name="Pfad 43" class="cls-1" d="M84.089,58.439H88v3.914a2.228,2.228,0,0,0,4.454,0V58.439h3.913a2.189,2.189,0,0,0,2.159-2.226,2.148,2.148,0,0,0-2.159-2.227H92.456V50.073a2.227,2.227,0,1,0-4.454,0v3.913H84.089a2.148,2.148,0,0,0-2.159,2.227A2.189,2.189,0,0,0,84.089,58.439Z" transform="translate(-81.93 -47.846)"/>
    </g>
    <g id="Gruppe_51" data-name="Gruppe 51" transform="translate(97.334 80.893)">
      <path id="Pfad_44" data-name="Pfad 44" class="cls-1" d="M100.137,47.723H83.674a2.2,2.2,0,0,0-2.227,2.227V76.534a2.228,2.228,0,1,0,4.453,0V52.176h14.237a2.293,2.293,0,0,0,2.227-2.227A2.2,2.2,0,0,0,100.137,47.723Z" transform="translate(-81.447 -47.723)"/>
    </g>
    <g id="Gruppe_52" data-name="Gruppe 52" transform="translate(158.195 80.893)">
      <path id="Pfad_45" data-name="Pfad 45" class="cls-1" d="M101.039,47.723H84.576a2.2,2.2,0,0,0-2.227,2.227,2.292,2.292,0,0,0,2.227,2.227H98.813V76.534a2.219,2.219,0,0,0,2.227,2.294,2.261,2.261,0,0,0,2.227-2.294V49.95A2.2,2.2,0,0,0,101.039,47.723Z" transform="translate(-82.349 -47.723)"/>
    </g>
  </g>
</svg>
