<svg xmlns="http://www.w3.org/2000/svg" width="126.006" height="126" viewBox="0 0 126.006 126">
  <defs>
    <style>
      .cls-1 {
        fill: #ff6f61;
      }
    </style>
  </defs>
  <g id="Gruppe_116" data-name="Gruppe 116" transform="translate(-681.737 -199.847)">
    <g id="Gruppe_58" data-name="Gruppe 58" transform="translate(681.737 199.847)">
      <path id="Pfad_49" data-name="Pfad 49" class="cls-1" d="M779.577,262.844l23.255-23.249a16.771,16.771,0,0,0,0-23.716L791.7,204.758a16.765,16.765,0,0,0-23.71,0L744.74,228.007l-23.255-23.249a16.785,16.785,0,0,0-23.71,0l-11.132,11.121a16.786,16.786,0,0,0,0,23.716L709.9,262.844,686.642,286.1a16.786,16.786,0,0,0,0,23.716l11.132,11.121a16.779,16.779,0,0,0,23.71,0l23.255-23.255,23.249,23.255a16.765,16.765,0,0,0,23.71,0l11.132-11.121a16.771,16.771,0,0,0,0-23.716ZM770.622,207.4a13.037,13.037,0,0,1,18.439,0l11.132,11.121a13.051,13.051,0,0,1,0,18.44l-23.249,23.255L747.372,230.64ZM718.852,318.3a13.063,13.063,0,0,1-18.445,0L689.28,307.177a13.037,13.037,0,0,1,0-18.44l23.249-23.255L742.1,295.049Zm81.341-11.127L789.061,318.3a13.061,13.061,0,0,1-18.439,0L689.28,236.957a13.037,13.037,0,0,1,0-18.44L700.407,207.4a13.044,13.044,0,0,1,18.445,0l81.341,81.341A13.051,13.051,0,0,1,800.193,307.177Z" transform="translate(-681.737 -199.847)"/>
    </g>
    <g id="Gruppe_59" data-name="Gruppe 59" transform="translate(717.737 254.421)">
      <path id="Pfad_50" data-name="Pfad 50" class="cls-1" d="M688.56,209.919a1.52,1.52,0,0,0-.458,1.086,1.572,1.572,0,0,0,.458,1.091,1.588,1.588,0,0,0,1.072.444,1.563,1.563,0,0,0,1.544-1.534,1.537,1.537,0,0,0-2.615-1.086Z" transform="translate(-688.102 -209.496)"/>
    </g>
    <g id="Gruppe_60" data-name="Gruppe 60" transform="translate(730.112 242.036)">
      <path id="Pfad_51" data-name="Pfad 51" class="cls-1" d="M690.737,207.753a1.536,1.536,0,0,0,0,2.167,1.511,1.511,0,0,0,2.158,0,1.529,1.529,0,0,0-2.158-2.167Z" transform="translate(-690.29 -207.306)"/>
    </g>
    <g id="Gruppe_61" data-name="Gruppe 61" transform="translate(723.931 248.212)">
      <path id="Pfad_52" data-name="Pfad 52" class="cls-1" d="M691.8,211a1.526,1.526,0,1,0-2.158,0,1.5,1.5,0,0,0,2.158,0Z" transform="translate(-689.197 -208.398)"/>
    </g>
    <g id="Gruppe_62" data-name="Gruppe 62" transform="translate(736.297 235.882)">
      <path id="Pfad_53" data-name="Pfad 53" class="cls-1" d="M692.9,209.257a1.575,1.575,0,0,0,1.086-.444,1.539,1.539,0,0,0,.444-1.086,1.485,1.485,0,0,0-.444-1.086,1.594,1.594,0,0,0-2.163,0,1.514,1.514,0,0,0-.439,1.086,1.507,1.507,0,0,0,1.515,1.53Z" transform="translate(-691.384 -206.218)"/>
    </g>
    <g id="Gruppe_63" data-name="Gruppe 63" transform="translate(709.813 246.501)">
      <path id="Pfad_54" data-name="Pfad 54" class="cls-1" d="M687.158,208.526a1.537,1.537,0,0,0,1.072,2.611,1.516,1.516,0,0,0,1.086-.462,1.458,1.458,0,0,0,.443-1.067,1.521,1.521,0,0,0-.443-1.081A1.57,1.57,0,0,0,687.158,208.526Z" transform="translate(-686.701 -208.096)"/>
    </g>
    <g id="Gruppe_64" data-name="Gruppe 64" transform="translate(722.189 234.106)">
      <path id="Pfad_55" data-name="Pfad 55" class="cls-1" d="M691.494,208.514a1.527,1.527,0,1,0-2.158,0,1.534,1.534,0,0,0,2.158,0Z" transform="translate(-688.889 -205.904)"/>
    </g>
    <g id="Gruppe_65" data-name="Gruppe 65" transform="translate(716.003 240.294)">
      <path id="Pfad_56" data-name="Pfad 56" class="cls-1" d="M690.4,209.6a1.52,1.52,0,0,0,0-2.153,1.529,1.529,0,1,0-1.086,2.615A1.482,1.482,0,0,0,690.4,209.6Z" transform="translate(-687.796 -206.998)"/>
    </g>
    <g id="Gruppe_66" data-name="Gruppe 66" transform="translate(728.353 227.954)">
      <path id="Pfad_57" data-name="Pfad 57" class="cls-1" d="M691.513,207.863a1.544,1.544,0,0,0,1.086-.467,1.471,1.471,0,0,0,.444-1.063,1.5,1.5,0,0,0-.444-1.091,1.579,1.579,0,0,0-2.158,0,1.512,1.512,0,0,0-.462,1.091,1.584,1.584,0,0,0,.462,1.086A1.563,1.563,0,0,0,691.513,207.863Z" transform="translate(-689.979 -204.817)"/>
    </g>
    <g id="Gruppe_67" data-name="Gruppe 67" transform="translate(698.201 238.569)">
      <path id="Pfad_58" data-name="Pfad 58" class="cls-1" d="M685.739,207.125a1.585,1.585,0,0,0-.439,1.09,1.533,1.533,0,0,0,2.616,1.063,1.471,1.471,0,0,0,.443-1.063,1.5,1.5,0,0,0-.443-1.09A1.588,1.588,0,0,0,685.739,207.125Z" transform="translate(-685.3 -206.694)"/>
    </g>
    <g id="Gruppe_68" data-name="Gruppe 68" transform="translate(714.245 226.188)">
      <path id="Pfad_59" data-name="Pfad 59" class="cls-1" d="M690.107,207.109a1.525,1.525,0,0,0,0-2.158,1.542,1.542,0,0,0-2.172,0,1.517,1.517,0,0,0,0,2.158,1.543,1.543,0,0,0,1.086.458A1.527,1.527,0,0,0,690.107,207.109Z" transform="translate(-687.485 -204.504)"/>
    </g>
    <g id="Gruppe_69" data-name="Gruppe 69" transform="translate(708.061 232.368)">
      <path id="Pfad_60" data-name="Pfad 60" class="cls-1" d="M689.015,208.2a1.531,1.531,0,0,0,0-2.163,1.557,1.557,0,0,0-2.177,0,1.525,1.525,0,0,0,1.091,2.606A1.486,1.486,0,0,0,689.015,208.2Z" transform="translate(-686.391 -205.597)"/>
    </g>
    <g id="Gruppe_70" data-name="Gruppe 70" transform="translate(720.434 216.334)">
      <path id="Pfad_61" data-name="Pfad 61" class="cls-1" d="M690.108,206.46a1.575,1.575,0,0,0,1.086-.457,1.534,1.534,0,0,0,0-2.158,1.587,1.587,0,0,0-2.172,0,1.534,1.534,0,0,0,0,2.158A1.564,1.564,0,0,0,690.108,206.46Z" transform="translate(-688.579 -203.415)"/>
    </g>
    <g id="Gruppe_71" data-name="Gruppe 71" transform="translate(691.722 230.643)">
      <path id="Pfad_62" data-name="Pfad 62" class="cls-1" d="M684.346,205.725a1.53,1.53,0,0,0-.448,1.072,1.58,1.58,0,0,0,.448,1.086,1.563,1.563,0,0,0,2.172,0,1.551,1.551,0,0,0,.448-1.086,1.527,1.527,0,0,0-.448-1.086A1.6,1.6,0,0,0,684.346,205.725Z" transform="translate(-683.898 -205.292)"/>
    </g>
    <g id="Gruppe_72" data-name="Gruppe 72" transform="translate(696.771 224.427)">
      <path id="Pfad_63" data-name="Pfad 63" class="cls-1" d="M687.613,206.813a1.562,1.562,0,1,0-1.086.439A1.5,1.5,0,0,0,687.613,206.813Z" transform="translate(-684.99 -204.193)"/>
    </g>
    <g id="Gruppe_73" data-name="Gruppe 73" transform="translate(706.325 214.89)">
      <path id="Pfad_64" data-name="Pfad 64" class="cls-1" d="M688.7,205.711a1.551,1.551,0,1,0-1.086.444A1.525,1.525,0,0,0,688.7,205.711Z" transform="translate(-686.084 -203.102)"/>
    </g>
    <g id="Gruppe_74" data-name="Gruppe 74" transform="translate(712.51 209.862)">
      <path id="Pfad_65" data-name="Pfad 65" class="cls-1" d="M688.707,205.043a1.52,1.52,0,0,0,1.086-.444,1.554,1.554,0,0,0,.444-1.086,1.583,1.583,0,0,0-.444-1.077,1.606,1.606,0,0,0-2.172,0,1.561,1.561,0,0,0-.444,1.077,1.515,1.515,0,0,0,1.53,1.529Z" transform="translate(-687.178 -202.014)"/>
    </g>
    <g id="Gruppe_75" data-name="Gruppe 75" transform="translate(773.911 312.819)">
      <path id="Pfad_66" data-name="Pfad 66" class="cls-1" d="M698.482,219.849a1.534,1.534,0,0,0,0,2.167,1.54,1.54,0,0,0,1.081.448,1.517,1.517,0,0,0,1.072-.448,1.539,1.539,0,0,0,.462-1.081,1.5,1.5,0,0,0-.462-1.086A1.582,1.582,0,0,0,698.482,219.849Z" transform="translate(-698.034 -219.426)"/>
    </g>
    <g id="Gruppe_76" data-name="Gruppe 76" transform="translate(780.086 307.745)">
      <path id="Pfad_67" data-name="Pfad 67" class="cls-1" d="M699.573,218.779a1.525,1.525,0,0,0,1.086,2.611,1.525,1.525,0,0,0,1.072-.439,1.542,1.542,0,0,0,0-2.172A1.517,1.517,0,0,0,699.573,218.779Z" transform="translate(-699.126 -218.328)"/>
    </g>
    <g id="Gruppe_77" data-name="Gruppe 77" transform="translate(789.64 298.193)">
      <path id="Pfad_68" data-name="Pfad 68" class="cls-1" d="M700.666,217.682a1.531,1.531,0,0,0,0,2.163,1.512,1.512,0,0,0,2.158,0,1.528,1.528,0,0,0-2.158-2.163Z" transform="translate(-700.219 -217.235)"/>
    </g>
    <g id="Gruppe_78" data-name="Gruppe 78" transform="translate(794.694 292.034)">
      <path id="Pfad_69" data-name="Pfad 69" class="cls-1" d="M701.757,216.573a1.547,1.547,0,0,0-.444,1.086,1.531,1.531,0,0,0,.444,1.086,1.522,1.522,0,0,0,2.158,0,1.548,1.548,0,0,0,.462-1.086,1.541,1.541,0,0,0-2.62-1.086Z" transform="translate(-701.313 -216.147)"/>
    </g>
    <g id="Gruppe_79" data-name="Gruppe 79" transform="translate(765.989 306.341)">
      <path id="Pfad_70" data-name="Pfad 70" class="cls-1" d="M697.073,218.447a1.507,1.507,0,0,0-.439,1.091,1.472,1.472,0,0,0,.439,1.072,1.491,1.491,0,0,0,1.086.462,1.547,1.547,0,0,0,1.516-1.534,1.534,1.534,0,0,0-.444-1.091A1.588,1.588,0,0,0,697.073,218.447Z" transform="translate(-696.634 -218.024)"/>
    </g>
    <g id="Gruppe_80" data-name="Gruppe 80" transform="translate(772.163 296.452)">
      <path id="Pfad_71" data-name="Pfad 71" class="cls-1" d="M700.33,219.528a1.524,1.524,0,1,0-2.158,0,1.48,1.48,0,0,0,2.158,0Z" transform="translate(-697.725 -216.927)"/>
    </g>
    <g id="Gruppe_81" data-name="Gruppe 81" transform="translate(778.346 290.27)">
      <path id="Pfad_72" data-name="Pfad 72" class="cls-1" d="M701.422,218.453a1.517,1.517,0,1,0-1.086.448A1.569,1.569,0,0,0,701.422,218.453Z" transform="translate(-698.819 -215.834)"/>
    </g>
    <g id="Gruppe_82" data-name="Gruppe 82" transform="translate(788.206 284.109)">
      <path id="Pfad_73" data-name="Pfad 73" class="cls-1" d="M702.524,217.348a1.557,1.557,0,0,0,.444-1.091,1.492,1.492,0,0,0-.444-1.086,1.6,1.6,0,0,0-2.172,0,1.539,1.539,0,0,0,.014,2.176,1.545,1.545,0,0,0,2.158,0Z" transform="translate(-699.909 -214.746)"/>
    </g>
    <g id="Gruppe_83" data-name="Gruppe 83" transform="translate(758.046 294.727)">
      <path id="Pfad_74" data-name="Pfad 74" class="cls-1" d="M695.673,217.053a1.584,1.584,0,0,0-.444,1.081,1.559,1.559,0,0,0,.458,1.077,1.5,1.5,0,0,0,1.076.457,1.55,1.55,0,0,0,1.081-.457,1.526,1.526,0,0,0,.444-1.077,1.505,1.505,0,0,0-.444-1.081A1.586,1.586,0,0,0,695.673,217.053Z" transform="translate(-695.229 -216.623)"/>
    </g>
    <g id="Gruppe_84" data-name="Gruppe 84" transform="translate(770.406 282.342)">
      <path id="Pfad_75" data-name="Pfad 75" class="cls-1" d="M700.033,217.041a1.507,1.507,0,1,0-1.086.462A1.506,1.506,0,0,0,700.033,217.041Z" transform="translate(-697.414 -214.432)"/>
    </g>
    <g id="Gruppe_85" data-name="Gruppe 85" transform="translate(764.224 288.527)">
      <path id="Pfad_76" data-name="Pfad 76" class="cls-1" d="M698.94,218.136a1.532,1.532,0,1,0-2.172,0,1.565,1.565,0,0,0,1.086.453A1.533,1.533,0,0,0,698.94,218.136Z" transform="translate(-696.321 -215.526)"/>
    </g>
    <g id="Gruppe_86" data-name="Gruppe 86" transform="translate(776.591 276.181)">
      <path id="Pfad_77" data-name="Pfad 77" class="cls-1" d="M700.038,216.395a1.554,1.554,0,0,0,1.529-1.534,1.5,1.5,0,0,0-.444-1.09,1.529,1.529,0,0,0-2.615,1.09,1.58,1.58,0,0,0,1.53,1.534Z" transform="translate(-698.508 -213.344)"/>
    </g>
    <g id="Gruppe_87" data-name="Gruppe 87" transform="translate(750.122 286.794)">
      <path id="Pfad_78" data-name="Pfad 78" class="cls-1" d="M694.272,215.657a1.522,1.522,0,0,0-.444,1.067,1.505,1.505,0,0,0,.457,1.086,1.47,1.47,0,0,0,1.072.448,1.529,1.529,0,0,0,1.091-2.6A1.574,1.574,0,0,0,694.272,215.657Z" transform="translate(-693.828 -215.221)"/>
    </g>
    <g id="Gruppe_88" data-name="Gruppe 88" transform="translate(762.482 274.423)">
      <path id="Pfad_79" data-name="Pfad 79" class="cls-1" d="M698.632,215.639a1.531,1.531,0,0,0,0-2.163,1.551,1.551,0,0,0-2.172,0,1.533,1.533,0,0,0,2.172,2.163Z" transform="translate(-696.013 -213.033)"/>
    </g>
    <g id="Gruppe_89" data-name="Gruppe 89" transform="translate(756.301 280.601)">
      <path id="Pfad_80" data-name="Pfad 80" class="cls-1" d="M697.539,216.73a1.525,1.525,0,0,0,0-2.158,1.542,1.542,0,0,0-2.172,0,1.523,1.523,0,0,0,1.086,2.6A1.5,1.5,0,0,0,697.539,216.73Z" transform="translate(-694.92 -214.125)"/>
    </g>
    <g id="Gruppe_90" data-name="Gruppe 90" transform="translate(768.667 268.249)">
      <path id="Pfad_81" data-name="Pfad 81" class="cls-1" d="M698.636,214.98a1.515,1.515,0,0,0,1.53-1.529,1.542,1.542,0,0,0-.444-1.072,1.531,1.531,0,1,0-1.086,2.6Z" transform="translate(-697.107 -211.942)"/>
    </g>
    <g id="Gruppe_91" data-name="Gruppe 91" transform="translate(758.046 227.954)">
      <path id="Pfad_82" data-name="Pfad 82" class="cls-1" d="M695.687,205.243a1.526,1.526,0,0,0-.458,1.091,1.6,1.6,0,0,0,.458,1.086,1.564,1.564,0,0,0,1.076.444,1.541,1.541,0,0,0,1.081-.467,1.471,1.471,0,0,0,.444-1.063,1.5,1.5,0,0,0-.444-1.091A1.578,1.578,0,0,0,695.687,205.243Z" transform="translate(-695.229 -204.817)"/>
    </g>
    <g id="Gruppe_92" data-name="Gruppe 92" transform="translate(770.406 240.294)">
      <path id="Pfad_83" data-name="Pfad 83" class="cls-1" d="M697.861,207.445a1.52,1.52,0,0,0,0,2.153,1.537,1.537,0,0,0,1.086.462,1.539,1.539,0,0,0,1.086-2.615A1.542,1.542,0,0,0,697.861,207.445Z" transform="translate(-697.414 -206.998)"/>
    </g>
    <g id="Gruppe_93" data-name="Gruppe 93" transform="translate(764.235 234.106)">
      <path id="Pfad_84" data-name="Pfad 84" class="cls-1" d="M696.76,206.351a1.539,1.539,0,0,0,1.086,2.62,1.535,1.535,0,1,0-1.086-2.62Z" transform="translate(-696.324 -205.904)"/>
    </g>
    <g id="Gruppe_94" data-name="Gruppe 94" transform="translate(776.591 246.501)">
      <path id="Pfad_85" data-name="Pfad 85" class="cls-1" d="M700.038,211.136a1.514,1.514,0,0,0,1.086-.462,1.523,1.523,0,0,0,0-2.149,1.587,1.587,0,0,0-2.172,0,1.515,1.515,0,0,0-.444,1.081,1.572,1.572,0,0,0,1.53,1.529Z" transform="translate(-698.508 -208.096)"/>
    </g>
    <g id="Gruppe_95" data-name="Gruppe 95" transform="translate(765.969 216.341)">
      <path id="Pfad_86" data-name="Pfad 86" class="cls-1" d="M697.087,203.839a1.5,1.5,0,0,0,0,2.158,1.5,1.5,0,0,0,2.158,0,1.534,1.534,0,0,0,0-2.158A1.588,1.588,0,0,0,697.087,203.839Z" transform="translate(-696.63 -203.416)"/>
    </g>
    <g id="Gruppe_96" data-name="Gruppe 96" transform="translate(772.163 226.188)">
      <path id="Pfad_87" data-name="Pfad 87" class="cls-1" d="M698.173,204.951a1.525,1.525,0,0,0,0,2.158,1.5,1.5,0,0,0,2.158,0,1.526,1.526,0,1,0-2.158-2.158Z" transform="translate(-697.725 -204.504)"/>
    </g>
    <g id="Gruppe_97" data-name="Gruppe 97" transform="translate(778.346 232.368)">
      <path id="Pfad_88" data-name="Pfad 88" class="cls-1" d="M700.336,208.647a1.487,1.487,0,0,0,1.086-.444,1.526,1.526,0,1,0-2.153,0A1.446,1.446,0,0,0,700.336,208.647Z" transform="translate(-698.819 -205.597)"/>
    </g>
    <g id="Gruppe_98" data-name="Gruppe 98" transform="translate(788.22 238.569)">
      <path id="Pfad_89" data-name="Pfad 89" class="cls-1" d="M701.428,209.727a1.526,1.526,0,0,0,1.086-2.6,1.582,1.582,0,0,0-2.172,0,1.557,1.557,0,0,0-.43,1.09,1.471,1.471,0,0,0,.444,1.063A1.488,1.488,0,0,0,701.428,209.727Z" transform="translate(-699.912 -206.694)"/>
    </g>
    <g id="Gruppe_99" data-name="Gruppe 99" transform="translate(773.911 209.857)">
      <path id="Pfad_90" data-name="Pfad 90" class="cls-1" d="M699.563,205.047a1.458,1.458,0,0,0,1.072-.444,1.494,1.494,0,0,0,.462-1.086,1.521,1.521,0,0,0-.462-1.077,1.568,1.568,0,0,0-2.153,0,1.489,1.489,0,0,0-.448,1.077,1.522,1.522,0,0,0,1.529,1.529Z" transform="translate(-698.034 -202.013)"/>
    </g>
    <g id="Gruppe_100" data-name="Gruppe 100" transform="translate(780.086 214.89)">
      <path id="Pfad_91" data-name="Pfad 91" class="cls-1" d="M700.646,206.154a1.5,1.5,0,0,0,1.086-.444,1.526,1.526,0,1,0-2.158,0A1.5,1.5,0,0,0,700.646,206.154Z" transform="translate(-699.126 -203.102)"/>
    </g>
    <g id="Gruppe_101" data-name="Gruppe 101" transform="translate(789.64 224.427)">
      <path id="Pfad_92" data-name="Pfad 92" class="cls-1" d="M701.738,207.252a1.478,1.478,0,0,0,1.086-.439,1.531,1.531,0,0,0,0-2.162,1.5,1.5,0,0,0-2.158,0,1.531,1.531,0,0,0,0,2.162A1.469,1.469,0,0,0,701.738,207.252Z" transform="translate(-700.219 -204.193)"/>
    </g>
    <g id="Gruppe_102" data-name="Gruppe 102" transform="translate(794.694 230.645)">
      <path id="Pfad_93" data-name="Pfad 93" class="cls-1" d="M702.847,208.321a1.476,1.476,0,0,0,1.067-.439,1.532,1.532,0,0,0,.462-1.086,1.485,1.485,0,0,0-.462-1.072,1.564,1.564,0,0,0-2.158,0,1.469,1.469,0,0,0-.444,1.072,1.516,1.516,0,0,0,.444,1.086A1.484,1.484,0,0,0,702.847,208.321Z" transform="translate(-701.313 -205.293)"/>
    </g>
    <g id="Gruppe_103" data-name="Gruppe 103" transform="translate(691.722 292.034)">
      <path id="Pfad_94" data-name="Pfad 94" class="cls-1" d="M684.346,216.573a1.615,1.615,0,0,0-.448,1.086,1.534,1.534,0,1,0,3.068,0,1.614,1.614,0,0,0-.448-1.086A1.6,1.6,0,0,0,684.346,216.573Z" transform="translate(-683.898 -216.147)"/>
    </g>
    <g id="Gruppe_104" data-name="Gruppe 104" transform="translate(706.325 307.745)">
      <path id="Pfad_95" data-name="Pfad 95" class="cls-1" d="M686.531,218.779a1.525,1.525,0,0,0,1.086,2.611,1.558,1.558,0,0,0,1.086-.439,1.536,1.536,0,0,0-2.172-2.172Z" transform="translate(-686.084 -218.328)"/>
    </g>
    <g id="Gruppe_105" data-name="Gruppe 105" transform="translate(696.771 298.193)">
      <path id="Pfad_96" data-name="Pfad 96" class="cls-1" d="M685.441,217.682a1.534,1.534,0,0,0,0,2.172,1.551,1.551,0,0,0,2.172,0,1.536,1.536,0,0,0-2.172-2.172Z" transform="translate(-684.99 -217.235)"/>
    </g>
    <g id="Gruppe_106" data-name="Gruppe 106" transform="translate(712.51 312.819)">
      <path id="Pfad_97" data-name="Pfad 97" class="cls-1" d="M687.635,219.849a1.5,1.5,0,0,0-.458,1.086,1.533,1.533,0,0,0,2.616,1.081,1.529,1.529,0,0,0-2.158-2.167Z" transform="translate(-687.178 -219.426)"/>
    </g>
    <g id="Gruppe_107" data-name="Gruppe 107" transform="translate(698.201 284.109)">
      <path id="Pfad_98" data-name="Pfad 98" class="cls-1" d="M685.757,215.172a1.505,1.505,0,0,0-.458,1.086,1.573,1.573,0,0,0,.458,1.091,1.529,1.529,0,0,0,2.158-.014,1.54,1.54,0,0,0,0-2.163A1.579,1.579,0,0,0,685.757,215.172Z" transform="translate(-685.3 -214.746)"/>
    </g>
    <g id="Gruppe_108" data-name="Gruppe 108" transform="translate(708.067 290.27)">
      <path id="Pfad_99" data-name="Pfad 99" class="cls-1" d="M686.853,216.281a1.51,1.51,0,0,0,0,2.172,1.536,1.536,0,0,0,1.072.448,1.568,1.568,0,0,0,1.086-.448,1.542,1.542,0,0,0,0-2.172A1.526,1.526,0,0,0,686.853,216.281Z" transform="translate(-686.392 -215.834)"/>
    </g>
    <g id="Gruppe_109" data-name="Gruppe 109" transform="translate(714.245 296.452)">
      <path id="Pfad_100" data-name="Pfad 100" class="cls-1" d="M689.021,219.994a1.543,1.543,0,0,0,1.086-2.62,1.542,1.542,0,0,0-2.172,0,1.512,1.512,0,0,0,0,2.153A1.534,1.534,0,0,0,689.021,219.994Z" transform="translate(-687.485 -216.927)"/>
    </g>
    <g id="Gruppe_110" data-name="Gruppe 110" transform="translate(720.434 306.341)">
      <path id="Pfad_101" data-name="Pfad 101" class="cls-1" d="M690.108,221.072a1.491,1.491,0,0,0,1.086-.462,1.476,1.476,0,0,0,.444-1.072,1.534,1.534,0,0,0-.444-1.091,1.53,1.53,0,0,0-2.615,1.091,1.546,1.546,0,0,0,1.529,1.534Z" transform="translate(-688.579 -218.024)"/>
    </g>
    <g id="Gruppe_111" data-name="Gruppe 111" transform="translate(709.813 276.181)">
      <path id="Pfad_102" data-name="Pfad 102" class="cls-1" d="M687.158,213.77a1.515,1.515,0,0,0-.457,1.09,1.58,1.58,0,0,0,1.529,1.534,1.52,1.52,0,0,0,1.086-.467,1.458,1.458,0,0,0,.443-1.067,1.5,1.5,0,0,0-.443-1.09A1.579,1.579,0,0,0,687.158,213.77Z" transform="translate(-686.701 -213.344)"/>
    </g>
    <g id="Gruppe_112" data-name="Gruppe 112" transform="translate(716.007 282.342)">
      <path id="Pfad_103" data-name="Pfad 103" class="cls-1" d="M689.315,217.5a1.505,1.505,0,0,0,1.086-.462,1.526,1.526,0,1,0-2.158,0A1.475,1.475,0,0,0,689.315,217.5Z" transform="translate(-687.796 -214.432)"/>
    </g>
    <g id="Gruppe_113" data-name="Gruppe 113" transform="translate(722.189 288.527)">
      <path id="Pfad_104" data-name="Pfad 104" class="cls-1" d="M690.408,218.589a1.534,1.534,0,1,0-1.072-.453A1.5,1.5,0,0,0,690.408,218.589Z" transform="translate(-688.889 -215.526)"/>
    </g>
    <g id="Gruppe_114" data-name="Gruppe 114" transform="translate(728.353 294.734)">
      <path id="Pfad_105" data-name="Pfad 105" class="cls-1" d="M691.513,219.663a1.529,1.529,0,0,0,1.086-.457,1.534,1.534,0,0,0,0-2.158,1.588,1.588,0,0,0-2.158,0,1.537,1.537,0,0,0,1.072,2.615Z" transform="translate(-689.979 -216.624)"/>
    </g>
    <g id="Gruppe_115" data-name="Gruppe 115" transform="translate(728.054 246.164)">
      <path id="Pfad_106" data-name="Pfad 106" class="cls-1" d="M722.239,223.03l-15.151-15.147a1.531,1.531,0,0,0-2.162,0L689.773,223.03a1.537,1.537,0,0,0,0,2.167l15.152,15.156a1.543,1.543,0,0,0,1.086.444,1.522,1.522,0,0,0,1.077-.444L722.239,225.2A1.528,1.528,0,0,0,722.239,223.03ZM706.011,237.1l-12.989-12.984,12.989-12.984L719,224.116Z" transform="translate(-689.326 -207.436)"/>
    </g>
  </g>
</svg>
