<svg xmlns="http://www.w3.org/2000/svg" width="122.2" height="120.961" viewBox="0 0 122.2 120.961">
  <defs>
    <style>
      .cls-1 {
        fill: #ff6f61;
      }
    </style>
  </defs>
  <g id="Gruppe_157" data-name="Gruppe 157" transform="translate(-88.187 -37.624)">
    <g id="Gruppe_141" data-name="Gruppe 141" transform="translate(149.203 141.981)">
      <path id="Pfad_126" data-name="Pfad 126" class="cls-1" d="M96.419,39.478H91.128a1.838,1.838,0,0,0-1.857,1.857,1.863,1.863,0,0,0,1.857,1.8h5.291a1.863,1.863,0,0,0,1.857-1.8A1.838,1.838,0,0,0,96.419,39.478Z" transform="translate(-89.271 -39.478)"/>
    </g>
    <g id="Gruppe_142" data-name="Gruppe 142" transform="translate(133.329 141.981)">
      <path id="Pfad_127" data-name="Pfad 127" class="cls-1" d="M96.138,39.478H90.847a1.8,1.8,0,0,0-1.857,1.857,1.826,1.826,0,0,0,1.857,1.8h5.291A1.863,1.863,0,0,0,98,41.335,1.838,1.838,0,0,0,96.138,39.478Z" transform="translate(-88.989 -39.478)"/>
    </g>
    <g id="Gruppe_143" data-name="Gruppe 143" transform="translate(101.527 141.981)">
      <path id="Pfad_128" data-name="Pfad 128" class="cls-1" d="M95.572,39.478H90.337a1.851,1.851,0,0,0-1.914,1.857,1.877,1.877,0,0,0,1.914,1.8h5.235a1.915,1.915,0,0,0,1.914-1.8A1.885,1.885,0,0,0,95.572,39.478Z" transform="translate(-88.424 -39.478)"/>
    </g>
    <g id="Gruppe_144" data-name="Gruppe 144" transform="translate(117.457 141.981)">
      <path id="Pfad_129" data-name="Pfad 129" class="cls-1" d="M95.855,39.478H90.564a1.838,1.838,0,0,0-1.857,1.857,1.863,1.863,0,0,0,1.857,1.8h5.291a1.863,1.863,0,0,0,1.857-1.8A1.838,1.838,0,0,0,95.855,39.478Z" transform="translate(-88.707 -39.478)"/>
    </g>
    <g id="Gruppe_145" data-name="Gruppe 145" transform="translate(181.005 141.981)">
      <path id="Pfad_130" data-name="Pfad 130" class="cls-1" d="M89.836,41.335a1.863,1.863,0,0,0,1.857,1.8h5.291a1.863,1.863,0,0,0,1.857-1.8,1.838,1.838,0,0,0-1.857-1.857H91.693A1.838,1.838,0,0,0,89.836,41.335Z" transform="translate(-89.836 -39.478)"/>
    </g>
    <g id="Gruppe_146" data-name="Gruppe 146" transform="translate(165.132 141.981)">
      <path id="Pfad_131" data-name="Pfad 131" class="cls-1" d="M96.7,39.478H91.355a1.792,1.792,0,0,0-1.8,1.857,1.814,1.814,0,0,0,1.8,1.8H96.7a1.814,1.814,0,0,0,1.8-1.8A1.792,1.792,0,0,0,96.7,39.478Z" transform="translate(-89.554 -39.478)"/>
    </g>
    <g id="Gruppe_147" data-name="Gruppe 147" transform="translate(117.457 97.457)">
      <path id="Pfad_132" data-name="Pfad 132" class="cls-1" d="M90.564,42.458h5.291A1.874,1.874,0,0,0,97.713,40.6a1.923,1.923,0,0,0-1.857-1.914H90.564A1.923,1.923,0,0,0,88.707,40.6,1.874,1.874,0,0,0,90.564,42.458Z" transform="translate(-88.707 -38.687)"/>
    </g>
    <g id="Gruppe_148" data-name="Gruppe 148" transform="translate(181.005 97.457)">
      <path id="Pfad_133" data-name="Pfad 133" class="cls-1" d="M91.693,42.458h5.291A1.874,1.874,0,0,0,98.842,40.6a1.923,1.923,0,0,0-1.857-1.914H91.693A1.923,1.923,0,0,0,89.836,40.6,1.874,1.874,0,0,0,91.693,42.458Z" transform="translate(-89.836 -38.687)"/>
    </g>
    <g id="Gruppe_149" data-name="Gruppe 149" transform="translate(101.527 97.457)">
      <path id="Pfad_134" data-name="Pfad 134" class="cls-1" d="M90.337,42.458h5.235A1.923,1.923,0,0,0,97.486,40.6a1.973,1.973,0,0,0-1.914-1.914H90.337A1.934,1.934,0,0,0,88.424,40.6,1.886,1.886,0,0,0,90.337,42.458Z" transform="translate(-88.424 -38.687)"/>
    </g>
    <g id="Gruppe_150" data-name="Gruppe 150" transform="translate(133.329 97.457)">
      <path id="Pfad_135" data-name="Pfad 135" class="cls-1" d="M96.138,38.687H90.847A1.886,1.886,0,0,0,88.989,40.6a1.838,1.838,0,0,0,1.857,1.858h5.291A1.874,1.874,0,0,0,98,40.6,1.923,1.923,0,0,0,96.138,38.687Z" transform="translate(-88.989 -38.687)"/>
    </g>
    <g id="Gruppe_151" data-name="Gruppe 151" transform="translate(165.076 97.457)">
      <path id="Pfad_136" data-name="Pfad 136" class="cls-1" d="M91.411,42.458h5.347a1.826,1.826,0,0,0,1.8-1.858,1.876,1.876,0,0,0-1.8-1.914H91.411A1.923,1.923,0,0,0,89.553,40.6,1.874,1.874,0,0,0,91.411,42.458Z" transform="translate(-89.553 -38.687)"/>
    </g>
    <g id="Gruppe_152" data-name="Gruppe 152" transform="translate(149.203 97.457)">
      <path id="Pfad_137" data-name="Pfad 137" class="cls-1" d="M96.419,38.687H91.128A1.923,1.923,0,0,0,89.271,40.6a1.874,1.874,0,0,0,1.857,1.858h5.291A1.874,1.874,0,0,0,98.277,40.6,1.923,1.923,0,0,0,96.419,38.687Z" transform="translate(-89.271 -38.687)"/>
    </g>
    <g id="Gruppe_153" data-name="Gruppe 153" transform="translate(88.187 37.624)">
      <path id="Pfad_138" data-name="Pfad 138" class="cls-1" d="M206.221,105.844h-2.87V86.369a2.333,2.333,0,0,0-.507-1.295,2.076,2.076,0,0,0-1.351-.563h-7.148V71.622a1.886,1.886,0,0,0-1.857-1.914H178.81a21.45,21.45,0,0,0,2.646-10.357,21.637,21.637,0,0,0-41.99-7.43,21.717,21.717,0,0,0-34.11,17.73v.056h-7.88A9.333,9.333,0,0,0,88.187,79v70.359a9.249,9.249,0,0,0,9.288,9.231H194.12a9.237,9.237,0,0,0,9.231-9.231V137.365h2.87a4.2,4.2,0,0,0,4.166-4.222V110.009A4.156,4.156,0,0,0,206.221,105.844ZM190.63,73.423v8.95h0v2.139H142.786a20.839,20.839,0,0,0,4.616-7.542,21.034,21.034,0,0,0,12.383,4.053,21.7,21.7,0,0,0,16.436-7.6Zm-30.846-32.14a17.984,17.984,0,0,1,0,35.968,17.478,17.478,0,0,1-11.37-4.109,24.3,24.3,0,0,0,.281-3.49A21.5,21.5,0,0,0,142.5,54.51,18,18,0,0,1,159.785,41.282ZM127.025,51.7A17.954,17.954,0,0,1,137.1,84.511H116.95A17.954,17.954,0,0,1,127.025,51.7ZM97.475,73.423h8.218a21.694,21.694,0,0,0,5.573,11.089H97.475a5.544,5.544,0,1,1,0-11.089Zm102.161,68.558h-.9a1.838,1.838,0,0,0-1.858,1.857,1.864,1.864,0,0,0,1.858,1.8h.9v3.715a5.537,5.537,0,0,1-5.516,5.573H97.475a5.549,5.549,0,0,1-5.573-5.573v-3.715h.9a1.863,1.863,0,0,0,1.857-1.8,1.838,1.838,0,0,0-1.857-1.857h-.9V101.229h.9a1.874,1.874,0,0,0,1.857-1.858A1.923,1.923,0,0,0,92.8,97.457h-.9V86.312a8.686,8.686,0,0,0,5.573,1.914H199.636v9.231h-.9a1.924,1.924,0,0,0-1.858,1.914,1.874,1.874,0,0,0,1.858,1.858h.9v4.615h-14.3a15.76,15.76,0,0,0,0,31.521h14.3Zm7.036-8.837a.493.493,0,0,1-.451.507H185.339a12.074,12.074,0,0,1,0-24.147h20.882a.493.493,0,0,1,.451.506Z" transform="translate(-88.187 -37.624)"/>
    </g>
    <g id="Gruppe_154" data-name="Gruppe 154" transform="translate(178.585 115.075)">
      <path id="Pfad_139" data-name="Pfad 139" class="cls-1" d="M96.266,39a6.473,6.473,0,0,0,0,12.946,6.473,6.473,0,1,0,0-12.946Zm0,9.288a2.786,2.786,0,0,1,0-5.573,2.786,2.786,0,1,1,0,5.573Z" transform="translate(-89.793 -39)"/>
    </g>
    <g id="Gruppe_155" data-name="Gruppe 155" transform="translate(119.989 55.805)">
      <path id="Pfad_140" data-name="Pfad 140" class="cls-1" d="M95.788,59.336a3.109,3.109,0,0,1-3.321-2.871,1.859,1.859,0,0,0-3.715,0,6.7,6.7,0,0,0,5.179,6.361v.957a1.857,1.857,0,0,0,3.715,0v-.957a6.7,6.7,0,0,0,5.178-6.361c0-3.94-2.758-6.529-7.036-6.529-2.251,0-3.321-.844-3.321-2.871a3.145,3.145,0,0,1,3.321-2.814,3.108,3.108,0,0,1,3.321,2.814,1.858,1.858,0,1,0,3.715,0,6.678,6.678,0,0,0-5.178-6.248V39.8a1.857,1.857,0,0,0-3.715,0v1.013a6.678,6.678,0,0,0-5.179,6.248c0,4,2.758,6.642,7.036,6.642,2.251,0,3.321.844,3.321,2.758A3.075,3.075,0,0,1,95.788,59.336Z" transform="translate(-88.752 -37.947)"/>
    </g>
    <g id="Gruppe_156" data-name="Gruppe 156" transform="translate(152.805 45.504)">
      <path id="Pfad_141" data-name="Pfad 141" class="cls-1" d="M96.315,59.153a3.148,3.148,0,0,1-3.321-2.871,1.838,1.838,0,0,0-1.858-1.857,1.792,1.792,0,0,0-1.8,1.857,6.637,6.637,0,0,0,5.123,6.3V63.6a1.863,1.863,0,0,0,1.857,1.8,1.826,1.826,0,0,0,1.857-1.8V62.587a6.69,6.69,0,0,0,5.179-6.3c0-4.053-2.758-6.529-7.036-6.529-2.251,0-3.321-.957-3.321-2.871a3.148,3.148,0,0,1,3.321-2.871,3.112,3.112,0,0,1,3.321,2.871,1.857,1.857,0,1,0,3.715,0,6.64,6.64,0,0,0-5.179-6.3v-.957a1.8,1.8,0,0,0-1.857-1.858,1.838,1.838,0,0,0-1.857,1.858v.957a6.588,6.588,0,0,0-5.123,6.3c0,3.94,2.7,6.53,6.98,6.53,2.251,0,3.321.957,3.321,2.871A3.112,3.112,0,0,1,96.315,59.153Z" transform="translate(-89.335 -37.764)"/>
    </g>
  </g>
</svg>
