<svg xmlns="http://www.w3.org/2000/svg" width="130.477" height="103.4" viewBox="0 0 130.477 103.4">
  <defs>
    <style>
      .cls-1 {
        fill: #ff6f61;
      }
    </style>
  </defs>
  <g id="Gruppe_137" data-name="Gruppe 137" transform="translate(-75.538 -47.449)">
    <g id="Gruppe_131" data-name="Gruppe 131" transform="translate(75.538 47.449)">
      <path id="Pfad_120" data-name="Pfad 120" class="cls-1" d="M204.834,89.686a5.84,5.84,0,0,0-4.807-2.4h-2.4l2.524-13.759a6.465,6.465,0,0,0-1.382-5.167,6.19,6.19,0,0,0-4.806-2.223h-3.906V55.38a7.949,7.949,0,0,0-7.87-7.931H83.469a7.962,7.962,0,0,0-7.931,7.931v93.487l.06.12.12.6v.06l.18.36.18.18.06.06.6.361.12.12.661.12H188.071a2,2,0,0,0,1.923-1.442l15.8-54.494A6.018,6.018,0,0,0,204.834,89.686ZM83.469,51.474h98.714a3.9,3.9,0,0,1,3.905,3.906V66.134H93.923a7.877,7.877,0,0,0-7.811,6.729l-4.025,40.916A2.062,2.062,0,0,0,83.83,116h.24a1.913,1.913,0,0,0,1.923-1.8l4.026-40.856a4,4,0,0,1,3.906-3.3H193.959a2.341,2.341,0,0,1,1.8.841,2.41,2.41,0,0,1,.48,1.923L193.6,87.283H162.176a2.166,2.166,0,0,0-1.2.36L145.113,99.359H99.03a8.083,8.083,0,0,0-7.51,5.227L79.5,137.632V55.38A3.95,3.95,0,0,1,83.469,51.474ZM202.01,93.832l-15.441,53.052H80.344l14.9-40.916a4.011,4.011,0,0,1,3.785-2.644h46.744a1.849,1.849,0,0,0,1.141-.361l15.922-11.716h37.191a2.022,2.022,0,0,1,1.622.781A1.986,1.986,0,0,1,202.01,93.832Z" transform="translate(-75.538 -47.449)"/>
    </g>
    <g id="Gruppe_132" data-name="Gruppe 132" transform="translate(98.91 87.283)">
      <path id="Pfad_121" data-name="Pfad 121" class="cls-1" d="M77.909,52.077h42.178a1.984,1.984,0,0,0,0-3.965H77.909a1.983,1.983,0,0,0,0,3.965Z" transform="translate(-75.927 -48.112)"/>
    </g>
    <g id="Gruppe_133" data-name="Gruppe 133" transform="translate(100.111 76.769)">
      <path id="Pfad_122" data-name="Pfad 122" class="cls-1" d="M77.93,51.963h27.037a1.949,1.949,0,0,0,1.923-1.983,2,2,0,0,0-1.923-2.043H77.93a2.053,2.053,0,0,0-1.983,2.043A2,2,0,0,0,77.93,51.963Z" transform="translate(-75.947 -47.937)"/>
    </g>
    <g id="Gruppe_134" data-name="Gruppe 134" transform="translate(137.662 76.769)">
      <path id="Pfad_123" data-name="Pfad 123" class="cls-1" d="M78.555,51.963h40.856a2,2,0,0,0,1.982-1.983,2.053,2.053,0,0,0-1.982-2.043H78.555a2.053,2.053,0,0,0-1.983,2.043A2,2,0,0,0,78.555,51.963Z" transform="translate(-76.572 -47.937)"/>
    </g>
    <g id="Gruppe_135" data-name="Gruppe 135" transform="translate(157.429 97.677)">
      <path id="Pfad_124" data-name="Pfad 124" class="cls-1" d="M92.763,48.285a15.8,15.8,0,1,0,15.8,15.8A15.872,15.872,0,0,0,92.763,48.285Zm0,27.638A11.836,11.836,0,1,1,104.6,64.087,11.872,11.872,0,0,1,92.763,75.923Z" transform="translate(-76.901 -48.285)"/>
    </g>
    <g id="Gruppe_136" data-name="Gruppe 136" transform="translate(165.36 105.684)">
      <path id="Pfad_125" data-name="Pfad 125" class="cls-1" d="M90.852,54.29H87.367l.661-3.485a2,2,0,0,0-1.562-2.343,2.028,2.028,0,0,0-2.343,1.562l-.781,4.266H79.016a1.912,1.912,0,0,0-1.983,1.923A2,2,0,0,0,79.016,58.2H82.5L81.84,61.68A2.014,2.014,0,0,0,83.4,63.963l.421.06A1.982,1.982,0,0,0,85.745,62.4l.841-4.206h4.266a1.962,1.962,0,0,0,1.982-1.983A1.878,1.878,0,0,0,90.852,54.29Z" transform="translate(-77.033 -48.418)"/>
    </g>
  </g>
</svg>
