<svg xmlns="http://www.w3.org/2000/svg" width="45.412" height="45.412" viewBox="0 0 45.412 45.412">
  <g id="instagram_icon" data-name="instagram icon" transform="translate(0.75 0.75)">
    <g id="Gruppe_19" data-name="Gruppe 19" transform="translate(10.448 10.448)">
      <path id="Pfad_15" data-name="Pfad 15" d="M446.271,142.178a5.909,5.909,0,1,0,5.909,5.909,5.909,5.909,0,0,0-5.909-5.909m0,9.745a3.836,3.836,0,1,1,3.836-3.836,3.836,3.836,0,0,1-3.836,3.836" transform="translate(-434.764 -136.579)" fill="#FF6F61"/>
      <path id="Pfad_16" data-name="Pfad 16" d="M452.8,142.095a1.381,1.381,0,1,1-1.381-1.381,1.381,1.381,0,0,1,1.381,1.381" transform="translate(-433.768 -136.729)" fill="#FF6F61"/>
    </g>
    <g id="instagramicon-white-round">
      <path id="Pfad_13" data-name="Pfad 13" d="M448.645,172.416h0a21.955,21.955,0,0,1-21.955-21.955h0a21.955,21.955,0,0,1,21.955-21.956h0A21.956,21.956,0,0,1,470.6,150.461h0A21.956,21.956,0,0,1,448.645,172.416Z" transform="translate(-426.69 -128.505)" fill="none" stroke="#FF6F61" stroke-miterlimit="10" stroke-width="1.5"/>
      <path id="Pfad_14" data-name="Pfad 14" d="M446.793,139.174c3.073,0,3.437.012,4.651.067a6.375,6.375,0,0,1,2.136.4,3.8,3.8,0,0,1,2.184,2.184,6.375,6.375,0,0,1,.4,2.136c.055,1.214.067,1.578.067,4.651s-.012,3.437-.067,4.65a6.377,6.377,0,0,1-.4,2.137,3.8,3.8,0,0,1-2.184,2.184,6.354,6.354,0,0,1-2.136.4c-1.214.055-1.577.067-4.651.067s-3.437-.012-4.65-.067a6.363,6.363,0,0,1-2.137-.4,3.812,3.812,0,0,1-2.184-2.184,6.355,6.355,0,0,1-.4-2.137c-.055-1.213-.067-1.577-.067-4.65s.012-3.437.067-4.651a6.353,6.353,0,0,1,.4-2.136,3.812,3.812,0,0,1,2.184-2.184,6.384,6.384,0,0,1,2.137-.4c1.213-.055,1.577-.067,4.65-.067m0-2.073c-3.126,0-3.517.014-4.745.069a8.455,8.455,0,0,0-2.794.535,5.885,5.885,0,0,0-3.365,3.366,8.425,8.425,0,0,0-.535,2.794c-.056,1.228-.069,1.619-.069,4.745s.013,3.517.069,4.745a8.426,8.426,0,0,0,.535,2.794,5.885,5.885,0,0,0,3.365,3.366,8.484,8.484,0,0,0,2.794.535c1.228.055,1.619.068,4.745.068s3.517-.013,4.745-.068a8.484,8.484,0,0,0,2.794-.535,5.891,5.891,0,0,0,3.366-3.366,8.455,8.455,0,0,0,.535-2.794c.056-1.227.069-1.619.069-4.745s-.013-3.517-.069-4.745a8.455,8.455,0,0,0-.535-2.794,5.891,5.891,0,0,0-3.366-3.366,8.455,8.455,0,0,0-2.794-.535c-1.228-.055-1.619-.069-4.745-.069" transform="translate(-424.838 -126.653)" fill="#FF6F61"/>
    </g>
  </g>
</svg>
