<svg xmlns="http://www.w3.org/2000/svg" width="16.9" height="23.513" viewBox="0 0 16.9 23.513">
  <defs>
    <style>
      .cls-1 {
        fill: #e1b87f;
      }
    </style>
  </defs>
  <g id="Map_Pin_Outlined" data-name="Map Pin Outlined" transform="translate(-292.5 -31.82)">
    <path id="Pfad_21" data-name="Pfad 21" class="cls-1" d="M309.4,40.251a8.45,8.45,0,0,0-16.9,0,8.339,8.339,0,0,0,1.389,4.617h0l.04.058.015.021,2.374,3.525,1.972,2.918.776,1.148h0l1.888,2.793,1.887-2.794h0l1.642-2.431.935-1.385v0l.195-.288v0l2.358-3.5.015-.021.03-.045h0A8.342,8.342,0,0,0,309.4,40.251Zm-2.614,3.805-.029.046-.005.008-2.343,3.476-.029.043-.184.271-.935,1.385-1.641,2.431-.669.991-.67-.991-.776-1.148-1.971-2.916-2.386-3.542c-.01-.018-.021-.035-.033-.052a6.888,6.888,0,0,1-1.145-3.807,6.98,6.98,0,0,1,13.961,0A6.879,6.879,0,0,1,306.786,44.056Z" transform="translate(0 0)"/>
    <path id="Pfad_22" data-name="Pfad 22" class="cls-1" d="M302.395,36.215a4.552,4.552,0,1,0,4.559,4.552A4.56,4.56,0,0,0,302.395,36.215Zm0,7.634a3.082,3.082,0,1,1,3.09-3.082A3.085,3.085,0,0,1,302.395,43.849Z" transform="translate(-1.415 -1.166)"/>
  </g>
</svg>
