<svg xmlns="http://www.w3.org/2000/svg" width="17.9" height="17.9" viewBox="0 0 17.9 17.9">
  <defs>
    <style>
      .cls-1 {
        fill: #e1b87f;
      }
    </style>
  </defs>
  <g id="Phone_Outlined" data-name="Phone Outlined" transform="translate(-160 -33.32)">
    <path id="Pfad_18" data-name="Pfad 18" class="cls-1" d="M184.252,41.281a14.993,14.993,0,0,0-7.955-7.917.573.573,0,0,0-.754.329.6.6,0,0,0,.319.778,13.824,13.824,0,0,1,7.334,7.3.579.579,0,0,0,.529.353.559.559,0,0,0,.237-.053A.6.6,0,0,0,184.252,41.281Z" transform="translate(-6.403)"/>
    <path id="Pfad_19" data-name="Pfad 19" class="cls-1" d="M175.349,39.931a8.376,8.376,0,0,1,4.449,4.417.559.559,0,0,0,.511.34.542.542,0,0,0,.229-.05.584.584,0,0,0,.281-.762,9.506,9.506,0,0,0-5.049-5.013.554.554,0,0,0-.729.318A.582.582,0,0,0,175.349,39.931Z" transform="translate(-6.197 -2.272)"/>
    <path id="Pfad_20" data-name="Pfad 20" class="cls-1" d="M174.807,44.835a1.364,1.364,0,0,0-2.063,0c-.482.478-.964.956-1.438,1.443a.328.328,0,0,1-.231.124.338.338,0,0,1-.166-.052c-.312-.17-.644-.308-.944-.494a14.956,14.956,0,0,1-3.607-3.283,8.525,8.525,0,0,1-1.293-2.071.3.3,0,0,1,.073-.381c.482-.466.953-.944,1.427-1.423a1.37,1.37,0,0,0,0-2.112c-.377-.381-.754-.754-1.131-1.134s-.774-.782-1.167-1.167a1.373,1.373,0,0,0-2.063,0c-.486.478-.952.968-1.447,1.438a2.348,2.348,0,0,0-.738,1.585,6.714,6.714,0,0,0,.519,2.89,17.538,17.538,0,0,0,3.117,5.192,19.283,19.283,0,0,0,6.387,5,9.227,9.227,0,0,0,3.538,1.029c.076,0,.152.006.227.006a2.524,2.524,0,0,0,2-.853c.414-.462.88-.883,1.318-1.325a1.379,1.379,0,0,0,.008-2.1Q175.971,45.988,174.807,44.835Zm1.477,3.587c-.144.146-.292.289-.44.433-.3.3-.619.6-.92.937a1.364,1.364,0,0,1-1.122.461c-.053,0-.107,0-.163,0a7.958,7.958,0,0,1-3.089-.913,18.2,18.2,0,0,1-6-4.7,16.3,16.3,0,0,1-2.916-4.848,5.525,5.525,0,0,1-.447-2.385,1.183,1.183,0,0,1,.376-.826c.305-.291.6-.588.9-.886.187-.19.375-.379.567-.568a.232.232,0,0,1,.417,0c.258.253.514.509.768.766l.386.387c.192.194.384.386.576.578s.37.37.557.559c.216.218.2.256,0,.458l-.2.2c-.4.406-.8.809-1.225,1.219a1.46,1.46,0,0,0-.325,1.666,9.554,9.554,0,0,0,1.465,2.358,16.058,16.058,0,0,0,3.9,3.538,7.364,7.364,0,0,0,.67.359c.112.055.224.11.317.16a1.5,1.5,0,0,0,.744.2,1.469,1.469,0,0,0,1.072-.479c.464-.475.935-.943,1.426-1.43a.225.225,0,0,1,.408,0q1.159,1.152,2.313,2.309C176.471,48.155,176.49,48.213,176.284,48.422Z" transform="translate(0 -0.206)"/>
  </g>
</svg>
